<svg width="390" height="140" viewBox="0 0 390 140" fill="none" xmlns="http://www.w3.org/2000/svg">
<g clip-path="url(#clip0_10341_21335)">
<rect width="390" height="140" rx="8" fill="#CCFF00"/>
<g clip-path="url(#clip1_10341_21335)">
<path d="M266.907 104.098C255.265 103.611 244.507 94.9012 241.071 82.0779C236.914 66.5657 245.047 50.9085 259.236 47.1065C261.696 46.4475 264.176 46.1879 266.617 46.2899C278.26 46.7766 289.018 55.4866 292.454 68.3098C296.611 83.822 288.477 99.4792 274.288 103.281C271.829 103.94 269.349 104.2 266.907 104.098Z" fill="#A0C900"/>
<path d="M278.086 103.441C292.275 99.6387 300.408 83.9815 296.251 68.4693L292.454 68.3098C296.611 83.822 288.477 99.4792 274.288 103.281L278.086 103.441Z" fill="#A0C900"/>
<path d="M296.251 68.4693C292.815 55.6461 282.057 46.9361 270.415 46.4495L266.628 46.2904C278.266 46.7816 289.019 55.4903 292.454 68.3098L296.251 68.4693Z" fill="#A0C900"/>
<path d="M270.705 104.257C273.146 104.359 275.626 104.1 278.086 103.441L274.288 103.281C271.829 103.94 269.349 104.2 266.907 104.098L270.705 104.257Z" fill="#A0C900"/>
<path d="M270.415 46.4495C267.973 46.3474 265.493 46.607 263.034 47.266L259.236 47.1065C261.696 46.4475 264.176 46.1879 266.617 46.2899L270.415 46.4495Z" fill="#A0C900"/>
<path d="M244.868 82.2374C248.303 95.0569 259.056 103.766 270.694 104.257L266.907 104.098C255.265 103.611 244.507 94.9012 241.071 82.0779L244.868 82.2374Z" fill="#A0C900"/>
<path d="M263.034 47.266C248.845 51.068 240.711 66.7252 244.868 82.2374L241.071 82.0779C236.914 66.5657 245.047 50.9085 259.236 47.1065L263.034 47.266Z" fill="#A0C900"/>
<path d="M277.88 102.519C264.289 106.161 249.903 97.0809 245.868 82.0201C241.833 66.9594 249.751 51.903 263.341 48.2614C276.931 44.6199 291.317 53.7 295.353 68.7607C299.388 83.8215 291.47 98.8778 277.88 102.519Z" fill="white" stroke="#F0FFB6" stroke-width="1.88596"/>
<ellipse cx="270.469" cy="75.2139" rx="21.1026" ry="23.0585" transform="rotate(165 270.469 75.2139)" fill="#8BAE00"/>
<path d="M275.827 94.9058C264.622 97.9079 253.064 91.1317 250.017 79.7603C246.97 68.3889 253.592 56.7414 264.797 53.7388C276.002 50.7365 287.56 57.5129 290.607 68.8843C293.654 80.2558 287.032 91.9034 275.827 94.9058Z" fill="#CCFF00" stroke="#8BAE00" stroke-width="0.546086"/>
<path d="M273.428 68.7011C273.033 67.6509 272.36 66.931 271.409 66.5414C270.697 66.2456 269.897 66.1572 269.008 66.2764C268.72 66.315 268.423 66.3753 268.117 66.4574C267.767 66.5511 267.443 66.6624 267.144 66.7911C266.692 66.9862 266.3 67.2214 265.967 67.4967C265.414 67.9537 265.037 68.474 264.835 69.0575C264.634 69.6411 264.614 70.2509 264.776 70.887C264.917 71.4139 265.15 71.8415 265.474 72.1695C265.805 72.4955 266.201 72.7425 266.661 72.9105C267.118 73.0703 267.607 73.1777 268.126 73.2327C268.38 73.2597 268.634 73.2795 268.886 73.2922C269.149 73.3053 269.411 73.3107 269.672 73.3084L270.844 73.312L272.016 73.3155C272.956 73.3019 273.883 73.3757 274.797 73.5369C275.718 73.696 276.579 73.9773 277.378 74.3808C278.185 74.7823 278.888 75.3398 279.486 76.0533C280.084 76.7668 280.53 77.6711 280.823 78.7663C281.22 80.2484 281.221 81.6471 280.825 82.9623C280.426 84.2693 279.652 85.4167 278.501 86.4046C277.554 87.213 276.36 87.8582 274.92 88.3402C274.618 88.4412 274.306 88.5349 273.982 88.6216C272.168 89.1076 270.512 89.225 269.012 88.9736C267.521 88.7202 266.243 88.1095 265.178 87.1416C264.121 86.1717 263.337 84.8549 262.826 83.1914L266.982 82.0779C267.278 82.9427 267.725 83.6084 268.322 84.0751C268.919 84.5418 269.609 84.8246 270.392 84.9237C270.908 84.987 271.443 84.9794 271.997 84.901C272.292 84.8593 272.593 84.7974 272.899 84.7153C273.241 84.6237 273.562 84.5156 273.862 84.3913C274.366 84.1818 274.81 83.9261 275.193 83.624C275.81 83.1322 276.244 82.5658 276.495 81.9248C276.744 81.2756 276.776 80.5877 276.589 79.861C276.405 79.2043 276.081 78.7087 275.617 78.374C275.151 78.0312 274.564 77.8001 273.857 77.6807C273.303 77.5783 272.688 77.5142 272.012 77.4884C271.832 77.4815 271.648 77.4774 271.459 77.4759L270.034 77.4608L268.608 77.4456C266.544 77.425 264.809 77.0207 263.402 76.2327C262 75.4345 261.057 74.1296 260.571 72.3181C260.172 70.8277 260.194 69.4229 260.638 68.1038C261.089 66.7826 261.878 65.6403 263.002 64.677C263.879 63.9182 264.911 63.3223 266.099 62.8895C266.432 62.7681 266.777 62.6595 267.134 62.5638C267.413 62.489 267.689 62.4247 267.961 62.3708C269.303 62.1054 270.561 62.0942 271.735 62.3371C273.153 62.6191 274.366 63.2162 275.375 64.1284C276.382 65.0324 277.088 66.1936 277.493 67.612L273.428 68.7011Z" fill="black"/>
<rect x="265.465" y="60.2905" width="2.17157" height="32.1265" transform="rotate(-15 265.465 60.2905)" fill="black"/>
<circle cx="316.885" cy="81.9836" r="31.0662" fill="white" stroke="#F0FFB6" stroke-width="1.67742"/>
<ellipse cx="316.441" cy="81.9809" rx="23.6906" ry="24.5219" fill="#8BAE00"/>
<circle cx="317.685" cy="84.0597" r="23.275" fill="#8BAE00"/>
<ellipse cx="316.853" cy="83.644" rx="23.275" ry="22.8594" fill="#CCFF00"/>
<path d="M324.533 75.9934L324.024 85.707C324 86.1662 324.12 86.5195 324.384 86.7314C324.647 86.9786 324.987 87.0846 325.435 87.0846C326.194 87.0846 326.842 86.5548 327.348 85.4598C327.819 84.3648 328.129 83.0579 328.207 81.5743C328.368 78.5013 327.43 75.9934 325.426 74.086C323.423 72.1786 320.851 71.2249 317.747 71.2249C314.402 71.2249 311.549 72.3552 309.193 74.5452C306.836 76.7352 305.586 79.5256 305.41 82.8813C305.235 86.2369 306.159 88.992 308.256 91.1114C310.352 93.2307 313.055 94.2904 316.435 94.2904C318.812 94.2904 321.108 93.6247 323.322 92.2933C324.116 91.8161 325.142 91.9992 325.572 92.771C325.925 93.4031 325.758 94.2292 325.133 94.6601C322.619 96.3916 319.695 97.2574 316.314 97.2574C311.969 97.2574 308.487 95.9152 305.868 93.2307C303.215 90.5462 302.014 87.1553 302.232 82.9872C302.454 78.7485 304.051 75.2516 307.06 72.4612C310.069 69.6707 313.695 68.2578 317.903 68.2578C321.869 68.2578 325.148 69.5294 327.743 72.002C330.338 74.4745 331.551 77.6536 331.349 81.5037C331.294 82.5634 331.104 83.5524 330.849 84.4708C330.559 85.3891 330.132 86.3075 329.603 87.1906C329.073 88.0736 328.312 88.7801 327.355 89.2746C326.362 89.8044 325.245 90.0517 323.969 90.0517C321.831 90.0517 320.419 89.3452 319.736 87.897C318.628 89.3099 317.073 90.0164 315.073 90.0164C313.141 90.0164 311.588 89.3806 310.415 88.0736C309.24 86.802 308.712 85.0359 308.827 82.8459C308.941 80.6559 309.653 78.9252 310.998 77.6182C312.306 76.3466 313.927 75.6755 315.824 75.6755C317.48 75.6755 318.797 76.2053 319.778 77.2297L319.843 75.9934H324.533ZM316.68 85.6717C317.404 85.6717 318.038 85.4245 318.583 84.8946C319.128 84.3648 319.441 83.6583 319.487 82.7753C319.532 81.9276 319.291 81.2564 318.802 80.7266C318.31 80.2321 317.704 79.9495 316.98 79.9495C316.221 79.9495 315.586 80.2321 315.042 80.7266C314.463 81.2564 314.186 81.9276 314.142 82.7753C314.095 83.6583 314.3 84.3648 314.824 84.8946C315.313 85.4245 315.921 85.6717 316.68 85.6717Z" fill="black"/>
<rect width="115.323" height="97.2903" transform="matrix(-1 0 0 1 352.227 90.9033)" fill="#C6AEFF"/>
<rect width="10.9032" height="97.2903" transform="matrix(-1 0 0 1 310.289 90.9033)" fill="white"/>
<rect width="10.9032" height="97.2903" transform="matrix(-1 0 0 1 295.195 90.9033)" fill="white"/>
<rect width="107.921" height="14.3984" transform="matrix(-0.866025 -0.5 -0.5 0.866025 379.922 72.4883)" fill="#C6AEFF"/>
<rect width="10.7988" height="14.3984" transform="matrix(-0.866025 -0.5 -0.5 0.866025 343.648 51.5459)" fill="white"/>
<rect width="10.7988" height="14.3984" transform="matrix(-0.866025 -0.5 -0.5 0.866025 330.996 44.2407)" fill="white"/>
<rect width="10.1636" height="22.2329" transform="matrix(-0.866025 -0.5 -0.5 0.866025 351.07 24.2881)" fill="#967ECC"/>
<rect width="9.31663" height="52.0885" transform="matrix(0.5 -0.866025 -0.866025 -0.5 355.938 58.6382)" fill="#967ECC"/>
<rect width="10.1636" height="21.8439" transform="matrix(-0.965926 0.258819 0.258819 0.965926 331.316 17.5283)" fill="#967ECC"/>
<rect x="358.793" y="33.3911" width="10.1636" height="21.8439" transform="rotate(75 358.793 33.3911)" fill="#967ECC"/>
<path d="M254.632 24.9997C254.075 24.8241 253.54 24.892 253.145 25.2894C252.75 25.681 252.529 26.3699 252.529 27.1033C252.529 27.8368 252.75 28.5257 253.145 28.9173C253.54 29.3147 254.075 29.3825 254.632 29.207C254.745 29.1719 254.858 29.1369 254.971 29.1018C257.005 28.4707 259.038 27.8396 261.072 27.2085C261.185 27.1735 261.298 27.1384 261.411 27.1033C261.298 27.0683 261.185 27.0332 261.072 26.9982C259.038 26.3671 257.005 25.736 254.971 25.1049C254.858 25.0698 254.745 25.0348 254.632 24.9997Z" fill="#CCFF00"/>
<path d="M268.657 29.2073C269.214 29.3829 269.75 29.3151 270.144 28.9176C270.539 28.526 270.76 27.8372 270.76 27.1037C270.76 26.3702 270.539 25.6813 270.144 25.2898C269.75 24.8923 269.214 24.8245 268.657 25C268.544 25.0351 268.431 25.0702 268.318 25.1052C266.284 25.7363 264.251 26.3674 262.217 26.9985C262.104 27.0336 261.991 27.0686 261.878 27.1037C261.991 27.1387 262.104 27.1738 262.217 27.2089C264.251 27.84 266.284 28.4711 268.318 29.1022C268.431 29.1372 268.544 29.1723 268.657 29.2073Z" fill="#CCFF00"/>
<path d="M259.962 19.9792C259.835 19.4083 259.509 18.9788 258.967 18.8359C258.431 18.69 257.724 18.8425 257.088 19.2092C256.453 19.576 255.967 20.1124 255.825 20.6498C255.679 21.1902 255.887 21.6875 256.318 22.0829C256.405 22.1632 256.492 22.2435 256.579 22.3238C258.142 23.7693 259.705 25.2149 261.269 26.6604C261.356 26.7407 261.442 26.821 261.529 26.9013C261.503 26.786 261.477 26.6706 261.451 26.5552C260.981 24.4786 260.511 22.402 260.04 20.3253C260.014 20.21 259.988 20.0946 259.962 19.9792Z" fill="#CCFF00"/>
<path d="M263.331 34.2283C263.458 34.7992 263.784 35.2287 264.326 35.3716C264.862 35.5175 265.569 35.365 266.205 34.9983C266.84 34.6315 267.326 34.0952 267.468 33.5577C267.614 33.0173 267.406 32.52 266.975 32.1246C266.888 32.0443 266.801 31.964 266.714 31.8837C265.151 30.4382 263.587 28.9926 262.024 27.5471C261.937 27.4668 261.85 27.3865 261.764 27.3062C261.79 27.4215 261.816 27.5369 261.842 27.6523C262.312 29.7289 262.782 31.8055 263.253 33.8822C263.279 33.9975 263.305 34.1129 263.331 34.2283Z" fill="#CCFF00"/>
<path d="M266.974 22.0826C267.405 21.6872 267.614 21.1899 267.467 20.6495C267.325 20.112 266.839 19.5757 266.204 19.2089C265.569 18.8422 264.861 18.6897 264.325 18.8356C263.784 18.9785 263.457 19.408 263.33 19.9789C263.304 20.0943 263.278 20.2097 263.252 20.325C262.782 22.4017 262.312 24.4783 261.841 26.5549C261.815 26.6703 261.789 26.7857 261.763 26.901C261.85 26.8207 261.937 26.7404 262.023 26.6601C263.587 25.2146 265.15 23.769 266.713 22.3235C266.8 22.2432 266.887 22.1629 266.974 22.0826Z" fill="#CCFF00"/>
<path d="M256.319 32.1245C255.888 32.5199 255.679 33.0172 255.826 33.5575C255.968 34.095 256.454 34.6314 257.089 34.9981C257.724 35.3648 258.432 35.5173 258.968 35.3715C259.509 35.2285 259.836 34.7991 259.963 34.2281C259.989 34.1127 260.015 33.9974 260.041 33.882C260.511 31.8054 260.981 29.7287 261.452 27.6521C261.478 27.5367 261.504 27.4214 261.53 27.306C261.443 27.3863 261.356 27.4666 261.269 27.5469C259.706 28.9925 258.143 30.438 256.58 31.8835C256.493 31.9639 256.406 32.0442 256.319 32.1245Z" fill="#CCFF00"/>
<path d="M218.907 82.4041C218.322 82.5447 217.885 82.8881 217.748 83.4479C217.607 84.0025 217.776 84.728 218.165 85.3753C218.554 86.0227 219.114 86.5132 219.67 86.6498C220.229 86.7916 220.737 86.5679 221.136 86.1174C221.217 86.0266 221.299 85.9358 221.38 85.845C222.84 84.2105 224.3 82.5761 225.761 80.9416C225.842 80.8508 225.923 80.76 226.004 80.6692C225.886 80.6981 225.768 80.7271 225.649 80.756C223.52 81.2764 221.391 81.7969 219.262 82.3173C219.144 82.3462 219.025 82.3751 218.907 82.4041Z" fill="#C6AEFF"/>
<path d="M233.515 78.6863C234.1 78.5456 234.537 78.2022 234.674 77.6424C234.815 77.0878 234.645 76.3624 234.257 75.715C233.868 75.0677 233.308 74.5771 232.752 74.4405C232.193 74.2988 231.685 74.5224 231.286 74.973C231.204 75.0638 231.123 75.1546 231.042 75.2454C229.582 76.8798 228.121 78.5143 226.661 80.1487C226.58 80.2395 226.499 80.3303 226.418 80.4211C226.536 80.3922 226.654 80.3633 226.773 80.3344C228.902 79.8139 231.031 79.2935 233.16 78.773C233.278 78.7441 233.396 78.7152 233.515 78.6863Z" fill="#C6AEFF"/>
<path d="M220.949 75.1499C220.534 74.7132 220.018 74.5071 219.465 74.6678C218.914 74.8232 218.371 75.3327 218.004 75.9929C217.638 76.6531 217.493 77.3839 217.653 77.9334C217.81 78.4882 218.257 78.8165 218.847 78.9371C218.967 78.962 219.086 78.9868 219.205 79.0117C221.351 79.4592 223.496 79.9067 225.642 80.3542C225.761 80.3791 225.88 80.4039 226 80.4288C225.915 80.3408 225.831 80.2528 225.747 80.1648C224.232 78.5812 222.716 76.9975 221.201 75.4138C221.117 75.3259 221.033 75.2379 220.949 75.1499Z" fill="#C6AEFF"/>
<path d="M231.473 85.9399C231.888 86.3766 232.403 86.5828 232.957 86.422C233.508 86.2666 234.051 85.7572 234.418 85.097C234.784 84.4367 234.928 83.7059 234.769 83.1564C234.612 82.6016 234.164 82.2734 233.575 82.1527C233.455 82.1279 233.336 82.103 233.217 82.0782C231.071 81.6307 228.926 81.1832 226.78 80.7356C226.661 80.7108 226.542 80.6859 226.422 80.6611C226.507 80.749 226.591 80.837 226.675 80.925C228.19 82.5087 229.705 84.0923 231.221 85.676C231.305 85.764 231.389 85.852 231.473 85.9399Z" fill="#C6AEFF"/>
<path d="M228.252 73.2913C228.423 72.7139 228.344 72.1644 227.928 71.7653C227.518 71.3661 226.805 71.1501 226.05 71.163C225.295 71.1759 224.59 71.4161 224.194 71.829C223.792 72.2421 223.731 72.794 223.922 73.3651C223.96 73.4808 223.998 73.5965 224.036 73.7121C224.721 75.7941 225.407 77.876 226.092 79.958C226.13 80.0736 226.168 80.1893 226.206 80.305C226.24 80.1881 226.274 80.0712 226.309 79.9543C226.922 77.8502 227.536 75.7461 228.15 73.6419C228.184 73.525 228.218 73.4081 228.252 73.2913Z" fill="#C6AEFF"/>
<path d="M224.169 87.7991C223.999 88.3764 224.078 88.926 224.494 89.325C224.904 89.7242 225.617 89.9402 226.372 89.9273C227.127 89.9145 227.832 89.6742 228.228 89.2613C228.63 88.8483 228.69 88.2964 228.5 87.7252C228.462 87.6095 228.424 87.4939 228.386 87.3782C227.7 85.2962 227.015 83.2143 226.33 81.1324C226.292 81.0167 226.254 80.901 226.216 80.7854C226.182 80.9023 226.147 81.0192 226.113 81.136C225.499 83.2402 224.886 85.3443 224.272 87.4484C224.238 87.5653 224.204 87.6822 224.169 87.7991Z" fill="#C6AEFF"/>
<path d="M237.952 103.243C243.112 113.111 241.045 126.177 232.074 135.148C221.222 146 204.377 146.75 194.451 136.824C192.73 135.103 191.33 133.174 190.248 131.105C185.088 121.237 187.156 108.172 196.127 99.2008C206.979 88.3488 223.823 87.5984 233.75 97.5249C235.47 99.2456 236.87 101.174 237.952 103.243Z" fill="#A0C900"/>
<path d="M232.067 94.306C222.141 84.3795 205.296 85.1298 194.444 95.9819L196.127 99.2008C206.979 88.3488 223.823 87.5984 233.75 97.5249L232.067 94.306Z" fill="#A0C900"/>
<path d="M194.444 95.9819C185.473 104.953 183.406 118.019 188.566 127.886L190.244 131.097C185.089 121.23 187.158 108.169 196.127 99.2008L194.444 95.9819Z" fill="#A0C900"/>
<path d="M236.27 100.024C235.188 97.9553 233.788 96.0267 232.067 94.306L233.75 97.5249C235.47 99.2456 236.87 101.174 237.952 103.243L236.27 100.024Z" fill="#A0C900"/>
<path d="M188.566 127.886C189.648 129.955 191.048 131.884 192.768 133.605L194.451 136.824C192.73 135.103 191.33 133.174 190.248 131.105L188.566 127.886Z" fill="#A0C900"/>
<path d="M230.391 131.929C239.36 122.961 241.429 109.9 236.274 100.033L237.952 103.243C243.112 113.111 241.045 126.177 232.074 135.148L230.391 131.929Z" fill="#A0C900"/>
<path d="M192.768 133.605C202.695 143.531 219.539 142.781 230.391 131.929L232.074 135.148C221.222 146 204.377 146.75 194.451 136.824L192.768 133.605Z" fill="#A0C900"/>
<path d="M231.596 94.7242C241.225 104.354 240.552 120.771 229.926 131.397C219.3 142.023 202.883 142.696 193.253 133.067C183.624 123.437 184.296 107.019 194.922 96.3932C205.549 85.7672 221.966 85.0946 231.596 94.7242Z" fill="white" stroke="#F0FFB6" stroke-width="1.25806"/>
<ellipse cx="212.346" cy="114.1" rx="20.1666" ry="22.0357" transform="rotate(45 212.346 114.1)" fill="#8BAE00"/>
<path d="M225.973 100.365C233.748 108.141 233.666 120.845 225.771 128.74C217.876 136.635 205.172 136.717 197.397 128.942C189.621 121.166 189.704 108.462 197.598 100.568C205.493 92.6726 218.197 92.5897 225.973 100.365Z" fill="#CCFF00" stroke="#8BAE00" stroke-width="0.83871"/>
<path d="M219.897 113.178C220.577 112.349 220.852 111.448 220.72 110.476C220.625 109.745 220.315 109.04 219.792 108.361C219.622 108.141 219.43 107.924 219.216 107.71C218.971 107.465 218.724 107.25 218.475 107.065C218.098 106.784 217.716 106.572 217.329 106.428C216.686 106.188 216.076 106.125 215.496 106.237C214.917 106.349 214.403 106.624 213.954 107.062C213.585 107.431 213.343 107.828 213.226 108.252C213.115 108.682 213.099 109.128 213.18 109.589C213.266 110.044 213.411 110.5 213.613 110.955C213.713 111.179 213.817 111.398 213.927 111.613C214.042 111.837 214.163 112.056 214.289 112.271L214.846 113.243L215.404 114.215C215.864 114.986 216.246 115.789 216.549 116.622C216.858 117.46 217.036 118.307 217.084 119.161C217.137 120.021 217.012 120.869 216.707 121.705C216.402 122.541 215.867 123.342 215.101 124.108C214.064 125.145 212.906 125.813 211.629 126.114C210.357 126.409 209.037 126.316 207.67 125.836C206.548 125.438 205.444 124.759 204.356 123.797C204.129 123.595 203.902 123.381 203.676 123.155C202.406 121.886 201.518 120.571 201.009 119.21C200.507 117.855 200.401 116.505 200.693 115.162C200.991 113.823 201.706 112.545 202.839 111.328L205.746 114.235C205.172 114.894 204.835 115.582 204.734 116.299C204.633 117.016 204.728 117.722 205.021 118.417C205.215 118.874 205.476 119.313 205.806 119.734C205.982 119.959 206.177 120.178 206.391 120.392C206.63 120.632 206.873 120.846 207.119 121.034C207.533 121.351 207.957 121.597 208.39 121.77C209.092 122.045 209.768 122.134 210.419 122.035C211.075 121.931 211.659 121.628 212.172 121.127C212.627 120.661 212.882 120.156 212.938 119.612C212.999 119.062 212.91 118.466 212.671 117.824C212.491 117.316 212.25 116.777 211.948 116.205C211.868 116.053 211.783 115.898 211.694 115.742L211.026 114.555L210.357 113.367C209.388 111.65 208.893 110.02 208.873 108.479C208.864 106.938 209.493 105.534 210.761 104.266C211.803 103.224 212.976 102.571 214.28 102.308C215.589 102.05 216.911 102.156 218.246 102.627C219.293 102.99 220.279 103.56 221.205 104.336C221.464 104.553 221.719 104.787 221.969 105.037C222.164 105.232 222.349 105.429 222.524 105.629C223.385 106.613 223.995 107.648 224.355 108.736C224.799 110.044 224.885 111.334 224.612 112.605C224.345 113.87 223.721 115.009 222.741 116.022L219.897 113.178Z" fill="black"/>
<rect x="223.051" y="102.569" width="2.07526" height="30.7016" transform="rotate(45 223.051 102.569)" fill="black"/>
</g>
<path d="M64.9217 124.986V155.106C64.9217 156.53 65.3489 157.625 66.2033 158.283C67.0576 159.049 68.1256 159.378 69.5139 159.378C71.8634 159.378 73.7857 157.735 75.1741 154.34C76.4556 150.944 77.2032 146.892 77.2032 142.292C77.2032 132.763 73.8925 124.986 67.378 119.072C60.8635 113.157 52.7471 110.2 43.1355 110.2C32.7764 110.2 24.126 113.705 17.1843 120.496C10.2426 127.286 6.82515 135.939 6.82515 146.344C6.82515 156.749 10.1358 165.292 16.9707 171.864C23.8056 178.435 32.3492 181.721 42.8151 181.721C50.1749 181.721 57.1753 179.657 63.8162 175.529C66.1962 174.049 69.4029 174.617 70.8612 177.01C72.0558 178.97 71.674 181.532 69.8073 182.868C62.3043 188.237 53.3902 190.922 42.9219 190.922C29.4657 190.922 18.4658 186.759 9.92221 178.435C1.27181 170.111 -3 159.597 -3 146.673C-3 133.529 1.3786 122.686 10.2426 114.034C19.1066 105.381 30.1065 101 43.1355 101C55.417 101 65.7761 104.943 74.2129 112.61C82.6497 120.277 86.9215 130.134 86.9215 142.073C86.9215 145.358 86.4943 148.425 85.8536 151.273C85.106 154.121 83.9313 156.968 82.4361 159.706C80.941 162.445 78.6983 164.635 75.8148 166.168C72.8246 167.811 69.4071 168.578 65.4557 168.578C58.8344 168.578 54.349 166.388 51.9995 161.897C48.7956 166.278 44.0967 168.469 37.9025 168.469C31.922 168.469 27.0094 166.497 23.1648 162.445C19.3202 158.502 17.3979 153.025 17.3979 146.235C17.3979 139.444 19.3202 134.077 23.2716 130.025C27.1162 126.082 32.0288 124.001 37.9025 124.001C43.0287 124.001 47.1937 125.644 50.3976 128.82V124.986H64.9217ZM42.1744 154.997C44.417 154.997 46.3394 154.23 47.9413 152.587C49.5432 150.944 50.3976 148.754 50.3976 146.016C50.3976 143.387 49.5432 141.306 47.9413 139.663C46.3394 138.13 44.417 137.253 42.1744 137.253C39.8249 137.253 37.9025 138.13 36.3006 139.663C34.5919 141.306 33.8443 143.387 33.8443 146.016C33.8443 148.754 34.5919 150.944 36.3006 152.587C37.9025 154.23 39.8249 154.997 42.1744 154.997Z" fill="#BCEC01"/>
<path d="M217.922 -27.0136V3.10625C217.922 4.5301 218.349 5.62536 219.203 6.28252C220.058 7.04921 221.126 7.37779 222.514 7.37779C224.863 7.37779 226.786 5.73489 228.174 2.33956C229.456 -1.05577 230.203 -5.10826 230.203 -9.70839C230.203 -19.2372 226.893 -27.0136 220.378 -32.9281C213.864 -38.8425 205.747 -41.7997 196.136 -41.7997C185.776 -41.7997 177.126 -38.2949 170.184 -31.5042C163.243 -24.7136 159.825 -16.0609 159.825 -5.6559C159.825 4.74915 163.136 13.2922 169.971 19.8638C176.806 26.4355 185.349 29.7213 195.815 29.7213C203.175 29.7213 210.175 27.6571 216.816 23.5288C219.196 22.0492 222.403 22.617 223.861 25.01C225.056 26.9702 224.674 29.5318 222.807 30.8676C215.304 36.2369 206.39 38.9215 195.922 38.9215C182.466 38.9215 171.466 34.7595 162.922 26.4355C154.272 18.1114 150 7.59685 150 -5.32731C150 -18.4705 154.379 -29.3137 163.243 -37.9663C172.107 -46.6189 183.106 -51 196.136 -51C208.417 -51 218.776 -47.057 227.213 -39.3902C235.65 -31.7233 239.922 -21.8659 239.922 -9.92744C239.922 -6.64163 239.494 -3.57489 238.854 -0.727196C238.106 2.1205 236.931 4.9682 235.436 7.70637C233.941 10.4445 231.698 12.6351 228.815 14.1685C225.825 15.8114 222.407 16.578 218.456 16.578C211.834 16.578 207.349 14.3875 205 9.89691C201.796 14.278 197.097 16.4685 190.903 16.4685C184.922 16.4685 180.009 14.497 176.165 10.4445C172.32 6.50159 170.398 1.02524 170.398 -5.76542C170.398 -12.5561 172.32 -17.9229 176.272 -21.9754C180.116 -25.9184 185.029 -27.9994 190.903 -27.9994C196.029 -27.9994 200.194 -26.3565 203.398 -23.1802V-27.0136H217.922ZM195.174 2.99672C197.417 2.99672 199.339 2.23003 200.941 0.587128C202.543 -1.05577 203.398 -3.24631 203.398 -5.98448C203.398 -8.61312 202.543 -10.6941 200.941 -12.337C199.339 -13.8704 197.417 -14.7466 195.174 -14.7466C192.825 -14.7466 190.903 -13.8704 189.301 -12.337C187.592 -10.6941 186.844 -8.61312 186.844 -5.98448C186.844 -3.24631 187.592 -1.05577 189.301 0.587128C190.903 2.23003 192.825 2.99672 195.174 2.99672Z" fill="#BCEC01"/>
<path d="M431.922 113.986V144.106C431.922 145.53 432.349 146.625 433.203 147.283C434.058 148.049 435.126 148.378 436.514 148.378C438.863 148.378 440.786 146.735 442.174 143.34C443.456 139.944 444.203 135.892 444.203 131.292C444.203 121.763 440.893 113.986 434.378 108.072C427.864 102.157 419.747 99.2003 410.136 99.2003C399.776 99.2003 391.126 102.705 384.184 109.496C377.243 116.286 373.825 124.939 373.825 135.344C373.825 145.749 377.136 154.292 383.971 160.864C390.806 167.435 399.349 170.721 409.815 170.721C417.175 170.721 424.175 168.657 430.816 164.529C433.196 163.049 436.403 163.617 437.861 166.01C439.056 167.97 438.674 170.532 436.807 171.868C429.304 177.237 420.39 179.922 409.922 179.922C396.466 179.922 385.466 175.759 376.922 167.435C368.272 159.111 364 148.597 364 135.673C364 122.529 368.379 111.686 377.243 103.034C386.107 94.3811 397.106 90 410.136 90C422.417 90 432.776 93.943 441.213 101.61C449.65 109.277 453.922 119.134 453.922 131.073C453.922 134.358 453.494 137.425 452.854 140.273C452.106 143.121 450.931 145.968 449.436 148.706C447.941 151.445 445.698 153.635 442.815 155.168C439.825 156.811 436.407 157.578 432.456 157.578C425.834 157.578 421.349 155.388 419 150.897C415.796 155.278 411.097 157.469 404.903 157.469C398.922 157.469 394.009 155.497 390.165 151.445C386.32 147.502 384.398 142.025 384.398 135.235C384.398 128.444 386.32 123.077 390.272 119.025C394.116 115.082 399.029 113.001 404.903 113.001C410.029 113.001 414.194 114.644 417.398 117.82V113.986H431.922ZM409.174 143.997C411.417 143.997 413.339 143.23 414.941 141.587C416.543 139.944 417.398 137.754 417.398 135.016C417.398 132.387 416.543 130.306 414.941 128.663C413.339 127.13 411.417 126.253 409.174 126.253C406.825 126.253 404.903 127.13 403.301 128.663C401.592 130.306 400.844 132.387 400.844 135.016C400.844 137.754 401.592 139.944 403.301 141.587C404.903 143.23 406.825 143.997 409.174 143.997Z" fill="#BCEC01"/>
<path d="M64.3253 57.8182V84H59.5824V57.8182H64.3253ZM73.8846 72.4943V84H69.2567V64.3636H73.68V67.7003H73.9102C74.3619 66.6009 75.082 65.7273 76.0707 65.0795C77.0678 64.4318 78.2994 64.108 79.7653 64.108C81.1204 64.108 82.3008 64.3977 83.3065 64.9773C84.3207 65.5568 85.1048 66.3963 85.6587 67.4957C86.2212 68.5952 86.4982 69.929 86.4897 71.4972V84H81.8619V72.2131C81.8619 70.9006 81.521 69.8736 80.8391 69.1321C80.1658 68.3906 79.2326 68.0199 78.0394 68.0199C77.2298 68.0199 76.5096 68.1989 75.8789 68.5568C75.2567 68.9062 74.7667 69.4134 74.4087 70.0781C74.0593 70.7429 73.8846 71.5483 73.8846 72.4943ZM108.031 64.3636L101.038 84H95.9244L88.9315 64.3636H93.8661L98.3789 78.9503H98.5835L103.109 64.3636H108.031ZM111.233 84V64.3636H115.861V84H111.233ZM113.56 61.5767C112.827 61.5767 112.196 61.3338 111.668 60.848C111.14 60.3537 110.875 59.7614 110.875 59.071C110.875 58.3722 111.14 57.7798 111.668 57.294C112.196 56.7997 112.827 56.5526 113.56 56.5526C114.301 56.5526 114.932 56.7997 115.452 57.294C115.98 57.7798 116.245 58.3722 116.245 59.071C116.245 59.7614 115.98 60.3537 115.452 60.848C114.932 61.3338 114.301 61.5767 113.56 61.5767ZM130.425 64.3636V67.9432H119.137V64.3636H130.425ZM121.924 59.6591H126.552V78.0938C126.552 78.7159 126.646 79.1932 126.833 79.5256C127.029 79.8494 127.285 80.071 127.6 80.1903C127.915 80.3097 128.265 80.3693 128.648 80.3693C128.938 80.3693 129.202 80.348 129.441 80.3054C129.688 80.2628 129.876 80.2244 130.004 80.1903L130.783 83.8082C130.536 83.8935 130.183 83.9872 129.722 84.0895C129.271 84.1918 128.717 84.2514 128.06 84.2685C126.901 84.3026 125.857 84.1278 124.928 83.7443C123.999 83.3523 123.262 82.7472 122.717 81.929C122.18 81.1108 121.915 80.0881 121.924 78.8608V59.6591ZM142.778 84.3835C140.809 84.3835 139.109 83.9744 137.677 83.1562C136.254 82.3295 135.159 81.1619 134.392 79.6534C133.625 78.1364 133.241 76.3509 133.241 74.2969C133.241 72.277 133.625 70.5043 134.392 68.9787C135.167 67.4446 136.25 66.2514 137.639 65.3991C139.028 64.5384 140.66 64.108 142.535 64.108C143.745 64.108 144.887 64.304 145.961 64.696C147.044 65.0795 147.998 65.6761 148.825 66.4858C149.66 67.2955 150.316 68.3267 150.794 69.5795C151.271 70.8239 151.51 72.3068 151.51 74.0284V75.4474H135.414V72.3281H147.074C147.065 71.4418 146.873 70.6534 146.498 69.9631C146.123 69.2642 145.599 68.7145 144.926 68.3139C144.261 67.9134 143.485 67.7131 142.599 67.7131C141.653 67.7131 140.822 67.9432 140.106 68.4034C139.39 68.8551 138.832 69.4517 138.431 70.1932C138.039 70.9261 137.839 71.7315 137.831 72.6094V75.3324C137.831 76.4744 138.039 77.4545 138.457 78.2727C138.875 79.0824 139.458 79.7045 140.208 80.1392C140.958 80.5653 141.836 80.7784 142.842 80.7784C143.515 80.7784 144.125 80.6847 144.67 80.4972C145.216 80.3011 145.689 80.0156 146.089 79.6406C146.49 79.2656 146.792 78.8011 146.997 78.2472L151.318 78.733C151.045 79.875 150.525 80.8722 149.758 81.7244C149 82.5682 148.028 83.2244 146.843 83.6932C145.659 84.1534 144.304 84.3835 142.778 84.3835Z" fill="black"/>
<path d="M154.085 58.0074C153.679 57.8795 153.289 57.929 153.002 58.2185C152.714 58.5037 152.553 59.0056 152.553 59.5399C152.553 60.0742 152.714 60.576 153.002 60.8613C153.289 61.1508 153.679 61.2002 154.085 61.0723C154.167 61.0468 154.25 61.0212 154.332 60.9957C155.813 60.5359 157.295 60.0762 158.776 59.6165C158.858 59.5909 158.941 59.5654 159.023 59.5399C158.941 59.5143 158.858 59.4888 158.776 59.4632C157.295 59.0035 155.813 58.5438 154.332 58.0841C154.25 58.0585 154.167 58.033 154.085 58.0074Z" fill="#0C0B0B"/>
<path d="M164.302 61.0726C164.708 61.2005 165.098 61.1511 165.385 60.8616C165.673 60.5764 165.834 60.0745 165.834 59.5402C165.834 59.0059 165.673 58.5041 165.385 58.2188C165.098 57.9293 164.708 57.8799 164.302 58.0078C164.219 58.0333 164.137 58.0589 164.055 58.0844C162.573 58.5441 161.092 59.0039 159.611 59.4636C159.528 59.4891 159.446 59.5147 159.364 59.5402C159.446 59.5658 159.528 59.5913 159.611 59.6168C161.092 60.0766 162.573 60.5363 164.055 60.996C164.137 61.0216 164.219 61.0471 164.302 61.0726Z" fill="#0C0B0B"/>
<path d="M157.967 54.3499C157.874 53.934 157.637 53.6211 157.242 53.517C156.852 53.4107 156.336 53.5218 155.874 53.789C155.411 54.0562 155.057 54.4469 154.954 54.8384C154.847 55.232 154.999 55.5943 155.313 55.8823C155.376 55.9408 155.439 55.9993 155.502 56.0578C156.641 57.1109 157.78 58.1639 158.919 59.2169C158.982 59.2754 159.045 59.3339 159.109 59.3924C159.09 59.3084 159.071 59.2243 159.052 59.1403C158.709 57.6275 158.366 56.1148 158.024 54.602C158.005 54.518 157.986 54.4339 157.967 54.3499Z" fill="#0C0B0B"/>
<path d="M160.42 64.7302C160.512 65.1461 160.75 65.4589 161.144 65.5631C161.535 65.6693 162.05 65.5582 162.513 65.2911C162.976 65.0239 163.33 64.6332 163.433 64.2417C163.54 63.848 163.388 63.4858 163.074 63.1977C163.011 63.1392 162.948 63.0807 162.884 63.0222C161.745 61.9692 160.607 60.9162 159.468 59.8632C159.405 59.8047 159.341 59.7462 159.278 59.6877C159.297 59.7717 159.316 59.8557 159.335 59.9398C159.678 61.4525 160.02 62.9653 160.363 64.478C160.382 64.5621 160.401 64.6461 160.42 64.7302Z" fill="#0C0B0B"/>
<path d="M163.077 55.8825C163.391 55.5945 163.543 55.2322 163.436 54.8386C163.333 54.4471 162.979 54.0563 162.516 53.7892C162.053 53.522 161.538 53.4109 161.147 53.5172C160.753 53.6213 160.515 53.9342 160.423 54.3501C160.404 54.4341 160.385 54.5182 160.366 54.6022C160.023 56.115 159.681 57.6277 159.338 59.1405C159.319 59.2245 159.3 59.3086 159.281 59.3926C159.344 59.3341 159.408 59.2756 159.471 59.2171C160.61 58.1641 161.748 57.111 162.887 56.058C162.951 55.9995 163.014 55.941 163.077 55.8825Z" fill="#0C0B0B"/>
<path d="M155.314 63.1976C155 63.4856 154.848 63.8479 154.955 64.2415C155.058 64.633 155.412 65.0238 155.874 65.2909C156.337 65.5581 156.853 65.6692 157.243 65.5629C157.638 65.4588 157.875 65.1459 157.968 64.73C157.987 64.646 158.006 64.5619 158.025 64.4779C158.367 62.9651 158.71 61.4524 159.053 59.9396C159.072 59.8556 159.091 59.7715 159.11 59.6875C159.046 59.746 158.983 59.8045 158.92 59.863C157.781 60.916 156.642 61.969 155.503 63.0221C155.44 63.0806 155.377 63.1391 155.314 63.1976Z" fill="#0C0B0B"/>
</g>
<defs>
<clipPath id="clip0_10341_21335">
<rect width="390" height="140" rx="8" fill="white"/>
</clipPath>
<clipPath id="clip1_10341_21335">
<rect width="195" height="199.194" fill="white" transform="matrix(-1 0 0 1 382 -11)"/>
</clipPath>
</defs>
</svg>
