<svg width="20" height="20" viewBox="0 0 20 20" fill="none" xmlns="http://www.w3.org/2000/svg">
<path d="M9.28408 4.17553H6.89435C6.72897 4.17553 6.60209 4.13703 6.51371 4.06046C6.4249 3.98268 6.36048 3.88088 6.3282 3.76732C6.29111 3.63747 6.27313 3.50291 6.27483 3.36787C6.27483 3.21999 6.28664 3.0813 6.3107 2.95092C6.32208 2.82053 6.3457 2.67834 6.38114 2.52477C6.41036 2.38734 6.46132 2.25545 6.53209 2.13407C6.59684 2.02731 6.68259 1.956 6.78847 1.921C6.89479 1.886 7.02473 1.91531 7.17786 2.00938C7.3555 2.11613 7.55588 2.2312 7.78033 2.35545C8.00477 2.47971 8.22266 2.60396 8.43529 2.72822C8.64749 2.85247 8.84481 2.96448 9.02813 3.06555C9.21101 3.16617 9.34971 3.24624 9.44377 3.30531C9.5619 3.38843 9.65072 3.47988 9.70935 3.58007C9.76841 3.6807 9.79204 3.7752 9.78022 3.86445C9.77377 3.9094 9.75778 3.95244 9.73334 3.99069C9.70889 4.02895 9.67654 4.06154 9.63847 4.08628C9.55578 4.14534 9.43809 4.17509 9.28452 4.17509L9.28408 4.17553ZM10.6644 4.15803H13.0362C13.2016 4.15803 13.3285 4.11953 13.4169 4.04252C13.5053 3.96596 13.5674 3.86795 13.6028 3.74939C13.6383 3.63126 13.6562 3.49781 13.6562 3.35037C13.6562 3.20249 13.6501 3.06336 13.6387 2.93341C13.6131 2.79422 13.5864 2.65523 13.5586 2.51646C13.5341 2.38183 13.4861 2.25255 13.4169 2.13451C13.3603 2.03456 13.2691 1.95877 13.1605 1.92143C13.0542 1.88643 12.9242 1.91006 12.7711 1.99231C12.5723 2.11118 12.3715 2.22656 12.1686 2.33839C11.9446 2.46264 11.7232 2.5869 11.5049 2.71115C11.2866 2.83541 11.0858 2.94742 10.9029 3.04848C10.7659 3.12114 10.633 3.20118 10.5048 3.28824C10.3748 3.37137 10.2803 3.46325 10.2217 3.563C10.1626 3.66363 10.1386 3.75814 10.1508 3.84739C10.1572 3.8923 10.1731 3.93531 10.1975 3.97357C10.2219 4.01182 10.2541 4.04443 10.2921 4.06921C10.3752 4.12828 10.4986 4.15803 10.664 4.15803H10.6644ZM9.03601 5.32927H3.90304C3.52502 5.32927 3.28045 5.39139 3.16801 5.51565C3.056 5.6399 3 5.8381 3 6.11067V7.67262C3 7.96838 3.06213 8.18714 3.18595 8.32933C3.30976 8.47152 3.55434 8.5424 3.92054 8.5424H9.03513V5.32927H9.03601ZM10.9655 5.32927H16.0276C16.4051 5.32927 16.662 5.40364 16.7976 5.55153C16.9332 5.69941 17.0006 5.90942 17.0006 6.18155V7.70849C17.0006 7.99244 16.9385 8.20245 16.8146 8.33852C16.6908 8.47415 16.4463 8.5424 16.0801 8.5424H10.9655V5.32927ZM9.03601 9.4835H3.60203V16.1942C3.60203 16.7979 3.77309 17.2656 4.11523 17.5968C4.45737 17.9281 4.98852 18.0939 5.70868 18.0939H9.03601V9.4835ZM10.9655 9.4835H16.3819V16.1408C16.3697 16.7446 16.1986 17.221 15.8683 17.5702C15.538 17.9193 15.0129 18.0939 14.2932 18.0939H10.9659V9.48438L10.965 9.4835H10.9655Z" fill="black"/>
</svg>
