<svg width="104" height="101" viewBox="0 0 104 101" fill="none" xmlns="http://www.w3.org/2000/svg">
<path d="M45.3252 72.9039C33.6832 72.4173 22.9246 63.7073 19.4886 50.8841C15.3322 35.3719 23.4652 19.7146 37.6544 15.9127C40.114 15.2536 42.5941 14.9941 45.0354 15.0961C56.6775 15.5827 67.4361 24.2927 70.872 37.1159C75.0285 52.6282 66.8955 68.2854 52.7063 72.0874C50.2467 72.7464 47.7665 73.006 45.3252 72.9039Z" fill="#A0C900"/>
<path d="M56.5036 72.2469C70.6927 68.4449 78.8258 52.7877 74.6693 37.2755L70.872 37.1159C75.0285 52.6282 66.8955 68.2854 52.7063 72.0874L56.5036 72.2469Z" fill="#A0C900"/>
<path d="M74.6693 37.2755C71.2334 24.4522 60.4748 15.7422 48.8327 15.2556L45.0456 15.0965C56.6838 15.5878 67.4371 24.2964 70.872 37.1159L74.6693 37.2755Z" fill="#A0C900"/>
<path d="M49.1225 73.0634C51.5638 73.1655 54.044 72.9059 56.5036 72.2469L52.7063 72.0874C50.2467 72.7464 47.7665 73.006 45.3252 72.9039L49.1225 73.0634Z" fill="#A0C900"/>
<path d="M48.8327 15.2556C46.3914 15.1536 43.9113 15.4131 41.4516 16.0722L37.6544 15.9127C40.114 15.2536 42.5941 14.9941 45.0354 15.0961L48.8327 15.2556Z" fill="#A0C900"/>
<path d="M23.2859 51.0436C26.7209 63.8631 37.4742 72.5717 49.1124 73.063L45.3252 72.9039C33.6832 72.4173 22.9246 63.7073 19.4886 50.8841L23.2859 51.0436Z" fill="#A0C900"/>
<path d="M41.4516 16.0722C27.2625 19.8741 19.1295 35.5314 23.2859 51.0436L19.4886 50.8841C15.3322 35.3719 23.4652 19.7146 37.6544 15.9127L41.4516 16.0722Z" fill="#A0C900"/>
<path d="M56.2975 71.3254C42.7072 74.9669 28.3215 65.887 24.2859 50.8262C20.2506 35.7655 28.169 20.7092 41.7592 17.0676C55.3495 13.4261 69.7351 22.5061 73.7708 37.5668C77.8063 52.6277 69.8879 67.6839 56.2975 71.3254Z" fill="white" stroke="#F0FFB6" stroke-width="1.88596"/>
<ellipse cx="48.8868" cy="44.0201" rx="21.1026" ry="23.0585" transform="rotate(165 48.8868 44.0201)" fill="#8BAE00"/>
<path d="M54.2453 63.7119C43.0403 66.7141 31.4821 59.9378 28.4351 48.5664C25.3883 37.1951 32.0098 25.5475 43.2146 22.545C54.4197 19.5426 65.9777 26.3191 69.0248 37.6905C72.0718 49.062 65.4504 60.7095 54.2453 63.7119Z" fill="#CCFF00" stroke="#8BAE00" stroke-width="0.546086"/>
<path d="M54.6461 38.0339L55.3742 46.3561C55.4086 46.7496 55.5536 47.0542 55.8064 47.24C56.0618 47.4559 56.3659 47.5519 56.7509 47.5586C57.4025 47.57 57.8959 47.1253 58.1988 46.1939C58.4721 45.262 58.5815 44.1459 58.4703 42.8749C58.2399 40.242 57.1338 38.0773 55.1843 36.4116C53.2347 34.7459 50.9124 33.8895 48.247 33.843C45.3742 33.7929 43.0601 34.7194 41.2992 36.5621C39.5383 38.4048 38.7997 40.779 39.0513 43.6539C39.3028 46.5289 40.4274 48.9054 42.4817 50.7542C44.536 52.603 46.9847 53.5523 49.8871 53.6029C51.928 53.6386 53.8194 53.1021 55.5613 51.9936C56.1855 51.5963 57.0885 51.7687 57.5508 52.437C57.9295 52.9843 57.8855 53.6903 57.4001 54.0503C55.4492 55.4976 53.0421 56.1962 50.1391 56.1455C46.4074 56.0804 43.2564 54.8772 40.6859 52.5358C38.0858 50.194 36.647 47.2681 36.3345 43.6971C36.0168 40.0656 36.969 37.0908 39.2179 34.743C41.4669 32.3951 44.4114 31.2379 48.0246 31.301C51.4304 31.3604 54.3985 32.5 56.9235 34.6592C59.4485 36.8184 60.8714 39.5628 61.16 42.8614C61.2395 43.7693 61.1951 44.6145 61.0863 45.3983C60.9478 46.1815 60.6909 46.9626 60.3424 47.7119C59.994 48.4613 59.425 49.0557 58.6624 49.4654C57.8729 49.9049 56.9437 50.1001 55.8479 50.081C54.0117 50.049 52.7149 49.422 51.9548 48.1699C51.1722 49.3649 49.9221 49.9474 48.2044 49.9174C46.5459 49.8884 45.1359 49.3199 43.9717 48.1816C42.8102 47.0735 42.1448 45.5511 41.9806 43.6748C41.8164 41.7985 42.2198 40.325 43.2176 39.2244C44.1885 38.1536 45.5005 37.6023 47.1294 37.6308C48.551 37.6556 49.7457 38.1297 50.711 39.0228L50.6183 37.9636L54.6461 38.0339ZM49.0633 46.2158C49.6853 46.2266 50.1998 46.0241 50.6044 45.5779C51.0089 45.1317 51.1929 44.5306 51.1267 43.774C51.0631 43.0477 50.7759 42.4686 50.2919 42.0069C49.8106 41.5755 49.2564 41.3241 48.6344 41.3132C47.9829 41.3019 47.471 41.5346 47.0638 41.9506C46.6296 42.3962 46.4726 42.9676 46.5362 43.6939C46.6024 44.4505 46.8626 45.0593 47.3762 45.5216C47.8602 45.9832 48.4118 46.2044 49.0633 46.2158Z" fill="black"/>
</svg>
