<svg width="20" height="20" viewBox="0 0 20 20" fill="none" xmlns="http://www.w3.org/2000/svg">
<path d="M3.82117 6.92841C3.92425 7.07926 4.04242 7.22508 4.17567 7.36588C4.68605 7.90643 5.40762 8.36401 6.26998 8.7009C6.56414 8.81656 6.87589 8.91461 7.20274 9.0026C7.78351 9.15094 8.41205 9.24899 9.06574 9.28671C9.26436 9.29928 9.46801 9.30431 9.67417 9.30431C9.88033 9.30431 10.084 9.29928 10.2826 9.28671C10.9363 9.24899 11.5648 9.15094 12.1456 9.0026C12.4724 8.91712 12.7842 8.81656 13.0784 8.7009C13.9407 8.36652 14.6598 7.90643 15.1727 7.36588C15.3059 7.2276 15.4241 7.07926 15.5272 6.92841C15.6353 6.77002 15.7283 6.6066 15.8012 6.43815C15.9395 6.12388 16.0149 5.79201 16.0149 5.44756C16.0149 3.31806 13.1764 1.59082 9.67668 1.59082C6.17695 1.59082 3.33845 3.31806 3.33845 5.44756C3.33845 5.78949 3.41136 6.12136 3.55216 6.43815C3.62004 6.6066 3.71306 6.77002 3.82117 6.92841ZM9.67417 14.2421C7.10468 14.2421 4.87964 13.415 3.54964 12.1328C3.41136 12.4495 3.33594 12.7814 3.33594 13.1259C3.33594 15.2554 6.17444 16.9826 9.67417 16.9826C13.1739 16.9826 16.0124 15.2579 16.0124 13.1259C16.0124 12.7839 15.9395 12.4521 15.7987 12.1328C14.4687 13.415 12.2437 14.2421 9.67417 14.2421Z" fill="black"/>
<path d="M14.431 9.28558C14.2374 9.39117 14.0337 9.49174 13.8226 9.58477C13.5837 9.69036 13.3348 9.7859 13.0784 9.87138C12.0626 10.2133 10.9086 10.4044 9.67417 10.4044C8.43971 10.4044 7.2857 10.2133 6.26998 9.87138C6.01353 9.7859 5.76463 9.69288 5.52578 9.58477C5.31459 9.49426 5.11094 9.39117 4.91735 9.28558C4.3944 8.99896 3.9318 8.66709 3.54713 8.29248C3.40854 8.60526 3.33661 8.94347 3.33594 9.28558C3.33594 9.62751 3.40885 9.95938 3.54964 10.2787C3.62004 10.4471 3.71558 10.6105 3.82369 10.7689C3.92677 10.9198 4.04493 11.0656 4.17819 11.2064C5.27185 12.3654 7.32342 13.1448 9.67668 13.1448C12.03 13.1448 14.0815 12.3654 15.1752 11.2064C15.3084 11.0681 15.4266 10.9198 15.5297 10.7689C15.6378 10.6105 15.7308 10.4471 15.8037 10.2787C15.942 9.96189 16.0174 9.63002 16.0174 9.28558C16.0174 8.94365 15.9445 8.61178 15.8062 8.29248C15.4165 8.66709 14.9539 8.99896 14.431 9.28558Z" fill="black"/>
</svg>
