<svg width="20" height="20" viewBox="0 0 20 20" fill="none" xmlns="http://www.w3.org/2000/svg">
<path d="M14.3243 12.9167C13.6189 12.9158 12.942 13.2031 12.4415 13.7158L8.91452 11.6157C9.14097 11.1064 9.2464 10.5489 9.22203 9.98924C9.19767 9.4296 9.04422 8.88402 8.77443 8.39779L12.3983 6.23989C12.8607 6.73164 13.4845 7.02774 14.1474 7.07024C14.8104 7.11275 15.4649 6.8986 15.9828 6.4697C16.5007 6.04081 16.8448 5.42804 16.9478 4.75131C17.0507 4.07457 16.905 3.38259 16.5393 2.81076C16.1736 2.23894 15.6141 1.82843 14.9703 1.65958C14.3266 1.49073 13.6449 1.57568 13.0587 1.89781C12.4725 2.21995 12.0239 2.75607 11.8008 3.40128C11.5777 4.04649 11.5961 4.75434 11.8524 5.3863L8.15404 7.58713C7.52176 6.9693 6.68362 6.62534 5.81257 6.62623C3.92739 6.62623 2.39844 8.20297 2.39844 10.1462C2.39841 10.8617 2.60977 11.5601 3.00437 12.1485C3.39897 12.737 3.95807 13.1874 4.60718 13.4399C5.25629 13.6924 5.96459 13.7349 6.63772 13.5618C7.31085 13.3887 7.91685 13.0081 8.37498 12.4709L11.8772 14.5553C11.6425 15.0995 11.5847 15.7072 11.7124 16.288C11.8401 16.8688 12.1464 17.3914 12.5857 17.778C13.0249 18.1646 13.5736 18.3944 14.1498 18.4331C14.7261 18.4718 15.299 18.3175 15.7832 17.993C16.2674 17.6684 16.6369 17.1912 16.8367 16.6325C17.0364 16.0737 17.0556 15.4633 16.8914 14.8924C16.7273 14.3214 16.3885 13.8205 15.9258 13.4643C15.463 13.1081 14.901 12.9157 14.3235 12.9158L14.3243 12.9167Z" fill="black"/>
</svg>
