<svg width="161" height="163" viewBox="0 0 161 163" fill="none" xmlns="http://www.w3.org/2000/svg">
<g clip-path="url(#clip0_507_752)">
<g clip-path="url(#clip1_507_752)">
<rect x="160.842" y="17.9999" width="127" height="160.775" rx="20" transform="rotate(90 160.842 17.9999)" fill="#393939"/>
<mask id="mask0_507_752" style="mask-type:alpha" maskUnits="userSpaceOnUse" x="-14" y="8" width="189" height="147">
<path d="M-13.8273 26.5973C-13.8273 16.3764 -5.54169 8.09082 4.67916 8.09082L156.229 8.09082C166.45 8.09082 174.736 16.3765 174.736 26.5973L174.736 136.403C174.736 146.623 166.45 154.909 156.229 154.909L4.67916 154.909C-5.5417 154.909 -13.8273 146.623 -13.8273 136.403L-13.8273 26.5973Z" fill="#393939"/>
</mask>
<g mask="url(#mask0_507_752)">
<path fill-rule="evenodd" clip-rule="evenodd" d="M174.842 12.1005L-17.626 12.1005L-17.626 11.4836L174.842 11.4836L174.842 12.1005ZM174.842 18.3516L-17.626 18.3516L-17.626 17.7347L174.842 17.7347L174.842 18.3516ZM174.842 24.6027L-17.626 24.6027L-17.626 23.9858L174.842 23.9858L174.842 24.6027ZM174.842 30.8538L-17.626 30.8538L-17.626 30.2369L174.842 30.2369L174.842 30.8538ZM174.842 37.1049L-17.626 37.1049L-17.626 36.488L174.842 36.488L174.842 37.1049ZM174.842 43.3559L-17.626 43.3559L-17.626 42.7391L174.842 42.7391L174.842 43.3559ZM174.842 49.607L-17.626 49.607L-17.626 48.9901L174.842 48.9901L174.842 49.607ZM174.842 55.8581L-17.626 55.8581L-17.626 55.2412L174.842 55.2412L174.842 55.8581ZM174.842 62.1092L-17.626 62.1092L-17.626 61.4923L174.842 61.4923L174.842 62.1092ZM174.842 68.3603L-17.626 68.3603L-17.626 67.7434L174.842 67.7434L174.842 68.3603ZM174.842 74.6114L-17.626 74.6114L-17.626 73.9945L174.842 73.9945L174.842 74.6114ZM174.842 80.8624L-17.626 80.8624L-17.626 80.2456L174.842 80.2456L174.842 80.8624ZM174.842 87.1135L-17.626 87.1135L-17.626 86.4966L174.842 86.4966L174.842 87.1135ZM174.842 93.3646L-17.626 93.3646L-17.626 92.7477L174.842 92.7477L174.842 93.3646ZM174.842 99.6157L-17.626 99.6157L-17.626 98.9988L174.842 98.9988L174.842 99.6157ZM174.842 105.867L-17.626 105.867L-17.626 105.25L174.842 105.25L174.842 105.867Z" fill="black"/>
<path fill-rule="evenodd" clip-rule="evenodd" d="M174.842 112.036L-17.626 112.036L-17.626 111.419L174.842 111.419L174.842 112.036ZM174.842 118.287L-17.626 118.287L-17.626 117.67L174.842 117.67L174.842 118.287ZM174.842 124.538L-17.626 124.538L-17.626 123.921L174.842 123.921L174.842 124.538ZM174.842 130.789L-17.626 130.789L-17.626 130.172L174.842 130.172L174.842 130.789ZM174.842 137.04L-17.626 137.04L-17.626 136.423L174.842 136.423L174.842 137.04ZM174.842 143.291L-17.626 143.291L-17.626 142.674L174.842 142.674L174.842 143.291ZM174.842 149.542L-17.626 149.542L-17.626 148.925L174.842 148.925L174.842 149.542ZM174.842 155.793L-17.626 155.793L-17.626 155.176L174.842 155.176L174.842 155.793ZM174.842 162.044L-17.626 162.044L-17.626 161.427L174.842 161.427L174.842 162.044ZM174.842 168.295L-17.626 168.295L-17.626 167.678L174.842 167.678L174.842 168.295ZM174.842 174.546L-17.626 174.546L-17.626 173.93L174.842 173.93L174.842 174.546ZM174.842 180.797L-17.626 180.797L-17.626 180.181L174.842 180.181L174.842 180.797ZM174.842 187.049L-17.626 187.049L-17.626 186.432L174.842 186.432L174.842 187.049ZM174.842 193.3L-17.626 193.3L-17.626 192.683L174.842 192.683L174.842 193.3ZM174.842 199.551L-17.626 199.551L-17.626 198.934L174.842 198.934L174.842 199.551ZM174.842 205.802L-17.626 205.802L-17.626 205.185L174.842 205.185L174.842 205.802Z" fill="black"/>
<path fill-rule="evenodd" clip-rule="evenodd" d="M82.0007 177.117L82.0007 -15.3508L82.6176 -15.3508L82.6175 177.117L82.0007 177.117ZM75.7496 177.117L75.7496 -15.3508L76.3665 -15.3508L76.3665 177.117L75.7496 177.117ZM69.4985 177.117L69.4985 -15.3508L70.1154 -15.3508L70.1154 177.117L69.4985 177.117ZM63.2474 177.117L63.2474 -15.3508L63.8643 -15.3508L63.8643 177.117L63.2474 177.117ZM56.9963 177.117L56.9963 -15.3508L57.6132 -15.3508L57.6132 177.117L56.9963 177.117ZM50.7453 177.117L50.7453 -15.3508L51.3621 -15.3508L51.3621 177.117L50.7453 177.117ZM44.4942 177.117L44.4942 -15.3508L45.1111 -15.3508L45.1111 177.117L44.4942 177.117ZM38.2431 177.117L38.2431 -15.3508L38.86 -15.3508L38.86 177.117L38.2431 177.117ZM31.992 177.117L31.992 -15.3508L32.6089 -15.3508L32.6089 177.117L31.992 177.117ZM25.7409 177.117L25.7409 -15.3508L26.3578 -15.3508L26.3578 177.117L25.7409 177.117ZM19.4898 177.117L19.4899 -15.3508L20.1067 -15.3508L20.1067 177.117L19.4898 177.117ZM13.2388 177.117L13.2388 -15.3508L13.8557 -15.3508L13.8556 177.117L13.2388 177.117ZM6.98768 177.117L6.98769 -15.3508L7.60457 -15.3508L7.60456 177.117L6.98768 177.117ZM0.736594 177.117L0.736603 -15.3508L1.35349 -15.3508L1.35348 177.117L0.736594 177.117ZM-5.51448 177.117L-5.51447 -15.3508L-4.89759 -15.3508L-4.8976 177.117L-5.51448 177.117ZM-11.7656 177.117L-11.7656 -15.3508L-11.1487 -15.3508L-11.1487 177.117L-11.7656 177.117Z" fill="#242424"/>
<path fill-rule="evenodd" clip-rule="evenodd" d="M181.936 177.117L181.936 -15.3508L182.553 -15.3508L182.553 177.117L181.936 177.117ZM175.685 177.117L175.685 -15.3508L176.302 -15.3508L176.302 177.117L175.685 177.117ZM169.434 177.117L169.434 -15.3508L170.05 -15.3508L170.05 177.117L169.434 177.117ZM163.182 177.117L163.182 -15.3508L163.799 -15.3508L163.799 177.117L163.182 177.117ZM156.931 177.117L156.931 -15.3508L157.548 -15.3508L157.548 177.117L156.931 177.117ZM150.68 177.117L150.68 -15.3508L151.297 -15.3508L151.297 177.117L150.68 177.117ZM144.429 177.117L144.429 -15.3508L145.046 -15.3508L145.046 177.117L144.429 177.117ZM138.178 177.117L138.178 -15.3508L138.795 -15.3508L138.795 177.117L138.178 177.117ZM131.927 177.117L131.927 -15.3508L132.544 -15.3508L132.544 177.117L131.927 177.117ZM125.676 177.117L125.676 -15.3508L126.293 -15.3508L126.293 177.117L125.676 177.117ZM119.425 177.117L119.425 -15.3508L120.042 -15.3508L120.042 177.117L119.425 177.117ZM113.174 177.117L113.174 -15.3508L113.791 -15.3508L113.791 177.117L113.174 177.117ZM106.923 177.117L106.923 -15.3508L107.54 -15.3508L107.54 177.117L106.923 177.117ZM100.672 177.117L100.672 -15.3508L101.289 -15.3508L101.289 177.117L100.672 177.117ZM94.4206 177.117L94.4206 -15.3508L95.0375 -15.3508L95.0375 177.117L94.4206 177.117ZM88.1695 177.117L88.1695 -15.3508L88.7864 -15.3508L88.7864 177.117L88.1695 177.117Z" fill="#242424"/>
</g>
<g filter="url(#filter0_d_507_752)">
<path fill-rule="evenodd" clip-rule="evenodd" d="M151.256 73.5857C152.037 74.3667 152.037 75.633 151.256 76.4141L146.67 80.9999L151.256 85.5857C152.037 86.3667 152.037 87.633 151.256 88.4141C150.475 89.1951 149.208 89.1951 148.427 88.4141L142.427 82.4141C141.646 81.633 141.646 80.3667 142.427 79.5857L148.427 73.5857C149.208 72.8046 150.475 72.8046 151.256 73.5857Z" fill="#CCFF00"/>
</g>
<g filter="url(#filter1_d_507_752)">
<path fill-rule="evenodd" clip-rule="evenodd" d="M86.2558 34.4141C85.4747 35.1951 84.2084 35.1951 83.4273 34.4141L78.8416 29.8283L74.2558 34.4141C73.4747 35.1951 72.2084 35.1951 71.4273 34.4141C70.6463 33.633 70.6463 32.3667 71.4273 31.5857L77.4273 25.5857C78.2084 24.8046 79.4747 24.8046 80.2558 25.5857L86.2558 31.5857C87.0368 32.3667 87.0368 33.633 86.2558 34.4141Z" fill="#CCFF00"/>
</g>
<g filter="url(#filter2_d_507_752)">
<path fill-rule="evenodd" clip-rule="evenodd" d="M86.2558 128.586C85.4747 127.805 84.2084 127.805 83.4273 128.586L78.8416 133.171L74.2558 128.586C73.4747 127.805 72.2084 127.805 71.4273 128.586C70.6463 129.367 70.6463 130.633 71.4273 131.414L77.4273 137.414C78.2084 138.195 79.4747 138.195 80.2558 137.414L86.2558 131.414C87.0368 130.633 87.0368 129.367 86.2558 128.586Z" fill="#CCFF00"/>
</g>
<g filter="url(#filter3_d_507_752)">
<path fill-rule="evenodd" clip-rule="evenodd" d="M8.42734 73.5857C7.64629 74.3667 7.64629 75.633 8.42734 76.4141L13.0131 80.9999L8.42734 85.5857C7.64629 86.3667 7.64629 87.633 8.42734 88.4141C9.20839 89.1951 10.4747 89.1951 11.2558 88.4141L17.2558 82.4141C18.0368 81.633 18.0368 80.3667 17.2558 79.5857L11.2558 73.5857C10.4747 72.8046 9.20839 72.8046 8.42734 73.5857Z" fill="#CCFF00"/>
</g>
<path d="M99.4627 50.1129C102.295 47.2955 106.886 47.2955 109.718 50.1129C112.55 52.9304 112.55 57.4983 109.718 60.3157C106.886 63.1332 102.295 63.1332 99.4627 60.3157C96.6308 57.4983 96.6308 52.9304 99.4627 50.1129Z" fill="#CCFF00"/>
<path d="M45.8416 76.1239C45.8416 62.1784 57.2045 50.8733 71.2214 50.8733L86.4458 50.8733C89.1523 50.8733 91.4469 52.8533 91.8297 55.5189L92.0827 57.2811C92.8803 62.836 97.2672 67.2005 102.85 67.994L104.622 68.2458C107.301 68.6266 109.291 70.9026 109.291 73.5953C109.291 77.2326 109.291 82.6679 109.291 88.7453C109.291 102.691 97.9282 114 83.9113 114L71.2214 114C57.2045 114 45.8416 102.695 45.8416 88.7492L45.8416 76.1239Z" fill="#CCFF00"/>
<path d="M87.2983 73.3941L87.2983 86.2402C87.2983 86.8474 87.4805 87.3145 87.8449 87.5948C88.2093 87.9218 88.6648 88.062 89.2569 88.062C90.2589 88.062 91.0788 87.3613 91.6709 85.9132C92.2175 84.4651 92.5363 82.7367 92.5363 80.7747C92.5363 76.7107 91.1243 73.3941 88.3459 70.8716C85.5675 68.3491 82.1058 67.0878 78.0065 67.0878C73.5884 67.0878 69.899 68.5826 66.9384 71.4789C63.9778 74.3751 62.5202 78.0654 62.5202 82.5031C62.5202 86.9408 63.9322 90.5845 66.8473 93.3872C69.7624 96.19 73.4062 97.5914 77.8699 97.5914C81.0088 97.5914 83.9945 96.711 86.8268 94.9503C87.8419 94.3193 89.2095 94.5614 89.8315 95.5821C90.341 96.4181 90.1782 97.5106 89.382 98.0803C86.182 100.37 82.3802 101.515 77.9154 101.515C72.1764 101.515 67.485 99.7402 63.8411 96.19C60.1518 92.6398 58.3298 88.1554 58.3298 82.6433C58.3298 77.0377 60.1973 72.4131 63.9778 68.7228C67.7583 65.0325 72.4497 63.1639 78.0065 63.1639C83.2445 63.1639 87.6627 64.8456 91.261 68.1155C94.8593 71.3854 96.6812 75.5896 96.6812 80.6813C96.6812 82.0827 96.499 83.3907 96.2257 84.6052C95.9069 85.8197 95.4058 87.0343 94.7682 88.2021C94.1305 89.3699 93.174 90.3042 91.9442 90.9582C90.6689 91.6589 89.2113 91.9858 87.5261 91.9858C84.7021 91.9858 82.7891 91.0516 81.787 89.1364C80.4206 91.0049 78.4165 91.9391 75.7747 91.9391C73.224 91.9391 71.1288 91.0983 69.4891 89.3699C67.8493 87.6883 67.0295 85.3526 67.0295 82.4564C67.0295 79.5602 67.8493 77.2713 69.5346 75.5429C71.1743 73.8612 73.2696 72.9737 75.7747 72.9737C77.961 72.9737 79.7374 73.6744 81.1038 75.029L81.1038 73.3941L87.2983 73.3941ZM77.5966 86.1934C78.5531 86.1934 79.373 85.8664 80.0562 85.1658C80.7394 84.4651 81.1038 83.5308 81.1038 82.363C81.1038 81.2419 80.7394 80.3543 80.0562 79.6536C79.373 78.9996 78.5531 78.6259 77.5966 78.6259C76.5946 78.6259 75.7747 78.9996 75.0915 79.6536C74.3627 80.3543 74.0439 81.2419 74.0439 82.363C74.0439 83.5308 74.3627 84.4651 75.0915 85.1658C75.7747 85.8664 76.5946 86.1934 77.5966 86.1934Z" fill="black"/>
<path fill-rule="evenodd" clip-rule="evenodd" d="M1.42103 99.8162C2.35089 100.412 2.6214 101.649 2.02522 102.579L-64.6584 206.586L-64.6584 289C-64.6584 290.104 -65.5539 291 -66.6584 291C-67.763 291 -68.6584 290.104 -68.6584 289L-68.6584 206C-68.6584 205.617 -68.5487 205.243 -68.3421 204.92L-1.34211 100.42C-0.745934 99.4905 0.491173 99.22 1.42103 99.8162Z" fill="#CCFF00"/>
</g>
<rect x="158.937" y="19.9042" width="123.191" height="156.966" rx="18.0957" transform="rotate(90 158.937 19.9042)" stroke="black" stroke-width="3.80861"/>
<rect x="158.937" y="19.9042" width="123.191" height="156.966" rx="18.0957" transform="rotate(90 158.937 19.9042)" stroke="black" stroke-opacity="0.2" stroke-width="3.80861"/>
<path d="M110.227 143L110.227 149.675C110.227 152.063 108.291 154 105.902 154L53.0215 154C50.6327 154 48.6962 152.063 48.6962 149.675L48.6962 143L110.227 143Z" fill="#505050"/>
<path fill-rule="evenodd" clip-rule="evenodd" d="M108.227 149.675L108.227 145L50.6962 145L50.6962 149.675C50.6962 150.959 51.7373 152 53.0215 152L105.902 152C107.186 152 108.227 150.959 108.227 149.675ZM110.227 143L48.6962 143L48.6962 149.675C48.6962 152.063 50.6327 154 53.0215 154L105.902 154C108.291 154 110.227 152.063 110.227 149.675L110.227 143Z" fill="black"/>
<path d="M110.227 20L110.227 13.3253C110.227 10.9365 108.291 9 105.902 9L54.014 9C51.6252 9 49.6886 10.9365 49.6886 13.3253L49.6886 20L110.227 20Z" fill="#505050"/>
<path fill-rule="evenodd" clip-rule="evenodd" d="M108.227 13.3253L108.227 18L51.6886 18L51.6886 13.3253C51.6886 12.0411 52.7297 11 54.014 11L105.902 11C107.186 11 108.227 12.0411 108.227 13.3253ZM110.227 20L49.6886 20L49.6886 13.3253C49.6886 10.9365 51.6252 9 54.014 9L105.902 9C108.291 9 110.227 10.9365 110.227 13.3253L110.227 20Z" fill="black"/>
<path d="M100.303 152L100.303 158.675C100.303 161.063 98.3665 163 95.9777 163L63.9384 163C61.5496 163 59.6131 161.063 59.6131 158.675L59.6131 152L100.303 152Z" fill="#CCFF00"/>
<path fill-rule="evenodd" clip-rule="evenodd" d="M98.303 158.675L98.303 154L61.6131 154L61.6131 158.675C61.6131 159.959 62.6541 161 63.9384 161L95.9777 161C97.2619 161 98.303 159.959 98.303 158.675ZM100.303 152L59.6131 152L59.6131 158.675C59.6131 161.063 61.5496 163 63.9384 163L95.9777 163C98.3665 163 100.303 161.063 100.303 158.675L100.303 152Z" fill="black"/>
<path d="M100.303 11L100.303 4.32533C100.303 1.93651 98.3665 1.82171e-06 95.9777 1.71606e-06L63.9384 2.9913e-07C61.5496 1.93485e-07 59.6131 1.93651 59.6131 4.32532L59.6131 11L100.303 11Z" fill="#CCFF00"/>
<path fill-rule="evenodd" clip-rule="evenodd" d="M98.303 4.32533L98.303 9L61.6131 9L61.6131 4.32532C61.6131 3.04108 62.6541 2 63.9384 2L95.9777 2C97.2619 2 98.303 3.04109 98.303 4.32533ZM100.303 11L59.6131 11L59.6131 4.32532C59.6131 1.93651 61.5496 1.93485e-07 63.9384 2.9913e-07L95.9777 1.71606e-06C98.3665 1.82171e-06 100.303 1.93651 100.303 4.32533L100.303 11Z" fill="black"/>
</g>
<defs>
<filter id="filter0_d_507_752" x="139.042" y="70.1999" width="15.6" height="21.6" filterUnits="userSpaceOnUse" color-interpolation-filters="sRGB">
<feFlood flood-opacity="0" result="BackgroundImageFix"/>
<feColorMatrix in="SourceAlpha" type="matrix" values="0 0 0 0 0 0 0 0 0 0 0 0 0 0 0 0 0 0 127 0" result="hardAlpha"/>
<feOffset/>
<feGaussianBlur stdDeviation="1.4"/>
<feComposite in2="hardAlpha" operator="out"/>
<feColorMatrix type="matrix" values="0 0 0 0 0.8 0 0 0 0 1 0 0 0 0 0 0 0 0 1 0"/>
<feBlend mode="normal" in2="BackgroundImageFix" result="effect1_dropShadow_507_752"/>
<feBlend mode="normal" in="SourceGraphic" in2="effect1_dropShadow_507_752" result="shape"/>
</filter>
<filter id="filter1_d_507_752" x="68.0416" y="22.1999" width="21.6" height="15.6" filterUnits="userSpaceOnUse" color-interpolation-filters="sRGB">
<feFlood flood-opacity="0" result="BackgroundImageFix"/>
<feColorMatrix in="SourceAlpha" type="matrix" values="0 0 0 0 0 0 0 0 0 0 0 0 0 0 0 0 0 0 127 0" result="hardAlpha"/>
<feOffset/>
<feGaussianBlur stdDeviation="1.4"/>
<feComposite in2="hardAlpha" operator="out"/>
<feColorMatrix type="matrix" values="0 0 0 0 0.8 0 0 0 0 1 0 0 0 0 0 0 0 0 1 0"/>
<feBlend mode="normal" in2="BackgroundImageFix" result="effect1_dropShadow_507_752"/>
<feBlend mode="normal" in="SourceGraphic" in2="effect1_dropShadow_507_752" result="shape"/>
</filter>
<filter id="filter2_d_507_752" x="68.0416" y="125.2" width="21.6" height="15.6" filterUnits="userSpaceOnUse" color-interpolation-filters="sRGB">
<feFlood flood-opacity="0" result="BackgroundImageFix"/>
<feColorMatrix in="SourceAlpha" type="matrix" values="0 0 0 0 0 0 0 0 0 0 0 0 0 0 0 0 0 0 127 0" result="hardAlpha"/>
<feOffset/>
<feGaussianBlur stdDeviation="1.4"/>
<feComposite in2="hardAlpha" operator="out"/>
<feColorMatrix type="matrix" values="0 0 0 0 0.8 0 0 0 0 1 0 0 0 0 0 0 0 0 1 0"/>
<feBlend mode="normal" in2="BackgroundImageFix" result="effect1_dropShadow_507_752"/>
<feBlend mode="normal" in="SourceGraphic" in2="effect1_dropShadow_507_752" result="shape"/>
</filter>
<filter id="filter3_d_507_752" x="5.04155" y="70.1999" width="15.6" height="21.6" filterUnits="userSpaceOnUse" color-interpolation-filters="sRGB">
<feFlood flood-opacity="0" result="BackgroundImageFix"/>
<feColorMatrix in="SourceAlpha" type="matrix" values="0 0 0 0 0 0 0 0 0 0 0 0 0 0 0 0 0 0 127 0" result="hardAlpha"/>
<feOffset/>
<feGaussianBlur stdDeviation="1.4"/>
<feComposite in2="hardAlpha" operator="out"/>
<feColorMatrix type="matrix" values="0 0 0 0 0.8 0 0 0 0 1 0 0 0 0 0 0 0 0 1 0"/>
<feBlend mode="normal" in2="BackgroundImageFix" result="effect1_dropShadow_507_752"/>
<feBlend mode="normal" in="SourceGraphic" in2="effect1_dropShadow_507_752" result="shape"/>
</filter>
<clipPath id="clip0_507_752">
<rect width="161" height="163" fill="white"/>
</clipPath>
<clipPath id="clip1_507_752">
<rect x="160.842" y="17.9999" width="127" height="160.775" rx="20" transform="rotate(90 160.842 17.9999)" fill="white"/>
</clipPath>
</defs>
</svg>
