<svg width="16" height="16" viewBox="0 0 16 16" fill="none" xmlns="http://www.w3.org/2000/svg">
<path d="M9.8125 1H3.16071C2.52083 1 2 1.52083 2 2.16071V13.8553C2 14.4952 2.52083 15.016 3.16071 15.016H11.9237C12.5636 15.016 13.0844 14.4952 13.0844 13.8553V3.86644L9.8125 1Z" fill="black"/>
<path d="M4.05469 6.03521C4.05469 6.39049 4.34487 6.67881 4.69829 6.67881H10.3847C10.74 6.67881 11.0283 6.38863 11.0283 6.03521C11.0283 5.67993 10.7381 5.39161 10.3847 5.39161H4.70015C4.34487 5.38975 4.05469 5.67993 4.05469 6.03521ZM10.3847 9.33692H4.70015C4.34487 9.33692 4.05655 9.6271 4.05655 9.98052C4.05655 10.3358 4.34673 10.6241 4.70015 10.6241H10.3865C10.7418 10.6241 11.0301 10.3339 11.0301 9.98052C11.0301 9.6271 10.74 9.33692 10.3847 9.33692Z" fill="white"/>
</svg>
