<svg width="34" height="26" viewBox="0 0 34 26" fill="none" xmlns="http://www.w3.org/2000/svg">
<g clip-path="url(#clip0_3697_19377)">
<rect x="6.26928" y="6.83178" width="21.1267" height="18.0735" rx="2.89738" fill="black" stroke="black" stroke-width="0.245593"/>
<rect x="7.85221" y="9.09245" width="17.9591" height="12.5312" rx="1.87247" fill="#CCFF00" stroke="black" stroke-width="0.0208288"/>
<path d="M6.06462 11.2H4.46512C4.31477 11.2 4.19289 11.3219 4.19289 11.4723V19.5844C4.19289 19.7347 4.31477 19.8566 4.46512 19.8566H6.06462V11.2Z" fill="black" stroke="black" stroke-width="0.163729"/>
<path d="M27.596 11.2H29.1955C29.3459 11.2 29.4678 11.3219 29.4678 11.4723V19.5844C29.4678 19.7347 29.3459 19.8566 29.1955 19.8566H27.596V11.2Z" fill="black" stroke="black" stroke-width="0.163729"/>
<path d="M3.34441 12.8944H2.42339C2.27304 12.8944 2.15116 13.0162 2.15116 13.1666V18.2255C2.15116 18.3759 2.27304 18.4978 2.42339 18.4978H3.34441V12.8944Z" fill="black" stroke="black" stroke-width="0.163729"/>
<path d="M30.3138 12.8944H31.2348C31.3852 12.8944 31.507 13.0162 31.507 13.1666V18.2255C31.507 18.3759 31.3852 18.4978 31.2348 18.4978H30.3138V12.8944Z" fill="black" stroke="black" stroke-width="0.163729"/>
<path d="M12.9258 6.70793C12.9258 5.77114 13.6852 5.01172 14.622 5.01172H18.6929C19.6297 5.01172 20.3891 5.77114 20.3891 6.70793H12.9258Z" fill="black"/>
<rect x="15.9824" y="2.63867" width="1.35697" height="2.3747" fill="black"/>
<path d="M14.9629 1.56991C14.9629 0.660262 15.7003 -0.0771484 16.6099 -0.0771484H16.7083C17.6179 -0.0771484 18.3553 0.660264 18.3553 1.56991V1.66823C18.3553 2.57787 17.6179 3.31528 16.7083 3.31528H16.6099C15.7003 3.31528 14.9629 2.57787 14.9629 1.66822V1.56991Z" fill="black"/>
<rect x="14.9629" y="22.6533" width="3.88406" height="0.751753" rx="0.375876" fill="black"/>
<path d="M18.3967 13.134C18.7535 13.134 19.0428 13.4232 19.0428 13.7801V15.8136C19.0428 15.9403 19.0808 16.0378 19.1568 16.0962C19.2328 16.1644 19.3278 16.1937 19.4513 16.1937C19.6603 16.1937 19.8314 16.0475 19.9549 15.7454C20.0689 15.4434 20.1354 15.0828 20.1354 14.6736C20.1354 13.8258 19.8409 13.134 19.2613 12.6078C18.6817 12.0816 17.9596 11.8185 17.1045 11.8185C16.1829 11.8185 15.4133 12.1303 14.7957 12.7345C14.1781 13.3386 13.8741 14.1084 13.8741 15.0341C13.8741 15.9598 14.1686 16.7199 14.7767 17.3045C15.3848 17.8892 16.1449 18.1815 17.076 18.1815C17.7308 18.1815 18.3536 17.9978 18.9444 17.6306C19.1561 17.4989 19.4414 17.5494 19.5712 17.7623C19.6774 17.9367 19.6435 18.1646 19.4774 18.2835C18.8099 18.7612 18.0168 19 17.0855 19C15.8884 19 14.9097 18.6297 14.1496 17.8892C13.38 17.1486 13 16.2132 13 15.0633C13 13.894 13.3895 12.9294 14.1781 12.1596C14.9667 11.3898 15.9454 11 17.1045 11C18.1971 11 19.1188 11.3508 19.8694 12.0329C20.62 12.715 21 13.592 21 14.6541C21 14.9464 20.962 15.2192 20.905 15.4726C20.8385 15.7259 20.734 15.9793 20.6009 16.2229C20.4679 16.4665 20.2684 16.6614 20.0119 16.7978C19.7458 16.944 19.4418 17.0122 19.0903 17.0122C18.4394 17.0122 17.3185 16.9941 16.6677 17.0023C16.6582 17.0024 16.6486 17.0024 16.639 17.0024C16.1069 17.0024 15.6698 16.827 15.3278 16.4665C14.9857 16.1157 14.8147 15.6285 14.8147 15.0244C14.8147 14.4202 14.9857 13.9428 15.3373 13.5822C15.6793 13.2314 16.1164 13.0463 16.639 13.0463C17.0026 13.0463 17.3118 13.1392 17.5667 13.3201C17.6394 13.3717 17.7506 13.3235 17.7506 13.2343C17.7506 13.1789 17.7955 13.134 17.8509 13.134H18.3967ZM17.019 15.8039C17.2185 15.8039 17.3895 15.7357 17.5321 15.5895C17.6746 15.4434 17.7506 15.2485 17.7506 15.0049C17.7506 14.771 17.6746 14.5859 17.5321 14.4397C17.3895 14.3033 17.2185 14.2253 17.019 14.2253C16.81 14.2253 16.639 14.3033 16.4964 14.4397C16.3444 14.5859 16.2779 14.771 16.2779 15.0049C16.2779 15.2485 16.3444 15.4434 16.4964 15.5895C16.639 15.7357 16.81 15.8039 17.019 15.8039Z" fill="black"/>
</g>
<defs>
<clipPath id="clip0_3697_19377">
<rect width="34" height="26" fill="white"/>
</clipPath>
</defs>
</svg>
