<svg width="46" height="46" viewBox="0 0 46 46" fill="none" xmlns="http://www.w3.org/2000/svg">
<rect x="7.52089" y="13.8793" width="30.4755" height="26.0713" rx="4.17951" fill="black" stroke="black" stroke-width="0.354271"/>
<rect x="9.80409" y="17.141" width="25.9061" height="18.0763" rx="2.70105" fill="white" stroke="black" stroke-width="0.0300458"/>
<path d="M4.91797 20.1807C4.70128 20.1809 4.52541 20.3565 4.52539 20.5732V32.2754C4.52553 32.492 4.70136 32.6678 4.91797 32.668H7.22559V20.1807H4.91797Z" fill="black" stroke="black" stroke-width="0.23618"/>
<path d="M40.5898 20.1807C40.8065 20.1809 40.9824 20.3565 40.9824 20.5732V32.2754C40.9823 32.492 40.8065 32.6678 40.5898 32.668H38.2822V20.1807H40.5898Z" fill="black" stroke="black" stroke-width="0.23618"/>
<path d="M1.97559 22.626C1.75872 22.626 1.58205 22.8017 1.58203 23.0186V30.3164C1.58215 30.5332 1.75879 30.709 1.97559 30.709H3.30371V22.626H1.97559Z" fill="black" stroke="black" stroke-width="0.23618"/>
<path d="M43.5322 22.626C43.7491 22.626 43.9258 22.8017 43.9258 23.0186V30.3164C43.9257 30.5332 43.749 30.709 43.5322 30.709H42.2041V22.626H43.5322Z" fill="black" stroke="black" stroke-width="0.23618"/>
<path d="M17.1211 13.7007C17.1211 12.3494 18.2166 11.2539 19.5679 11.2539H25.4402C26.7916 11.2539 27.8871 12.3494 27.8871 13.7007H17.1211Z" fill="black"/>
<rect x="21.5312" y="7.83105" width="1.95745" height="3.42553" fill="black"/>
<path d="M20.0664 6.28996C20.0664 4.97779 21.1301 3.91406 22.4423 3.91406H22.5841C23.8963 3.91406 24.96 4.97779 24.96 6.28996V6.43178C24.96 7.74395 23.8963 8.80768 22.5841 8.80768H22.4423C21.1301 8.80768 20.0664 7.74395 20.0664 6.43178V6.28996Z" fill="black"/>
<rect x="20.0664" y="36.7031" width="5.6028" height="1.08441" rx="0.542206" fill="black"/>
<path d="M17.9648 20.4482C17.9648 23.5103 20.3745 26.0301 23.4335 26.1669L23.6158 26.175L23.0039 26.2206C20.1623 26.4324 17.9648 28.7997 17.9648 31.6491" stroke="black" stroke-width="1.70284"/>
<path d="M28.0508 20.4482C28.0508 23.5103 25.6411 26.0301 22.5821 26.1669L22.3999 26.175L23.0117 26.2206C25.8533 26.4324 28.0508 28.7997 28.0508 31.6491" stroke="black" stroke-width="1.70284"/>
<rect x="15.9453" y="19.0352" width="14.0264" height="1.41273" rx="0.706363" fill="black"/>
<rect x="15.9453" y="31.6484" width="14.0264" height="1.41273" rx="0.706363" fill="black"/>
<path d="M26.134 31.0439H19.6758C19.6758 31.0439 20.204 27.7139 22.9635 27.7139C25.723 27.7139 26.134 31.0439 26.134 31.0439Z" fill="#CCFF00"/>
<path d="M26.134 21.0391H19.6758C19.6758 21.0391 20.204 24.3691 22.9635 24.3691C25.723 24.3691 26.134 21.0391 26.134 21.0391Z" fill="#CCFF00"/>
</svg>
