<svg width="98" height="98" viewBox="0 0 98 98" fill="none" xmlns="http://www.w3.org/2000/svg">
<path d="M13.4978 44.4026V45.2282L12.9224 45.8203L8.31291 50.5627H59.4921C63.6484 50.5627 67.0178 47.1933 67.0178 43.037V22.5519C67.0178 18.3955 63.6484 15.0262 59.4921 15.0262H21.0235C16.8672 15.0262 13.4978 18.3955 13.4978 22.5519V44.4026Z" fill="white" stroke="black" stroke-width="4.06796"/>
<rect width="19.7587" height="3.48682" rx="1.74341" transform="matrix(-1 0 0 1 53.4199 25.0508)" fill="black"/>
<rect width="26.7323" height="3.48682" rx="1.74341" transform="matrix(-1 0 0 1 53.4199 35.5117)" fill="black"/>
<path d="M85.1677 75.1304V75.8969L85.6736 76.4728L90.5058 81.9733H40.3732C36.2168 81.9733 32.8475 78.6039 32.8475 74.4476V52.5968C32.8475 48.4405 36.2168 45.0711 40.3732 45.0711H77.642C81.7983 45.0711 85.1677 48.4405 85.1677 52.5968V75.1304Z" fill="#CCFF00" stroke="black" stroke-width="4.06796"/>
<rect x="45.2832" y="56.4326" width="18.5964" height="3.48682" rx="1.74341" fill="black"/>
<rect x="45.2832" y="66.8926" width="27.8946" height="3.48682" rx="1.74341" fill="black"/>
</svg>
