<svg width="20" height="20" viewBox="0 0 20 20" fill="none" xmlns="http://www.w3.org/2000/svg">
<g clip-path="url(#clip0_8150_8503)">
<path d="M5 17L2.5 17.5L3 14.5C2.33333 14.6667 1 12 1 9C1 3 7.5 1 10 1C12.5 1 18.5 2.5 19 9C19.5 15.5 13 17.5 11.5 18C10.3 18.4 6.33333 17.5 5 17Z" fill="#CCFF00"/>
<path d="M2.85122 2.8758C4.75154 1.00952 7.30859 -0.0361328 9.97209 -0.0361328C12.6356 -0.0361328 15.1926 1.00952 17.093 2.8758C18.8703 4.58625 19.8961 6.93211 19.9453 9.39828C19.9456 10.3659 19.7768 11.3261 19.4467 12.2357C19.1324 13.1071 18.6995 13.931 18.1601 14.6841L19.3669 17.7608C19.4365 17.9322 19.4547 18.1201 19.4192 18.3016C19.3838 18.4832 19.2963 18.6505 19.1674 18.7831C19.0845 18.881 18.9815 18.9597 18.8653 19.014C18.749 19.0682 18.6225 19.0966 18.4942 19.0972C18.3857 19.0952 18.2781 19.0767 18.1751 19.0424L14.46 17.8007C13.062 18.4821 11.5273 18.8367 9.97209 18.8379C7.31095 18.8406 4.756 17.7943 2.86119 15.9258C1.97838 15.0783 1.27121 14.0652 0.780077 12.9443C0.28895 11.8235 0.0234928 10.6168 -0.00112534 9.3933C0.0488224 6.92875 1.07467 4.58472 2.85122 2.8758ZM15.956 14.3799L16.5295 13.612C17.0043 12.9978 17.3765 12.3107 17.6315 11.5774C17.8764 10.8803 18.0028 10.1471 18.0055 9.40826C17.9885 8.42495 17.7715 7.4554 17.3677 6.55866C16.9639 5.66193 16.3818 4.85678 15.6568 4.19227C14.1236 2.73369 12.0883 1.92027 9.97209 1.92027C7.85588 1.92027 5.82063 2.73369 4.28736 4.19227C3.56364 4.85356 2.98216 5.6553 2.57837 6.54862C2.17457 7.44194 1.95692 8.40814 1.93867 9.38831C1.95451 10.3718 2.17099 11.3417 2.57486 12.2386C2.97872 13.1355 3.56145 13.9405 4.28736 14.6043C5.82637 16.0535 7.85816 16.8645 9.97209 16.8732C11.2716 16.8827 12.5538 16.5745 13.7071 15.9756L14.3304 15.6864L16.7938 16.5092L15.956 14.3799Z" fill="black"/>
<path d="M5.76883 12.261C6.97506 13.1902 8.45489 13.6941 9.97753 13.6941C11.5002 13.6941 12.98 13.1902 14.1862 12.261C14.326 12.1355 14.4135 11.962 14.4312 11.775C14.4489 11.588 14.3956 11.4012 14.2819 11.2516C14.1682 11.1021 14.0024 11.0009 13.8174 10.968C13.6325 10.9351 13.4419 10.973 13.2837 11.0742C12.3377 11.8077 11.1746 12.2058 9.97753 12.2058C8.78048 12.2058 7.61741 11.8077 6.67141 11.0742C6.59312 11.0146 6.50364 10.9714 6.4083 10.9471C6.31296 10.9228 6.2137 10.918 6.11645 10.9329C6.0192 10.9478 5.92594 10.9821 5.84223 11.0338C5.75852 11.0855 5.68607 11.1535 5.62921 11.2338C5.56804 11.3139 5.5237 11.4056 5.49885 11.5032C5.474 11.6009 5.46915 11.7026 5.48459 11.8022C5.49861 11.8939 5.53102 11.9818 5.57986 12.0607C5.62871 12.1395 5.69298 12.2076 5.76883 12.261ZM6.30739 7.4639C6.2876 7.15531 6.15106 6.86583 5.92553 6.65429C5.69999 6.44275 5.40237 6.32502 5.09315 6.32502C4.78393 6.32502 4.4863 6.44275 4.26077 6.65429C4.03523 6.86583 3.89869 7.15531 3.87891 7.4639C3.89869 7.77248 4.03523 8.06196 4.26077 8.2735C4.4863 8.48504 4.78393 8.60278 5.09315 8.60278C5.40237 8.60278 5.69999 8.48504 5.92553 8.2735C6.15106 8.06196 6.2876 7.77248 6.30739 7.4639ZM14.8544 8.67564C15.0136 8.67564 15.1711 8.6443 15.3181 8.58341C15.4652 8.52251 15.5987 8.43325 15.7113 8.32073C15.8238 8.20821 15.913 8.07463 15.9739 7.92761C16.0348 7.7806 16.0662 7.62303 16.0662 7.4639C16.0672 7.22283 15.9965 6.9869 15.8632 6.78605C15.7299 6.58519 15.5399 6.42847 15.3174 6.33576C15.0948 6.24305 14.8498 6.21854 14.6133 6.26533C14.3768 6.31211 14.1596 6.4281 13.9891 6.59856C13.8186 6.76902 13.7027 6.98628 13.6559 7.22277C13.6091 7.45926 13.6336 7.70431 13.7263 7.92684C13.819 8.14937 13.9757 8.33935 14.1766 8.47267C14.3774 8.60598 14.6134 8.67663 14.8544 8.67564Z" fill="black"/>
</g>
<defs>
<clipPath id="clip0_8150_8503">
<rect width="20" height="20" fill="white"/>
</clipPath>
</defs>
</svg>
