<svg width="98" height="98" viewBox="0 0 98 98" fill="none" xmlns="http://www.w3.org/2000/svg">
<rect width="98" height="98" rx="49" fill="black"/>
<path d="M63.7707 26.8902C65.798 24.8732 69.085 24.8732 71.1123 26.8902C73.1396 28.9072 73.1396 32.1775 71.1123 34.1945C69.085 36.2115 65.798 36.2115 63.7707 34.1945C61.7433 32.1775 61.7433 28.9072 63.7707 26.8902Z" fill="black"/>
<path d="M25.3828 45.5117C25.3828 35.5279 33.5176 27.4345 43.5525 27.4345H54.4518C56.3894 27.4345 58.0321 28.852 58.3061 30.7604L58.4873 32.022C59.0583 35.9987 62.1989 39.1233 66.196 39.6914L67.464 39.8717C69.3822 40.1443 70.8069 41.7737 70.8069 43.7014C70.8069 46.3054 70.8069 50.1966 70.8069 54.5475C70.8069 64.5312 62.6721 72.6274 52.6373 72.6274H43.5525C33.5176 72.6274 25.3828 64.534 25.3828 54.5503V45.5117Z" fill="black"/>
<path d="M39.1996 51.7222C42.4662 48.4556 45.7329 46.8222 48.9996 46.8222C52.2662 46.8222 55.5329 48.4556 58.7996 51.7222C62.6107 48.4556 65.6051 46.8222 67.5107 46.8222C69.4162 46.8222 72.4107 48.4556 76.2218 51.7222C76.2218 36.75 63.9718 24.5 48.9996 24.5C34.0273 24.5 21.7773 36.75 21.7773 51.7222C25.5885 48.4556 28.5829 46.8222 30.4885 46.8222C32.394 46.8222 35.1162 48.4556 39.1996 51.7222Z" fill="#CCFF00"/>
<path d="M76.2214 54.4445C75.6769 54.4445 74.8602 54.1723 74.3158 53.9001C69.4158 49.8167 67.7825 49.5445 67.5102 49.5445C67.238 49.5445 65.3325 49.8167 60.7047 53.9001C59.6158 54.7167 57.9825 54.7167 56.8936 53.6278C51.4491 48.1834 46.5491 48.1834 40.8325 53.6278C39.7436 54.7167 38.1102 54.7167 37.0214 53.9001C32.1214 49.8167 30.488 49.5445 30.2158 49.5445C29.9436 49.5445 28.038 49.8167 23.4102 53.9001C22.5936 54.7167 21.5047 54.7167 20.4158 54.1723C19.5991 53.6278 19.0547 52.8112 19.0547 51.7223C19.0547 35.1167 32.3936 21.7778 48.9991 21.7778C65.6047 21.7778 78.9436 35.1167 78.9436 51.7223C78.9436 52.8112 78.3991 53.6278 77.3102 54.1723C77.038 54.4445 76.4936 54.4445 76.2214 54.4445ZM48.9991 44.1001C52.2658 44.1001 55.8047 45.4612 59.0714 48.1834C62.6102 45.4612 65.3325 44.1001 67.5102 44.1001C69.1436 44.1001 70.7769 44.6445 72.6825 45.7334C70.2325 35.1167 60.4325 27.2223 48.9991 27.2223C37.5658 27.2223 27.7658 35.1167 25.3158 45.7334C27.2214 44.6445 28.8547 44.1001 30.488 44.1001C32.6658 44.1001 35.388 45.4612 38.9269 48.1834C42.1936 45.4612 45.7325 44.1001 48.9991 44.1001Z" fill="#CCFF00"/>
<path d="M48.9991 81.6673C48.1825 81.6673 47.638 81.3951 47.0936 80.8506L19.8714 53.6284C18.7825 52.5395 18.7825 50.9062 19.8714 49.8173C20.9602 48.7284 22.5936 48.7284 23.6825 49.8173L42.1936 68.3284L36.4769 52.5395C35.9325 51.1784 36.7491 49.5451 38.1102 49.0006C39.4714 48.4562 41.1047 49.2728 41.6491 50.6339L51.4491 77.8562C51.9936 78.9451 51.4491 80.3062 50.3602 81.1228C50.088 81.3951 49.5436 81.6673 48.9991 81.6673Z" fill="#CCFF00"/>
<path d="M49.0034 81.6673C48.459 81.6673 47.9145 81.3951 47.6423 81.1228C46.5534 80.3062 46.009 79.2173 46.5534 77.8562L56.3534 50.6339C56.8979 49.2728 58.5312 48.4562 59.8923 49.0006C61.2534 49.5451 62.0701 51.1784 61.5257 52.5395L55.809 68.3284L74.3201 49.8173C75.409 48.7284 77.0423 48.7284 78.1312 49.8173C79.2201 50.9062 79.2201 52.5395 78.1312 53.6284L50.909 80.8506C50.3645 81.3951 49.8201 81.6673 49.0034 81.6673Z" fill="#CCFF00"/>
<path d="M53.4494 32.4146V38.2505C53.4494 38.5264 53.5321 38.7386 53.6977 38.866C53.8632 39.0145 54.0701 39.0782 54.3391 39.0782C54.7944 39.0782 55.1668 38.7599 55.4358 38.102C55.6841 37.4441 55.829 36.6589 55.829 35.7676C55.829 33.9213 55.1875 32.4146 53.9253 31.2686C52.6631 30.1227 51.0904 29.5497 49.2281 29.5497C47.221 29.5497 45.5449 30.2288 44.1999 31.5445C42.8549 32.8603 42.1928 34.5368 42.1928 36.5528C42.1928 38.5689 42.8342 40.2242 44.1585 41.4974C45.4828 42.7707 47.1382 43.4074 49.1661 43.4074C50.5921 43.4074 51.9484 43.0074 53.2352 42.2075C53.6963 41.9209 54.3176 42.0309 54.6002 42.4945C54.8316 42.8743 54.7577 43.3707 54.396 43.6295C52.9422 44.6698 51.2151 45.19 49.1867 45.19C46.5795 45.19 44.4482 44.3836 42.7928 42.7707C41.1168 41.1579 40.2891 39.1206 40.2891 36.6165C40.2891 34.0699 41.1374 31.969 42.8549 30.2925C44.5724 28.616 46.7037 27.7671 49.2281 27.7671C51.6077 27.7671 53.6149 28.5311 55.2496 30.0166C56.8843 31.5021 57.712 33.412 57.712 35.7252C57.712 36.3618 57.6292 36.956 57.505 37.5078C57.3602 38.0596 57.1326 38.6113 56.8429 39.1419C56.5532 39.6724 56.1187 40.0968 55.56 40.3939C54.9806 40.7122 54.3184 40.8608 53.5528 40.8608C52.2699 40.8608 51.4008 40.4364 50.9456 39.5663C50.3248 40.4151 49.4144 40.8396 48.2142 40.8396C47.0554 40.8396 46.1036 40.4576 45.3587 39.6724C44.6138 38.9084 44.2413 37.8473 44.2413 36.5316C44.2413 35.2159 44.6138 34.176 45.3794 33.3908C46.1243 32.6268 47.0761 32.2236 48.2142 32.2236C49.2074 32.2236 50.0144 32.5419 50.6352 33.1574V32.4146H53.4494ZM49.0419 38.2293C49.4764 38.2293 49.8489 38.0808 50.1593 37.7624C50.4697 37.4441 50.6352 37.0197 50.6352 36.4892C50.6352 35.9798 50.4697 35.5766 50.1593 35.2583C49.8489 34.9612 49.4764 34.7914 49.0419 34.7914C48.5867 34.7914 48.2142 34.9612 47.9038 35.2583C47.5727 35.5766 47.4279 35.9798 47.4279 36.4892C47.4279 37.0197 47.5727 37.4441 47.9038 37.7624C48.2142 38.0808 48.5867 38.2293 49.0419 38.2293Z" fill="black"/>
</svg>
