<svg width="32" height="32" viewBox="0 0 32 32" fill="none" xmlns="http://www.w3.org/2000/svg">
<path d="M29.1144 1.99609C29.7582 1.99609 30.2807 2.51391 30.2854 3.15766C30.2891 3.79516 29.7754 4.31547 29.1379 4.31922H26.7823V7.51016C26.7823 11.2211 24.4498 14.3958 21.0676 15.9911C24.4498 17.5702 26.7823 20.7611 26.7823 24.472V27.663H29.1148C29.7563 27.663 30.2763 28.183 30.2763 28.8245C30.2763 29.4661 29.7563 29.9861 29.1148 29.9861H3.45194L3.24194 29.9673C2.60913 29.8705 2.17444 29.2789 2.27132 28.6461C2.36007 28.0655 2.86944 27.643 3.45663 27.6627H5.80788V24.4723C5.80788 20.7614 8.13819 17.5867 11.5226 15.9914C8.13819 14.4123 5.80788 11.2214 5.80788 7.51047V4.31922H3.45663C2.81507 4.31922 2.29507 3.79922 2.29507 3.15766C2.29507 2.51609 2.81507 1.99609 3.45663 1.99609H29.1144ZM24.4491 4.31922H8.13319V7.49391C8.13319 10.258 9.87569 12.8005 12.5579 14.0786C13.3698 14.5055 13.8338 15.2495 13.8338 15.9914C13.8573 16.8352 13.3457 17.6017 12.5579 17.9042C9.89194 19.1823 8.13319 21.7248 8.13538 24.4889V27.6939H9.43444V26.3411C9.43444 23.8452 10.3535 21.1092 13.2038 19.4461L13.6704 19.1917C14.7341 18.7323 15.6063 17.7595 16.2851 16.2761C16.8216 17.6498 17.7313 18.6227 19.0188 19.1917C22.5176 20.9995 23.0704 23.7167 23.0704 26.3408V27.6936H24.4488V24.5048C24.4488 21.7408 22.7088 19.1983 20.0263 17.9177C19.2148 17.4908 18.7504 16.7489 18.7504 16.0048C18.7504 15.1536 19.2144 14.4117 20.0263 14.0945C22.6923 12.8186 24.4488 10.2761 24.4488 7.50984V4.31922H24.4491ZM22.8282 8.99359C22.8282 10.5098 20.9623 12.208 19.2223 12.9286C18.1819 13.3602 17.2023 14.1717 16.2857 15.3639C15.4179 14.172 14.4663 13.3602 13.4376 12.9289C11.5785 12.1498 9.98788 10.5895 9.98788 8.99391H22.8282V8.99359Z" fill="black"/>
</svg>
