<svg width="16" height="16" viewBox="0 0 16 16" fill="none" xmlns="http://www.w3.org/2000/svg">
<g clip-path="url(#clip0_8752_9131)">
<path d="M8.00143 3.5C9.08923 3.5 10.1526 3.82257 11.0571 4.42692C11.9615 5.03127 12.6665 5.89025 13.0828 6.89524C13.4991 7.90024 13.608 9.0061 13.3958 10.073C13.1835 11.1399 12.6597 12.1199 11.8905 12.8891C11.1213 13.6583 10.1413 14.1821 9.07443 14.3943C8.00753 14.6065 6.90167 14.4976 5.89667 14.0813C4.89168 13.6651 4.0327 12.9601 3.42835 12.0556C2.824 11.1512 2.50143 10.0878 2.50143 9C2.50143 7.54131 3.08089 6.14236 4.11234 5.11091C5.14379 4.07946 6.54274 3.5 8.00143 3.5ZM8.00143 2C6.61696 2 5.26358 2.41054 4.11244 3.17971C2.96129 3.94888 2.06409 5.04213 1.53427 6.32122C1.00446 7.6003 0.865837 9.00777 1.13593 10.3656C1.40603 11.7235 2.07272 12.9708 3.05168 13.9497C4.03065 14.9287 5.27793 15.5954 6.6358 15.8655C7.99367 16.1356 9.40113 15.997 10.6802 15.4672C11.9593 14.9373 13.0525 14.0401 13.8217 12.889C14.5909 11.7378 15.0014 10.3845 15.0014 9C15.0014 7.14349 14.2639 5.36301 12.9512 4.05025C11.6384 2.7375 9.85795 2 8.00143 2ZM3.53143 0C3.33291 0.0017839 3.14286 0.0806734 3.00143 0.22L0.221431 3C0.151286 3.06929 0.0955934 3.15182 0.057583 3.2428C0.0195726 3.33378 0 3.4314 0 3.53C0 3.6286 0.0195726 3.72622 0.057583 3.8172C0.0955934 3.90818 0.151286 3.99071 0.221431 4.06C0.290504 4.13034 0.373022 4.18607 0.464073 4.22386C0.555125 4.26166 0.652849 4.28075 0.751431 4.28C0.850012 4.28075 0.947736 4.26166 1.03879 4.22386C1.12984 4.18607 1.21236 4.13034 1.28143 4.06L4.06143 1.28C4.16619 1.17511 4.23751 1.04154 4.2664 0.896136C4.29528 0.750737 4.28043 0.60004 4.22372 0.463077C4.16701 0.326113 4.07098 0.209028 3.94776 0.126608C3.82455 0.0441878 3.67967 0.000130387 3.53143 0ZM12.4714 0C12.3232 0.000130387 12.1783 0.0441878 12.0551 0.126608C11.9319 0.209028 11.8359 0.326113 11.7791 0.463077C11.7224 0.60004 11.7076 0.750737 11.7365 0.896136C11.7653 1.04154 11.8367 1.17511 11.9414 1.28L14.7214 4.06C14.8621 4.20045 15.0527 4.27934 15.2514 4.27934C15.4502 4.27934 15.6408 4.20045 15.7814 4.06C15.8516 3.99071 15.9073 3.90818 15.9453 3.8172C15.9833 3.72622 16.0029 3.6286 16.0029 3.53C16.0029 3.4314 15.9833 3.33378 15.9453 3.2428C15.9073 3.15182 15.8516 3.06929 15.7814 3L13.0014 0.22C12.86 0.0806734 12.67 0.0017839 12.4714 0Z" fill="black"/>
<path d="M8 4.82031C7.80109 4.82031 7.61032 4.89933 7.46967 5.03998C7.32902 5.18063 7.25 5.3714 7.25 5.57031V9.07031C7.25 9.26922 7.32902 9.45999 7.46967 9.60064C7.61032 9.74129 7.80109 9.82031 8 9.82031C8.19891 9.82031 8.38968 9.74129 8.53033 9.60064C8.67098 9.45999 8.75 9.26922 8.75 9.07031V5.57031C8.75 5.3714 8.67098 5.18063 8.53033 5.03998C8.38968 4.89933 8.19891 4.82031 8 4.82031Z" fill="black"/>
<path d="M8.00143 8.33447C7.80269 8.33519 7.61226 8.41424 7.47143 8.55447C7.40129 8.62377 7.34559 8.7063 7.30758 8.79727C7.26957 8.88825 7.25 8.98587 7.25 9.08447C7.25 9.18307 7.26957 9.28069 7.30758 9.37167C7.34559 9.46265 7.40129 9.54518 7.47143 9.61447L9.97143 12.0895C10.1121 12.2299 10.3027 12.3088 10.5014 12.3088C10.7002 12.3088 10.8908 12.2299 11.0314 12.0895C11.1016 12.0202 11.1573 11.9377 11.1953 11.8467C11.2333 11.7557 11.2529 11.6581 11.2529 11.5595C11.2529 11.4609 11.2333 11.3633 11.1953 11.2723C11.1573 11.1813 11.1016 11.0988 11.0314 11.0295L8.53143 8.55447C8.3906 8.41424 8.20017 8.33519 8.00143 8.33447Z" fill="black"/>
</g>
<defs>
<clipPath id="clip0_8752_9131">
<rect width="16" height="16" fill="white"/>
</clipPath>
</defs>
</svg>
