<svg width="20" height="20" viewBox="0 0 20 20" fill="none" xmlns="http://www.w3.org/2000/svg">
<rect x="0.789474" y="3.78947" width="18.4211" height="15.4211" rx="2.36842" fill="#CCFF00"/>
<rect x="0.789474" y="3.78947" width="18.4211" height="15.4211" rx="2.36842" stroke="black" stroke-width="1.57895"/>
<line x1="1.05078" y1="8.75545" x2="18.9455" y2="8.75545" stroke="black" stroke-width="1.57895"/>
<path d="M6.25 1.9375C6.25 1.41973 6.66973 1 7.1875 1C7.70527 1 8.125 1.41973 8.125 1.9375V5.0625C8.125 5.58027 7.70527 6 7.1875 6C6.66973 6 6.25 5.58027 6.25 5.0625V1.9375Z" fill="black"/>
<path d="M11.875 1.9375C11.875 1.41973 12.2947 1 12.8125 1C13.3303 1 13.75 1.41973 13.75 1.9375V5.0625C13.75 5.58027 13.3303 6 12.8125 6C12.2947 6 11.875 5.58027 11.875 5.0625V1.9375Z" fill="black"/>
</svg>
