<svg width="15" height="15" viewBox="0 0 15 15" fill="none" xmlns="http://www.w3.org/2000/svg">
<g clip-path="url(#clip0_9764_10208)">
<rect y="0.9375" width="15" height="13.125" rx="2.68421" fill="#F9FFE2"/>
<line x1="0.894531" y1="5.83029" x2="16.1051" y2="5.83029" stroke="black" stroke-width="1.34211"/>
</g>
<rect x="0.671053" y="1.60855" width="13.6579" height="11.7829" rx="2.01316" stroke="black" stroke-width="1.34211"/>
<path d="M4.6875 0.703125C4.6875 0.3148 5.0023 0 5.39062 0C5.77895 0 6.09375 0.3148 6.09375 0.703125V3.04688C6.09375 3.4352 5.77895 3.75 5.39062 3.75C5.0023 3.75 4.6875 3.4352 4.6875 3.04688V0.703125Z" fill="#F9FFE2"/>
<path d="M8.90625 0.703125C8.90625 0.3148 9.22105 0 9.60938 0C9.9977 0 10.3125 0.3148 10.3125 0.703125V3.04688C10.3125 3.4352 9.9977 3.75 9.60938 3.75C9.22105 3.75 8.90625 3.4352 8.90625 3.04688V0.703125Z" fill="#F9FFE2"/>
<defs>
<clipPath id="clip0_9764_10208">
<rect y="0.9375" width="15" height="13.125" rx="2.68421" fill="white"/>
</clipPath>
</defs>
</svg>
