<svg width="51" height="36" viewBox="0 0 51 36" fill="none" xmlns="http://www.w3.org/2000/svg">
<ellipse cx="25.5" cy="27" rx="24.5" ry="7" fill="#EAEAEA"/>
<path d="M25.587 15.8838C12.5603 15.8838 2.69336 12.7161 2.69336 8.84106V20.1867C2.69336 24.0618 12.5603 27.2295 25.587 27.2295C38.6138 27.2295 48.6934 24.2161 48.6934 20.3411V8.99541C48.6934 12.8705 38.6138 15.8838 25.587 15.8838Z" fill="black" stroke="black" stroke-linejoin="round"/>
<path d="M48.6741 9.01639C48.6741 9.7408 48.1781 10.5331 47.0328 11.3385C45.9013 12.1343 44.2315 12.8713 42.123 13.4985C37.9126 14.751 32.0661 15.5328 25.587 15.5328C19.108 15.5328 13.2615 14.751 9.05104 13.4985C6.94259 12.8713 5.27274 12.1343 4.14122 11.3385C2.99599 10.5331 2.5 9.7408 2.5 9.01639C2.5 8.29199 2.99599 7.49971 4.14122 6.69428C5.27274 5.89849 6.94259 5.1615 9.05104 4.5343C13.2615 3.28182 19.108 2.5 25.587 2.5C32.0661 2.5 37.9126 3.28182 42.123 4.5343C44.2315 5.1615 45.9013 5.89849 47.0328 6.69428C48.1781 7.49971 48.6741 8.29199 48.6741 9.01639Z" fill="black" stroke="white"/>
<path d="M37.5 9C37.5 9.32446 37.2941 9.72085 36.716 10.1582C36.146 10.5895 35.2896 10.9992 34.1864 11.3522C31.9859 12.0564 28.9147 12.5 25.5 12.5C22.0853 12.5 19.0141 12.0564 16.8136 11.3522C15.7104 10.9992 14.854 10.5895 14.284 10.1582C13.7059 9.72085 13.5 9.32446 13.5 9C13.5 8.67554 13.7059 8.27915 14.284 7.84176C14.854 7.41052 15.7104 7.00079 16.8136 6.64778C19.0141 5.9436 22.0853 5.5 25.5 5.5C28.9147 5.5 31.9859 5.9436 34.1864 6.64778C35.2896 7.00079 36.146 7.41052 36.716 7.84176C37.2941 8.27915 37.5 8.67554 37.5 9Z" fill="#CCFF00" stroke="white"/>
</svg>
