<svg width="66" height="66" viewBox="0 0 66 66" fill="none" xmlns="http://www.w3.org/2000/svg">
<g clip-path="url(#clip0_1414_497)">
<circle cx="33" cy="33" r="31.5" fill="#CCFF00" stroke="black" stroke-width="3"/>
<path d="M19.5 4C16 5 13 8 11 10L11.1811 13.2605C11.3798 16.8358 13.3891 20.0626 16.5102 21.8182C18.4186 22.8917 19.8009 24.7037 20.332 26.828L20.3782 27.0128C21.0767 29.8068 20.2963 32.7639 18.3102 34.8493L13.602 39.7929C12.3143 41.145 11.9035 43.1097 12.5416 44.8644C13.1356 46.4979 14.548 47.6965 16.2564 48.0168L17.7038 48.2882C20.1268 48.7425 22.6299 48.1783 24.6236 46.7283L25.6399 45.9892C26.5238 45.3463 27.5888 45 28.6818 45H28.757C31.012 45 33.0342 46.3888 33.8437 48.4935L34.1422 49.2696C34.6968 50.7116 34.7633 52.3136 34.1766 53.7428C32.6948 57.3531 30.4006 60.6765 25 64C36 66.5 43.3333 63.6667 46.5 62L49.9121 52.6944C50.8524 50.1299 48.7032 47.4945 46.002 47.8997L45.2847 48.0073C43.3599 48.296 41.4893 47.2232 40.7665 45.4161C40.2831 44.2078 40.3878 42.8437 41.0499 41.7233L43.9893 36.7488C44.9761 35.0789 43.55 33.0206 41.6399 33.3577L40.967 33.4764C39.2624 33.7772 37.5946 32.7839 37.0472 31.1417C36.7024 30.1073 36.8606 28.9711 37.4749 28.0702L42.1302 21.2424C43.2637 19.5799 43.2932 17.4006 42.2051 15.708C40.7102 13.3826 37.615 12.7064 35.2866 14.1966L32.3444 16.0796C29.1455 18.1269 25.0006 17.9216 22.0198 15.5682C19.2688 13.3964 18.0466 9.81367 18.8966 6.41341L19.5 4Z" fill="#E1E1E1" stroke="black" stroke-width="2" stroke-linecap="round" stroke-linejoin="round"/>
<rect x="9" y="24" width="49" height="18" rx="5" fill="white"/>
<rect x="9" y="24" width="49" height="18" rx="5" stroke="black" stroke-width="2"/>
<path d="M20.7598 37.2871C20.4499 37.2871 20.14 37.2324 19.8301 37.123C19.5293 37.0137 19.2376 36.8542 18.9551 36.6445C18.6725 36.4258 18.4264 36.1387 18.2168 35.7832C18.0072 35.4277 17.8932 35.0039 17.875 34.5117V29.5762C17.875 29.321 17.9661 29.1113 18.1484 28.9473C18.3398 28.7741 18.5632 28.6875 18.8184 28.6875C19.3652 28.7331 19.6615 29.0293 19.707 29.5762V34.4023C19.7161 34.6211 19.7617 34.8079 19.8438 34.9629C19.9258 35.1087 20.0169 35.2272 20.1172 35.3184C20.2174 35.4004 20.3177 35.4642 20.418 35.5098C20.5273 35.5462 20.6367 35.5645 20.7461 35.5645C20.8555 35.5645 20.9648 35.5462 21.0742 35.5098C21.1836 35.4642 21.2884 35.4004 21.3887 35.3184C21.4889 35.2272 21.5801 35.1087 21.6621 34.9629C21.7441 34.8079 21.7852 34.6211 21.7852 34.4023V29.5762C21.7852 29.321 21.8763 29.1113 22.0586 28.9473C22.25 28.7741 22.4733 28.6875 22.7285 28.6875C23.2754 28.7331 23.5762 29.0293 23.6309 29.5762V34.4023C23.64 34.6211 23.6855 34.8034 23.7676 34.9492C23.8496 35.1042 23.9408 35.2272 24.041 35.3184C24.1413 35.4004 24.2415 35.4642 24.3418 35.5098C24.4512 35.5462 24.5605 35.5645 24.6699 35.5645C24.7793 35.5645 24.8887 35.5462 24.998 35.5098C25.1074 35.4642 25.2122 35.4004 25.3125 35.3184C25.4128 35.2272 25.5039 35.1087 25.5859 34.9629C25.668 34.8079 25.709 34.6211 25.709 34.4023V29.5762C25.709 29.321 25.8001 29.1113 25.9824 28.9473C26.1738 28.7741 26.3971 28.6875 26.6523 28.6875C27.1992 28.7331 27.5 29.0293 27.5547 29.5762V34.5117C27.5547 35.0039 27.4453 35.4277 27.2266 35.7832C27.0169 36.1387 26.7708 36.4258 26.4883 36.6445C26.2148 36.8542 25.9232 37.0137 25.6133 37.123C25.3125 37.2324 25.0026 37.2871 24.6836 37.2871C24.3737 37.2871 24.0638 37.2324 23.7539 37.123C23.4531 37.0137 23.1615 36.8496 22.8789 36.6309C22.8242 36.5944 22.7741 36.5534 22.7285 36.5078C22.6738 36.5534 22.6237 36.5944 22.5781 36.6309C22.2956 36.8496 21.9993 37.0137 21.6895 37.123C21.3887 37.2324 21.0788 37.2871 20.7598 37.2871ZM32.2441 37.2871C31.9342 37.2871 31.6243 37.2324 31.3145 37.123C31.0137 37.0137 30.722 36.8542 30.4395 36.6445C30.1569 36.4258 29.9108 36.1387 29.7012 35.7832C29.4915 35.4277 29.3776 35.0039 29.3594 34.5117V29.5762C29.3594 29.321 29.4505 29.1113 29.6328 28.9473C29.8242 28.7741 30.0475 28.6875 30.3027 28.6875C30.8496 28.7331 31.1458 29.0293 31.1914 29.5762V34.4023C31.2005 34.6211 31.2461 34.8079 31.3281 34.9629C31.4102 35.1087 31.5013 35.2272 31.6016 35.3184C31.7018 35.4004 31.8021 35.4642 31.9023 35.5098C32.0117 35.5462 32.1211 35.5645 32.2305 35.5645C32.3398 35.5645 32.4492 35.5462 32.5586 35.5098C32.668 35.4642 32.7728 35.4004 32.873 35.3184C32.9733 35.2272 33.0645 35.1087 33.1465 34.9629C33.2285 34.8079 33.2695 34.6211 33.2695 34.4023V29.5762C33.2695 29.321 33.3607 29.1113 33.543 28.9473C33.7344 28.7741 33.9577 28.6875 34.2129 28.6875C34.7598 28.7331 35.0605 29.0293 35.1152 29.5762V34.4023C35.1243 34.6211 35.1699 34.8034 35.252 34.9492C35.334 35.1042 35.4251 35.2272 35.5254 35.3184C35.6257 35.4004 35.7259 35.4642 35.8262 35.5098C35.9355 35.5462 36.0449 35.5645 36.1543 35.5645C36.2637 35.5645 36.373 35.5462 36.4824 35.5098C36.5918 35.4642 36.6966 35.4004 36.7969 35.3184C36.8971 35.2272 36.9883 35.1087 37.0703 34.9629C37.1523 34.8079 37.1934 34.6211 37.1934 34.4023V29.5762C37.1934 29.321 37.2845 29.1113 37.4668 28.9473C37.6582 28.7741 37.8815 28.6875 38.1367 28.6875C38.6836 28.7331 38.9844 29.0293 39.0391 29.5762V34.5117C39.0391 35.0039 38.9297 35.4277 38.7109 35.7832C38.5013 36.1387 38.2552 36.4258 37.9727 36.6445C37.6992 36.8542 37.4076 37.0137 37.0977 37.123C36.7969 37.2324 36.487 37.2871 36.168 37.2871C35.8581 37.2871 35.5482 37.2324 35.2383 37.123C34.9375 37.0137 34.6458 36.8496 34.3633 36.6309C34.3086 36.5944 34.2585 36.5534 34.2129 36.5078C34.1582 36.5534 34.1081 36.5944 34.0625 36.6309C33.7799 36.8496 33.4837 37.0137 33.1738 37.123C32.873 37.2324 32.5632 37.2871 32.2441 37.2871ZM43.7285 37.2871C43.4186 37.2871 43.1087 37.2324 42.7988 37.123C42.498 37.0137 42.2064 36.8542 41.9238 36.6445C41.6413 36.4258 41.3952 36.1387 41.1855 35.7832C40.9759 35.4277 40.862 35.0039 40.8438 34.5117V29.5762C40.8438 29.321 40.9349 29.1113 41.1172 28.9473C41.3086 28.7741 41.5319 28.6875 41.7871 28.6875C42.334 28.7331 42.6302 29.0293 42.6758 29.5762V34.4023C42.6849 34.6211 42.7305 34.8079 42.8125 34.9629C42.8945 35.1087 42.9857 35.2272 43.0859 35.3184C43.1862 35.4004 43.2865 35.4642 43.3867 35.5098C43.4961 35.5462 43.6055 35.5645 43.7148 35.5645C43.8242 35.5645 43.9336 35.5462 44.043 35.5098C44.1523 35.4642 44.2572 35.4004 44.3574 35.3184C44.4577 35.2272 44.5488 35.1087 44.6309 34.9629C44.7129 34.8079 44.7539 34.6211 44.7539 34.4023V29.5762C44.7539 29.321 44.8451 29.1113 45.0273 28.9473C45.2188 28.7741 45.4421 28.6875 45.6973 28.6875C46.2441 28.7331 46.5449 29.0293 46.5996 29.5762V34.4023C46.6087 34.6211 46.6543 34.8034 46.7363 34.9492C46.8184 35.1042 46.9095 35.2272 47.0098 35.3184C47.11 35.4004 47.2103 35.4642 47.3105 35.5098C47.4199 35.5462 47.5293 35.5645 47.6387 35.5645C47.748 35.5645 47.8574 35.5462 47.9668 35.5098C48.0762 35.4642 48.181 35.4004 48.2812 35.3184C48.3815 35.2272 48.4727 35.1087 48.5547 34.9629C48.6367 34.8079 48.6777 34.6211 48.6777 34.4023V29.5762C48.6777 29.321 48.7689 29.1113 48.9512 28.9473C49.1426 28.7741 49.3659 28.6875 49.6211 28.6875C50.168 28.7331 50.4688 29.0293 50.5234 29.5762V34.5117C50.5234 35.0039 50.4141 35.4277 50.1953 35.7832C49.9857 36.1387 49.7396 36.4258 49.457 36.6445C49.1836 36.8542 48.8919 37.0137 48.582 37.123C48.2812 37.2324 47.9714 37.2871 47.6523 37.2871C47.3424 37.2871 47.0326 37.2324 46.7227 37.123C46.4219 37.0137 46.1302 36.8496 45.8477 36.6309C45.793 36.5944 45.7428 36.5534 45.6973 36.5078C45.6426 36.5534 45.5924 36.5944 45.5469 36.6309C45.2643 36.8496 44.9681 37.0137 44.6582 37.123C44.3574 37.2324 44.0475 37.2871 43.7285 37.2871Z" fill="black"/>
</g>
<defs>
<clipPath id="clip0_1414_497">
<rect width="66" height="66" fill="white"/>
</clipPath>
</defs>
</svg>
