<svg width="31" height="27" viewBox="0 0 31 27" fill="none" xmlns="http://www.w3.org/2000/svg">
<rect x="5.16299" y="7.22451" width="19.5194" height="17.0505" rx="2.73964" fill="black" stroke="black" stroke-width="0.232223"/>
<rect x="6.64266" y="9.3575" width="16.5968" height="11.8221" rx="1.77053" fill="white" stroke="black" stroke-width="0.0196949"/>
<path d="M2.20801 11.1895C2.06598 11.1896 1.95117 11.3052 1.95117 11.4473V19.0771C1.95141 19.219 2.06612 19.3338 2.20801 19.334H4.33691V11.1895H2.20801Z" fill="black" stroke="black" stroke-width="0.154815"/>
<path d="M27.4521 11.1895C27.5942 11.1896 27.709 11.3052 27.709 11.4473V19.0771C27.7088 19.219 27.594 19.3338 27.4521 19.334H25.3232V11.1895H27.4521Z" fill="black" stroke="black" stroke-width="0.154815"/>
<path d="M11.3242 7.11001C11.3242 6.22622 12.0407 5.50977 12.9245 5.50977H16.6214C17.5052 5.50977 18.2216 6.22622 18.2216 7.11001H11.3242Z" fill="black"/>
<rect x="14.1523" y="3.26465" width="1.25407" height="2.24035" fill="black"/>
<path d="M13.5117 2.26539C13.5117 1.40527 14.209 0.708008 15.0691 0.708008H15.1621C16.0222 0.708008 16.7195 1.40527 16.7195 2.26539V2.35836C16.7195 3.21848 16.0222 3.91575 15.1621 3.91575H15.0691C14.209 3.91575 13.5117 3.21848 13.5117 2.35836V2.26539Z" fill="black"/>
<rect x="13.5117" y="22.1992" width="3.6726" height="0.710826" rx="0.355413" fill="black"/>
<path d="M13.7831 15.2587C13.7831 16.1697 13.0447 16.9081 12.1337 16.9081C11.2228 16.9081 10.4844 16.1697 10.4844 15.2587C10.4844 14.3478 11.2228 13.6094 12.1337 13.6094C13.0447 13.6094 13.7831 14.3478 13.7831 15.2587Z" fill="black"/>
<path d="M19.2061 13.8422L18.1863 15.5272L19.6042 16.6881" stroke="black" stroke-width="1.09958" stroke-linecap="round" stroke-linejoin="round"/>
</svg>
