<svg width="16" height="16" viewBox="0 0 16 16" fill="none" xmlns="http://www.w3.org/2000/svg">
<path d="M7.99273 0.485352C4.82402 0.485352 2.24609 3.06328 2.24609 6.23198C2.24609 8.33972 3.41678 10.2903 5.25132 11.29L5.25139 13.7243C5.25139 14.7096 6.15119 15.5112 7.25717 15.5112H8.72825C9.83421 15.5112 10.734 14.7096 10.734 13.7243V11.2899C12.5686 10.2902 13.7394 8.33967 13.7394 6.23198C13.7394 3.06328 11.1614 0.485352 7.99273 0.485352ZM8.83201 14.4501H7.15335C6.88421 14.4501 6.66601 14.2319 6.66601 13.9627C6.66601 13.6936 6.88421 13.4754 7.15335 13.4754H8.83201C9.10115 13.4754 9.31936 13.6936 9.31936 13.9627C9.31937 14.2319 9.10115 14.4501 8.83201 14.4501ZM8.83201 12.8794H7.15335C6.88421 12.8794 6.66601 12.6612 6.66601 12.3921C6.66601 12.123 6.88421 11.9048 7.15335 11.9048H8.83201C9.10115 11.9048 9.31936 12.123 9.31936 12.3921C9.31936 12.6612 9.10115 12.8794 8.83201 12.8794ZM11.5049 6.67007C11.2358 6.67007 11.0176 6.45187 11.0176 6.18273C11.0176 6.00683 11.0025 5.83126 10.9726 5.65794C10.7952 4.63621 10.1173 3.78424 9.15915 3.37897C8.91119 3.27412 8.79523 2.98816 8.9001 2.74029C9.00496 2.49241 9.29108 2.37653 9.53879 2.48123C10.8036 3.01617 11.6986 4.14142 11.9329 5.49129C11.9724 5.71965 11.9923 5.95098 11.9922 6.18273C11.9922 6.45185 11.774 6.67007 11.5049 6.67007Z" fill="black"/>
</svg>
