<svg width="12" height="12" viewBox="0 0 12 12" fill="none" xmlns="http://www.w3.org/2000/svg">
<path d="M5.74367 0.348633C3.46617 0.348633 1.61328 2.20152 1.61328 4.47902C1.61328 5.99396 2.45471 7.39591 3.77329 8.11447L3.77334 9.86413C3.77334 10.5723 4.42007 11.1485 5.21499 11.1485H6.27233C7.06724 11.1485 7.71398 10.5723 7.71398 9.86413V8.11444C9.03261 7.39586 9.87406 5.99392 9.87406 4.47902C9.87406 2.20152 8.02118 0.348633 5.74367 0.348633ZM6.34691 10.3858H5.14037C4.94693 10.3858 4.79009 10.2289 4.79009 10.0355C4.79009 9.84206 4.94693 9.68522 5.14037 9.68522H6.34691C6.54035 9.68522 6.69719 9.84206 6.69719 10.0355C6.6972 10.2289 6.54035 10.3858 6.34691 10.3858ZM6.34691 9.25689H5.14037C4.94693 9.25689 4.79009 9.10005 4.79009 8.90661C4.79009 8.71316 4.94693 8.55633 5.14037 8.55633H6.34691C6.54035 8.55633 6.69719 8.71316 6.69719 8.90661C6.69719 9.10005 6.54035 9.25689 6.34691 9.25689ZM8.26805 4.7939C8.0746 4.7939 7.91777 4.63707 7.91777 4.44362C7.91779 4.3172 7.90697 4.19101 7.88544 4.06643C7.75797 3.33206 7.27068 2.71971 6.58204 2.42842C6.40382 2.35306 6.32047 2.14753 6.39585 1.96937C6.47121 1.79121 6.67686 1.70792 6.8549 1.78317C7.76396 2.16766 8.40728 2.97643 8.57568 3.94665C8.60409 4.11078 8.61836 4.27705 8.61832 4.44362C8.61832 4.63705 8.46148 4.7939 8.26805 4.7939Z" fill="#B88CFF"/>
</svg>
