<svg width="12" height="15" viewBox="0 0 12 15" fill="none" xmlns="http://www.w3.org/2000/svg">
<path d="M1.04297 7.45898H10.9414C11.0955 7.45903 11.2183 7.5082 11.335 7.62402C11.4516 7.7398 11.5 7.86013 11.5 8.00977V12.9463C11.4999 13.1723 11.4604 13.3758 11.3848 13.5615C11.3055 13.7562 11.1996 13.9203 11.0684 14.0586C10.9387 14.1951 10.7843 14.3026 10.6025 14.3828C10.4315 14.4582 10.2368 14.5 10.0107 14.5H1.90918C1.68301 14.5 1.49242 14.4584 1.3291 14.3848C1.14897 14.3035 1.00272 14.1998 0.884766 14.0752C0.765168 13.9488 0.670934 13.7997 0.602539 13.624C0.535527 13.4518 0.500033 13.2645 0.5 13.0576V8.00977C0.5 7.8559 0.549435 7.73392 0.662109 7.61914C0.771677 7.50768 0.889262 7.45898 1.04297 7.45898ZM6.01562 0.5C6.4652 0.5 6.89685 0.583719 7.31348 0.750977C7.73611 0.920661 8.10786 1.15189 8.43164 1.44531C8.75501 1.73837 9.011 2.07588 9.20215 2.45996C9.38567 2.82872 9.47847 3.22715 9.47852 3.66211V5.50293H8.53711V4.1084C8.53711 3.34432 8.32048 2.68283 7.8252 2.19824C7.33736 1.7211 6.69312 1.50689 5.95215 1.50684C5.25894 1.50684 4.6566 1.73133 4.19629 2.20898C3.72809 2.69484 3.52637 3.35228 3.52637 4.1084V5.50293H2.50488V3.66211C2.50492 3.22127 2.59329 2.8178 2.76465 2.44629C2.94036 2.06551 3.18202 1.73088 3.49316 1.44043C3.80241 1.15181 4.17058 0.921569 4.60254 0.751953C5.02503 0.586059 5.49426 0.500046 6.01562 0.5Z" fill="black" stroke="black"/>
</svg>
