<svg width="65" height="57" viewBox="0 0 65 57" fill="none" xmlns="http://www.w3.org/2000/svg">
<g clip-path="url(#clip0_535_879)">
<path fill-rule="evenodd" clip-rule="evenodd" d="M65.4882 10.1545L49 19.0395V37.4675L65.4786 46.8361L81 37.4719V19.0352L65.4882 10.1545ZM65.4994 9.00097L65.497 8.9967L48.2512 18.3162L48 18.4603V38.0323L48.2418 38.1781L65.4781 48.0035L65.4899 47.9838L65.5 48L81.7638 38.1746L82 38.0279V18.4646L81.7544 18.3194L65.5 8.99997L65.4994 9.00097Z" fill="#F4F4F4"/>
<path fill-rule="evenodd" clip-rule="evenodd" d="M32.4882 10.1545L16 19.0395V37.4675L32.4786 46.8361L48 37.4719V19.0352L32.4882 10.1545ZM32.4994 9.00097L32.497 8.9967L15.2512 18.3162L15 18.4603V38.0323L15.2418 38.1781L32.4781 48.0035L32.4899 47.9838L32.5 48L48.7638 38.1746L49 38.0279V18.4646L48.7544 18.3194L32.5 8.99997L32.4994 9.00097Z" fill="#F4F4F4"/>
<path fill-rule="evenodd" clip-rule="evenodd" d="M32.4882 10.1545L16 19.0395V37.4675L32.4786 46.8361L48 37.4719V19.0352L32.4882 10.1545ZM32.4994 9.00097L32.497 8.9967L15.2512 18.3162L15 18.4603V38.0323L15.2418 38.1781L32.4781 48.0035L32.4899 47.9838L32.5 48L48.7638 38.1746L49 38.0279V18.4646L48.7544 18.3194L32.5 8.99997L32.4994 9.00097Z" fill="#F4F4F4"/>
<path fill-rule="evenodd" clip-rule="evenodd" d="M-0.511806 10.1545L-17 19.0395V37.4675L-0.521423 46.8361L15 37.4719V19.0352L-0.511806 10.1545ZM-0.500589 9.00097L-0.503033 8.9967L-17.7488 18.3162L-18 18.4603V38.0323L-17.7582 38.1781L-0.521927 48.0035L-0.510067 47.9838L-0.5 48L15.7638 38.1746L16 38.0279V18.4646L15.7544 18.3194L-0.5 8.99997L-0.500589 9.00097Z" fill="#F4F4F4"/>
<rect x="32" width="1" height="10" fill="#F4F4F4"/>
<rect x="32" y="47" width="1" height="10" fill="#F4F4F4"/>
<path d="M-0.5 0H0.5V10H-0.5V0Z" fill="#F4F4F4"/>
<path d="M-0.5 47H0.5V57H-0.5V47Z" fill="#F4F4F4"/>
<path d="M64.5 0H65.5V10H64.5V0Z" fill="#F4F4F4"/>
<path d="M64.5 47H65.5V57H64.5V47Z" fill="#F4F4F4"/>
</g>
<defs>
<clipPath id="clip0_535_879">
<rect width="65" height="57" fill="white"/>
</clipPath>
</defs>
</svg>
