<svg width="98" height="98" viewBox="0 0 98 98" fill="none" xmlns="http://www.w3.org/2000/svg">
<rect x="18.0706" y="31.2231" width="60.8947" height="52.0943" rx="8.35128" fill="black" stroke="black" stroke-width="0.707886"/>
<rect x="22.6325" y="37.739" width="51.7643" height="36.1192" rx="5.39711" fill="white" stroke="black" stroke-width="0.060036"/>
<path d="M17.4807 43.8141H12.8704C12.4371 43.8141 12.0858 44.1654 12.0858 44.5987V67.9808C12.0858 68.4141 12.4371 68.7654 12.8704 68.7654H17.4807V43.8141Z" fill="black" stroke="black" stroke-width="0.471924"/>
<path d="M79.5415 43.8141H84.1519C84.5852 43.8141 84.9365 44.1654 84.9365 44.5987V67.9808C84.9365 68.4141 84.5852 68.7654 84.1519 68.7654H79.5415V43.8141Z" fill="black" stroke="black" stroke-width="0.471924"/>
<path d="M9.64008 48.6989H6.98538C6.55203 48.6989 6.20073 49.0502 6.20073 49.4835V64.0652C6.20073 64.4985 6.55203 64.8498 6.98538 64.8498H9.64008V48.6989Z" fill="black" stroke="black" stroke-width="0.471924"/>
<path d="M87.3747 48.6989H90.0294C90.4627 48.6989 90.814 49.0502 90.814 49.4835V64.0652C90.814 64.4985 90.4627 64.8498 90.0294 64.8498H87.3747V48.6989Z" fill="black" stroke="black" stroke-width="0.471924"/>
<path d="M37.2568 30.8666C37.2568 28.1665 39.4457 25.9775 42.1459 25.9775H53.8797C56.5799 25.9775 58.7688 28.1665 58.7688 30.8666H37.2568Z" fill="black"/>
<rect x="46.0673" y="19.1367" width="3.91127" height="6.84473" fill="black"/>
<path d="M43.1286 16.0579C43.1286 13.436 45.2541 11.3105 47.876 11.3105H48.1594C50.7813 11.3105 52.9068 13.436 52.9068 16.0579V16.3413C52.9068 18.9632 50.7813 21.0887 48.1594 21.0887H47.876C45.2541 21.0887 43.1286 18.9632 43.1286 16.3413V16.0579Z" fill="black"/>
<rect x="43.1286" y="76.8262" width="11.1952" height="2.16682" rx="1.08341" fill="black"/>
<rect x="36.0739" y="43.7018" width="24.4149" height="24.4149" rx="12.2074" fill="#CCFF00"/>
<rect x="36.0739" y="43.7018" width="24.4149" height="24.4149" rx="12.2074" stroke="black" stroke-width="2.87234"/>
<rect x="40.382" y="53.7549" width="15.7979" height="4.30851" rx="2.15426" fill="black"/>
<rect x="50.4355" y="48.0098" width="15.7979" height="4.30851" rx="2.15425" transform="rotate(90 50.4355 48.0098)" fill="black"/>
</svg>
