<svg width="156" height="110" viewBox="0 0 156 110" fill="none" xmlns="http://www.w3.org/2000/svg">
<g clip-path="url(#clip0_3477_3948)">
<path d="M152.138 71.1761C152.138 75.6916 139.074 79.1494 122.96 79.1494C106.845 79.1494 94 74.205 94 69.6895C94 65.174 106.845 63 122.96 63C139.074 63 152.138 66.6606 152.138 71.1761Z" fill="black"/>
<path d="M142.346 68.5444V65.2391C142.346 51.1101 130.892 39.6562 116.763 39.6562C102.634 39.6562 91.1805 51.1101 91.1805 65.2391V68.8088V69.0071C91.1805 73.9724 102.634 77.9975 116.763 77.9975C130.892 77.9975 142.346 73.9724 142.346 69.0071V68.5444Z" fill="white"/>
<path d="M89.4305 65.2391C89.4305 50.1436 101.668 37.9062 116.763 37.9062C131.859 37.9062 144.096 50.1436 144.096 65.2391V69.0071C144.096 70.9751 142.957 72.6039 141.454 73.8526C139.941 75.11 137.856 76.164 135.433 77.0153C130.573 78.7235 123.972 79.7475 116.763 79.7475C109.555 79.7475 102.954 78.7235 98.0933 77.0153C95.6709 76.164 93.5859 75.11 92.0726 73.8526C90.5697 72.6039 89.4305 70.9751 89.4305 69.0071V65.2391ZM116.763 41.4062C103.601 41.4062 92.9305 52.0766 92.9305 65.2391V69.0071C92.9305 69.5218 93.223 70.258 94.3093 71.1605C95.385 72.0543 97.0466 72.9376 99.2537 73.7132C103.652 75.2589 109.843 76.2475 116.763 76.2475C123.684 76.2475 129.875 75.2589 134.273 73.7132C136.48 72.9376 138.142 72.0543 139.217 71.1605C140.304 70.258 140.596 69.5218 140.596 69.0071V65.2391C140.596 52.0766 129.926 41.4062 116.763 41.4062Z" fill="black"/>
<path d="M130.843 27.9554C130.843 36.0969 124.243 42.6969 116.102 42.6969C107.96 42.6969 101.36 36.0969 101.36 27.9554C101.36 19.8139 107.96 13.2139 116.102 13.2139C124.243 13.2139 130.843 19.8139 130.843 27.9554Z" fill="white"/>
<path d="M116.102 14.9639C108.927 14.9639 103.11 20.7804 103.11 27.9554C103.11 35.1304 108.927 40.9469 116.102 40.9469C123.277 40.9469 129.093 35.1304 129.093 27.9554C129.093 20.7804 123.277 14.9639 116.102 14.9639ZM99.6101 27.9554C99.6101 18.8474 106.994 11.4639 116.102 11.4639C125.21 11.4639 132.593 18.8474 132.593 27.9554C132.593 37.0634 125.21 44.4469 116.102 44.4469C106.994 44.4469 99.6101 37.0634 99.6101 27.9554Z" fill="black"/>
<rect x="115" y="28" width="2" height="5" rx="1" fill="black"/>
<path d="M67.1379 71.1761C67.1379 75.6916 54.0744 79.1494 37.9598 79.1494C21.8452 79.1494 9 74.205 9 69.6895C9 65.174 21.8452 63 37.9598 63C54.0744 63 67.1379 66.6606 67.1379 71.1761Z" fill="black"/>
<path d="M57.3462 68.5444V65.2391C57.3462 51.1101 45.8923 39.6562 31.7633 39.6562C17.6343 39.6562 6.18048 51.1101 6.18048 65.2391V68.8088V69.0071C6.18048 73.9724 17.6343 77.9975 31.7633 77.9975C45.8923 77.9975 57.3462 73.9724 57.3462 69.0071V68.5444Z" fill="white"/>
<path d="M4.43048 65.2391C4.43048 50.1436 16.6678 37.9062 31.7633 37.9062C46.8588 37.9062 59.0962 50.1436 59.0962 65.2391V69.0071C59.0962 70.9751 57.957 72.6039 56.4541 73.8526C54.9407 75.11 52.8558 76.164 50.4333 77.0153C45.5725 78.7235 38.9716 79.7475 31.7633 79.7475C24.5551 79.7475 17.9541 78.7235 13.0933 77.0153C10.6709 76.164 8.58595 75.11 7.07256 73.8526C5.56967 72.6039 4.43048 70.9751 4.43048 69.0071V65.2391ZM31.7633 41.4062C18.6008 41.4062 7.93048 52.0766 7.93048 65.2391V69.0071C7.93048 69.5218 8.22302 70.258 9.30926 71.1605C10.385 72.0543 12.0466 72.9376 14.2537 73.7132C18.6521 75.2589 24.8426 76.2475 31.7633 76.2475C38.6841 76.2475 44.8746 75.2589 49.2729 73.7132C51.4801 72.9376 53.1417 72.0543 54.2174 71.1605C55.3036 70.258 55.5962 69.5218 55.5962 69.0071V65.2391C55.5962 52.0766 44.9258 41.4062 31.7633 41.4062Z" fill="black"/>
<path d="M45.8432 27.9554C45.8432 36.0969 39.2432 42.6969 31.1017 42.6969C22.9602 42.6969 16.3602 36.0969 16.3602 27.9554C16.3602 19.8139 22.9602 13.2139 31.1017 13.2139C39.2432 13.2139 45.8432 19.8139 45.8432 27.9554Z" fill="white"/>
<path d="M31.1017 14.9639C23.9267 14.9639 18.1102 20.7804 18.1102 27.9554C18.1102 35.1304 23.9267 40.9469 31.1017 40.9469C38.2767 40.9469 44.0932 35.1304 44.0932 27.9554C44.0932 20.7804 38.2767 14.9639 31.1017 14.9639ZM14.6102 27.9554C14.6102 18.8474 21.9937 11.4639 31.1017 11.4639C40.2097 11.4639 47.5932 18.8474 47.5932 27.9554C47.5932 37.0634 40.2097 44.4469 31.1017 44.4469C21.9937 44.4469 14.6102 37.0634 14.6102 27.9554Z" fill="black"/>
<rect x="31" y="28" width="2" height="5" rx="1" fill="black"/>
<path d="M120 92.1255C120 97.7177 103.822 102 83.8648 102C63.9079 102 48 95.8767 48 90.2845C48 84.6923 63.9079 82 83.8648 82C103.822 82 120 86.5334 120 92.1255Z" fill="black"/>
<path d="M107.973 89.2184V85.1251C107.973 67.6272 93.7879 53.4424 76.2901 53.4424C58.7922 53.4424 44.6074 67.6272 44.6074 85.1251V89.5459V89.7915C44.6074 95.9406 58.7922 100.925 76.2901 100.925C93.7879 100.925 107.973 95.9406 107.973 89.7915V89.2184Z" fill="white"/>
<path d="M42.8574 85.1251C42.8574 66.6607 57.8257 51.6924 76.2901 51.6924C94.7544 51.6924 109.723 66.6607 109.723 85.1251V89.7915C109.723 92.0554 108.413 93.9662 106.601 95.4714C104.779 96.9852 102.248 98.2702 99.2733 99.3154C93.3087 101.412 85.1828 102.675 76.2901 102.675C67.3974 102.675 59.2715 101.412 53.3069 99.3154C50.3325 98.2702 47.8009 96.9852 45.9789 95.4714C44.1673 93.9662 42.8574 92.0554 42.8574 89.7915V85.1251ZM76.2901 55.1924C59.7587 55.1924 46.3574 68.5937 46.3574 85.1251V89.7915C46.3574 90.6021 46.8207 91.6203 48.2156 92.7793C49.6 93.9295 51.7082 95.0438 54.4673 96.0134C59.9695 97.947 67.6849 99.1755 76.2901 99.1755C84.8953 99.1755 92.6107 97.947 98.1129 96.0134C100.872 95.0438 102.98 93.9295 104.365 92.7793C105.76 91.6203 106.223 90.6021 106.223 89.7915V85.1251C106.223 68.5937 92.8214 55.1924 76.2901 55.1924Z" fill="black"/>
<path d="M93.7277 38.9517C93.7277 49.0345 85.554 57.2082 75.4713 57.2082C65.3885 57.2082 57.2148 49.0345 57.2148 38.9517C57.2148 28.869 65.3885 20.6953 75.4713 20.6953C85.554 20.6953 93.7277 28.869 93.7277 38.9517Z" fill="white"/>
<path d="M75.4713 22.4453C66.355 22.4453 58.9648 29.8355 58.9648 38.9517C58.9648 48.068 66.355 55.4582 75.4713 55.4582C84.5875 55.4582 91.9777 48.068 91.9777 38.9517C91.9777 29.8355 84.5875 22.4453 75.4713 22.4453ZM55.4648 38.9517C55.4648 27.9025 64.422 18.9453 75.4713 18.9453C86.5205 18.9453 95.4777 27.9025 95.4777 38.9517C95.4777 50.001 86.5205 58.9582 75.4713 58.9582C64.422 58.9582 55.4648 50.001 55.4648 38.9517Z" fill="black"/>
<rect x="75" y="39" width="2" height="6" rx="1" fill="black"/>
</g>
<defs>
<clipPath id="clip0_3477_3948">
<rect width="156" height="110" fill="white"/>
</clipPath>
</defs>
</svg>
