<svg width="36" height="36" viewBox="0 0 36 36" fill="none" xmlns="http://www.w3.org/2000/svg">
<rect width="36" height="36" rx="18" fill="black"/>
<path d="M23.4259 9.87798C24.1706 9.13703 25.3781 9.13703 26.1228 9.87798C26.8675 10.6189 26.8675 11.8202 26.1228 12.5612C25.3781 13.3021 24.1706 13.3021 23.4259 12.5612C22.6811 11.8202 22.6811 10.6189 23.4259 9.87798Z" fill="black"/>
<path d="M9.32422 16.7185C9.32422 13.051 12.3125 10.0779 15.9988 10.0779H20.0026C20.7144 10.0779 21.3178 10.5986 21.4185 11.2997L21.485 11.7631C21.6948 13.224 22.8485 14.3718 24.3168 14.5805L24.7826 14.6467C25.4872 14.7468 26.0106 15.3454 26.0106 16.0535C26.0106 17.0101 26.0106 18.4395 26.0106 20.0378C26.0106 23.7053 23.0223 26.6794 19.3361 26.6794H15.9988C12.3125 26.6794 9.32422 23.7063 9.32422 20.0388V16.7185Z" fill="black"/>
<path d="M14.4 19C15.6 17.8 16.8 17.2 18 17.2C19.2 17.2 20.4 17.8 21.6 19C23 17.8 24.1 17.2 24.8 17.2C25.5 17.2 26.6 17.8 28 19C28 13.5 23.5 9 18 9C12.5 9 8 13.5 8 19C9.4 17.8 10.5 17.2 11.2 17.2C11.9 17.2 12.9 17.8 14.4 19Z" fill="#CCFF00"/>
<path d="M28 20C27.8 20 27.5 19.9 27.3 19.8C25.5 18.3 24.9 18.2 24.8 18.2C24.7 18.2 24 18.3 22.3 19.8C21.9 20.1 21.3 20.1 20.9 19.7C18.9 17.7 17.1 17.7 15 19.7C14.6 20.1 14 20.1 13.6 19.8C11.8 18.3 11.2 18.2 11.1 18.2C11 18.2 10.3 18.3 8.6 19.8C8.3 20.1 7.9 20.1 7.5 19.9C7.2 19.7 7 19.4 7 19C7 12.9 11.9 8 18 8C24.1 8 29 12.9 29 19C29 19.4 28.8 19.7 28.4 19.9C28.3 20 28.1 20 28 20ZM18 16.2C19.2 16.2 20.5 16.7 21.7 17.7C23 16.7 24 16.2 24.8 16.2C25.4 16.2 26 16.4 26.7 16.8C25.8 12.9 22.2 10 18 10C13.8 10 10.2 12.9 9.3 16.8C10 16.4 10.6 16.2 11.2 16.2C12 16.2 13 16.7 14.3 17.7C15.5 16.7 16.8 16.2 18 16.2Z" fill="#CCFF00"/>
<path d="M18 30.0001C17.7 30.0001 17.5 29.9001 17.3 29.7001L7.3 19.7001C6.9 19.3001 6.9 18.7001 7.3 18.3001C7.7 17.9001 8.3 17.9001 8.7 18.3001L15.5 25.1001L13.4 19.3001C13.2 18.8001 13.5 18.2001 14 18.0001C14.5 17.8001 15.1 18.1001 15.3 18.6001L18.9 28.6001C19.1 29.0001 18.9 29.5001 18.5 29.8001C18.4 29.9001 18.2 30.0001 18 30.0001Z" fill="#CCFF00"/>
<path d="M18.0019 30.0001C17.8019 30.0001 17.6019 29.9001 17.5019 29.8001C17.1019 29.5001 16.9019 29.1001 17.1019 28.6001L20.7019 18.6001C20.9019 18.1001 21.5019 17.8001 22.0019 18.0001C22.5019 18.2001 22.8019 18.8001 22.6019 19.3001L20.5019 25.1001L27.3019 18.3001C27.7019 17.9001 28.3019 17.9001 28.7019 18.3001C29.1019 18.7001 29.1019 19.3001 28.7019 19.7001L18.7019 29.7001C18.5019 29.9001 18.3019 30.0001 18.0019 30.0001Z" fill="#CCFF00"/>
<path d="M19.635 11.9074V14.0511C19.635 14.1524 19.6654 14.2304 19.7262 14.2772C19.787 14.3317 19.863 14.3551 19.9618 14.3551C20.129 14.3551 20.2659 14.2382 20.3647 13.9965C20.4559 13.7549 20.5091 13.4665 20.5091 13.1391C20.5091 12.4609 20.2735 11.9074 19.8098 11.4864C19.3461 11.0655 18.7685 10.855 18.0844 10.855C17.3471 10.855 16.7314 11.1045 16.2374 11.5878C15.7433 12.0711 15.5001 12.6869 15.5001 13.4275C15.5001 14.168 15.7357 14.7761 16.2222 15.2438C16.7086 15.7115 17.3167 15.9454 18.0616 15.9454C18.5854 15.9454 19.0836 15.7985 19.5563 15.5046C19.7257 15.3993 19.9539 15.4397 20.0577 15.6101C20.1427 15.7496 20.1156 15.9319 19.9827 16.027C19.4487 16.4091 18.8143 16.6002 18.0692 16.6002C17.1115 16.6002 16.3286 16.304 15.7205 15.7115C15.1048 15.1191 14.8008 14.3707 14.8008 13.4509C14.8008 12.5154 15.1124 11.7437 15.7433 11.1278C16.3742 10.512 17.1571 10.2002 18.0844 10.2002C18.9585 10.2002 19.6958 10.4808 20.2963 11.0265C20.8967 11.5722 21.2008 12.2738 21.2008 13.1235C21.2008 13.3573 21.1704 13.5756 21.1248 13.7783C21.0716 13.981 20.988 14.1836 20.8815 14.3785C20.7751 14.5734 20.6155 14.7293 20.4103 14.8384C20.1975 14.9554 19.9542 15.0099 19.673 15.0099C19.2017 15.0099 18.8825 14.854 18.7153 14.5344C18.4872 14.8462 18.1528 15.0021 17.7119 15.0021C17.2863 15.0021 16.9366 14.8618 16.663 14.5734C16.3894 14.2928 16.2526 13.903 16.2526 13.4197C16.2526 12.9364 16.3894 12.5544 16.6706 12.266C16.9442 11.9853 17.2939 11.8372 17.7119 11.8372C18.0768 11.8372 18.3732 11.9542 18.6013 12.1802V11.9074H19.635ZM18.016 14.0433C18.1756 14.0433 18.3124 13.9887 18.4264 13.8718C18.5404 13.7549 18.6013 13.599 18.6013 13.4041C18.6013 13.217 18.5404 13.0689 18.4264 12.952C18.3124 12.8428 18.1756 12.7805 18.016 12.7805C17.8488 12.7805 17.7119 12.8428 17.5979 12.952C17.4763 13.0689 17.4231 13.217 17.4231 13.4041C17.4231 13.599 17.4763 13.7549 17.5979 13.8718C17.7119 13.9887 17.8488 14.0433 18.016 14.0433Z" fill="black"/>
</svg>
