<svg width="15" height="15" viewBox="0 0 15 15" fill="none" xmlns="http://www.w3.org/2000/svg">
<path d="M2.1582 1.51099C2.1582 4.78554 4.73512 7.48025 8.00641 7.62651L8.20137 7.63523L7.547 7.68399C4.50818 7.91043 2.1582 10.442 2.1582 13.4893" stroke="black" stroke-width="1.70284"/>
<path d="M12.9453 1.51099C12.9453 4.78554 10.3684 7.48025 7.0971 7.62651L6.90215 7.63523L7.55651 7.68399C10.5953 7.91043 12.9453 10.442 12.9453 13.4893" stroke="black" stroke-width="1.70284"/>
<rect width="15" height="1.51078" rx="0.755388" fill="black"/>
<rect y="13.4888" width="15" height="1.51078" rx="0.755388" fill="black"/>
<path d="M10.8967 12.8423H3.99023C3.99023 12.8423 4.55516 9.28117 7.50619 9.28117C10.4572 9.28117 10.8967 12.8423 10.8967 12.8423Z" fill="#F9FFE2"/>
<path d="M10.8967 2.14307H3.99023C3.99023 2.14307 4.55516 5.70418 7.50619 5.70418C10.4572 5.70418 10.8967 2.14307 10.8967 2.14307Z" fill="#F9FFE2"/>
</svg>
