<svg width="20" height="20" viewBox="0 0 20 20" fill="none" xmlns="http://www.w3.org/2000/svg">
<g clip-path="url(#clip0_7629_20333)">
<circle cx="9.99826" cy="10.0002" r="8.88889" fill="white"/>
<path d="M10 0C15.523 0 20 4.477 20 10C20 15.523 15.523 20 10 20C4.477 20 0 15.523 0 10C0 4.477 4.477 0 10 0ZM10 2C7.87827 2 5.84344 2.84285 4.34315 4.34315C2.84285 5.84344 2 7.87827 2 10C2 12.1217 2.84285 14.1566 4.34315 15.6569C5.84344 17.1571 7.87827 18 10 18C12.1217 18 14.1566 17.1571 15.6569 15.6569C17.1571 14.1566 18 12.1217 18 10C18 7.87827 17.1571 5.84344 15.6569 4.34315C14.1566 2.84285 12.1217 2 10 2ZM10.006 11C11.974 11 13.801 11.878 15.029 13.363C15.1866 13.5684 15.2585 13.8269 15.2294 14.0841C15.2004 14.3414 15.0727 14.5774 14.8732 14.7424C14.6737 14.9074 14.418 14.9887 14.1598 14.969C13.9017 14.9493 13.6612 14.8303 13.489 14.637C13.0653 14.1237 12.5331 13.7106 11.9307 13.4275C11.3283 13.1445 10.6706 12.9985 10.005 13C9.3408 12.9988 8.68455 13.1444 8.08326 13.4266C7.48197 13.7087 6.95053 14.1204 6.527 14.632C6.35753 14.8361 6.11392 14.9645 5.84978 14.989C5.58563 15.0134 5.32258 14.932 5.1185 14.7625C4.91441 14.593 4.78601 14.3494 4.76154 14.0853C4.73707 13.8211 4.81853 13.5581 4.988 13.354C5.59938 12.6162 6.36622 12.0226 7.23369 11.6157C8.10116 11.2088 9.04782 10.9985 10.006 11ZM6.5 6C6.76522 6 7.01957 6.10536 7.20711 6.29289C7.39464 6.48043 7.5 6.73478 7.5 7V8.5C7.49996 8.76519 7.39458 9.0195 7.20705 9.20701C7.01952 9.39451 6.76519 9.49985 6.5 9.49985C6.23481 9.49985 5.98048 9.39451 5.79295 9.20701C5.60541 9.0195 5.50004 8.76519 5.5 8.5V7C5.5 6.73478 5.60536 6.48043 5.79289 6.29289C5.98043 6.10536 6.23478 6 6.5 6ZM13.5 6C13.7652 6 14.0196 6.10536 14.2071 6.29289C14.3946 6.48043 14.5 6.73478 14.5 7V8.5C14.5 8.76519 14.3946 9.0195 14.2071 9.20701C14.0195 9.39451 13.7652 9.49985 13.5 9.49985C13.2348 9.49985 12.9805 9.39451 12.7929 9.20701C12.6054 9.0195 12.5 8.76519 12.5 8.5V7C12.5 6.73478 12.6054 6.48043 12.7929 6.29289C12.9804 6.10536 13.2348 6 13.5 6Z" fill="black"/>
</g>
<defs>
<clipPath id="clip0_7629_20333">
<rect width="20" height="20" fill="white"/>
</clipPath>
</defs>
</svg>
