<svg xmlns="http://www.w3.org/2000/svg" width="46" height="46" viewBox="0 0 46 46" fill="none">
<rect width="46" height="46" fill="white"/>
<path d="M12.8799 11.6533V11.6533C12.8799 17.8571 17.762 22.9623 23.9595 23.2394L24.3288 23.2559L23.0892 23.3483C17.332 23.7773 12.8799 28.5735 12.8799 34.3467V34.3467" stroke="black" stroke-width="3.45"/>
<path d="M33.3245 11.6533V11.6533C33.3245 17.8571 28.4424 22.9623 22.2448 23.2394L21.8756 23.2559L23.1152 23.3483C28.8723 23.7773 33.3245 28.5735 33.3245 34.3467V34.3467" stroke="black" stroke-width="3.45"/>
<rect x="8.79102" y="8.79102" width="28.4178" height="2.86222" rx="1.43111" fill="black"/>
<rect x="8.79102" y="34.3467" width="28.4178" height="2.86222" rx="1.43111" fill="black"/>
<path d="M29.4399 33.1201H16.3555C16.3555 33.1201 17.4257 26.3735 23.0165 26.3735C28.6073 26.3735 29.4399 33.1201 29.4399 33.1201Z" fill="#CCFF00"/>
</svg>