<svg width="18" height="18" viewBox="0 0 18 18" fill="none" xmlns="http://www.w3.org/2000/svg">
<g clip-path="url(#clip0_7588_8716)">
<circle cx="8.64844" cy="8.64844" r="7.6875" fill="#CCFF00"/>
<path d="M8.64844 0C13.425 0 17.2969 3.87191 17.2969 8.64844C17.2969 13.425 13.425 17.2969 8.64844 17.2969C3.87191 17.2969 0 13.425 0 8.64844C0 3.87191 3.87191 0 8.64844 0ZM8.64844 1.72969C6.81347 1.72969 5.05366 2.45863 3.75614 3.75614C2.45863 5.05366 1.72969 6.81347 1.72969 8.64844C1.72969 10.4834 2.45863 12.2432 3.75614 13.5407C5.05366 14.8382 6.81347 15.5672 8.64844 15.5672C10.4834 15.5672 12.2432 14.8382 13.5407 13.5407C14.8382 12.2432 15.5672 10.4834 15.5672 8.64844C15.5672 6.81347 14.8382 5.05366 13.5407 3.75614C12.2432 2.45863 10.4834 1.72969 8.64844 1.72969ZM8.65363 9.51328C10.3556 9.51328 11.9357 10.2726 12.9977 11.5569C13.1341 11.7345 13.1962 11.9581 13.1711 12.1806C13.1459 12.4031 13.0355 12.6071 12.863 12.7499C12.6904 12.8926 12.4693 12.9628 12.246 12.9458C12.0228 12.9288 11.8148 12.8259 11.6659 12.6587C11.2995 12.2148 10.8392 11.8575 10.3182 11.6127C9.79719 11.3679 9.2284 11.2416 8.65276 11.243C8.07834 11.2419 7.51078 11.3679 6.99076 11.6119C6.47074 11.8559 6.01112 12.2119 5.64483 12.6544C5.49827 12.8309 5.28759 12.9419 5.05914 12.9631C4.8307 12.9843 4.6032 12.9138 4.4267 12.7673C4.2502 12.6207 4.13915 12.41 4.11799 12.1816C4.09682 11.9531 4.16727 11.7256 4.31384 11.5491C4.84259 10.9111 5.50579 10.3977 6.25601 10.0458C7.00624 9.69383 7.82495 9.512 8.65363 9.51328ZM5.62148 5.18906C5.85085 5.18906 6.07083 5.28018 6.23302 5.44237C6.39521 5.60456 6.48633 5.82453 6.48633 6.05391V7.35117C6.48629 7.58052 6.39516 7.80046 6.23297 7.96262C6.07079 8.12478 5.85083 8.21588 5.62148 8.21588C5.39214 8.21588 5.17218 8.12478 5.00999 7.96262C4.84781 7.80046 4.75668 7.58052 4.75664 7.35117V6.05391C4.75664 5.82453 4.84776 5.60456 5.00995 5.44237C5.17214 5.28018 5.39211 5.18906 5.62148 5.18906ZM11.6754 5.18906C11.9048 5.18906 12.1247 5.28018 12.2869 5.44237C12.4491 5.60456 12.5402 5.82453 12.5402 6.05391V7.35117C12.5402 7.58052 12.4491 7.80046 12.2869 7.96262C12.1247 8.12478 11.9047 8.21588 11.6754 8.21588C11.446 8.21588 11.2261 8.12478 11.0639 7.96262C10.9017 7.80046 10.8106 7.58052 10.8105 7.35117V6.05391C10.8105 5.82453 10.9017 5.60456 11.0639 5.44237C11.226 5.28018 11.446 5.18906 11.6754 5.18906Z" fill="black"/>
</g>
<defs>
<clipPath id="clip0_7588_8716">
<rect width="17.2969" height="17.2969" fill="white"/>
</clipPath>
</defs>
</svg>
