<svg width="11" height="11" viewBox="0 0 11 11" fill="none" xmlns="http://www.w3.org/2000/svg">
<path d="M5.15224 0.1959C5.24889 -0.0652859 5.6183 -0.0652868 5.71495 0.195899L6.41584 2.09004C6.82098 3.18491 7.68423 4.04816 8.7791 4.4533L10.6732 5.15419C10.9344 5.25084 10.9344 5.62025 10.6732 5.7169L8.7791 6.4178C7.68423 6.82294 6.82098 7.68618 6.41584 8.78106L5.71495 10.6752C5.6183 10.9364 5.24889 10.9364 5.15224 10.6752L4.45134 8.78106C4.0462 7.68618 3.18296 6.82294 2.08808 6.4178L0.193946 5.7169C-0.067239 5.62026 -0.0672399 5.25084 0.193946 5.15419L2.08808 4.4533C3.18296 4.04816 4.0462 3.18491 4.45134 2.09004L5.15224 0.1959Z" fill="black"/>
</svg>
