<svg width="68" height="56" viewBox="0 0 68 56" fill="none" xmlns="http://www.w3.org/2000/svg">
<g clip-path="url(#clip0_8752_9389)">
<path d="M13.9302 17.4498C13.9302 17.4498 13.9302 17.5883 13.7917 17.5883C13.7917 17.7268 13.9302 17.893 13.9302 18.1976H13.487C13.0439 19.4994 12.3514 20.552 12.0467 22.1307H12.4899C12.4899 22.1307 12.4899 21.9922 12.6284 21.9922C12.6284 21.8537 12.4899 21.3829 12.6284 21.2444H12.7669C12.9054 21.1059 12.7669 21.3829 13.0716 21.3829C13.0716 21.2444 13.3762 21.0782 13.21 20.635C13.8194 20.0257 13.8194 18.7516 14.5118 18.1423C14.2072 17.8376 14.5118 18.0038 14.5118 17.5329H13.9025L13.9302 17.4498ZM11.8806 23.1278C12.019 23.1278 12.3237 22.9893 12.6284 22.9893V22.38C12.0467 22.2969 12.0467 22.9893 11.8806 23.1278ZM48.3307 6.62001C48.3307 6.7031 48.4138 6.7031 48.4692 6.7585C48.4692 6.7031 48.4138 6.62001 48.3307 6.62001ZM3.48815 40.1065C3.48815 40.1896 3.57125 40.245 3.70973 40.245C3.70973 40.1619 3.62664 40.1065 3.62664 40.0234C3.57125 40.1065 3.48815 40.1065 3.48815 40.1065ZM4.1529 38.8878C4.01441 37.586 3.70973 36.395 3.01729 35.3979V35.0932C3.10038 35.0932 3.15578 35.0101 3.15578 34.8717H3.01729V34.3454C2.8788 34.3454 2.8788 34.7332 2.71262 34.4839C3.01729 32.9051 2.02017 31.2433 1.7432 29.6368C1.43852 29.4983 1.7432 29.9415 1.43852 29.7753C1.43852 29.4706 1.82629 28.9444 1.43852 28.8613V29.5537C1.30003 29.5537 1.30003 29.6922 1.13385 29.6922C1.13385 29.3875 0.99536 29.3875 0.829174 29.3875C0.690685 29.6922 0.690685 29.9138 0.441406 29.6922C0.746081 29.8307 0.746081 29.9969 0.746081 30.3846C0.884569 30.5231 1.13385 30.3846 1.13385 30.5231C1.13385 30.8278 0.746081 30.5231 0.829174 30.8278C1.35543 31.6587 1.21694 33.099 2.04787 33.6253C1.7432 34.013 2.18636 35.1486 2.43564 35.3702C2.43564 35.5087 2.29715 35.5087 2.29715 35.6749C2.68492 37.1152 3.12808 38.5555 3.51585 40.0788C3.84822 39.8018 3.79283 39.1925 4.1529 38.8878ZM11.0496 10.7193C10.9111 10.7193 11.0496 10.6362 11.0496 10.7193V10.7193ZM49.771 7.61713C50.0757 7.75562 49.771 7.31245 50.0757 7.47864C50.2142 7.78331 49.771 7.47864 49.9372 7.78331C50.5465 8.22648 50.8512 9.0851 51.9868 9.22359C51.9868 9.36208 51.5437 9.0851 51.6821 9.36208C51.8206 9.36208 51.9868 9.50057 51.9868 9.80524C52.0699 9.88834 52.1253 9.80524 52.1253 9.80524C52.2084 9.80524 52.2084 9.80524 52.2638 9.72215C52.1807 10.2484 53.2332 10.1099 52.79 10.4146C52.9285 10.4146 52.9285 10.2761 53.2332 10.4146C53.2332 10.4146 53.0947 10.2761 53.2332 10.2761C53.3717 10.5808 53.3717 10.2761 53.5379 10.2761C53.5379 10.4146 53.8426 10.5808 53.6764 11.0239H53.3717V11.3286C53.6764 11.3286 53.6764 11.3286 53.981 11.1901C53.981 11.3286 53.8426 11.4948 53.5379 11.4948C53.8426 11.7995 53.6764 11.7995 53.981 12.1042L55.5598 11.661C55.4213 11.661 55.2551 11.7995 55.2551 11.661V11.3563C54.9505 11.2178 54.812 10.9132 54.6458 10.6085C54.5073 10.47 54.5073 10.9132 54.3411 10.6085C54.3411 10.6085 54.4796 10.6085 54.4796 10.47C54.3411 10.3315 54.1749 10.3315 54.1749 10.1653C54.0364 10.0268 53.8703 10.47 53.7318 10.1653H54.0364C54.0364 10.0268 53.7318 9.86064 53.7318 9.55597H53.2886V9.1128C51.9868 8.50345 51.8483 6.89699 50.1865 6.89699C50.1865 6.89699 50.325 7.20166 50.1865 7.20166C50.325 6.89699 49.8818 6.7585 50.1865 6.59231C50.325 6.89699 50.3249 6.45382 50.6296 6.7308C50.6296 6.28764 50.0203 5.81678 49.494 6.12145C49.494 6.25994 49.7987 6.12145 49.7987 6.25994C49.6048 6.62001 49.0786 7.39555 49.771 7.61713ZM30.9089 38.3616C31.7398 38.5001 31.9614 38.0569 32.6538 38.0569C32.7923 37.7522 32.2661 38.0569 32.3491 37.7522C32.0445 37.6137 32.3491 38.0569 32.0445 37.8907C31.906 37.586 32.3491 37.8907 32.183 37.586C32.0999 37.586 32.0445 37.6691 31.8783 37.7245C31.8783 37.3368 32.183 37.1983 32.4045 37.0321C32.543 37.5583 33.097 37.3368 33.6232 37.3368C33.5401 37.1152 33.6232 37.1152 33.7063 37.1152C33.6232 36.9767 33.5678 36.8105 33.3186 36.8105C33.3186 36.949 33.3186 36.949 33.1801 36.949C33.0416 37.2537 33.4848 36.949 33.3186 37.2537C33.1801 37.1152 32.9308 37.2537 32.9308 37.1152C32.9308 36.9767 33.0693 36.9767 33.0693 36.8105C32.3768 36.949 31.8506 37.1983 31.0197 37.1983C31.1581 37.7245 30.3272 37.3368 30.715 37.7245C31.0474 37.8353 31.0474 38.3616 30.9089 38.3616ZM31.4351 37.6137C31.5736 37.7522 31.8229 37.7522 31.9614 37.8353C31.7398 37.9738 31.5182 38.2231 31.2689 38.3616C31.4351 37.8353 31.4351 37.8353 31.4351 37.6137Z" fill="black"/>
<path d="M12.7422 43.1533C16.6752 42.4609 20.2482 41.2699 24.0428 40.3559C24.1813 40.2174 24.0428 40.0512 24.1813 40.0512C24.7076 40.3559 25.2338 39.9127 25.8432 39.9127C25.9817 39.7742 25.8432 39.608 25.9817 39.608C26.8126 39.9127 28.7237 38.9156 30.2194 38.7771C30.3025 38.694 30.2194 38.694 30.2194 38.6386C30.3025 38.7217 30.5241 38.6386 30.6072 38.6386C30.7457 38.5001 30.7457 38.1124 30.9949 37.8077C30.6903 37.8077 30.4687 37.6692 30.6903 37.503C30.3025 37.503 29.7208 37.6415 29.9978 37.8908C29.9978 37.7523 29.9978 37.7523 30.1363 37.7523C29.9978 37.8908 30.1363 38.1401 29.9978 38.1401C29.8593 38.0016 29.6931 38.0016 29.6101 37.8354C29.6101 37.6969 29.7485 37.6969 29.7485 37.5307C29.3608 37.3922 29.2223 37.6692 29.0561 37.8354C28.5298 37.5307 27.5327 38.2232 26.7018 38.2232C26.5633 38.3616 26.7018 38.5278 26.5633 38.5278C26.2586 38.6663 26.1755 38.3893 26.037 38.3893C26.037 38.7771 25.5108 38.7771 25.3446 39.0818C25.2061 38.7771 25.4831 38.9433 25.4831 38.694C25.1784 38.8325 24.9568 39.0818 24.6522 38.8325C24.5137 39.1372 24.1259 39.1372 23.6827 39.1372C22.1594 39.5249 20.5806 40.0512 18.7526 40.3559C18.4479 40.4944 18.7526 40.6605 18.6141 40.7436C18.6141 40.6052 18.4756 40.439 18.3094 40.439C18.1709 40.5775 18.3094 40.7436 18.1709 40.7436C18.1709 40.6052 18.0324 40.6052 17.7831 40.6052C12.7699 42.1285 11.6619 41.9623 6.48248 43.4026C6.62097 43.4026 6.62097 43.4026 6.62097 43.5411C6.2332 43.6796 6.31629 43.2364 5.92852 43.4026C5.79003 43.7073 5.62385 43.9289 5.54076 44.2336C5.0145 43.8458 5.54076 43.3195 5.23608 42.7102C5.09759 42.8487 4.84831 43.0979 4.70982 42.8487C4.70982 42.544 5.0145 42.7102 5.09759 42.7102V42.1008C4.9591 42.1008 4.9591 42.2393 4.79292 42.2393C5.18068 41.4915 4.48824 40.7159 4.48824 39.5803C4.34975 39.4418 4.18357 39.5803 4.18357 39.4418C4.18357 39.3034 4.04508 39.1372 4.04508 39.3034C4.18357 39.8296 3.65731 39.8296 3.65731 40.2174H3.57422C3.7958 41.1314 4.10048 42.0454 4.32206 42.9318C4.46055 43.0702 4.70982 42.9318 4.70982 43.0702C4.57134 43.2087 4.70982 43.3749 4.57134 43.3749C4.48824 43.3749 4.48824 43.2364 4.34975 43.2364C4.34975 43.7627 4.34975 44.1505 4.73752 44.2889C4.34975 44.5936 4.73752 44.9814 4.73752 45.203C7.70118 44.5105 6.09471 45.0645 9.05836 44.372L10.2771 43.8458C10.9695 43.5411 11.8004 43.3195 12.6314 43.1533C12.6314 42.8487 12.1051 42.8487 12.3267 42.6271C12.576 42.821 12.7422 42.9872 12.7422 43.1533ZM30.0809 38.5278V38.6663C29.9978 38.5832 29.9147 38.5278 30.0809 38.5278ZM46.1456 11.8549C46.0071 11.5503 46.2841 11.5503 46.2841 11.4118C45.8409 11.4118 45.6747 11.4118 45.37 11.2733C45.5085 11.4118 45.0654 11.2733 45.2316 11.4118C45.37 11.4672 45.9794 11.4672 46.1456 11.8549ZM37.3377 7.09095C36.8945 6.95246 37.1992 7.39562 36.8945 7.39562V6.78627C35.7589 6.78627 35.5928 6.78627 34.6787 6.4816C34.5402 6.62008 34.3741 6.78627 34.0694 6.78627V6.4816H33.6262C33.7647 6.78627 33.6262 6.62008 33.9309 7.09095C34.2356 7.09095 34.5402 7.39562 34.6787 7.09095C34.8172 7.39562 35.5928 7.09095 35.8143 7.39562C35.5928 7.09095 36.0359 6.95246 36.3406 7.09095V7.22943C36.2021 7.22943 35.8974 7.09095 35.8974 7.36792C36.5068 7.22943 36.5068 7.6726 37.1992 7.50641C37.033 7.22943 37.3377 7.22943 37.3377 7.09095ZM44.2344 10.4147C44.3729 10.4147 44.2344 10.7193 44.3729 10.8578C44.6776 10.8578 44.8161 10.9963 44.9823 10.9963C45.1485 10.9963 44.9823 10.6916 45.2869 10.8578V10.4147C44.9823 10.4147 44.9823 10.11 44.5391 10.2762V9.97151C44.4006 10.11 44.4006 9.83302 44.2344 9.83302C44.2344 10.1377 44.3729 10.1377 44.3729 10.1377C44.5391 10.2485 44.2344 10.11 44.2344 10.4147ZM19.4727 10.8578C19.3342 11.1625 19.7774 10.8578 19.6112 11.1625C19.3065 11.301 19.6112 10.8578 19.3065 11.024C19.3065 11.024 19.445 11.3287 19.3065 11.3287H18.9187C18.9187 11.4672 18.7803 11.4672 18.6141 11.4672C18.6972 11.8549 18.6141 12.0765 18.531 12.3812C19.1403 12.2427 19.2788 11.7719 19.7497 11.6334C19.6112 11.1902 19.8882 11.024 19.8882 10.4978C19.6112 10.5809 19.7774 10.8578 19.4727 10.8578ZM32.1028 6.31541C31.9644 6.31541 31.4935 6.31541 31.4935 6.4539C31.1888 6.14922 30.1917 6.31541 29.9147 6.4539C29.9147 6.59239 30.0532 6.75857 29.7762 6.75857C29.4716 6.75857 29.9147 6.4539 29.6377 6.4539C29.4993 6.4539 29.4993 6.75857 29.1946 6.75857C28.8899 6.31541 27.8928 6.62008 27.3111 6.75857C27.1727 7.06325 27.6158 6.75857 27.4496 7.06325C27.145 6.92476 27.4496 7.36792 27.145 7.20174C27.2834 6.75857 27.145 7.20174 26.8403 6.89706C26.8403 7.03555 26.9788 7.34022 26.8403 7.34022V7.03555C25.7047 7.03555 25.4 7.6449 24.3475 7.6449C24.486 7.78339 24.209 7.78339 24.209 7.94957C22.5748 8.58662 21.2176 9.41755 20.082 10.3316C20.2205 10.3316 20.3867 10.1931 20.3867 10.3316C20.3867 10.6363 20.082 10.7747 20.082 11.0794C21.827 10.1654 23.4058 8.72511 25.6216 8.28195C25.9263 7.97727 26.3694 7.97727 26.5356 7.6726C26.5356 7.81109 26.5356 7.81109 26.6741 7.81109C27.2834 7.36792 28.7237 7.50641 29.3331 7.06325C30.0809 7.36792 31.2165 6.75857 32.2967 6.92476C32.2967 6.78627 32.2967 6.78627 32.1582 6.62008C32.1028 6.62008 32.1028 6.31541 32.1028 6.31541ZM30.3025 6.92476C30.441 6.62008 30.7457 6.78627 30.9118 6.62008C30.7457 6.78627 30.6072 6.92476 30.3025 6.92476ZM40.1629 8.36504C40.1629 8.66971 40.606 8.8082 41.0769 8.8082C41.0769 8.66971 41.0769 8.66971 41.2154 8.50353C41.0769 8.50353 41.0769 8.50353 41.0769 8.36504V8.06036C40.7722 8.19885 40.1629 7.92188 39.9413 7.6172C39.8028 7.6172 39.8028 7.75569 39.8028 7.75569C39.8028 7.45102 39.1935 7.45102 39.055 7.6726C39.1935 7.28483 38.5287 7.75569 37.9194 7.5895C37.9194 7.45102 37.7809 7.45102 37.9194 7.14634C37.6147 7.14634 37.7809 6.84167 37.4762 7.00785V7.75569C37.9194 7.6172 38.224 8.06036 38.6118 7.75569C38.9165 8.36504 39.5258 8.36504 40.1906 8.50353C40.1906 8.36504 40.0521 8.06036 40.1906 8.06036C40.1906 8.19885 40.4952 8.36504 40.4952 8.50353C40.1629 8.66971 40.4398 8.22655 40.1629 8.36504ZM41.0492 8.36504C41.0492 8.44813 41.0492 8.50353 40.9661 8.50353C40.9661 8.50353 40.8276 8.50353 40.8276 8.36504H41.0492ZM48.3337 13.3783C48.4722 13.0736 48.029 13.3783 48.029 13.0736C48.029 13.3783 47.7243 13.2121 47.8905 13.5168C48.1675 13.5168 48.029 13.2121 48.3337 13.3783ZM43.7913 9.41755C43.7913 9.55604 43.6528 9.72223 43.6528 9.86071C43.3481 9.72223 43.6528 9.41755 43.6528 9.25137C43.2096 9.25137 43.3481 8.8082 42.7388 8.94669C42.8772 9.25137 43.0434 9.25137 43.1819 9.38985C43.0434 9.52834 42.8772 9.52834 42.8772 9.69453C43.1819 9.83302 43.3204 9.9992 43.6251 10.1377C43.6251 9.9992 43.7636 9.9992 44.0682 9.9992C43.9298 9.69453 43.9298 9.86071 44.0682 9.55604C43.7913 9.80532 44.0682 9.27906 43.7913 9.41755ZM47.8628 13.0736C47.7243 13.0736 47.7243 13.0736 47.7243 12.9352H47.2812C47.2812 13.2398 47.4197 13.2398 47.4197 13.3783C47.7243 13.3783 47.7243 13.2121 47.8628 13.0736ZM46.3395 11.8549C46.3395 11.7719 46.4226 11.7165 46.4226 11.6334C46.3395 11.6888 46.3395 11.7719 46.3395 11.8549Z" fill="black"/>
<path d="M41.8762 8.50342C41.8762 8.80809 42.1808 8.64191 42.0147 8.94658H41.71C41.5715 9.08507 41.71 9.08507 41.71 9.25126C42.0147 9.38974 42.0147 9.11277 42.1531 9.11277C42.1531 9.41744 42.4578 9.41744 42.7625 9.55593C42.901 9.25126 42.4578 9.25126 42.624 8.94658V8.64191C42.347 8.83579 42.1808 8.50342 41.8762 8.50342Z" fill="black"/>
<path d="M46.4212 12.4637C46.7259 12.6022 47.0305 12.6022 47.0305 12.9069C47.169 12.7684 47.3352 12.4637 47.3352 12.1591C47.0305 12.6022 47.0305 11.5497 46.4212 11.7159C46.5597 12.0206 46.7259 12.0206 46.8644 12.1591C46.5874 12.1591 46.4212 12.2976 46.4212 12.4637ZM8.11529 18.2803C8.11529 18.2803 7.9768 17.9756 8.11529 17.8371C8.25378 17.8371 7.9768 18.4464 8.25378 18.2803C8.11529 17.5324 8.55845 17.5324 8.55845 16.9785C8.41996 16.84 8.41996 16.7569 8.33687 16.5907C8.41996 16.5076 8.41996 16.4522 8.47536 16.3691C8.69694 16.3691 8.61385 16.6738 8.91852 16.5076C9.05701 16.2029 8.61385 16.5076 8.78003 16.2029C8.91852 16.3414 8.78003 15.8983 8.91852 15.8983C8.91852 15.8983 8.91852 16.0367 9.05701 16.0367C9.80485 14.458 10.6358 12.9346 11.8545 11.799V11.3558H12.1592C12.1592 10.608 12.907 10.7465 13.0732 9.91556H13.3779C13.5163 9.47239 13.9872 9.00153 14.5135 8.61376C15.1228 8.1706 15.4275 7.47816 16.0922 7.31197C16.2307 7.0073 16.3969 6.86881 16.5354 6.70262C16.9785 6.84111 16.8401 6.39795 17.2832 6.39795C17.8926 5.48392 19.499 5.09616 20.3854 4.18213C22.7397 3.43429 24.7893 2.1325 27.7253 1.82783C27.8637 1.68934 27.4206 1.68934 27.7253 1.52315C29.6087 1.66164 32.1292 1.21848 34.622 1.38467C34.622 1.24618 34.622 1.07999 34.9267 1.24618C34.7882 1.38467 35.0651 1.38467 35.0651 1.55085C35.6745 1.41236 36.3669 1.85553 36.6439 1.55085C36.9486 1.85553 37.9457 2.1602 38.0842 1.55085V1.99401C38.3889 1.99401 38.6935 1.99401 38.832 2.1325C38.9705 1.82783 38.6935 1.82783 38.6935 1.68934C38.9982 1.82783 38.6935 1.38467 38.9982 1.55085C39.1367 1.85553 38.6935 1.55085 38.8597 1.85553C38.9982 1.85553 38.9982 1.99401 38.9982 2.1602C39.6076 2.1602 40.3 2.46487 40.7432 2.60336C40.7432 2.60336 40.7432 2.46488 40.8817 2.46488C40.577 2.32639 41.0201 2.1602 40.7432 1.85553H41.0478C41.0478 1.99401 41.0478 1.99401 41.1863 2.1602C40.8817 2.29869 40.8817 2.46487 40.8817 2.90804C41.0201 3.04653 40.8817 2.60336 41.0201 2.60336C41.0201 2.60336 41.1586 2.46487 41.1586 2.60336C41.1586 2.60336 41.0201 2.60336 41.0201 2.74185C41.1586 2.74185 41.1586 2.74185 41.1586 2.88034C41.2971 3.01883 41.2971 2.74185 41.4633 2.74185V3.04653C43.9561 3.79436 45.8672 5.26234 47.8892 6.53644C47.8892 6.39795 48.1938 6.23176 48.3323 6.39795C48.1938 6.39795 48.2492 6.61953 48.1938 6.70262H48.4985C48.637 6.25946 48.637 5.56702 48.637 5.12385C48.3323 5.34544 48.3323 4.68069 47.8892 4.81918C48.0277 4.68069 47.8892 4.68069 47.8892 4.5145C46.1442 3.60048 44.5654 2.63106 42.8759 1.85553C42.7374 1.85553 42.8759 2.1602 42.5712 1.99401V1.74474C41.8234 1.74474 41.2694 0.996897 40.5216 1.30157C40.6601 1.30157 40.6601 1.30157 40.6601 1.44006C40.3554 1.57855 40.0507 1.57855 39.7461 1.74474C39.7461 1.44006 40.0507 1.60625 40.0507 1.30157C40.1892 1.16308 39.9122 1.60625 40.1892 1.44006C40.1892 1.30157 40.4939 1.44006 40.3277 1.13539C39.1921 0.830711 38.1119 0.526037 36.8378 0.387548C36.8378 0.526037 36.8378 0.692223 36.6993 0.692223C36.8932 0.415246 36.45 0.415246 36.1454 0.415246C36.1454 0.553734 36.0069 0.71992 35.7022 0.71992V0.193664C34.9544 0.0551758 34.2619 0.636827 34.1234 0.0551758C33.6803 0.193664 33.6803 0.0551758 33.2094 0.193664C32.7662 -0.11101 31.6306 0.193664 30.7166 0.332153C30.7166 0.636827 30.2734 0.470641 30.5781 0.775316C30.495 0.775316 30.3565 0.858409 30.2734 0.858409V0.775316L30.1903 0.858409C30.1073 0.858409 30.1073 0.858409 30.1073 0.775316C30.1073 0.636827 30.4119 0.636827 30.2457 0.470641C28.8886 0.332153 28.2792 0.775316 27.1436 0.60913C27.2821 0.747618 27.0051 0.747618 27.0051 0.913804C26.3958 0.775316 25.2602 1.30157 24.6508 1.60625C24.3461 1.74474 24.6508 1.30157 24.3461 1.46776C23.7368 1.77243 23.0443 1.77243 22.4627 2.07711C22.4627 2.2156 22.6012 2.38178 22.4627 2.38178C22.3242 1.93862 21.8533 2.38178 21.7149 2.38178C21.7149 2.52027 21.8533 2.82495 21.7149 2.82495C21.5764 2.82495 21.8533 2.2156 21.5764 2.38178L21.2717 2.68646C17.117 4.43141 14.1534 7.09039 11.3005 10.2479C11.3005 10.3864 11.6052 10.3864 11.6052 10.5526C11.3005 10.4141 11.6052 10.8573 11.3005 10.6911C11.3005 10.5526 11.439 10.3864 11.162 10.3864C11.162 10.4695 11.2451 10.6911 11.162 10.6911H11.0789C11.0789 10.6911 11.0789 10.7742 10.9958 10.8296C10.8574 10.9681 10.5527 10.9681 10.5527 11.1343V11.4389C10.4142 11.4389 10.248 11.4389 10.1095 11.5774C10.1095 11.7159 10.1095 12.0206 9.97103 12.1868C9.83255 12.4914 9.83255 12.3253 9.66636 12.6299L9.27859 12.8515C9.27859 12.99 9.27859 13.2947 9.1401 13.4609C9.44478 13.5993 9.1401 13.0177 9.44478 13.1562C9.44478 13.4609 9.30629 13.5993 9.30629 13.904L9.44478 14.2087H9.36169V13.904H8.75234C8.44766 14.5134 8.30917 15.2058 8.0045 15.649C8.14299 15.649 8.14299 16.0921 8.0045 16.2583C8.0045 16.2583 8.0045 16.1198 7.86601 16.1198C7.9491 16.2029 7.9491 16.3414 8.0045 16.4245C7.69982 16.4245 7.86601 17.3385 7.39515 17.0339C7.53364 16.7292 7.53364 16.5907 7.69982 16.286H7.25666C7.25666 16.4245 7.39515 16.8954 7.11817 16.8954C7.11817 17.0339 7.42285 17.0339 7.25666 17.3385H6.8135C6.95199 17.6432 6.67501 17.6432 6.67501 17.7817C6.97968 17.6432 6.97968 17.9202 7.11817 17.9202C7.25666 17.7817 7.11817 17.477 7.42285 17.477C7.28436 17.9202 7.28436 18.0864 7.42285 18.6126C7.28436 18.6126 6.97968 18.7511 6.97968 18.6126C6.8412 18.4741 7.11817 18.4741 7.11817 18.308C6.67501 18.4464 6.8135 18.1695 6.50882 18.1695C6.64731 18.7788 6.37033 18.9173 6.50882 19.4713H6.12106C6.12106 20.6069 5.67789 21.3547 5.51171 22.4349C5.37322 23.5705 5.51171 23.8752 5.20703 24.9277H6.64731C6.59192 22.0194 7.33975 20.4961 8.11529 18.2803ZM8.47536 16.2306C8.47536 16.0921 8.55845 16.009 8.55845 15.926C8.69694 16.0921 8.55845 16.1752 8.47536 16.2306ZM8.64155 15.3997C8.64155 15.5382 8.94622 15.3997 8.78003 15.7044C8.91852 15.8429 8.78003 15.5659 8.91852 15.5659L9.05701 15.7044C8.91852 15.7044 8.91852 15.926 8.66924 15.8429H8.75234C8.78003 15.7044 8.39227 15.5659 8.64155 15.3997Z" fill="black"/>
<path d="M18.1953 12.6023C18.1953 12.907 17.8906 12.7408 17.8906 13.0455H18.0291C18.1122 12.9624 18.1676 12.907 18.2507 12.907C18.2507 12.7685 18.2507 12.6854 18.1953 12.6023ZM33.0967 6.31494H32.3488C32.3488 6.45343 32.4873 6.61962 32.3488 6.61962H32.2103C32.515 6.61962 32.6535 6.7581 32.3488 6.92429H33.0967C33.0967 6.7858 32.792 6.7858 32.792 6.61962C32.9582 6.61962 33.0967 6.48113 33.0967 6.31494ZM18.4723 12.6023C18.4723 12.5192 18.5554 12.4638 18.5554 12.3807H18.4723V12.6023ZM18.2507 12.907C18.2507 13.0455 18.1676 13.1286 18.1676 13.2948C18.2507 13.0732 18.3061 12.907 18.3892 12.7685L18.2507 12.907ZM18.0291 12.6023H18.1676C18.1953 12.4638 18.0291 12.6023 18.0291 12.6023ZM46.4192 12.1592C46.4192 12.1592 46.3362 12.0207 46.3362 11.8545C46.2531 11.9376 46.2531 11.993 46.2531 12.1592H46.4192Z" fill="black"/>
<path d="M17.4219 13.0734C17.4219 13.2118 17.5603 13.5165 17.4219 13.5165C17.2834 12.9072 16.9787 13.9597 16.674 13.8212C16.8125 14.2644 15.9262 14.4305 16.3693 14.9568C16.0647 15.0953 16.3693 14.6521 16.0647 14.8183V15.2615C15.6215 15.123 15.76 15.7046 15.3168 15.7046C15.3168 16.0093 15.0121 16.0093 15.1783 16.314C15.3168 16.314 15.483 16.1755 15.483 16.314V16.4525C15.1783 16.4525 15.0398 16.591 14.8737 16.7571C14.8737 16.7571 15.0122 16.314 14.8737 16.4525C14.8737 16.8956 14.569 16.8956 14.4305 17.2003C14.569 17.2003 14.8737 17.0618 14.8737 17.2003C14.7352 17.2003 14.7352 17.2003 14.7352 17.505C16.1755 16.2032 16.7848 14.5413 18.2251 13.4057C17.9204 13.101 18.0866 12.7964 18.2251 12.4917C17.7265 12.6856 17.6434 12.9072 17.4219 13.0734ZM30.1628 20.4132C29.9412 20.3301 30.0797 20.4963 30.0243 20.5517C30.0797 20.5517 30.3013 20.6348 30.1628 20.4132ZM29.4703 19.8039C29.5534 19.887 29.5534 19.9424 29.6088 19.9424C29.7473 19.9424 29.8304 19.8593 29.9966 19.8593C29.9135 19.7762 29.9135 19.6377 29.9135 19.4715C29.6088 19.3607 29.6088 19.6654 29.4703 19.8039ZM8.3924 26.2575C8.47549 26.1744 8.53089 26.119 8.53089 26.0359C8.47549 26.0913 8.33701 26.0913 8.3924 26.2575ZM0.830931 29.1934C0.969419 29.0549 0.830931 28.8887 0.969419 28.8887H1.10791C1.10791 28.9718 0.969419 28.9718 0.969419 29.1103H1.10791C1.10791 29.2488 1.2464 29.2488 1.2464 29.2488C1.2464 28.861 1.10791 28.5564 1.10791 28.0301C0.969419 28.0301 0.969419 27.7254 0.72014 27.8916C0.581652 28.0301 0.72014 28.4179 0.581652 28.4179H0.304675C0.387768 28.6395 0.387768 28.8056 0.387768 29.1103H0.830931V29.1934ZM0.304675 28.4456C0.304675 28.0578 0.221582 27.6977 0.443163 27.4762C0.304675 27.4762 0.304675 27.3377 0 27.3377C0 27.8362 0.138488 28.0578 0.304675 28.4456Z" fill="black"/>
<path d="M19.8301 22.4633C18.6114 22.768 17.4204 23.2942 16.0356 23.3773C15.0661 23.682 13.9859 23.9036 13.0719 24.2082C12.9334 24.3467 13.0719 24.5129 12.9334 24.5129C11.5762 24.3744 10.5237 25.2054 9.13884 25.3438C9.00035 25.6485 9.27732 25.4823 9.27732 25.7316C9.13884 25.7316 8.75107 25.8701 8.88956 25.4269C7.67086 25.5654 8.88956 25.2884 7.83704 25.5654V25.787C7.75395 25.787 7.61546 25.8701 7.44928 25.9255C7.53237 25.787 7.58777 25.5377 7.83704 25.5377L8.3633 25.233C7.39388 25.6208 5.9536 25.6208 5.12267 26.1471C4.98418 26.1471 4.98418 26.0086 4.818 26.0086C4.7072 26.1748 4.87339 26.3133 4.7072 26.3133C4.40253 25.9255 3.87627 26.3133 3.73779 26.6179C3.5993 26.7564 4.04246 26.4794 4.04246 26.7564V27.0611H3.65469C3.79318 26.6733 3.35002 26.7564 3.5162 26.5348C2.98995 26.8395 2.46369 26.5348 2.46369 27.0611C2.46369 26.9226 2.46369 26.6733 2.15902 26.7564C2.15902 27.0611 1.85434 27.0611 1.77125 27.1442C1.38348 26.7564 1.07881 27.3104 0.552551 27.1442C0.414062 27.2827 0.552551 27.4489 0.414062 27.4489C0.718737 27.4489 0.718737 27.5874 0.940319 27.5874V27.892C1.32809 28.0305 0.940319 27.5874 1.24499 27.5874V27.9751C1.46657 28.0582 1.63276 27.9751 1.68816 27.892C1.77125 27.892 1.82664 27.9751 1.90974 27.9751V27.7535C1.99283 27.6704 2.04823 27.6151 2.21441 27.532C2.21441 27.6704 2.3529 28.0582 2.3529 27.8366C2.49139 27.6981 2.3529 27.4489 2.49139 27.4489C2.79606 27.4489 2.62988 27.7535 2.62988 27.8366C3.01765 27.6981 3.46081 27.532 3.98706 27.532C4.12555 27.3935 4.12555 27.2273 4.29174 27.1442C4.43023 27.1442 4.29174 27.4489 4.59641 27.4489C4.818 27.3104 4.90109 27.0611 4.98418 26.8395C5.06728 26.9226 5.06728 26.9226 5.12267 26.9226C4.98418 27.0611 4.98418 27.0611 4.98418 27.3104C5.28886 27.1719 5.81511 27.1719 6.20288 27.0057C6.34137 26.8672 5.89821 26.701 6.20288 26.701C6.72914 27.0888 7.03381 26.4794 7.72625 26.0917C7.80935 26.0917 7.86474 26.0086 7.94784 26.0086H8.08632V25.9255C8.30791 25.8424 8.47409 25.8424 8.69567 25.8424L8.61258 25.9255C8.52949 26.0086 8.52949 26.064 8.47409 26.1471C8.69567 26.1471 8.77877 26.1471 8.86186 26.064C8.77877 26.064 8.72337 26.064 8.64028 25.9809C8.72337 25.9809 8.72337 25.9809 8.72337 25.8978V25.8147C8.72337 25.8147 8.72337 25.7316 8.80646 25.7316L8.88956 26.0363H9.11114C9.11114 25.8978 8.97265 25.8978 8.97265 25.7316C9.36042 25.5931 9.11114 26.1194 9.49891 26.0363C9.63739 25.7316 9.36042 25.8978 9.36042 25.6485C9.88667 26.0363 10.8838 25.9532 11.1054 25.3438C11.41 25.7316 11.7978 25.2054 12.1579 25.3438C12.2964 25.0392 11.8532 25.2054 12.0194 24.9561H12.4072C12.4072 25.0946 12.4072 25.2607 12.5457 25.2607C13.0719 25.1223 13.5151 24.873 14.2075 24.873C19.3039 23.4604 24.6218 22.1586 29.9121 20.8014V20.6629H29.7736V20.1367C29.6351 20.1367 29.552 20.0536 29.4689 20.0536C29.1643 20.1367 28.7765 20.2752 28.4164 20.2752C25.8128 21.023 22.7938 21.7708 19.8301 22.4633ZM4.23634 26.4794C4.45793 26.3964 4.62411 26.5625 4.84569 26.7841C4.48562 26.7841 4.31944 26.7841 4.23634 26.4794ZM7.50467 26.0086C7.50467 26.0917 7.42158 26.0917 7.36618 26.0086C7.42158 25.9255 7.42158 25.9255 7.50467 26.0086C7.50467 25.9255 7.50467 25.9255 7.50467 26.0086ZM55.2278 40.2452C55.0893 40.5499 55.5325 40.2452 55.3663 40.5499C55.2278 40.5499 55.2278 40.8545 54.9231 40.6884C54.7846 41.1315 54.6184 41.6024 54.6184 42.2671L54.48 42.1286C54.6184 42.1286 54.6184 42.1286 54.6184 41.824C54.3138 42.2671 54.0091 42.5718 53.7044 43.1258C53.5659 43.2642 54.0091 43.4304 53.8429 43.5689C53.8429 43.5689 53.7044 43.5689 53.7044 43.2642C53.3997 43.5689 53.0951 43.8736 53.0951 44.3998C52.9566 44.5383 52.9566 44.3998 52.7904 44.3998C52.7904 44.5383 52.7904 44.843 52.3472 44.843C52.0426 45.4524 50.907 45.9786 51.2116 46.588L50.907 46.2833V46.588C49.7714 46.8926 49.3282 48.0282 48.248 48.4714C48.248 48.5545 48.248 48.5545 48.3311 48.6099C48.1095 48.5268 47.9433 48.7484 47.6386 48.7484V49.0531C46.0599 49.9671 44.5365 50.6318 43.0962 51.5458C42.9577 51.4074 42.1822 51.6843 41.9606 51.989C41.9606 51.989 41.9606 51.8505 41.8221 51.8505C41.2128 52.2937 40.0772 52.4599 39.1631 52.5984C39.0246 52.903 39.3016 52.7369 39.3016 53.0415C39.1631 53.0415 38.9969 53.18 38.8585 53.0415C38.9969 53.0415 38.9969 53.0415 38.9969 52.903C38.6923 53.0415 38.9969 52.5984 38.6923 52.7646C38.2491 53.0692 37.1135 52.7646 36.8088 53.2077C36.5042 52.903 35.6732 53.2077 35.3685 53.2077C35.6732 53.5124 35.2301 53.5124 35.3685 53.9556C35.3685 54.0386 35.4516 54.2602 35.2301 54.094C35.3685 53.7894 34.9254 53.9556 34.9254 53.7894C34.7869 53.6509 35.0639 53.6509 35.0639 53.4847C34.6207 53.4847 34.7592 54.2325 34.1499 53.9279C34.1499 53.7894 34.0114 53.6232 34.1499 53.6232C34.4545 53.4847 34.1499 54.0663 34.4545 53.9279V53.18C34.1499 53.0415 34.0114 53.4847 33.8452 53.18C33.8452 53.4847 33.2358 53.3185 33.0973 53.3185C33.0973 53.457 33.2358 53.7617 33.0973 53.7617C32.9589 53.3185 32.9589 54.0663 32.7927 53.9002C32.6542 53.5955 33.0973 53.5955 32.9312 53.2908H32.1833C32.1833 53.4293 32.6265 53.4293 32.6265 53.5955C32.6265 53.5955 32.6265 53.9002 32.488 53.9002C32.3495 53.9002 32.488 53.5955 32.1833 53.7617C32.3218 53.9002 32.488 54.2048 32.1833 54.5095H32.9312C32.8481 54.5926 32.7927 54.648 32.6265 54.648C32.6265 54.7865 32.6265 54.9527 32.765 54.9527C32.765 54.648 33.2081 54.648 33.2081 54.5095C34.1222 54.4264 34.7869 54.2879 35.2578 54.5095C35.784 54.4264 36.3934 54.371 36.9196 54.2048C36.8365 54.2879 36.8365 54.3433 36.8365 54.5095H37.1412C37.1412 54.371 37.1412 54.2048 37.2243 54.1217L37.6675 53.9002C37.806 54.0386 37.529 54.0386 37.529 54.2048C37.9721 54.0663 38.6646 54.0663 38.8308 53.7617C38.9692 53.7617 38.9692 53.7617 38.9692 53.9002C39.2739 53.9002 39.2739 53.5955 39.5786 53.5955C39.5786 53.734 39.5786 53.9002 39.7171 53.9002C40.0218 53.7617 40.1603 53.5955 40.6311 53.5955C40.6311 53.457 40.4926 53.1523 40.6311 53.1523C40.7696 53.5955 41.2405 53.2908 41.5451 53.2908C41.5451 53.2077 41.3236 53.0692 41.3236 52.9861H41.2682V52.543C41.5728 52.4045 41.5728 52.6815 41.8775 52.6815C41.8775 52.903 41.7944 53.0692 41.6559 53.1246C41.8775 53.0415 42.0991 53.0415 42.3484 52.9861C42.3484 53.0692 42.3484 53.0692 42.4869 52.9861V52.903C43.0131 52.7645 43.5394 52.5153 44.0656 52.2937C44.1487 52.4322 44.2041 52.4322 44.3703 52.3768V52.1552C44.8966 51.9336 45.4228 51.6289 45.9491 51.3243V51.4074H46.3922C46.3922 51.2689 46.4753 51.1027 46.4753 51.0196C46.5584 50.9365 46.6138 50.9365 46.6969 50.8811C46.78 50.8811 46.8354 50.798 46.9185 50.7426C47.1401 50.6041 47.3617 50.521 47.6109 50.4379C47.6109 50.2995 47.4724 50.1333 47.6109 49.9948C47.6109 50.1333 47.6109 50.2995 47.7494 50.2995C48.885 49.8563 49.6329 48.9977 50.5469 48.416C50.6854 48.1113 50.2422 48.416 50.4084 48.1113C50.7131 47.9729 50.4084 48.416 50.7131 48.2498C50.7131 48.1113 50.5746 47.8067 50.7131 47.8067C50.8516 47.8067 50.5746 48.2498 50.8516 48.1113C51.7656 46.8096 53.2059 46.0617 53.9537 44.6214C53.8152 44.6214 53.649 44.7599 53.649 44.6214C53.7875 44.6214 53.7875 44.4829 53.9537 44.4829V44.7876C54.3969 44.6491 54.563 44.0398 54.8677 43.4858C55.0062 43.3473 55.1724 43.3473 55.3109 43.1812C55.4494 43.015 55.3109 42.738 55.4494 42.5718C55.5879 42.4333 55.8925 42.2671 56.0587 42.1286C56.1972 41.824 56.1972 41.5193 56.3634 41.2146C56.3634 41.0761 56.6681 41.2146 56.6681 41.0761V40.7715L57.1112 40.3283C57.2497 39.8851 57.4159 39.1927 57.5544 38.888C57.6929 38.888 57.8591 38.888 57.8591 38.7495C57.8591 38.611 57.7206 38.3064 57.8591 38.1402C57.8591 38.0017 58.1637 38.0017 58.1637 37.8355V37.3923C58.1637 37.3923 58.4684 37.3923 58.4684 37.2538V36.8107C58.4684 36.8107 58.7731 36.6722 58.7731 36.506C58.7731 36.0628 58.7731 35.592 58.9116 35.0657C58.9116 35.0657 59.2163 34.9272 59.2163 34.7611C59.3548 33.847 59.3548 32.7114 59.6594 31.9636L58.3576 31.6589C58.0253 35.038 57.1112 38.2233 55.2278 40.2452ZM35.6178 54.4264C35.6178 54.4264 35.4793 54.4264 35.4793 54.1217H35.3962C35.5347 54.1217 35.6178 54.0386 35.6178 54.1217C35.6178 54.2048 35.7563 54.4264 35.6178 54.4264ZM46.2814 51.2412C46.1983 51.3243 46.1983 51.3243 46.143 51.3243C46.1983 51.3243 46.1983 51.2412 46.2814 51.2412ZM31.8232 19.6658C32.0448 19.6658 32.0448 19.5273 32.1279 19.3611H32.0448C32.0448 19.4996 31.8786 19.4996 31.8232 19.6658ZM32.0448 20.3306V19.9428C31.8232 20.0259 31.7402 19.9428 31.7402 19.8597C31.8232 20.0259 31.8786 20.2752 32.0448 20.3306ZM61.349 12.1597C61.2105 12.0766 60.9612 12.0213 61.1274 11.772C59.7702 12.0766 58.7177 12.6029 57.0281 12.686L55.8094 13.0738C55.2832 13.1569 54.84 13.2953 54.3692 13.4615C54.2307 13.4615 54.1476 13.4615 53.9814 13.5446C53.5382 13.6277 53.1505 13.7662 52.6796 13.8493C52.5965 13.7662 52.458 13.7662 52.3749 13.7662V13.9047H52.2364C52.098 14.2094 52.5411 14.0432 52.3749 14.2925C52.0703 14.4309 52.2364 13.9878 51.9872 13.9878C45.3951 15.6496 38.9693 17.3946 32.5157 19.0565V19.195H32.211C32.5988 19.3334 31.6848 19.7212 32.211 20.0259C32.3495 19.8874 32.211 19.6381 32.3495 19.6381C32.8758 19.7766 33.0419 19.3334 33.3189 19.6381C33.4574 19.3334 33.4574 19.4996 33.3189 19.2503H33.7067V19.6658C33.8452 19.5827 33.9283 19.5827 34.0945 19.5273C34.4822 19.3888 34.9254 19.2227 35.147 19.4442C35.2855 19.3057 35.2855 19.1396 35.4516 19.0565C35.9779 19.5827 36.5042 18.7518 37.3351 18.918C42.4869 17.3392 47.9433 15.9543 53.2613 14.5971C53.3997 14.2094 53.2613 14.0709 53.1228 13.9047C53.2613 13.9047 53.2613 13.7662 53.4274 13.7662V14.2925C56.3911 13.7662 59.1055 12.7691 62.1245 12.1597V12.0766C61.8198 12.1597 61.3767 12.1597 60.9058 12.2151C61.2105 12.2982 61.2936 12.2151 61.349 12.1597ZM31.2693 19.8043C31.4078 19.4996 30.9646 19.6658 30.8815 19.6658C30.743 19.8043 30.8815 19.9705 30.743 19.9705C30.4384 19.8874 30.2168 19.8874 29.9952 19.8874C30.0783 20.109 30.2168 20.2752 30.2999 20.3306C30.2999 20.1921 29.9952 20.0259 30.2999 19.9428C30.4384 20.3306 30.8261 20.2475 30.9923 20.469C31.1308 20.3306 31.297 20.3306 31.5186 20.3306V20.0259C31.2139 19.8874 31.1308 20.4137 30.9923 20.1644C31.1308 20.0259 31.3801 19.8597 31.3801 19.6381C31.5186 19.6381 31.6017 19.7212 31.6848 19.7766C31.6017 19.6935 31.6017 19.555 31.4632 19.4719C31.5186 19.6658 31.2693 19.6658 31.2693 19.8043Z" fill="black"/>
<path d="M61.4878 12.1593C61.4047 12.1593 61.4047 12.1593 61.3493 12.2424H61.4324L61.4878 12.1593ZM33.4023 54.7306V55.0353C33.5408 54.8968 33.5408 55.34 33.5408 55.0353C33.4023 54.8968 33.5408 54.8968 33.5408 54.7306H33.4023ZM62.2633 12.1593L62.3464 12.0762C62.2633 12.0762 62.2633 12.1593 62.2633 12.1593Z" fill="black"/>
<path d="M67.1132 25.1771C66.2823 24.263 66.5869 22.3796 65.756 21.3825C66.1438 20.69 65.3682 20.0253 65.4513 19.2498C65.0636 19.1113 65.4513 19.6375 65.1467 19.6375C65.2851 18.7235 65.0082 17.7541 64.3157 17.3663C64.6204 17.2278 64.4542 17.5048 64.7035 17.5048C64.3988 16.9785 64.3988 15.9814 64.0111 15.6214C64.3988 14.7904 63.6233 13.8764 63.6233 12.907C63.4848 12.7685 63.3186 12.907 63.3186 12.7685C63.6233 12.3807 63.1801 11.9376 63.1801 11.2451C62.9585 11.3282 62.737 11.3282 62.5708 11.3282L62.6539 11.4113C62.5154 11.4113 62.5154 11.4944 62.5154 11.5498H62.5985V12.076C62.737 12.076 62.5154 12.076 62.2938 12.1591C62.2938 12.3807 62.2938 12.5469 62.5985 12.4638C62.737 12.1591 62.5985 11.7714 62.737 11.7714C62.8754 12.076 62.8754 12.1591 63.1247 12.1591C62.737 12.1591 62.82 12.8516 62.4323 12.5469C62.82 14.1257 63.2632 15.5106 63.651 17.0893C63.7895 17.2278 63.9557 17.0893 63.9557 17.2278C63.9557 17.3663 63.651 17.5325 63.8172 17.7541C63.9003 17.8926 63.9003 17.9757 63.9557 18.1418C63.8726 18.1418 63.8726 18.2249 63.9557 18.2803L64.0387 18.1972C64.0387 18.2803 64.1218 18.3357 64.1218 18.4188C64.1218 18.5019 64.1218 18.5019 64.2049 18.5573C64.6481 19.9976 64.9528 21.6041 65.5067 22.7951C65.6452 22.6566 65.5067 22.4073 65.6452 22.4073C65.7837 22.5458 66.033 22.4073 66.033 22.5458C66.033 22.6843 66.033 22.6843 65.8945 22.6843C65.8945 22.8228 66.2823 22.9889 66.033 23.072C65.7283 23.072 66.033 22.6843 65.7283 22.7674C65.3405 24.3461 66.5592 25.731 66.5592 27.4483C66.947 27.5868 66.5592 27.0605 66.8639 27.0605C67.2517 27.199 67.1686 27.7529 66.8639 27.8914C65.6452 27.3652 64.4542 28.7224 62.7647 28.5839C62.6262 28.5839 62.6262 28.9716 62.3769 28.9716C62.2384 28.667 62.6816 28.9716 62.5154 28.667C62.2107 28.7501 62.0722 28.8055 62.0722 28.8055C61.9891 28.8055 61.9337 28.8055 61.8506 28.7224C61.8506 29.027 61.4629 28.8609 61.3244 28.8609C61.1859 29.1655 61.6291 28.8608 61.4629 29.1655C60.7704 29.027 59.5794 29.4702 58.887 29.6918C58.887 29.3871 58.4992 29.8303 58.056 29.6918C57.9176 29.8303 58.056 30.0795 57.9176 30.0795C57.7791 30.0795 57.9176 29.6918 57.5298 29.7749V29.9134C56.4773 29.9134 55.4802 30.7443 54.8154 30.4396C54.2892 30.8274 53.0705 30.8274 52.5442 31.3536C50.3284 31.4921 48.9158 32.1846 47.0878 32.5723C46.9493 32.7108 47.0878 32.9601 46.9493 32.9601C46.6446 32.9601 46.8108 32.6554 46.8108 32.5723C46.6723 32.877 46.423 32.5723 46.1183 32.7108C45.7306 33.0155 45.5921 33.5418 45.2874 33.4033C45.4259 33.2648 45.6752 33.4033 45.5921 33.0986C44.8996 33.0986 44.3734 33.6249 43.9302 33.4033C43.2378 33.791 42.573 34.0957 41.7144 34.0957C39.6648 34.622 37.7813 35.3144 35.7317 35.6745C35.5932 35.813 35.7317 35.9792 35.5932 35.9792C35.5932 35.8407 35.2885 35.8407 35.067 35.8407C35.067 36.1453 34.9285 36.2284 34.7623 35.9792C34.7623 36.2838 34.9008 36.5054 34.9008 36.6716C34.5961 36.5331 34.7623 36.9763 34.5961 36.9763C34.4576 36.9763 34.4576 36.8378 34.2083 36.8378C34.3468 37.2256 33.8206 36.9763 33.8206 37.2256C34.6515 37.364 35.4824 36.9209 36.5349 36.8378C36.6734 36.6993 36.5349 36.45 36.6734 36.45C36.8119 36.45 36.6734 36.7547 36.9781 36.7547C41.7421 35.3975 46.5892 34.1788 51.3809 32.8216C51.5194 32.6831 51.3809 32.5169 51.5194 32.5169C52.7381 32.9047 54.0953 31.9907 55.314 31.8245C55.4525 31.5198 55.1755 31.4367 55.1755 31.2982C55.4802 31.2982 55.5633 31.4367 55.5633 31.686C56.9204 31.5475 58.1391 31.1598 59.1917 30.6335C58.887 30.772 58.887 30.3288 59.0532 30.3288C59.0532 30.6335 59.4409 30.4673 59.3578 30.7166C59.7456 30.7166 59.7456 30.5781 60.1888 30.5781H61.906C64.8697 29.7472 64.8697 29.5256 68.0272 28.6947C67.8056 27.6698 67.2794 26.7835 67.1132 25.1771ZM57.8622 30.9382C57.8622 30.7166 57.5575 30.6335 57.4744 30.4119C57.6406 30.6335 58.0283 30.7997 57.8622 30.9382ZM61.7398 11.6883C61.6014 11.6883 61.5183 11.7714 61.2967 11.7714C61.2136 11.993 61.4352 11.993 61.5183 12.076C61.6567 11.993 61.7398 11.9376 61.8229 11.9376C61.8229 11.8545 61.8229 11.7714 61.7398 11.6883ZM31.3555 19.499H31.494C31.6324 19.4159 31.8817 19.4159 32.0202 19.3605V19.2221C31.9648 19.3605 31.6601 19.499 31.3555 19.499Z" fill="black"/>
<path d="M62.3481 11.7709C62.4312 11.7709 62.5697 11.854 62.5697 11.854C62.6528 11.7709 62.6528 11.7155 62.6528 11.5493H62.4312C62.3481 11.6324 62.3481 11.6878 62.3481 11.7709ZM32.1853 19.1939L32.1023 19.277C32.2407 19.1939 32.4069 19.1939 32.5454 19.1385V19C32.3515 19.1108 32.49 19.3601 32.1853 19.1939ZM62.1266 11.854C62.265 11.9371 62.265 11.9925 62.3481 12.0756V11.7709C62.1819 11.7709 62.1266 11.7709 62.1266 11.854ZM62.4866 11.1616C62.182 11.1616 62.4866 11.5493 62.3481 11.4662C62.0435 11.4662 62.3481 11.3278 62.2096 11.1616C61.8219 11.0231 61.8219 11.4662 61.5172 11.4662C61.5172 11.6047 61.6003 11.6878 61.6557 11.7709C62.5697 11.5493 61.9604 11.5493 62.6251 11.4662C62.6528 11.3278 62.6528 11.2447 62.4866 11.1616ZM41.4364 53.2898H41.5195L41.4364 53.2067V53.2898ZM19.6106 43.5125C19.6106 43.651 19.6106 43.8172 19.3059 43.8172C19.1674 44.1218 19.6106 43.8172 19.4444 44.1218C19.5829 44.1218 19.4444 43.8172 19.7491 43.8172C19.8876 44.1218 19.4444 44.1218 19.6106 44.4265C19.9153 44.288 19.9153 44.565 20.0538 44.565C20.0538 44.2603 20.1923 44.1218 20.3584 43.9556C20.0815 43.9002 19.8322 43.7341 19.6106 43.5125ZM26.0642 52.9851C24.7624 52.8466 23.7099 52.3757 22.5743 51.8495V51.988C22.5743 51.6833 22.1311 51.988 22.2696 51.6833C21.9649 51.6833 21.8264 51.8218 21.6602 51.5448C21.6602 51.5448 21.7987 51.8495 21.6602 51.8495C21.6602 51.8495 21.5217 51.988 21.5217 51.8495C21.5217 51.711 21.8264 51.8495 21.6602 51.5448C21.3556 51.2401 21.0509 50.9355 20.3584 50.9355C20.3584 51.074 20.2199 51.2401 20.0538 51.2401C20.0538 51.1017 20.3584 51.1017 20.1922 50.797C19.7491 50.6585 19.4444 50.1876 18.8905 50.0491L18.5858 50.3538C18.4473 50.2153 18.2811 50.2153 18.1426 50.0491C18.2811 49.4398 17.3948 49.1351 16.7023 48.9135C16.8408 48.4704 16.2592 48.775 16.3977 48.3042C16.2592 48.1657 16.2592 48.4427 16.093 48.4427C16.093 48.3596 15.9545 48.3596 15.9545 48.3042C15.816 48.6089 15.9545 49.052 15.6498 49.052C15.7883 48.7473 15.3452 48.9135 15.3452 48.7473V48.4427H15.6498C15.3452 48.3042 15.3452 47.9995 15.6498 47.8333C15.6498 47.5286 15.5113 47.9718 15.2067 48.138C15.0682 48.2765 15.5113 48.2765 15.2067 48.4427C15.2067 48.4427 15.2067 48.3042 15.0682 48.3042C14.9297 48.4427 14.9297 48.7473 14.9297 49.052C15.3729 49.052 15.3729 49.3567 15.6775 49.4952C15.6775 49.3567 15.6775 49.1905 15.816 49.1905V49.6337C16.5639 50.0768 17.3948 50.7693 18.3088 51.2124C18.4473 50.6031 18.9182 51.5171 19.2228 51.074C19.2228 51.2124 19.3613 51.2124 19.3613 51.3786C19.0566 51.3786 19.0566 51.5171 19.0566 51.8218C19.666 51.6833 19.8045 51.9603 20.1922 52.2649C20.3307 52.1265 19.8876 51.9603 20.1922 51.8218C20.3307 51.9603 20.3307 52.1265 20.3307 52.4311C20.9401 52.5696 21.4663 52.7358 22.0757 53.0405C22.2142 52.7358 21.771 52.7358 21.771 52.4311C22.0757 52.2926 21.771 52.7358 22.0757 52.5696C22.2142 52.4311 22.2142 52.265 22.2142 51.9603C22.3527 52.0988 22.8235 52.4034 22.5189 52.7081C22.5189 52.7081 22.5189 52.5696 22.3804 52.5696C22.3804 52.8743 22.5189 53.0128 22.5189 53.179C23.1282 53.0405 23.1282 53.3175 23.6545 53.3175C23.6545 53.179 23.793 53.0128 23.793 52.8743C23.793 52.8743 23.9314 53.0128 23.9314 53.3175H24.3746C24.2361 53.6221 24.3746 53.6221 24.3746 53.7606C24.7624 53.8437 25.067 53.8991 25.344 54.0653H25.4271C25.6487 54.1484 25.8149 54.1484 26.0365 54.2038C25.898 53.8991 26.175 53.7606 26.175 53.5944C26.3134 53.5944 26.0365 54.0376 26.3134 53.8991C26.4519 53.5944 26.175 53.5944 26.175 53.456H26.4796V53.0128C26.175 53.0128 26.0365 53.1513 25.8703 53.1513C26.2027 53.1236 26.0642 53.1236 26.0642 52.9851Z" fill="black"/>
<path d="M38.4163 47.1413C37.9731 47.446 37.1145 47.446 36.8375 47.7507C36.6991 47.446 36.3944 47.7507 36.2282 47.8892C35.3142 47.5845 34.0124 48.1938 32.7383 48.0276C32.7383 48.0276 32.7383 48.1661 32.5998 48.1661C32.5998 48.0276 32.7383 48.0276 32.7383 48.0276C31.8243 48.0276 31.1595 47.8892 30.5225 48.1661V47.9169C30.0793 47.9169 29.7746 47.9169 29.3869 47.7784C29.0822 47.9169 29.0822 48.083 29.0822 48.2215C29.0822 48.083 28.9437 48.083 28.9437 48.083C29.0822 48.083 29.0822 47.9445 29.0822 47.7784C28.639 47.7784 28.3343 47.6399 27.9466 47.4737C27.9466 47.6122 28.0851 47.7784 27.9466 47.7784C27.6419 47.4737 27.1987 47.3352 26.811 47.169C26.811 47.3075 26.9495 47.4737 26.811 47.4737C26.811 47.4737 26.6725 47.6122 26.6725 47.4737C26.6725 47.4737 26.811 47.4737 26.811 47.3352C26.3678 47.3352 26.0631 47.1967 25.5092 47.0305C25.3707 47.0305 25.5092 47.3352 25.3707 47.3352C25.3707 47.3352 25.2322 47.4737 25.2322 47.3352C25.3707 47.3352 25.3707 47.3352 25.3707 47.0305C25.066 46.892 24.7613 47.169 24.4567 47.0305C24.4567 46.892 24.8998 47.169 24.7613 46.892C23.8473 46.7535 23.4596 45.978 22.5455 45.7564C22.5455 45.8949 22.407 46.0611 22.2409 46.0611C22.1024 45.7564 22.3793 45.7564 22.3793 45.6179C21.5484 45.1748 20.856 44.6485 20.1635 44.0946C20.0804 44.3992 20.1635 44.5377 20.1635 44.6208H19.8589C19.9973 44.9255 20.302 45.064 20.6067 45.2302C20.7452 44.9255 20.302 45.2302 20.4682 44.9255H20.7729C20.7729 45.2302 20.9114 45.3687 20.9114 45.5349C21.0499 45.5349 21.0499 45.3964 21.0499 45.3964C21.3545 45.8395 21.7977 46.3104 22.7948 46.3104C22.6563 46.4489 22.7948 46.4489 22.7948 46.6151C23.0995 46.6151 23.238 46.7535 23.4042 46.7535C23.4042 46.6151 23.7088 46.4489 23.8473 46.6151C23.7088 46.6151 23.7088 46.7535 23.7088 47.0582C24.0135 47.0582 24.3182 47.0582 24.4567 47.3629C24.7613 47.5014 24.4567 47.0582 24.7613 47.2244C24.6229 47.5291 25.066 47.2244 24.8998 47.5291C26.3401 47.8338 28.002 48.8309 29.5807 48.4431C29.7192 48.4431 29.5807 48.7478 29.8854 48.7478C30.1901 48.7478 30.0239 48.4431 30.3286 48.4431V48.7478C30.7717 48.6093 31.2426 48.7478 31.7689 48.8863C31.6304 48.5816 31.9073 48.5816 31.9073 48.4431C31.7689 48.4431 31.6027 48.7478 31.4642 48.4431C31.6027 48.3046 31.7689 48.3046 31.9073 48.1384C31.9073 48.2769 32.212 48.1384 32.212 48.2769V48.4154C31.9073 48.4154 31.9073 48.4154 31.9073 48.7201C32.8214 48.7201 33.6523 48.5816 34.871 48.5816C34.871 48.4431 34.7325 48.2769 34.871 48.2769V48.5816C35.1757 48.2769 36.0066 48.4431 36.3113 48.1384C36.3113 48.1384 36.3113 48.2769 36.4498 48.2769C37.7516 47.8338 39.2472 47.6676 40.2444 46.8366C40.6875 46.8366 41.5461 46.6982 41.6846 46.2273C41.6846 46.2273 41.6846 46.3658 41.8231 46.3658C42.4325 45.9226 43.1803 45.6179 43.7897 45.1471H43.8728L44.3159 44.7039C44.4544 44.5654 44.0112 44.8424 44.1774 44.5654C44.6206 44.7039 44.7868 44.5654 44.7868 44.2608C44.9253 44.2608 44.7868 44.3992 44.7868 44.5654C45.0915 44.5654 44.9253 44.1223 45.5346 44.2608C45.6731 44.1223 45.2299 43.9561 45.5346 43.8176C45.6731 43.9561 45.7562 43.9561 45.8393 43.9561V44.0392L46.144 43.7345H46.2825V43.596C46.3655 43.596 46.4209 43.5129 46.5871 43.596V43.2913C47.335 42.9867 47.7227 42.1557 48.4706 41.7126C48.4706 41.1032 49.0799 41.1032 49.0799 40.4108H49.3846C49.3846 40.1061 49.6893 39.6629 49.3846 39.2752C49.8278 39.4137 49.9939 39.1367 50.1324 38.9705C51.268 36.9209 52.0159 35.4806 52.6252 32.9878C52.1821 32.8493 52.1821 33.431 51.7112 33.2925C51.1019 36.0899 50.2709 37.3917 48.9137 39.2752C48.9137 39.5798 49.0522 40.1892 48.9137 40.4108C48.7752 40.2723 48.6091 40.2723 48.3044 40.2723C47.0026 41.8511 45.6454 43.3744 43.9005 44.51V44.6485C43.2911 44.51 42.7648 44.9532 42.4602 45.3964C41.3246 45.5349 40.5767 46.532 39.358 46.6982C39.358 46.8366 39.4965 47.0028 39.358 47.0028C39.0534 46.6982 38.2224 47.0028 38.0562 47.446C38.4163 47.446 38.7764 47.0028 38.4163 47.1413ZM15.9258 48.2215V48.3046C15.9812 48.2769 15.9812 48.2769 15.9258 48.2215C15.9812 48.2215 15.9812 48.2215 15.9258 48.2215ZM31.5196 54.038C31.6581 54.1765 31.3811 54.038 31.3811 54.3427H31.6858C31.6581 54.2042 31.6581 54.038 31.5196 54.038ZM30.9102 55.3398H31.2149C31.0764 54.8967 31.5196 54.8967 31.5196 54.7305C31.3534 54.592 30.9102 54.869 30.9102 55.3398Z" fill="black"/>
<path d="M31.0472 54.3423C30.9087 54.1207 30.9087 54.2038 31.0472 53.8991C30.6041 53.7606 30.1332 53.7606 29.4685 53.8991C29.4685 53.7606 29.1638 53.5945 29.0253 53.5945C29.0253 53.7329 29.1638 53.8991 29.0253 53.8991C28.8868 53.8991 28.8868 53.7606 28.8868 53.5945C28.5821 53.7329 28.2775 53.7329 28.139 53.5945C28.0559 53.7329 28.0559 53.9822 28.0559 54.1207C27.7512 54.2592 27.6127 53.9822 27.4465 53.9822C27.7512 53.5391 28.3606 53.8437 27.4465 53.5391C27.4465 53.9822 27.308 54.1484 27.308 54.4531C27.308 54.4531 26.8649 54.5916 27.0034 54.5916C27.4465 54.4531 27.4465 54.8962 27.9174 54.7301C27.9174 54.4254 27.9174 54.2869 28.0559 54.1207C28.0559 54.4254 28.139 54.5639 27.9174 54.7301C28.2221 54.8686 28.2221 55.1732 28.6652 55.0347C28.8037 54.7301 28.3606 55.0347 28.5267 54.7301C28.9699 54.7301 29.967 54.4254 29.6623 55.0347V54.7301C29.3577 54.8686 29.3577 55.0347 29.2192 55.1732C29.8285 55.1732 30.6595 55.3117 30.798 54.8686V55.3117C30.9364 55.3117 30.9364 54.7024 30.9364 54.3977C30.9918 54.3423 30.9918 54.3423 31.0472 54.3423Z" fill="black"/>
<path d="M31.0486 54.3429C31.0486 54.5091 31.1317 54.3429 31.0486 54.3429V54.3429ZM32.4889 38.9707C32.6274 39.1092 32.6274 39.2754 32.932 39.2754C32.9597 39.1092 32.7935 38.9707 32.4889 38.9707ZM12.8789 45.9505C13.0174 46.089 12.8789 46.3937 13.0174 46.3937C13.0174 46.2552 13.1836 45.9505 12.8789 45.9505Z" fill="black"/>
<path d="M13.1875 46.3934C13.4922 46.5318 13.4922 46.2549 13.6307 46.2549V45.9502H13.326C13.4922 46.2549 13.1875 46.2549 13.1875 46.3934ZM13.326 46.5318V46.975C13.4645 46.975 13.6307 46.8365 13.6307 46.6703C13.326 46.8365 13.6307 46.3934 13.326 46.5318Z" fill="black"/>
<path d="M17.337 29.1848L17.2301 28.0667L22.2707 26.7161L22.3776 27.8341L20.4986 28.3376L21.0174 33.6301L19.7347 33.9737L19.216 28.6813L17.337 29.1848ZM23.7025 32.9106L23.2363 28.1019L24.5129 27.7598L24.9791 32.5685L23.7025 32.9106ZM23.8459 27.2962C23.6561 27.347 23.4824 27.3261 23.3248 27.2334C23.1687 27.1382 23.078 26.9998 23.0529 26.8181C23.0267 26.6324 23.0719 26.4575 23.1886 26.2935C23.3047 26.1275 23.4576 26.0191 23.6474 25.9682C23.8372 25.9173 24.0089 25.9388 24.1625 26.0325C24.3156 26.1243 24.4062 26.2627 24.4344 26.4479C24.4615 26.6291 24.4173 26.8037 24.3017 26.9717C24.1876 27.1372 24.0357 27.2453 23.8459 27.2962ZM26.0108 32.2921L25.5446 27.4834L26.7583 27.1582L26.844 28.0057L26.895 27.992C26.9626 27.6848 27.1003 27.4199 27.3083 27.1971C27.5183 26.9738 27.7801 26.8202 28.0938 26.7361C28.4055 26.6526 28.6803 26.6635 28.9184 26.7689C29.158 26.8717 29.3286 27.053 29.4303 27.3127L29.4782 27.2998C29.5434 26.9997 29.6917 26.7341 29.9232 26.5029C30.154 26.2697 30.4383 26.1079 30.7759 26.0174C31.2015 25.9034 31.5638 25.953 31.8629 26.1662C32.162 26.3794 32.3363 26.746 32.3856 27.266L32.6997 30.4998L31.423 30.8419L31.1405 27.8694C31.1094 27.6015 31.02 27.4199 30.8724 27.3245C30.7243 27.2272 30.5483 27.2058 30.3445 27.2604C30.1128 27.3225 29.9398 27.4481 29.8256 27.6372C29.7108 27.8242 29.6676 28.0424 29.6959 28.2918L29.9726 31.2305L28.7349 31.5622L28.4511 28.5611C28.424 28.3243 28.3389 28.1544 28.1957 28.0514C28.0539 27.9459 27.8772 27.9216 27.6654 27.9783C27.5255 28.0158 27.4023 28.0873 27.2957 28.193C27.1906 28.2961 27.1122 28.4231 27.0606 28.574C27.0084 28.7229 26.9921 28.8857 27.0116 29.0625L27.2844 31.9508L26.0108 32.2921ZM35.809 29.763C35.3375 29.8894 34.9212 29.8981 34.5601 29.7893C34.1985 29.6785 33.9074 29.4631 33.6868 29.1432C33.4677 28.8208 33.334 28.4059 33.2858 27.8984C33.2389 27.4035 33.2884 26.9449 33.4343 26.5225C33.5822 26.0995 33.8132 25.7389 34.1273 25.4406C34.4413 25.1424 34.8241 24.9327 35.2757 24.8117C35.5793 24.7304 35.8672 24.7057 36.1391 24.7378C36.4126 24.7673 36.6574 24.858 36.8737 25.0099C37.0895 25.1598 37.2664 25.3725 37.4045 25.6482C37.5446 25.9233 37.6351 26.2652 37.6761 26.6739L37.7131 27.0398L33.8292 28.0804L33.7401 27.2564L36.4253 26.5369C36.406 26.345 36.3504 26.1854 36.2584 26.058C36.1665 25.9306 36.0468 25.8438 35.8996 25.7977C35.7518 25.7495 35.5859 25.75 35.4021 25.7992C35.2143 25.8496 35.0508 25.9426 34.9116 26.0784C34.7724 26.2142 34.667 26.372 34.5952 26.5519C34.525 26.7291 34.4971 26.909 34.5118 27.0914L34.5813 27.9143C34.6061 28.1667 34.6679 28.3654 34.7667 28.5102C34.8674 28.6545 34.9994 28.7476 35.1627 28.7895C35.3254 28.8294 35.5157 28.8202 35.7334 28.7618C35.8753 28.7238 36.0028 28.6683 36.116 28.5951C36.2311 28.5214 36.3272 28.4325 36.4042 28.3284C36.4807 28.2222 36.5341 28.1019 36.5645 27.9674L37.7511 27.733C37.7192 28.0456 37.6218 28.3372 37.4588 28.6079C37.2952 28.8766 37.0744 29.1113 36.7963 29.3122C36.5197 29.5105 36.1906 29.6608 35.809 29.763ZM46.0658 23.7192C46.1295 24.4045 46.0619 25.019 45.8628 25.5627C45.6657 26.1059 45.3683 26.5581 44.9705 26.9196C44.5747 27.2804 44.111 27.5321 43.5796 27.6745C43.0222 27.8238 42.5077 27.8257 42.0362 27.6801C41.5666 27.534 41.1777 27.2453 40.8694 26.8139C40.5606 26.3806 40.3711 25.8094 40.301 25.1001C40.2327 24.4139 40.2981 23.7989 40.4972 23.2552C40.6957 22.7095 40.9946 22.2547 41.3939 21.8908C41.7926 21.5248 42.2587 21.2704 42.7922 21.1275C43.3456 20.9792 43.8573 20.9791 44.3274 21.1272C44.7995 21.2748 45.1892 21.5665 45.4966 22.0024C45.8054 22.4357 45.9952 23.008 46.0658 23.7192ZM44.7332 23.9125C44.6902 23.4722 44.5925 23.1194 44.44 22.854C44.289 22.5861 44.0948 22.4048 43.8574 22.3099C43.62 22.2151 43.3504 22.2081 43.0488 22.2889C42.7211 22.3767 42.4424 22.5392 42.2126 22.7763C41.9847 23.013 41.8187 23.3123 41.7144 23.6743C41.6116 24.0337 41.5836 24.4448 41.6305 24.9076C41.6721 25.3505 41.7689 25.7036 41.9208 25.9669C42.0747 26.2297 42.2711 26.4073 42.51 26.4996C42.7503 26.5894 43.0203 26.5941 43.32 26.5138C43.6457 26.4266 43.9219 26.2669 44.1488 26.0348C44.3772 25.8002 44.543 25.5041 44.6464 25.1467C44.7492 24.7872 44.7782 24.3758 44.7332 23.9125ZM50.0587 23.7478L49.791 20.9866L51.0677 20.6445L51.5339 25.4532L50.3082 25.7816L50.222 24.9086L50.1741 24.9214C50.1045 25.2291 49.9558 25.5013 49.728 25.7379C49.5002 25.9746 49.2134 26.1392 48.8678 26.2318C48.5601 26.3142 48.2817 26.3139 48.0324 26.2308C47.7852 26.1472 47.5831 25.9882 47.4261 25.7541C47.2691 25.5199 47.1714 25.2152 47.133 24.8401L46.8392 21.7775L48.1158 21.4355L48.3906 24.259C48.4214 24.542 48.517 24.7466 48.6771 24.8728C48.8373 24.9991 49.0382 25.0298 49.28 24.965C49.4338 24.9238 49.5733 24.849 49.6984 24.7405C49.825 24.6295 49.9225 24.4899 49.9909 24.3217C50.0593 24.1534 50.0819 23.9622 50.0587 23.7478ZM54.5372 19.7148L54.6354 20.7164L51.8603 21.46L51.7652 20.4576L54.5372 19.7148ZM52.2788 19.138L53.5555 18.7959L53.9921 23.2785C54.0037 23.4017 54.0313 23.4928 54.075 23.5517C54.1181 23.6087 54.1731 23.6422 54.24 23.6521C54.3089 23.6615 54.3863 23.6546 54.4722 23.6316C54.5321 23.6156 54.5917 23.5942 54.651 23.5676C54.7097 23.5391 54.7542 23.5175 54.7846 23.5029L55.0871 24.4401C55.0211 24.4813 54.9306 24.5313 54.8157 24.5899C54.7028 24.648 54.5652 24.702 54.403 24.7519C54.0945 24.8474 53.8198 24.8771 53.5789 24.841C53.3374 24.8029 53.1432 24.6975 52.9963 24.5249C52.8494 24.3523 52.7628 24.1089 52.7365 23.7948L52.2788 19.138Z" fill="black"/>
</g>
<defs>
<clipPath id="clip0_8752_9389">
<rect width="68" height="55.7949" fill="white"/>
</clipPath>
</defs>
</svg>
