<svg width="158" height="141" viewBox="0 0 158 141" fill="none" xmlns="http://www.w3.org/2000/svg">
<path d="M152 117.999C152 105.85 117.975 96 76 96C34.0246 96 0 105.849 0 117.999C0 130.15 34.0246 140 76 140C117.975 140 152 130.151 152 117.999Z" fill="#F0F0F0"/>
<path d="M22 39.1982L71.5758 28.7939V117.107L25.421 104.318L22 39.1982Z" fill="#DDEAA7"/>
<path d="M71.582 47.078V28.791L130.389 34.8879L81.5558 48.8627L71.582 47.078Z" fill="#E6F3B1"/>
<path d="M79.324 48.123L79.0261 123.353L20.9609 108.336V61.5017L79.3252 48.123H79.324ZM40.1657 73.2536C39.8805 73.2005 39.5876 73.2045 39.3039 73.2654C39.0203 73.3263 38.7516 73.4428 38.5134 73.6082C38.2753 73.7736 38.0724 73.9846 37.9165 74.2289C37.7607 74.4732 37.6549 74.746 37.6055 75.0315C37.5561 75.317 37.5639 75.6094 37.6286 75.8918C37.6932 76.1742 37.8134 76.441 37.9821 76.6767C38.1509 76.9123 38.3648 77.1122 38.6115 77.2646C38.8582 77.417 39.1327 77.519 39.4192 77.5646L58.4756 80.9822C58.7588 81.0312 59.0489 81.024 59.3294 80.9611C59.6098 80.8981 59.8751 80.7807 60.1101 80.6153C60.3451 80.45 60.5452 80.2401 60.6989 79.9975C60.8526 79.755 60.957 79.4846 61.0061 79.2018C61.0552 78.9189 61.048 78.6292 60.985 78.3492C60.922 78.0691 60.8043 77.8042 60.6388 77.5695C60.4732 77.3349 60.263 77.1351 60.0201 76.9816C59.7773 76.828 59.5065 76.7238 59.2233 76.6748L40.1657 73.2536Z" fill="#BCEB00"/>
<path d="M79.0234 123.349L131.578 105.212V59.2725L79.0234 48.124V123.353V123.349Z" fill="#CCFF00"/>
<path d="M79 123V48M79 123L131.5 105.5V38M79 123L21 108L21 41.5" stroke="black" stroke-width="2"/>
<path d="M77.7725 48.6855L62.8828 72.1143L7.05273 60.9922L21.8975 40.0117L77.7725 48.6855Z" fill="#F4FFC6" stroke="black" stroke-width="1.5"/>
<path d="M115.497 92.7705L97.6406 98.5312V85.7178L115.497 80.917V92.7705ZM144.343 54.4258L95.7002 70.4248L80.4111 48.5713L130.099 35.5908L144.343 54.4258Z" fill="#F4FFC6" stroke="black" stroke-width="1.5"/>
<path d="M71.5 29.5L71.5765 28.7539L71.4603 28.742L71.3459 28.766L71.5 29.5ZM129.923 36.2461C130.336 36.2883 130.704 35.9886 130.746 35.5765C130.788 35.1645 130.489 34.7962 130.077 34.7539L130 35.5L129.923 36.2461ZM21.5 40L21.6541 40.734L71.6541 30.234L71.5 29.5L71.3459 28.766L21.3459 39.266L21.5 40ZM71.5 29.5H70.75V48H71.5H72.25V29.5H71.5ZM71.5 29.5L71.4235 30.2461L129.923 36.2461L130 35.5L130.077 34.7539L71.5765 28.7539L71.5 29.5Z" fill="black"/>
<path d="M50.6133 7.2371C50.6142 8.09805 50.8708 8.93938 51.3506 9.65471C51.8303 10.37 52.5117 10.9272 53.3086 11.2558C54.1055 11.5845 54.982 11.6697 55.8274 11.5008C56.6728 11.3319 57.4491 10.9165 58.058 10.3071C58.667 9.69762 59.0813 8.92154 59.2486 8.07695C59.4159 7.23236 59.3286 6.3572 58.9978 5.56215C58.667 4.7671 58.1075 4.08785 57.3902 3.61031C56.6728 3.13278 55.8298 2.87839 54.9676 2.87933C54.3952 2.87995 53.8285 2.99316 53.2998 3.21249C52.7712 3.43183 52.291 3.75299 51.8867 4.15765C51.4823 4.56231 51.1618 5.04253 50.9433 5.5709C50.7248 6.09928 50.6127 6.66545 50.6133 7.2371ZM70.9453 7.2371C70.9463 8.09805 71.2028 8.93938 71.6826 9.65471C72.1624 10.37 72.8438 10.9272 73.6406 11.2558C74.4375 11.5845 75.3141 11.6697 76.1595 11.5008C77.0048 11.3319 77.7811 10.9165 78.3901 10.3071C78.999 9.69762 79.4134 8.92154 79.5806 8.07695C79.7479 7.23236 79.6606 6.3572 79.3298 5.56215C78.999 4.7671 78.4396 4.08785 77.7222 3.61031C77.0049 3.13278 76.1618 2.87839 75.2997 2.87933C74.1438 2.88121 73.0359 3.34124 72.2194 4.15834C71.4029 4.97545 70.9447 6.08279 70.9453 7.2371ZM91.2774 7.2371C91.2783 8.09862 91.5351 8.9405 92.0152 9.65628C92.4953 10.372 93.1772 10.9295 93.9747 11.2583C94.7721 11.587 95.6493 11.6721 96.4952 11.503C97.3411 11.3338 98.1178 10.9179 98.727 10.3079C99.3362 9.69789 99.7506 8.92116 99.9177 8.07595C100.085 7.23075 99.9971 6.35505 99.6658 5.5596C99.3344 4.76416 98.7743 4.08471 98.0562 3.60719C97.3382 3.12968 96.4944 2.87555 95.6317 2.87696C95.0589 2.87758 94.4919 2.99085 93.963 3.21031C93.4341 3.42976 92.9536 3.7511 92.5491 4.15598C92.1445 4.56085 91.8238 5.04134 91.6052 5.57C91.3866 6.09866 91.2744 6.66514 91.275 7.2371H91.2774Z" fill="black"/>
<line x1="100.496" y1="88.0626" x2="112.063" y2="84.5037" stroke="black" stroke-width="1.5" stroke-linecap="round"/>
<line x1="100.496" y1="92.0626" x2="112.063" y2="88.5037" stroke="black" stroke-width="1.5" stroke-linecap="round"/>
<line x1="100.474" y1="95.0513" x2="108.051" y2="92.5257" stroke="black" stroke-width="1.5" stroke-linecap="round"/>
<rect x="37.6347" y="72.8668" width="24.1432" height="4.5" rx="2.25" transform="rotate(9.81131 37.6347 72.8668)" stroke="black" stroke-width="1.5"/>
</svg>
