<svg width="19" height="19" viewBox="0 0 19 19" fill="none" xmlns="http://www.w3.org/2000/svg">
<rect x="0.590476" y="0.590476" width="17.825" height="17.825" rx="3.63307" fill="#EBEBEB"/>
<rect x="0.590476" y="0.590476" width="17.825" height="17.825" rx="3.63307" stroke="black" stroke-width="1.18095"/>
<path d="M4.75098 3.56299H12.4062C12.7706 3.56299 13.0663 3.85878 13.0664 4.22314V11.8228C13.0664 12.903 13.3286 13.9631 13.8252 14.9146H5.2793C4.62325 14.9146 4.09082 14.3821 4.09082 13.7261V4.22314C4.09094 3.85885 4.38668 3.56311 4.75098 3.56299Z" fill="#CCFF00" stroke="black" stroke-width="0.791915"/>
<path d="M15.9717 9.37012V13.4619C15.9717 14.2637 15.3214 14.9141 14.5195 14.9141C13.7178 14.914 13.0674 14.2637 13.0674 13.4619V9.37012H15.9717Z" fill="#D9D9D9" stroke="black" stroke-width="0.791915"/>
<path d="M6.07422 7.39122C6.07422 7.09965 6.31059 6.86328 6.60216 6.86328H10.5617C10.8533 6.86328 11.0897 7.09965 11.0897 7.39122C11.0897 7.6828 10.8533 7.91917 10.5617 7.91917H6.60216C6.31059 7.91917 6.07422 7.6828 6.07422 7.39122Z" fill="black"/>
<path d="M6.07422 9.89889C6.07422 9.68021 6.25149 9.50293 6.47018 9.50293H10.6937C10.9124 9.50293 11.0897 9.68021 11.0897 9.89889C11.0897 10.1176 10.9124 10.2948 10.6937 10.2948H6.47018C6.2515 10.2948 6.07422 10.1176 6.07422 9.89889Z" fill="black"/>
<path d="M6.07422 11.4829C6.07422 11.2642 6.25149 11.0869 6.47018 11.0869H10.6937C10.9124 11.0869 11.0897 11.2642 11.0897 11.4829C11.0897 11.7016 10.9124 11.8788 10.6937 11.8788H6.47018C6.2515 11.8788 6.07422 11.7016 6.07422 11.4829Z" fill="black"/>
</svg>
