<svg width="97" height="97" viewBox="0 0 97 97" fill="none" xmlns="http://www.w3.org/2000/svg">
<rect x="15.8338" y="29.2176" width="64.1563" height="54.8846" rx="8.7986" fill="black" stroke="black" stroke-width="0.745802"/>
<rect x="20.6371" y="36.0829" width="54.537" height="38.0539" rx="5.68619" fill="white" stroke="black" stroke-width="0.0632517"/>
<path d="M10.3555 42.4839C9.89893 42.4839 9.52837 42.8535 9.52832 43.3101V67.9448C9.52845 68.4013 9.89898 68.771 10.3555 68.771H15.2119V42.4839H10.3555Z" fill="black" stroke="black" stroke-width="0.497202"/>
<path d="M85.4492 42.4839C85.9058 42.4839 86.2763 42.8535 86.2764 43.3101V67.9448C86.2762 68.4013 85.9057 68.771 85.4492 68.771H80.5928V42.4839H85.4492Z" fill="black" stroke="black" stroke-width="0.497202"/>
<path d="M4.15332 47.6304C3.69697 47.6306 3.32719 48.0002 3.32715 48.4565V63.8188C3.32715 64.2753 3.69695 64.6458 4.15332 64.646H6.9502V47.6304H4.15332Z" fill="black" stroke="black" stroke-width="0.497202"/>
<path d="M91.6436 47.6304C92.0999 47.6306 92.4697 48.0002 92.4697 48.4565V63.8188C92.4697 64.2753 92.0999 64.6458 91.6436 64.646H88.8467V47.6304H91.6436Z" fill="black" stroke="black" stroke-width="0.497202"/>
<path d="M36.043 28.8414C36.043 25.9966 38.3491 23.6904 41.1939 23.6904H53.5562C56.401 23.6904 58.7072 25.9966 58.7072 28.8414H36.043Z" fill="black"/>
<rect x="45.3242" y="16.4844" width="4.12077" height="7.21135" fill="black"/>
<path d="M42.2305 13.2405C42.2305 10.4781 44.4698 8.23877 47.2321 8.23877H47.5307C50.2931 8.23877 52.5324 10.4781 52.5324 13.2404V13.539C52.5324 16.3014 50.2931 18.5407 47.5307 18.5407H47.2322C44.4698 18.5407 42.2305 16.3014 42.2305 13.539V13.2405Z" fill="black"/>
<rect x="42.2305" y="77.2642" width="11.7949" height="2.28288" rx="1.14144" fill="black"/>
<rect x="34.7983" y="42.3671" width="25.7226" height="25.7226" rx="12.8613" fill="#CCFF00"/>
<rect x="34.7983" y="42.3671" width="25.7226" height="25.7226" rx="12.8613" stroke="black" stroke-width="3.02619"/>
<rect x="39.3398" y="52.958" width="16.644" height="4.53929" rx="2.26964" fill="black"/>
<rect x="49.9297" y="46.9062" width="16.644" height="4.53928" rx="2.26964" transform="rotate(90 49.9297 46.9062)" fill="black"/>
</svg>
