<svg width="12" height="16" viewBox="0 0 12 16" fill="none" xmlns="http://www.w3.org/2000/svg">
<path d="M5.80856 0C2.60571 0 0 2.60571 0 5.80856C0 7.93901 1.18331 9.91056 3.03761 10.9211L3.03768 13.3816C3.03768 14.3776 3.94718 15.1878 5.06507 15.1878H6.552C7.66988 15.1878 8.5794 14.3776 8.5794 13.3816V10.921C10.4338 9.91049 11.6171 7.93895 11.6171 5.80856C11.6171 2.60571 9.0114 0 5.80856 0ZM6.65689 14.1152H4.96014C4.6881 14.1152 4.46754 13.8946 4.46754 13.6226C4.46754 13.3506 4.6881 13.13 4.96014 13.13H6.65689C6.92893 13.13 7.14948 13.3506 7.14948 13.6226C7.1495 13.8946 6.92893 14.1152 6.65689 14.1152ZM6.65689 12.5276H4.96014C4.6881 12.5276 4.46754 12.3071 4.46754 12.0351C4.46754 11.763 4.6881 11.5425 4.96014 11.5425H6.65689C6.92893 11.5425 7.14948 11.763 7.14948 12.0351C7.14948 12.3071 6.92893 12.5276 6.65689 12.5276ZM9.35857 6.25137C9.08654 6.25137 8.86598 6.03081 8.86598 5.75877C8.86601 5.58098 8.8508 5.40352 8.82052 5.22833C8.64125 4.19559 7.95599 3.33443 6.98755 2.9248C6.73692 2.81882 6.61971 2.52978 6.72571 2.27923C6.8317 2.02869 7.1209 1.91155 7.37128 2.01739C8.64968 2.55809 9.55438 3.69546 9.79121 5.05988C9.83116 5.2907 9.85122 5.52452 9.85117 5.75877C9.85117 6.03079 9.6306 6.25137 9.35857 6.25137Z" fill="#CCFF00"/>
</svg>
