<svg width="28" height="28" viewBox="0 0 28 28" fill="none" xmlns="http://www.w3.org/2000/svg">
<rect width="28" height="28" rx="14" fill="#717171"/>
<path d="M20.3469 12.0706C20.6195 10.2486 19.2322 9.26911 17.3353 8.6157L17.9506 6.14755L16.4482 5.77313L15.8492 8.17624C15.4542 8.07783 15.0486 7.98497 14.6455 7.89297L15.2488 5.47403L13.7473 5.09961L13.1316 7.56691C12.8046 7.49245 12.4837 7.41885 12.1722 7.3414L12.1739 7.3337L10.102 6.81636L9.70233 8.42101C9.70233 8.42101 10.817 8.67646 10.7935 8.6923C11.402 8.8442 11.5119 9.24686 11.4935 9.56608L10.7926 12.3778C10.8346 12.3885 10.8889 12.4039 10.9488 12.4279C10.8988 12.4155 10.8453 12.4018 10.7901 12.3885L9.80759 16.3274C9.73314 16.5123 9.54444 16.7895 9.1191 16.6843C9.13408 16.7061 8.02709 16.4117 8.02709 16.4117L7.28125 18.1314L9.23635 18.6188C9.60006 18.71 9.95651 18.8054 10.3074 18.8953L9.68564 21.3916L11.1863 21.7661L11.8021 19.2962C12.212 19.4075 12.6099 19.5102 12.9993 19.6069L12.3857 22.0652L13.8881 22.4396L14.5098 19.9479C17.0717 20.4327 18.9981 20.2372 19.809 17.9201C20.4624 16.0544 19.7765 14.9782 18.4286 14.2765C19.4102 14.0501 20.1496 13.4044 20.3469 12.0706ZM16.9142 16.8841C16.45 18.7498 13.3087 17.7412 12.2903 17.4883L13.1153 14.181C14.1337 14.4352 17.3995 14.9384 16.9142 16.8841ZM17.3789 12.0436C16.9553 13.7407 14.3408 12.8785 13.4927 12.6671L14.2407 9.66749C15.0888 9.87887 17.8201 10.2734 17.3789 12.0436Z" fill="white"/>
</svg>
