<svg width="248" height="210" viewBox="0 0 248 210" fill="none" xmlns="http://www.w3.org/2000/svg">
<path d="M205.234 127.067C207.207 125.927 208.195 124.433 208.195 122.94V135.321C208.195 136.815 207.208 138.309 205.234 139.449L112.403 193.044C108.455 195.324 102.054 195.324 98.1054 193.044L98.1071 193.044L15.136 145.141L15.137 145.141C13.1631 144.001 12.176 142.508 12.1758 141.014V128.631C12.176 130.125 13.1631 131.619 15.137 132.758L15.136 132.758L98.1071 180.662L98.1054 180.662C102.054 182.941 108.455 182.941 112.403 180.662L205.234 127.067Z" fill="black"/>
<path d="M208.195 122.938V122.94M208.195 122.94C208.195 124.433 207.207 125.927 205.234 127.067L112.403 180.662C108.455 182.941 102.054 182.941 98.1054 180.662L98.1071 180.662L15.136 132.758L15.137 132.758C13.1631 131.619 12.176 130.125 12.1758 128.631V141.014C12.176 142.508 13.1631 144.001 15.137 145.141L15.136 145.141L98.1071 193.044L98.1054 193.044C102.054 195.324 108.455 195.324 112.403 193.044L205.234 139.449C207.208 138.309 208.195 136.815 208.195 135.321V122.94Z" stroke="black" stroke-width="1.651" stroke-linejoin="round"/>
<path d="M205.245 123.224C207.219 122.084 208.206 120.59 208.207 119.097V131.478C208.207 132.972 207.22 134.466 205.245 135.606L112.415 189.201C108.467 191.481 102.065 191.481 98.1171 189.201L98.1188 189.201L15.1477 141.298L15.1487 141.298C13.1748 140.158 12.1877 138.665 12.1875 137.171V124.789C12.1877 126.282 13.1748 127.776 15.1487 128.916L15.1477 128.915L98.1188 176.819L98.1171 176.819C102.065 179.099 108.467 179.099 112.415 176.819L205.245 123.224Z" fill="white"/>
<path d="M208.207 119.096V119.097M208.207 119.097C208.206 120.59 207.219 122.084 205.245 123.224L112.415 176.819C108.467 179.099 102.065 179.099 98.1171 176.819L98.1188 176.819L15.1477 128.915L15.1487 128.916C13.1748 127.776 12.1877 126.282 12.1875 124.789V137.171C12.1877 138.665 13.1748 140.158 15.1487 141.298L15.1477 141.298L98.1188 189.201L98.1171 189.201C102.065 191.481 108.467 191.481 112.415 189.201L205.245 135.606C207.22 134.466 208.207 132.972 208.207 131.478V119.097Z" stroke="black" stroke-width="1.651" stroke-linejoin="round"/>
<path d="M108.038 67.1799C111.989 64.8989 118.377 64.8889 122.306 67.1575L204.878 114.831C208.808 117.099 208.79 120.787 204.839 123.068L111.952 176.697C108.002 178.977 101.614 178.988 97.6843 176.719L15.1122 129.046C11.1829 126.777 11.2003 123.089 15.151 120.808L108.038 67.1799Z" fill="white" stroke="black" stroke-width="2"/>
<rect y="0.825502" width="92.4523" height="46.1595" rx="4.12751" transform="matrix(0.866025 0.5 -0.866025 0.5 117.445 71.6061)" fill="#CCFF00" stroke="black" stroke-width="1.651"/>
<rect y="0.825502" width="27.1871" height="13.5269" rx="2.47651" transform="matrix(0.866025 0.5 -0.866025 0.5 72.0547 97.7672)" fill="white" stroke="black" stroke-width="1.651"/>
<rect y="0.825502" width="27.1871" height="32.4994" rx="2.47651" transform="matrix(0.866025 0.5 -0.866025 0.5 55.629 107.254)" fill="#CCFF00" stroke="black" stroke-width="1.651"/>
<rect y="0.825502" width="27.1871" height="13.5269" rx="2.47651" transform="matrix(0.866025 0.5 -0.866025 0.5 100.324 114.084)" fill="white" stroke="black" stroke-width="1.651"/>
<rect y="0.825502" width="27.1871" height="13.5269" rx="2.47651" transform="matrix(0.866025 0.5 -0.866025 0.5 83.8907 123.57)" fill="white" stroke="black" stroke-width="1.651"/>
<rect y="0.825502" width="27.1871" height="13.5269" rx="2.47651" transform="matrix(0.866025 0.5 -0.866025 0.5 67.4571 133.055)" fill="white" stroke="black" stroke-width="1.651"/>
<rect y="0.825502" width="27.1871" height="13.5269" rx="2.47651" transform="matrix(0.866025 0.5 -0.866025 0.5 128.578 130.399)" fill="black" stroke="black" stroke-width="1.651"/>
<rect y="0.825502" width="27.1871" height="13.5269" rx="2.47651" transform="matrix(0.866025 0.5 -0.866025 0.5 112.152 139.885)" fill="white" stroke="black" stroke-width="1.651"/>
<rect y="0.825502" width="27.1871" height="13.5269" rx="2.47651" transform="matrix(0.866025 0.5 -0.866025 0.5 95.7188 149.372)" fill="white" stroke="black" stroke-width="1.651"/>
<mask id="path-15-inside-1_10442_11327" fill="white">
<path d="M44.375 31.9375L63.7492 43.1232L44.375 54.3089L25.0008 43.1232L44.375 31.9375Z"/>
</mask>
<path d="M44.375 31.9375L63.7492 43.1232L44.375 54.3089L25.0008 43.1232L44.375 31.9375Z" fill="white"/>
<path d="M44.375 31.9375L46.1071 30.9375L44.375 29.9375L42.6429 30.9375L44.375 31.9375ZM44.375 31.9375L42.6429 32.9375L62.0172 44.1232L63.7492 43.1232L65.4813 42.1232L46.1071 30.9375L44.375 31.9375ZM25.0008 43.1232L26.7328 44.1232L46.1071 32.9375L44.375 31.9375L42.6429 30.9375L23.2687 42.1232L25.0008 43.1232Z" fill="black" mask="url(#path-15-inside-1_10442_11327)"/>
<rect width="22.3714" height="22.3714" transform="matrix(0.866025 0.5 0 1 25 43.123)" fill="black"/>
<path d="M62.8829 44.623V64.9941L45.241 75.1797V54.8086L62.8829 44.623Z" fill="white" stroke="black" stroke-width="2"/>
<mask id="path-19-inside-2_10442_11327" fill="white">
<path d="M203.625 148.938L218.25 157.381L203.625 165.825L189 157.381L203.625 148.938Z"/>
</mask>
<path d="M203.625 148.938L218.25 157.381L203.625 165.825L189 157.381L203.625 148.938Z" fill="white"/>
<path d="M203.625 148.938L204.932 148.183L203.625 147.428L202.318 148.183L203.625 148.938ZM203.625 148.938L202.318 149.692L216.943 158.136L218.25 157.381L219.558 156.626L204.932 148.183L203.625 148.938ZM189 157.381L190.307 158.136L204.932 149.692L203.625 148.938L202.318 148.183L187.692 156.626L189 157.381Z" fill="black" mask="url(#path-19-inside-2_10442_11327)"/>
<rect width="16.8876" height="16.8876" transform="matrix(0.866025 0.5 0 1 189 157.381)" fill="black"/>
<path d="M217.596 158.514V173.892L204.279 181.581V166.203L217.596 158.514Z" fill="white" stroke="black" stroke-width="1.50975"/>
<mask id="path-23-inside-3_10442_11327" fill="white">
<path d="M211.625 16L234 28.9182L211.625 41.8364L189.25 28.9182L211.625 16Z"/>
</mask>
<path d="M211.625 16L234 28.9182L211.625 41.8364L189.25 28.9182L211.625 16Z" fill="white"/>
<path d="M211.625 16L213.028 15.19L211.625 14.3801L210.222 15.19L211.625 16ZM211.625 16L210.222 16.81L232.597 29.7282L234 28.9182L235.403 28.1083L213.028 15.19L211.625 16ZM189.25 28.9182L190.653 29.7282L213.028 16.81L211.625 16L210.222 15.19L187.847 28.1083L189.25 28.9182Z" fill="black" mask="url(#path-23-inside-3_10442_11327)"/>
<rect width="25.8364" height="25.8364" transform="matrix(0.866025 0.5 0 1 189.25 28.918)" fill="black"/>
<rect x="0.701446" y="0.40498" width="24.2165" height="24.2165" transform="matrix(0.866025 -0.5 0 1 211.719 42.1867)" fill="white" stroke="black" stroke-width="1.61992"/>
<circle cx="30.0349" cy="30.0349" r="30.0349" transform="matrix(0.866025 0.5 0 1 109 38.9375)" fill="#CCFF00" stroke="black" stroke-width="2"/>
<circle cx="22.1438" cy="22.1438" r="22.1438" transform="matrix(0.866025 0.5 0 1 115.727 51.5605)" fill="black"/>
<path d="M134.66 54.2701C127.935 50.4244 121.209 49.5128 116.078 52.447L129.218 44.9336C134.349 41.9994 141.074 42.911 147.799 46.7567C162.313 55.0557 174.078 75.2389 174.078 91.837C174.078 99.5284 171.513 105.753 166.381 108.687L153.242 116.2C158.373 113.266 160.939 107.042 160.939 99.3504C160.939 82.7523 149.173 62.5691 134.66 54.2701Z" fill="white" stroke="black" stroke-width="2"/>
<path d="M128.814 81.142C128.221 80.8 127.673 80.3705 127.168 79.8536C126.67 79.3406 126.239 78.7771 125.875 78.163C125.512 77.5412 125.229 76.8843 125.027 76.1926C124.825 75.493 124.724 74.7856 124.724 74.0705C124.724 73.3632 124.825 72.7763 125.027 72.3099C125.229 71.8436 125.512 71.5132 125.875 71.3189C126.239 71.1168 126.67 71.0468 127.168 71.109C127.673 71.1751 128.221 71.3791 128.814 71.7211C129.406 72.0632 129.951 72.4907 130.45 73.0037C130.954 73.5206 131.389 74.09 131.752 74.7118C132.116 75.3259 132.398 75.9827 132.6 76.6822C132.802 77.3818 132.903 78.0853 132.903 78.7926C132.903 79.5077 132.802 80.0985 132.6 80.5649C132.398 81.0235 132.116 81.3538 131.752 81.5559C131.389 81.7502 130.954 81.8144 130.45 81.7483C129.951 81.6861 129.406 81.484 128.814 81.142ZM139.234 77.959L142.334 79.7487L129.662 90.7844L126.562 88.9947L139.234 77.959ZM128.814 78.7635C129.07 78.9112 129.309 78.9947 129.531 79.0141C129.76 79.0297 129.958 78.985 130.126 78.8801C130.295 78.7674 130.426 78.5944 130.52 78.3612C130.621 78.1319 130.672 77.8463 130.672 77.5042C130.672 77.1622 130.621 76.8183 130.52 76.4724C130.426 76.1304 130.295 75.8097 130.126 75.5105C129.958 75.2034 129.76 74.9294 129.531 74.6885C129.309 74.4436 129.07 74.2474 128.814 74.0997C128.558 73.952 128.316 73.8704 128.087 73.8548C127.865 73.8354 127.669 73.882 127.501 73.9947C127.333 74.0997 127.198 74.2668 127.097 74.4961C127.003 74.7293 126.956 75.0169 126.956 75.3589C126.956 75.7009 127.003 76.0429 127.097 76.3849C127.198 76.7308 127.333 77.0573 127.501 77.3643C127.669 77.6636 127.865 77.9356 128.087 78.1805C128.316 78.4215 128.558 78.6158 128.814 78.7635ZM135.892 89.9158C135.892 89.2084 135.993 88.6216 136.195 88.1552C136.397 87.6888 136.68 87.3584 137.043 87.1641C137.407 86.962 137.838 86.8921 138.336 86.9543C138.841 87.0203 139.389 87.2244 139.982 87.5664C140.574 87.9084 141.119 88.3359 141.617 88.8489C142.122 89.3658 142.556 89.9352 142.92 90.557C143.283 91.1711 143.566 91.8279 143.768 92.5275C143.97 93.2271 144.071 93.9305 144.071 94.6379C144.071 95.353 143.97 95.9437 143.768 96.4101C143.566 96.8687 143.283 97.1991 142.92 97.4012C142.556 97.5955 142.122 97.6596 141.617 97.5935C141.119 97.5313 140.574 97.3293 139.982 96.9872C139.389 96.6452 138.841 96.2158 138.336 95.6989C137.838 95.1858 137.407 94.6223 137.043 94.0082C136.68 93.3864 136.397 92.7296 136.195 92.0378C135.993 91.3382 135.892 90.6309 135.892 89.9158ZM138.124 91.2041C138.124 91.5461 138.171 91.8882 138.265 92.2302C138.366 92.5761 138.501 92.9025 138.669 93.2096C138.837 93.5088 139.032 93.7809 139.255 94.0257C139.483 94.2667 139.726 94.461 139.982 94.6087C140.237 94.7564 140.476 94.84 140.698 94.8594C140.927 94.8749 141.126 94.8302 141.294 94.7253C141.462 94.6126 141.594 94.4396 141.688 94.2065C141.789 93.9771 141.839 93.6915 141.839 93.3495C141.839 93.0075 141.789 92.6635 141.688 92.3176C141.594 91.9756 141.462 91.655 141.294 91.3557C141.126 91.0487 140.927 90.7747 140.698 90.5337C140.476 90.2889 140.237 90.0926 139.982 89.9449C139.726 89.7972 139.483 89.7156 139.255 89.7001C139.032 89.6806 138.837 89.7273 138.669 89.84C138.501 89.9449 138.366 90.112 138.265 90.3413C138.171 90.5745 138.124 90.8621 138.124 91.2041Z" fill="white"/>
</svg>
