<svg width="248" height="210" viewBox="0 0 248 210" fill="none" xmlns="http://www.w3.org/2000/svg">
<mask id="path-1-inside-1_10442_11039" fill="white">
<path d="M45.8125 43.0605L63.6245 53.3443L45.8125 63.6281L28.0005 53.3443L45.8125 43.0605Z"/>
</mask>
<path d="M45.8125 43.0605L63.6245 53.3443L45.8125 63.6281L28.0005 53.3443L45.8125 43.0605Z" fill="white"/>
<path d="M45.8125 43.0605L47.5446 42.0605L45.8125 41.0605L44.0804 42.0605L45.8125 43.0605ZM45.8125 43.0605L44.0804 44.0605L61.8925 54.3443L63.6245 53.3443L65.3566 52.3443L47.5446 42.0605L45.8125 43.0605ZM28.0005 53.3443L29.7325 54.3443L47.5446 44.0605L45.8125 43.0605L44.0804 42.0605L26.2684 52.3443L28.0005 53.3443Z" fill="black" mask="url(#path-1-inside-1_10442_11039)"/>
<rect width="20.5675" height="20.5675" transform="matrix(0.866025 0.5 0 1 28 53.3447)" fill="black"/>
<path d="M62.8285 54.7227V73.4521L46.6083 82.8169V64.0874L62.8285 54.7227Z" fill="white" stroke="black" stroke-width="1.83873"/>
<mask id="path-5-inside-2_10442_11039" fill="white">
<path d="M199.57 28.4072L220.141 40.2838L199.57 52.1604L178.999 40.2838L199.57 28.4072Z"/>
</mask>
<path d="M199.57 28.4072L220.141 40.2838L199.57 52.1604L178.999 40.2838L199.57 28.4072Z" fill="white"/>
<path d="M199.57 28.4072L201.302 27.4072L199.57 26.4072L197.838 27.4072L199.57 28.4072ZM199.57 28.4072L197.838 29.4072L218.409 41.2838L220.141 40.2838L221.873 39.2838L201.302 27.4072L199.57 28.4072ZM178.999 40.2838L180.732 41.2838L201.302 29.4072L199.57 28.4072L197.838 27.4072L177.267 39.2838L178.999 40.2838Z" fill="black" mask="url(#path-5-inside-2_10442_11039)"/>
<rect width="23.7532" height="23.7532" transform="matrix(0.866025 0.5 0 1 179 40.2842)" fill="black"/>
<rect x="0.866025" y="0.5" width="21.7532" height="21.7532" transform="matrix(0.866025 -0.5 0 1 199.686 52.5932)" fill="white" stroke="black" stroke-width="2"/>
<path d="M108.339 109.445C110.517 108.188 114.048 108.188 116.226 109.445L195.174 155.025C196.262 155.654 196.807 156.478 196.807 157.302C196.807 158.126 196.263 158.95 195.174 159.579L125.187 199.986C123.009 201.243 119.477 201.243 117.299 199.986L38.3522 154.406C37.2634 153.777 36.7189 152.953 36.7188 152.129C36.7186 151.305 37.2631 150.481 38.3522 149.852L108.339 109.445Z" fill="black"/>
<path d="M36.7188 144.248C36.7189 145.072 37.2634 145.896 38.3522 146.525V157.557C37.2634 156.928 36.7189 156.104 36.7188 155.28V144.248Z" fill="black"/>
<path d="M195.174 151.698C196.262 151.069 196.807 150.245 196.807 149.421V160.453C196.807 161.277 196.263 162.101 195.174 162.73V151.698Z" fill="black"/>
<path d="M38.3522 146.525L117.299 192.105V203.137L38.3522 157.557V146.525Z" fill="black"/>
<path d="M125.187 192.105L195.174 151.698V162.73L125.187 203.137V192.105Z" fill="black"/>
<path d="M117.299 192.105C119.477 193.362 123.009 193.362 125.187 192.105V203.137C123.009 204.395 119.477 204.395 117.299 203.137V192.105Z" fill="black"/>
<path d="M38.3522 146.525C37.2634 145.896 36.7189 145.072 36.7188 144.248V155.28C36.7189 156.104 37.2634 156.928 38.3522 157.557M38.3522 146.525V157.557M38.3522 146.525L117.299 192.105M38.3522 157.557L117.299 203.137M196.807 149.421C196.807 149.421 196.807 149.42 196.807 149.421ZM196.807 149.421C196.807 150.245 196.262 151.069 195.174 151.698M196.807 149.421V160.453C196.807 161.277 196.263 162.101 195.174 162.73M195.174 151.698V162.73M195.174 151.698L125.187 192.105M195.174 162.73L125.187 203.137M117.299 192.105V203.137M117.299 192.105C119.477 193.362 123.009 193.362 125.187 192.105M117.299 203.137C119.477 204.395 123.009 204.395 125.187 203.137M125.187 192.105V203.137" stroke="black" stroke-width="2" stroke-linejoin="round"/>
<path d="M36.7188 141.097C36.7189 141.921 37.2634 142.745 38.3522 143.373L117.299 188.953C119.477 190.211 123.009 190.211 125.187 188.953L195.174 148.546C196.262 147.918 196.807 147.093 196.807 146.269V157.302C196.807 158.126 196.263 158.95 195.174 159.579L125.187 199.986C123.009 201.243 119.477 201.243 117.299 199.986L38.3522 154.406C37.2634 153.777 36.7189 152.953 36.7188 152.129V141.097Z" fill="white" stroke="black" stroke-width="2" stroke-linejoin="round"/>
<rect width="100.268" height="89.9212" rx="4.55363" transform="matrix(0.866025 0.5 -0.866025 0.5 112.281 96.1357)" fill="white" stroke="black" stroke-width="2"/>
<rect x="0.866025" y="1.5" width="81.7443" height="96.0661" rx="4.23374" transform="matrix(0.866025 0.5 0 1 104.425 15.567)" fill="#373737" stroke="black" stroke-width="2"/>
<rect x="0.866025" y="1.5" width="81.7443" height="97.0039" rx="4.23374" transform="matrix(0.866025 0.5 0 1 82.9598 29.2896)" fill="#CCFF00" stroke="black" stroke-width="2"/>
<rect x="0.866025" y="1.5" width="81.7443" height="97.8419" rx="4.23374" transform="matrix(0.866025 0.5 0 1 57.5379 39.981)" fill="white" stroke="black" stroke-width="2"/>
<rect width="59.5707" height="8.97213" rx="4.48607" transform="matrix(0.866025 0.5 0 1 66.2227 81.5039)" fill="#101010" stroke="black" stroke-width="1.83873"/>
<rect width="59.5707" height="8.97213" rx="4.48607" transform="matrix(0.866025 0.5 0 1 66.2227 100.943)" fill="white" stroke="black" stroke-width="2"/>
<rect width="59.5707" height="8.97213" rx="4.48607" transform="matrix(0.866025 0.5 0 1 66.2227 120.383)" fill="white" stroke="black" stroke-width="2"/>
<path d="M89.1478 82.0168L86.899 80.7184L86.4926 82.4391L84 81L86.4926 73.5229L89.6761 75.3609L92.0603 85.6536L89.5542 84.2067L89.1478 82.0168ZM88.0098 76.3229L87.2106 79.162L88.8226 80.0927L88.064 76.3542L88.0098 76.3229ZM95.8497 78.8783C96.5812 79.3007 97.1999 79.736 97.7056 80.1845C98.2113 80.6329 98.6132 81.1673 98.9113 81.7878C99.2183 82.4031 99.3718 83.1226 99.3718 83.9465C99.3718 84.3114 99.3222 84.6582 99.2228 84.9867C99.1325 85.31 99.0151 85.5707 98.8706 85.7688C98.7351 85.9722 98.6132 86.0843 98.5049 86.1051C98.3784 86.1364 98.0985 86.0582 97.665 85.8705C97.2315 85.6723 96.7212 85.4038 96.1342 85.0649C95.9265 84.945 95.6059 84.7494 95.1724 84.4783V87.4504L92.7339 86.0425V77.1264C93.6822 77.6426 94.7208 78.2265 95.8497 78.8783ZM96.8657 83.485C96.956 83.4016 97.0012 83.1565 97.0012 82.7498C97.0012 82.218 96.9018 81.7852 96.7031 81.4515C96.5135 81.123 96.1793 80.8206 95.7007 80.5442C95.5381 80.4504 95.362 80.3643 95.1724 80.2861V82.6638C95.2627 82.7263 95.4388 82.8332 95.7007 82.9844C96.3961 83.3859 96.7844 83.5528 96.8657 83.485ZM100.248 81.4649L102.687 82.8727V91.7889L100.248 90.3811V81.4649Z" fill="black"/>
<mask id="path-21-inside-3_10442_11039" fill="white">
<path d="M178.43 107.473L191.876 115.236L178.43 122.999L164.984 115.236L178.43 107.473Z"/>
</mask>
<path d="M178.43 107.473L191.876 115.236L178.43 122.999L164.984 115.236L178.43 107.473Z" fill="white"/>
<path d="M178.43 107.473L179.729 106.723L178.43 105.973L177.131 106.723L178.43 107.473ZM178.43 107.473L177.131 108.223L190.576 115.986L191.876 115.236L193.175 114.486L179.729 106.723L178.43 107.473ZM164.984 115.236L166.283 115.986L179.729 108.223L178.43 107.473L177.131 106.723L163.685 114.486L164.984 115.236Z" fill="black" mask="url(#path-21-inside-3_10442_11039)"/>
<rect width="15.5259" height="15.5259" transform="matrix(0.866025 0.5 0 1 164.98 115.235)" fill="black"/>
<path d="M191.226 116.36V130.386L179.079 137.399V123.373L191.226 116.36Z" fill="white" stroke="black" stroke-width="1.5"/>
</svg>
