<svg width="442" height="346" viewBox="0 0 442 346" fill="none" xmlns="http://www.w3.org/2000/svg">
<g clip-path="url(#clip0_10077_20755)">
<g clip-path="url(#clip1_10077_20755)">
<rect x="146.031" y="66.411" width="159.537" height="120.502" rx="32.6414" fill="white" stroke="black" stroke-width="3.74194"/>
<rect x="157.012" y="82.3896" width="137.335" height="88.542" rx="21.5161" fill="#060606" fill-opacity="0.5"/>
<rect x="161.531" y="87.1504" width="128.291" height="79.0213" rx="19.9933" fill="#020202"/>
<mask id="mask0_10077_20755" style="mask-type:alpha" maskUnits="userSpaceOnUse" x="161" y="87" width="129" height="80">
<rect x="161.531" y="87.1494" width="128.291" height="79.0213" rx="19.9933" fill="#020202"/>
</mask>
<g mask="url(#mask0_10077_20755)">
<path d="M160.547 90.1934H291.515M160.547 97.802H291.515M160.547 105.411H291.515M160.547 113.019H291.515M160.547 120.628H291.515M160.547 128.236H291.515M160.547 135.845H291.515M160.547 143.454H291.515M160.547 151.062H291.515M160.547 158.671H291.515M160.547 166.279H291.515M160.547 173.888H291.515M160.547 181.497H291.515M160.547 189.105H291.515M160.547 196.714H291.515M160.547 204.322H291.515" stroke="#222222" stroke-width="0.654839"/>
<path d="M283.098 57.4517L283.098 188.419M275.489 57.4517L275.489 188.419M267.88 57.4517L267.88 188.419M260.272 57.4517L260.272 188.419M252.663 57.4517L252.663 188.419M245.055 57.4517L245.055 188.419M237.446 57.4517L237.446 188.419M229.837 57.4517L229.837 188.419M222.229 57.4517L222.229 188.419M214.62 57.4517L214.62 188.419M207.012 57.4517L207.012 188.419M199.403 57.4517L199.403 188.419M191.794 57.4517L191.794 188.419M184.186 57.4517L184.186 188.419M176.577 57.4517L176.577 188.419M168.969 57.4517L168.969 188.419" stroke="#222222" stroke-width="0.654839"/>
</g>
<path d="M138.401 96.8916C136.683 96.8916 135.291 98.2841 135.291 100.002V148.319C135.291 150.037 136.683 151.431 138.401 151.431H143.654V96.8916H138.401Z" fill="#505050" stroke="black" stroke-width="1.87097"/>
<path d="M313.606 96.8916C315.324 96.8916 316.717 98.2841 316.717 100.002V148.319C316.717 150.037 315.324 151.431 313.606 151.431H308.354V96.8916H313.606Z" fill="#505050" stroke="black" stroke-width="1.87097"/>
<path d="M129.982 107.032C128.265 107.032 126.872 108.425 126.872 110.143V139.47C126.872 141.188 128.264 142.58 129.982 142.58H135.291V107.032H129.982Z" fill="white" stroke="black" stroke-width="1.87097"/>
<path d="M322.084 107.032C323.802 107.032 325.194 108.425 325.194 110.143V139.47C325.194 141.188 323.802 142.58 322.084 142.58H316.775V107.032H322.084Z" fill="white" stroke="black" stroke-width="1.87097"/>
<path d="M240.79 187.5V199.162H210.8V187.5H240.79Z" fill="#5B5B5B" stroke="black" stroke-width="1.90413"/>
<path d="M299.047 207.365L277.252 209.483L279.44 231.989L301.235 229.87L299.047 207.365Z" fill="#626262"/>
<path d="M322.656 199.57L302.152 207.257L310.09 228.429L330.286 220.84L322.656 199.57Z" fill="#626262"/>
<path d="M343.109 185.758L325.294 198.49L338.441 216.886L356.257 204.154L343.109 185.758Z" fill="#626262"/>
<path d="M360.032 167.612L345.978 184.069L363.439 198.436L377.493 181.978L360.032 167.612Z" fill="#626262"/>
<path d="M301.948 208.513C301.315 208.969 300.497 209.106 299.754 208.896L301.654 228.442C303.841 226.96 306.59 226.517 309.152 227.266L301.948 208.513Z" fill="#424242" stroke="black" stroke-width="1.40323"/>
<path d="M325.472 199.787C325.046 200.309 324.403 200.621 323.734 200.643L330.563 219.537C332.365 217.812 334.648 216.651 337.106 216.219L325.472 199.787Z" fill="#424242" stroke="black" stroke-width="1.40323"/>
<path d="M346.484 185.393C346.126 186.197 345.368 186.766 344.508 186.901L355.714 202.731C356.804 200.269 359.013 198.458 361.665 197.885L346.484 185.393Z" fill="#424242" stroke="black" stroke-width="1.40323"/>
<path d="M363.345 164.849C363.393 166.193 362.626 167.45 361.431 168.035L376.81 180.689C377.678 177.418 380.039 174.714 383.221 173.432L383.928 173.147L363.345 164.849Z" fill="#424242" stroke="black" stroke-width="1.40323"/>
<path fill-rule="evenodd" clip-rule="evenodd" d="M388.542 107.442C389.439 105.469 390.635 103.68 392.037 102.179C393.44 100.677 394.989 99.5278 396.558 98.7478C398.123 97.969 399.648 97.5871 401.035 97.5252L400.398 83.2584C396.863 83.4161 393.4 84.3682 390.197 85.9614C386.997 87.5535 384.089 89.7677 381.602 92.4294C379.115 95.0918 377.063 98.1848 375.541 101.532C374.02 104.879 373.038 108.459 372.667 112.083C372.296 115.707 372.539 119.354 373.444 122.812C374.349 126.273 375.909 129.509 378.113 132.276C378.373 132.601 378.64 132.919 378.915 133.228C380.985 135.559 383.495 137.438 386.343 138.733L392.254 125.733C391.283 125.291 390.377 124.631 389.587 123.738C389.483 123.622 389.382 123.501 389.282 123.376C388.417 122.29 387.703 120.89 387.26 119.199C386.817 117.504 386.665 115.581 386.874 113.537C387.083 111.493 387.644 109.416 388.542 107.442Z" fill="black"/>
<path d="M385.62 80.7954C382.419 82.3876 379.511 84.6017 377.025 87.2635L381.603 92.4289C384.09 89.7672 386.997 87.553 390.198 85.9609L385.62 80.7954Z" fill="black"/>
<path d="M395.814 78.0965C392.28 78.2543 388.816 79.2063 385.613 80.7995L390.192 85.965C393.395 84.3718 396.858 83.4197 400.392 83.262L395.814 78.0965Z" fill="black"/>
<path d="M368.086 106.917C367.715 110.541 367.958 114.187 368.863 117.646L373.441 122.811C372.537 119.353 372.294 115.706 372.664 112.082L368.086 106.917Z" fill="black"/>
<path d="M368.863 117.646C369.768 121.107 371.328 124.342 373.533 127.109L378.111 132.275C375.906 129.508 374.347 126.272 373.442 122.811L368.863 117.646Z" fill="black"/>
<path d="M396.456 92.3643L401.034 97.5298C399.647 97.5916 398.123 97.9736 396.557 98.7524C394.989 99.5324 393.44 100.682 392.037 102.184C390.634 103.685 389.439 105.473 388.542 107.447C387.644 109.421 387.083 111.498 386.874 113.541C386.664 115.586 386.817 117.509 387.26 119.203C387.702 120.895 388.417 122.295 389.282 123.381L384.704 118.215C383.838 117.129 383.124 115.73 382.681 114.038C382.238 112.343 382.086 110.42 382.295 108.376C382.504 106.332 383.066 104.255 383.963 102.282C384.86 100.308 386.056 98.5193 387.459 97.0182C388.862 95.5165 390.411 94.3669 391.979 93.5869C393.545 92.8081 395.069 92.4262 396.456 92.3643Z" fill="black"/>
<path d="M396.456 92.3643L395.819 78.0975L400.398 83.263L401.034 97.5298L396.456 92.3643Z" fill="#424242"/>
<path d="M373.531 127.111C373.791 127.437 374.058 127.754 374.333 128.064L378.882 133.197C378.892 133.208 378.902 133.219 378.911 133.23L378.882 133.197C378.617 132.897 378.36 132.591 378.11 132.277L373.531 127.111Z" fill="black"/>
<path d="M385.004 118.576C384.9 118.46 384.799 118.339 384.699 118.214L389.278 123.379C389.377 123.504 389.479 123.625 389.582 123.742L385.004 118.576Z" fill="black"/>
<path d="M387.671 120.571C386.701 120.13 385.797 119.471 385.007 118.58L389.582 123.742C390.373 124.635 391.278 125.295 392.249 125.736L387.671 120.571Z" fill="black"/>
<path d="M374.332 128.063C376.402 130.394 378.912 132.273 381.76 133.568L386.339 138.734C383.49 137.439 380.98 135.56 378.91 133.229L374.332 128.063Z" fill="black"/>
<path d="M381.765 133.568L387.676 120.567L392.254 125.733L386.344 138.733L381.765 133.568Z" fill="black"/>
<path d="M371.811 96.7574C370.33 100.015 369.376 103.495 369.015 107.016C368.655 110.537 368.893 114.07 369.767 117.413C370.642 120.758 372.146 123.874 374.263 126.531C376.19 128.948 378.574 130.918 381.306 132.311L386.454 120.987C385.54 120.444 384.7 119.715 383.969 118.797C383.016 117.601 382.246 116.081 381.773 114.273C381.3 112.463 381.142 110.427 381.361 108.279C381.581 106.132 382.17 103.957 383.108 101.894C384.046 99.8299 385.298 97.9554 386.772 96.3783C388.246 94.8007 389.884 93.581 391.559 92.7479C392.897 92.0825 394.221 91.6811 395.479 91.5122L394.924 79.0939C391.853 79.3578 388.843 80.2387 386.032 81.637C382.938 83.1759 380.12 85.3199 377.704 87.9056C375.287 90.4919 373.292 93.5001 371.811 96.7574Z" fill="#424242" stroke="black" stroke-width="1.87097"/>
<path fill-rule="evenodd" clip-rule="evenodd" d="M416.278 120.053C417.175 118.079 417.737 116.002 417.946 113.959C418.155 111.914 418.003 109.991 417.56 108.297C417.117 106.605 416.403 105.205 415.537 104.119L426.706 95.2195C428.911 97.9865 430.471 101.222 431.376 104.683C432.28 108.141 432.523 111.788 432.153 115.412C431.782 119.036 430.8 122.616 429.278 125.963C427.757 129.31 425.705 132.403 423.217 135.066C420.73 137.727 417.823 139.942 414.622 141.534C411.419 143.127 407.956 144.079 404.422 144.237C400.878 144.395 397.372 143.748 394.145 142.281L400.056 129.28C401.154 129.779 402.407 130.031 403.785 129.97C405.172 129.908 406.696 129.526 408.262 128.747C409.83 127.967 411.379 126.818 412.782 125.316C414.185 123.815 415.381 122.026 416.278 120.053Z" fill="#424242"/>
<path d="M410.949 98.9563L422.118 90.0566L426.696 95.2221L415.527 104.122L410.949 98.9563Z" fill="#424242"/>
<path d="M412.975 103.132C412.533 101.44 411.818 100.04 410.953 98.9541L415.532 104.12C416.397 105.205 417.111 106.605 417.554 108.297L412.975 103.132Z" fill="black"/>
<path d="M413.363 108.791C413.572 106.747 413.42 104.824 412.977 103.129L417.555 108.295C417.998 109.989 418.15 111.912 417.941 113.957L413.363 108.791Z" fill="black"/>
<path d="M395.473 124.117C396.571 124.616 397.824 124.868 399.202 124.807L403.78 129.972C402.402 130.034 401.149 129.782 400.051 129.283L395.473 124.117Z" fill="black"/>
<path d="M411.695 114.887C412.593 112.913 413.154 110.837 413.363 108.793L417.942 113.958C417.733 116.002 417.171 118.079 416.274 120.053L411.695 114.887Z" fill="black"/>
<path d="M389.562 137.115L395.473 124.115L400.051 129.28L394.141 142.281L389.562 137.115Z" fill="black"/>
<path d="M399.202 124.804C400.589 124.742 402.114 124.36 403.679 123.581L408.258 128.747C406.692 129.526 405.168 129.908 403.781 129.97L399.202 124.804Z" fill="black"/>
<path d="M408.203 120.153C409.606 118.652 410.802 116.863 411.699 114.89L416.277 120.055C415.38 122.029 414.184 123.817 412.782 125.318L408.203 120.153Z" fill="black"/>
<path d="M403.683 123.578C405.251 122.798 406.8 121.649 408.203 120.147L412.782 125.313C411.379 126.814 409.829 127.964 408.261 128.744L403.683 123.578Z" fill="black"/>
<path d="M423.842 120.414C422.361 123.671 420.366 126.678 417.949 129.265C415.533 131.85 412.715 133.994 409.621 135.533C406.525 137.073 403.189 137.988 399.795 138.14C396.707 138.277 393.656 137.776 390.809 136.632L395.957 125.309C396.968 125.64 398.069 125.794 399.242 125.741C400.769 125.673 402.421 125.255 404.094 124.422C405.769 123.589 407.407 122.37 408.881 120.792C410.354 119.215 411.606 117.341 412.544 115.278C413.483 113.214 414.072 111.038 414.292 108.891C414.511 106.743 414.353 104.707 413.88 102.897C413.502 101.451 412.934 100.19 412.234 99.1311L421.956 91.385C423.776 93.8725 425.091 96.7194 425.886 99.7571C426.76 103.1 426.998 106.633 426.638 110.154C426.277 113.675 425.323 117.156 423.842 120.414Z" fill="#424242" stroke="black" stroke-width="1.87097"/>
<path d="M378.841 127.571L376.879 131.887L399.811 142.313L401.773 137.997C404.652 131.664 401.852 124.197 395.519 121.318C389.187 118.439 381.72 121.239 378.841 127.571Z" fill="white" stroke="black" stroke-width="2.41901"/>
<path d="M370.559 131.823L365.551 143.829C364.52 146.301 363.791 148.889 363.38 151.536L363.174 152.861C362.591 156.615 362.705 160.444 363.51 164.157C363.562 164.399 363.726 164.603 363.952 164.706L383.037 173.382C383.263 173.485 383.524 173.475 383.742 173.355C387.068 171.52 390.029 169.089 392.474 166.181L393.336 165.155C395.061 163.105 396.532 160.855 397.717 158.452L403.47 146.789C404.555 144.589 403.782 141.924 401.688 140.645L398.271 138.559C392.562 135.074 386.448 132.297 380.067 130.291L376.357 129.125C374.017 128.389 371.503 129.559 370.559 131.823Z" fill="white" stroke="black" stroke-width="2.41901"/>
<path d="M155.75 231.69L177.647 231.69L177.647 209.078L155.75 209.078L155.75 231.69Z" fill="#626262"/>
<path d="M131.504 237.164L152.655 231.497L146.803 209.656L125.968 215.255L131.504 237.164Z" fill="#626262"/>
<path d="M91.2082 265.356L106.789 250.336L90.7998 234.347L75.2194 249.367L91.2082 265.356Z" fill="#626262"/>
<path d="M152.979 230.267C153.653 229.874 154.481 229.817 155.2 230.098L155.2 210.46C152.88 211.723 150.101 211.897 147.623 210.904L152.979 230.267Z" fill="#424242" stroke="black" stroke-width="1.40323"/>
<path d="M128.722 236.676C129.196 236.197 129.867 235.949 130.534 235.993L125.566 216.526C123.605 218.069 121.22 219.003 118.732 219.196L128.722 236.676Z" fill="#424242" stroke="black" stroke-width="1.40323"/>
<path d="M109.809 248.933L128.772 237.984L117.467 218.402L98.5028 229.35L109.809 248.933Z" fill="#626262"/>
<path d="M106.412 248.969C106.845 248.203 107.656 247.71 108.524 247.659L98.9024 230.819C97.5793 233.164 95.206 234.753 92.5106 235.067L106.412 248.969Z" fill="#424242" stroke="black" stroke-width="1.40323"/>
<path d="M87.6468 267.786C87.729 266.443 88.6139 265.266 89.8599 264.799L75.7772 250.717C74.5969 253.889 71.9849 256.352 68.6937 257.32L67.9631 257.535L87.6468 267.786Z" fill="#424242" stroke="black" stroke-width="1.40323"/>
<path fill-rule="evenodd" clip-rule="evenodd" d="M57.0194 322.485C55.9353 324.362 54.5723 326.027 53.0311 327.385C51.4894 328.744 49.8362 329.739 48.2 330.363C46.5662 330.987 45.0121 331.219 43.6256 331.147L42.879 345.408C46.4121 345.593 49.9512 344.981 53.2933 343.705C56.6331 342.43 59.7411 340.507 62.4739 338.099C65.2074 335.69 67.5486 332.81 69.3871 329.625C71.2255 326.441 72.549 322.973 73.2687 319.402C73.9883 315.831 74.0992 312.178 73.5335 308.648C72.9674 305.116 71.7282 301.744 69.8014 298.777C69.5749 298.428 69.3396 298.086 69.0958 297.751C67.261 295.231 64.9447 293.118 62.235 291.554L55.0945 303.921C56.0183 304.455 56.8553 305.199 57.556 306.164C57.6477 306.291 57.7371 306.421 57.824 306.554C58.5801 307.719 59.1557 309.181 59.4325 310.908C59.7096 312.637 59.6751 314.566 59.2691 316.581C58.8634 318.595 58.1034 320.607 57.0194 322.485Z" fill="black"/>
<path d="M57.3507 349.29C60.6905 348.015 63.7984 346.093 66.5312 343.684L62.4741 338.1C59.7413 340.508 56.6333 342.431 53.2935 343.706L57.3507 349.29Z" fill="black"/>
<path d="M46.9385 350.99C50.4717 351.175 54.0108 350.562 57.3529 349.286L53.2957 343.702C49.9536 344.978 46.4145 345.59 42.8813 345.405L46.9385 350.99Z" fill="black"/>
<path d="M77.3281 324.987C78.0477 321.416 78.1586 317.763 77.5929 314.233L73.5357 308.649C74.1014 312.179 73.9905 315.832 73.271 319.403L77.3281 324.987Z" fill="black"/>
<path d="M77.5898 314.234C77.0237 310.702 75.7846 307.33 73.8578 304.363L69.8006 298.779C71.7274 301.746 72.9666 305.117 73.5327 308.65L77.5898 314.234Z" fill="black"/>
<path d="M47.6808 336.727L43.6236 331.143C45.0101 331.215 46.5642 330.983 48.198 330.359C49.8342 329.734 51.4874 328.74 53.0291 327.381C54.5703 326.023 55.9333 324.358 57.0174 322.481C58.1014 320.603 58.8614 318.59 59.2671 316.576C59.6731 314.562 59.7076 312.633 59.4305 310.904C59.1537 309.177 58.5781 307.715 57.822 306.55L61.8792 312.134C62.6353 313.299 63.2109 314.761 63.4876 316.488C63.7648 318.217 63.7303 320.146 63.3243 322.161C62.9185 324.174 62.1586 326.187 61.0745 328.065C59.9905 329.942 58.6274 331.607 57.0863 332.965C55.5445 334.324 53.8913 335.318 52.2552 335.943C50.6214 336.567 49.0673 336.799 47.6808 336.727Z" fill="black"/>
<path d="M47.6808 336.727L46.9341 350.988L42.877 345.404L43.6236 331.143L47.6808 336.727Z" fill="#424242"/>
<path d="M73.8594 304.361C73.6328 304.012 73.3975 303.67 73.1537 303.335L69.1224 297.786C69.1138 297.774 69.1052 297.763 69.0965 297.751L69.1224 297.786C69.357 298.11 69.5836 298.44 69.8022 298.777L73.8594 304.361Z" fill="black"/>
<path d="M61.6148 311.746C61.7065 311.872 61.7959 312.002 61.8828 312.136L57.8256 306.552C57.7387 306.418 57.6494 306.288 57.5577 306.161L61.6148 311.746Z" fill="black"/>
<path d="M59.1518 309.503C60.0743 310.035 60.9102 310.779 61.6104 311.742L57.5561 306.161C56.8554 305.196 56.0184 304.452 55.0946 303.919L59.1518 309.503Z" fill="black"/>
<path d="M73.1523 303.335C71.3176 300.815 69.0013 298.702 66.2915 297.138L62.2344 291.554C64.9441 293.118 67.2604 295.231 69.0952 297.751L73.1523 303.335Z" fill="black"/>
<path d="M66.2928 297.138L59.1523 309.506L55.0952 303.922L62.2356 291.554L66.2928 297.138Z" fill="black"/>
<path d="M72.6356 334.739C74.4246 331.64 75.7113 328.268 76.4104 324.798C77.1094 321.329 77.2147 317.79 76.6679 314.378C76.1207 310.964 74.9254 307.717 73.0753 304.868C71.3918 302.275 69.2095 300.085 66.6244 298.434L60.4052 309.206C61.2622 309.835 62.0274 310.642 62.6666 311.627C63.4994 312.909 64.1189 314.496 64.4146 316.341C64.7107 318.188 64.6709 320.23 64.2445 322.347C63.8181 324.463 63.0215 326.571 61.8881 328.534C60.7546 330.497 59.327 332.242 57.7078 333.669C56.0881 335.096 54.3395 336.152 52.5919 336.819C51.1959 337.352 49.8394 337.623 48.5712 337.67L47.9219 350.083C51.0039 350.118 54.0846 349.532 57.018 348.412C60.2461 347.18 63.2591 345.319 65.9138 342.979C68.5692 340.639 70.8465 337.838 72.6356 334.739Z" fill="#424242" stroke="black" stroke-width="1.87097"/>
<path fill-rule="evenodd" clip-rule="evenodd" d="M30.6317 307.251C29.5477 309.129 28.7877 311.141 28.3819 313.155C27.976 315.17 27.9415 317.099 28.2186 318.828C28.4953 320.555 29.0709 322.017 29.827 323.181L17.8496 330.959C15.9228 327.991 14.6837 324.62 14.1176 321.088C13.5519 317.558 13.6628 313.905 14.3823 310.334C15.1021 306.762 16.4256 303.295 18.264 300.111C20.1025 296.926 22.4437 294.046 25.1772 291.637C27.91 289.228 31.018 287.306 34.3578 286.031C37.6999 284.755 41.239 284.143 44.7722 284.328C48.3145 284.513 51.7413 285.496 54.8111 287.269L47.6706 299.636C46.6259 299.033 45.4028 298.661 44.0255 298.589C42.639 298.516 41.0849 298.749 39.4511 299.373C37.8149 299.997 36.1617 300.992 34.6199 302.351C33.0788 303.709 31.7158 305.373 30.6317 307.251Z" fill="#424242"/>
<path d="M33.8933 328.763L21.9159 336.541L17.8587 330.956L29.8361 323.179L33.8933 328.763Z" fill="#424242"/>
<path d="M32.2822 324.412C32.5589 326.138 33.1345 327.601 33.8906 328.765L29.8335 323.181C29.0773 322.016 28.5018 320.554 28.225 318.827L32.2822 324.412Z" fill="black"/>
<path d="M32.4407 318.741C32.0347 320.755 32.0002 322.684 32.2773 324.414L28.2202 318.829C27.943 317.1 27.9776 315.171 28.3835 313.157L32.4407 318.741Z" fill="black"/>
<path d="M51.7351 305.218C50.6904 304.615 49.4674 304.243 48.09 304.171L44.0329 298.587C45.4102 298.659 46.6333 299.031 47.678 299.634L51.7351 305.218Z" fill="black"/>
<path d="M34.6912 312.835C33.6071 314.713 32.8472 316.725 32.4414 318.739L28.3842 313.155C28.79 311.141 29.55 309.129 30.634 307.251L34.6912 312.835Z" fill="black"/>
<path d="M58.8749 292.853L51.7344 305.221L47.6772 299.636L54.8177 287.269L58.8749 292.853Z" fill="black"/>
<path d="M48.0845 304.173C46.698 304.101 45.1439 304.333 43.5101 304.957L39.453 299.373C41.0868 298.749 42.6409 298.516 44.0274 298.589L48.0845 304.173Z" fill="black"/>
<path d="M38.6776 307.932C37.1365 309.291 35.7734 310.955 34.6894 312.833L30.6322 307.248C31.7162 305.371 33.0793 303.706 34.6204 302.348L38.6776 307.932Z" fill="black"/>
<path d="M43.5089 304.96C41.8728 305.584 40.2196 306.579 38.6778 307.938L34.6207 302.353C36.1624 300.995 37.8156 300 39.4518 299.376L43.5089 304.96Z" fill="black"/>
<path d="M23.1388 306.159C24.9278 303.061 27.2048 300.26 29.8601 297.92C32.5149 295.58 35.5278 293.719 38.7559 292.487C41.9862 291.253 45.3955 290.665 48.788 290.843C51.8749 291.005 54.8633 291.799 57.5856 293.213L51.3663 303.985C50.3926 303.557 49.3111 303.298 48.139 303.237C46.6121 303.157 44.9278 303.414 43.1821 304.08C41.4344 304.747 39.6859 305.803 38.0661 307.23C36.447 308.657 35.0198 310.401 33.8863 312.364C32.7529 314.328 31.9558 316.436 31.5295 318.552C31.103 320.669 31.0633 322.711 31.3593 324.558C31.5958 326.033 32.039 327.343 32.6329 328.465L22.207 335.234C20.6361 332.582 19.6029 329.621 19.106 326.521C18.5592 323.109 18.6646 319.57 19.3635 316.101C20.0627 312.631 21.3498 309.258 23.1388 306.159Z" fill="#424242" stroke="black" stroke-width="1.87097"/>
<path d="M68.6123 303.39L70.9829 299.284L49.1674 286.688L46.7967 290.794C43.3188 296.819 45.3834 304.521 51.4076 308C57.4318 311.477 65.1342 309.414 68.6123 303.39Z" fill="white" stroke="black" stroke-width="2.41901"/>
<path d="M77.2695 299.959L83.4152 288.494C84.6807 286.133 85.657 283.628 86.3224 281.033L86.655 279.734C87.5984 276.054 87.8556 272.232 87.414 268.459C87.3851 268.212 87.2415 267.994 87.0267 267.87L68.8706 257.387C68.6558 257.263 68.3948 257.248 68.1669 257.346C64.6784 258.85 61.4967 260.984 58.7815 263.641L57.8239 264.579C55.9093 266.453 54.2271 268.55 52.8151 270.827L45.9609 281.879C44.6676 283.964 45.1794 286.691 47.1402 288.166L50.3388 290.573C55.6845 294.595 61.5007 297.949 67.6581 300.563L71.2381 302.083C73.4953 303.042 76.111 302.12 77.2695 299.959Z" fill="white" stroke="black" stroke-width="2.41901"/>
<path d="M261.729 199.018L189.985 199.018C180.072 199.018 171.712 206.404 170.49 216.241L169.966 220.458C168.992 228.292 169.01 236.217 170.017 244.047L178.161 307.345C178.304 308.46 179.043 309.404 180.112 309.751C185.068 311.36 200.714 315.646 226.715 315.646C252.632 315.646 268.073 311.387 273.011 309.767C274.093 309.412 274.827 308.445 274.95 307.312L281.953 242.79C282.713 235.789 282.684 228.724 281.866 221.729L281.241 216.382C280.084 206.482 271.696 199.018 261.729 199.018Z" fill="white" stroke="black" stroke-width="3.74194" stroke-linecap="round"/>
<path d="M227.104 329.677C244.482 329.677 257.447 324.123 264.598 320.066C268.956 317.594 272.192 313.685 274.72 309.358C274.857 309.124 274.615 308.836 274.36 308.929C270.763 310.242 254.843 315.41 227.104 315.41C199.369 315.41 182.53 309.531 178.696 308.036C178.428 307.931 178.167 308.233 178.311 308.482C181.143 313.383 184.836 317.779 189.824 320.453C197.311 324.466 210.272 329.677 227.104 329.677Z" fill="#2B2B2B" stroke="black" stroke-width="2.41901"/>
<path d="M240.823 226.371C242.79 224.414 245.979 224.414 247.946 226.371C249.912 228.328 249.912 231.5 247.946 233.457C245.979 235.414 242.79 235.414 240.823 233.457C238.857 231.5 238.857 228.328 240.823 226.371Z" fill="black"/>
<path d="M203.582 244.436C203.582 234.751 211.474 226.899 221.209 226.899H231.783C233.662 226.899 235.256 228.274 235.522 230.125L235.698 231.349C236.252 235.207 239.298 238.239 243.176 238.79L244.406 238.965C246.267 239.229 247.649 240.81 247.649 242.68C247.649 245.206 247.649 248.981 247.649 253.202C247.649 262.888 239.758 270.742 230.022 270.742H221.209C211.474 270.742 203.582 262.89 203.582 253.205V244.436Z" fill="black"/>
<path d="M231.618 244.513V251.883C231.618 252.231 231.722 252.499 231.931 252.66C232.14 252.847 232.401 252.928 232.741 252.928C233.316 252.928 233.786 252.526 234.126 251.695C234.439 250.864 234.622 249.873 234.622 248.747C234.622 246.416 233.812 244.513 232.219 243.066C230.625 241.619 228.639 240.896 226.287 240.896C223.753 240.896 221.637 241.753 219.938 243.415C218.24 245.076 217.404 247.193 217.404 249.739C217.404 252.284 218.214 254.375 219.886 255.982C221.558 257.59 223.648 258.394 226.209 258.394C228.01 258.394 229.722 257.889 231.347 256.879C231.929 256.517 232.714 256.656 233.071 257.241C233.363 257.721 233.27 258.348 232.813 258.675C230.977 259.988 228.796 260.645 226.235 260.645C222.943 260.645 220.252 259.627 218.162 257.59C216.045 255.554 215 252.981 215 249.819C215 246.604 216.071 243.951 218.24 241.834C220.409 239.717 223.1 238.645 226.287 238.645C229.292 238.645 231.827 239.61 233.891 241.485C235.955 243.361 237 245.773 237 248.694C237 249.498 236.895 250.248 236.739 250.945C236.556 251.641 236.268 252.338 235.903 253.008C235.537 253.678 234.988 254.214 234.283 254.589C233.551 254.991 232.715 255.179 231.748 255.179C230.128 255.179 229.031 254.643 228.456 253.544C227.672 254.616 226.523 255.152 225.007 255.152C223.544 255.152 222.342 254.669 221.401 253.678C220.461 252.713 219.99 251.373 219.99 249.712C219.99 248.051 220.461 246.738 221.428 245.746C222.368 244.781 223.57 244.272 225.007 244.272C226.261 244.272 227.28 244.674 228.064 245.451V244.513H231.618ZM226.052 251.856C226.601 251.856 227.071 251.668 227.463 251.266C227.855 250.864 228.064 250.328 228.064 249.658C228.064 249.015 227.855 248.506 227.463 248.104C227.071 247.729 226.601 247.515 226.052 247.515C225.477 247.515 225.007 247.729 224.615 248.104C224.197 248.506 224.014 249.015 224.014 249.658C224.014 250.328 224.197 250.864 224.615 251.266C225.007 251.668 225.477 251.856 226.052 251.856Z" fill="#CCFF00"/>
<path d="M201.777 65.4306C201.777 58.3275 207.536 52.5693 214.639 52.5693H236.597C243.7 52.5693 249.458 58.3275 249.458 65.4306H201.777Z" fill="white" stroke="black" stroke-width="2.41901"/>
<rect x="220.906" y="35.0674" width="8.50157" height="17.0031" fill="white" stroke="black" stroke-width="2.41901"/>
<path d="M213.066 29.3518C213.066 24.0079 217.399 19.6758 222.742 19.6758H227.58C232.924 19.6758 237.257 24.0079 237.257 29.3518C237.257 34.6958 232.924 39.0279 227.58 39.0279H222.742C217.399 39.0279 213.066 34.6958 213.066 29.3518Z" fill="#CCFF00" stroke="black" stroke-width="2.41901"/>
<rect x="211.066" y="176.258" width="29" height="5.6129" rx="2.80645" fill="#CCFF00"/>
<path d="M288.023 205.258H278.418C280.277 210.834 281.224 216.674 281.224 222.552V252.032C285.782 252.032 289.64 248.669 290.263 244.155L294.589 212.791C294.721 211.834 294.642 210.86 294.358 209.937C293.502 207.156 290.932 205.258 288.023 205.258Z" fill="white" stroke="black" stroke-width="2.80645" stroke-linecap="round"/>
<path d="M163.573 205.258H174.113C172.256 210.521 171.307 216.061 171.307 221.642V252.032C166.214 252.032 161.901 248.274 161.205 243.228L157.007 212.791C156.875 211.834 156.954 210.86 157.238 209.937C158.094 207.156 160.663 205.258 163.573 205.258Z" fill="white" stroke="black" stroke-width="2.80645" stroke-linecap="round"/>
<path d="M176.918 300.836C181.086 303.962 202.373 307.535 227.381 307.535C252.39 307.535 268.466 303.962 275.612 300.836" stroke="black" stroke-width="2.67946"/>
</g>
</g>
<defs>
<clipPath id="clip0_10077_20755">
<rect width="442" height="346" rx="11.2258" fill="white"/>
</clipPath>
<clipPath id="clip1_10077_20755">
<rect width="435" height="356" fill="white" transform="translate(9 12)"/>
</clipPath>
</defs>
</svg>
