<svg width="6" height="9" viewBox="0 0 6 9" fill="none" xmlns="http://www.w3.org/2000/svg">
<path d="M3.68541 4.71784H2.29978V0.491245C2.29978 0.426734 2.31471 0.362854 2.34371 0.303253C2.37271 0.243653 2.41522 0.189499 2.46881 0.143883C2.5224 0.0982656 2.58602 0.0620804 2.65604 0.0373936C2.72606 0.0127058 2.80111 0 2.8769 0H3.1083C3.18408 0 3.25913 0.0127058 3.32915 0.0373936C3.39917 0.0620804 3.46279 0.0982656 3.51638 0.143883C3.56997 0.189499 3.61248 0.243653 3.64148 0.303253C3.67049 0.362854 3.68541 0.426734 3.68541 0.491245V4.71784Z" fill="#B1B100"/>
<path d="M5.91351 5.46679L3.52329 8.76633C3.47196 8.8373 3.40025 8.89598 3.31492 8.93686C3.2296 8.97773 3.13346 8.99946 3.03555 8.99999C2.93764 9.00052 2.84118 8.97984 2.75525 8.93989C2.66932 8.89994 2.59674 8.84204 2.54434 8.77164L0.08969 5.4721C0.0343505 5.39779 0.00347033 5.3122 0.00027578 5.22427C-0.00291877 5.13633 0.0216895 5.04927 0.0715297 4.9722C0.12137 4.89512 0.194613 4.83086 0.283606 4.78611C0.372599 4.74137 0.474075 4.71779 0.577434 4.71784H5.42231C5.52506 4.71775 5.62598 4.74102 5.71464 4.78524C5.8033 4.82945 5.87648 4.89302 5.92662 4.96937C5.97677 5.04571 6.00205 5.13207 5.99987 5.21952C5.99769 5.30696 5.96811 5.39233 5.91421 5.46679H5.91351Z" fill="#B1B100"/>
</svg>
