<svg width="19" height="23" viewBox="0 0 19 23" fill="none" xmlns="http://www.w3.org/2000/svg">
<path d="M19 3.30604V12.9262C19 17.7642 12.8314 22.9118 9.50059 22.9118C6.17093 22.9118 0 17.7642 0 12.9262V3.24873H0.924511C0.924511 3.24873 3.08368 3.24873 5.24404 2.32925C7.46382 1.40978 8.94446 0.366772 8.94446 0.366772L9.50059 0L10.0555 0.429174C10.0555 0.429174 11.5362 1.46963 13.7571 2.38911C15.9151 3.24618 18.0755 3.30604 18.0755 3.30604H19ZM10.3051 10.4008L13.6894 5.82759H8.53093L5.86672 12.9262H8.52855L6.14598 18.9371L13.302 10.3995H10.3039V10.4008H10.3051Z" fill="#CCFF00"/>
</svg>
