<svg width="248" height="210" viewBox="0 0 248 210" fill="none" xmlns="http://www.w3.org/2000/svg">
<path d="M206.283 143.066C208.257 141.926 209.244 140.433 209.245 138.939V151.32C209.245 152.814 208.258 154.308 206.283 155.448L128.278 200.5C124.33 202.779 117.929 202.779 113.98 200.5L113.982 200.5L31.011 152.596L31.012 152.596C29.0381 151.457 28.051 149.993 28.0508 148.5V136.117C28.051 137.611 29.0381 139.074 31.012 140.214L31.011 140.214L113.982 188.117L113.98 188.117C117.929 190.397 124.33 190.397 128.278 188.117L206.283 143.066Z" fill="black"/>
<path d="M209.245 138.938V138.939M209.245 138.939C209.244 140.433 208.257 141.926 206.283 143.066L128.278 188.117C124.33 190.397 117.929 190.397 113.98 188.117L113.982 188.117L31.011 140.214L31.012 140.214C29.0381 139.074 28.051 137.611 28.0508 136.117V148.5C28.051 149.993 29.0381 151.457 31.012 152.596L31.011 152.596L113.982 200.5L113.98 200.5C117.929 202.779 124.33 202.779 128.278 200.5L206.283 155.448C208.258 154.308 209.245 152.814 209.245 151.32V138.939Z" stroke="black" stroke-width="1.651" stroke-linejoin="round"/>
<path d="M206.294 111.224C208.268 110.084 209.255 108.59 209.255 107.097V147.478C209.256 148.972 208.269 150.466 206.294 151.606L128.553 196C124.604 198.279 118.203 198.279 114.255 196L114.257 196L31.05 148L31.0511 148C29.0772 146.86 28.0901 145.366 28.0898 143.873V103.49C28.0901 104.984 29.0772 106.478 31.0511 107.617L31.05 107.617L114.257 155.617L114.255 155.617C118.203 157.897 124.604 157.897 128.553 155.617L206.294 111.224Z" fill="white"/>
<path d="M209.255 107.095V107.097M209.255 107.097C209.255 108.59 208.268 110.084 206.294 111.224L128.553 155.617C124.604 157.897 118.203 157.897 114.255 155.617L114.257 155.617L31.05 107.617L31.0511 107.617C29.0772 106.478 28.0901 104.984 28.0898 103.49V143.873C28.0901 145.366 29.0772 146.86 31.0511 148L31.05 148L114.257 196L114.255 196C118.203 198.279 124.604 198.279 128.553 196L206.294 151.606C208.269 150.466 209.256 148.972 209.255 147.478V107.097Z" stroke="black" stroke-width="1.651" stroke-linejoin="round"/>
<path d="M110.157 54.5156C113.52 52.574 119.431 52.8391 123.361 55.1077L205.933 102.781C209.862 105.049 210.321 108.462 206.958 110.404L126.892 155.053C123.529 156.995 117.617 156.73 113.688 154.461L32.1155 107.788C28.1862 105.52 27.7271 102.106 31.09 100.165L110.157 54.5156Z" fill="white" stroke="black" stroke-width="2"/>
<rect x="-0.866025" y="1.5" width="7.90517" height="18.7781" rx="3.95258" transform="matrix(-0.866025 0.5 0 1 195.013 128.115)" fill="white" stroke="black" stroke-width="2"/>
<rect x="0.866025" y="1.5" width="7.90517" height="18.7781" rx="3.95258" transform="matrix(0.866025 0.5 0 1 46.1668 125.567)" fill="white" stroke="black" stroke-width="2"/>
<rect x="-0.866025" y="1.5" width="7.90517" height="20.6105" rx="3.95258" transform="matrix(-0.866025 0.5 0 1 176.013 138.283)" fill="#CCFF00" stroke="black" stroke-width="2"/>
<rect x="0.866025" y="1.5" width="7.90517" height="20.6105" rx="3.95258" transform="matrix(0.866025 0.5 0 1 65.1668 135.735)" fill="#CCFF00" stroke="black" stroke-width="2"/>
<rect x="-0.866025" y="1.5" width="7.90517" height="21.4018" rx="3.95258" transform="matrix(-0.866025 0.5 0 1 157.013 147.792)" fill="white" stroke="black" stroke-width="2"/>
<rect x="0.866025" y="1.5" width="7.90517" height="21.4018" rx="3.95258" transform="matrix(0.866025 0.5 0 1 84.1668 145.245)" fill="white" stroke="black" stroke-width="2"/>
<circle cx="44.4986" cy="44.4986" r="44.4986" transform="matrix(0.866025 0.5 -0.866025 0.5 119.074 59)" fill="#050505" stroke="black" stroke-width="2"/>
<circle cx="39.0081" cy="39.0081" r="39.0081" transform="matrix(0.866025 0.5 -0.866025 0.5 118.566 50)" fill="white" stroke="black" stroke-width="2"/>
<circle cx="27.8916" cy="27.8916" r="27.8916" transform="matrix(0.866025 0.5 -0.866025 0.5 118.566 61.1162)" fill="#050505" stroke="black" stroke-width="2"/>
<path d="M84.782 108.512C76.1365 103.52 70.7891 96.6246 70.7891 89.0078V100.71C70.7891 108.327 76.1365 115.223 84.782 120.214L84.7879 120.214C103.445 130.986 133.695 130.986 152.352 120.214L152.349 120.214C160.994 115.223 166.341 108.327 166.341 100.71V89.0078C166.341 96.6246 160.994 103.52 152.349 108.512L152.352 108.512C133.695 119.284 103.445 119.284 84.7879 108.512L84.782 108.512Z" fill="#CCFF00" stroke="black" stroke-width="2"/>
<circle cx="39.0081" cy="39.0081" r="39.0081" transform="matrix(0.866025 0.5 -0.866025 0.5 118.57 25)" fill="white" stroke="black" stroke-width="2"/>
<circle cx="27.8916" cy="27.8916" r="27.8916" transform="matrix(0.866025 0.5 -0.866025 0.5 118.57 36.1162)" fill="#050505" stroke="black" stroke-width="2"/>
<path d="M84.7859 83.5119C76.1404 78.5203 70.793 71.6246 70.793 64.0078V75.7103C70.793 83.3271 76.1404 90.2228 84.7859 95.2143L84.7918 95.2143C103.449 105.986 133.699 105.986 152.356 95.2143L152.352 95.2143C160.998 90.2228 166.345 83.3271 166.345 75.7103V64.0078C166.345 71.6246 160.998 78.5203 152.352 83.5119L152.356 83.5119C133.699 94.2837 103.449 94.2836 84.7918 83.5119L84.7859 83.5119Z" fill="#CCFF00" stroke="black" stroke-width="2"/>
<circle cx="39.0081" cy="39.0081" r="39.0081" transform="matrix(0.866025 0.5 -0.866025 0.5 118.582 0)" fill="white" stroke="black" stroke-width="2"/>
<circle cx="27.8916" cy="27.8916" r="27.8916" transform="matrix(0.866025 0.5 -0.866025 0.5 118.582 11.1162)" fill="#050505" stroke="black" stroke-width="2"/>
<path d="M84.7977 58.5119C76.1521 53.5203 70.8047 46.6246 70.8047 39.0078V50.7103C70.8047 58.3271 76.1521 65.2228 84.7977 70.2143L84.8036 70.2143C103.461 80.9861 133.71 80.9861 152.368 70.2143L152.364 70.2143C161.01 65.2228 166.357 58.3271 166.357 50.7103V39.0078C166.357 46.6246 161.01 53.5203 152.364 58.5119L152.368 58.5119C133.71 69.2837 103.461 69.2836 84.8036 58.5119L84.7977 58.5119Z" fill="#CCFF00" stroke="black" stroke-width="2"/>
<path d="M132 38.3552H123.201V44H115.799V38.3552H107V33.6448H115.799V28H123.201V33.6448H132V38.3552Z" fill="white"/>
<path d="M202.198 24.1211C203.515 27.6793 206.321 30.485 209.879 31.8018L213.118 33L209.879 34.1982C206.321 35.515 203.515 38.3207 202.198 41.8789L201 45.1182L199.802 41.8789C198.485 38.3207 195.679 35.515 192.121 34.1982L188.881 33L192.121 31.8018C195.679 30.485 198.485 27.6793 199.802 24.1211L201 20.8809L202.198 24.1211Z" fill="white" stroke="black" stroke-width="2"/>
<path d="M25 76.8604C26.3203 80.1046 28.8946 82.6795 32.1387 84C28.8948 85.3204 26.3204 87.8948 25 91.1387C23.6795 87.8946 21.1046 85.3203 17.8604 84C21.1049 82.6796 23.6796 80.1049 25 76.8604Z" fill="white" stroke="black" stroke-width="2"/>
<path d="M166 65.5008C181.278 71.9785 194.561 79.7162 200.636 86.3833C206.712 93.0505 207.025 98.9442 201.53 103.203C196.035 107.461 185.02 109.861 170.096 110.051C155.173 110.242 137.122 108.212 118.586 104.26C100.049 100.308 81.9973 94.6406 67.0711 88.0862C52.1449 81.5319 41.127 74.4347 35.6283 67.8323C30.1296 61.23 30.4387 55.4689 36.5104 51.3915C42.582 47.3141 55.7241 44.964 71 45.0005" stroke="black" stroke-width="6"/>
</svg>
