<svg width="248" height="210" viewBox="0 0 248 210" fill="none" xmlns="http://www.w3.org/2000/svg">
<path d="M115.933 102.445C118.111 101.188 121.642 101.188 123.82 102.445L202.767 148.025C203.856 148.654 204.401 149.478 204.401 150.302C204.401 151.126 203.856 151.95 202.767 152.579L132.78 192.986C130.602 194.243 127.071 194.243 124.893 192.986L45.946 147.406C44.8571 146.777 44.3126 145.953 44.3125 145.129C44.3124 144.305 44.8569 143.481 45.946 142.852L115.933 102.445Z" fill="black"/>
<path d="M44.3125 137.248C44.3126 138.072 44.8571 138.896 45.946 139.525V150.557C44.8571 149.928 44.3126 149.104 44.3125 148.28V137.248Z" fill="black"/>
<path d="M202.767 144.698C203.856 144.069 204.401 143.245 204.401 142.421V153.453C204.401 154.277 203.856 155.101 202.767 155.73V144.698Z" fill="black"/>
<path d="M45.946 139.525L124.893 185.105V196.137L45.946 150.557V139.525Z" fill="black"/>
<path d="M132.78 185.105L202.767 144.698V155.73L132.78 196.137V185.105Z" fill="black"/>
<path d="M124.893 185.105C127.071 186.362 130.602 186.362 132.78 185.105V196.137C130.602 197.395 127.071 197.395 124.893 196.137V185.105Z" fill="black"/>
<path d="M45.946 139.525C44.8571 138.896 44.3126 138.072 44.3125 137.248V148.28C44.3126 149.104 44.8571 149.928 45.946 150.557M45.946 139.525V150.557M45.946 139.525L124.893 185.105M45.946 150.557L124.893 196.137M204.401 142.421C204.401 142.421 204.401 142.42 204.401 142.421ZM204.401 142.421C204.401 143.245 203.856 144.069 202.767 144.698M204.401 142.421V153.453C204.401 154.277 203.856 155.101 202.767 155.73M202.767 144.698V155.73M202.767 144.698L132.78 185.105M202.767 155.73L132.78 196.137M124.893 185.105V196.137M124.893 185.105C127.071 186.362 130.602 186.362 132.78 185.105M124.893 196.137C127.071 197.395 130.602 197.395 132.78 196.137M132.78 185.105V196.137" stroke="black" stroke-width="2" stroke-linejoin="round"/>
<path d="M44.3125 117.097C44.3126 117.921 44.8571 118.745 45.946 119.373L124.893 164.953C127.071 166.211 130.602 166.211 132.78 164.953L202.767 124.546C203.856 123.918 204.401 123.093 204.401 122.269V150.302C204.401 151.126 203.856 151.95 202.767 152.579L132.78 192.986C130.602 194.243 127.071 194.243 124.893 192.986L45.946 147.406C44.8571 146.777 44.3126 145.953 44.3125 145.129V117.097Z" fill="white" stroke="black" stroke-width="2" stroke-linejoin="round"/>
<rect width="100.268" height="89.9212" rx="4.55363" transform="matrix(0.866025 0.5 -0.866025 0.5 119.875 72)" fill="white" stroke="black" stroke-width="2"/>
<path d="M82 50.4291L98.3704 60.4034L116 50.4291L98.5278 41L82 50.4291Z" fill="white"/>
<path d="M98.3704 60.4034L82 50.4291V105.026L98.3704 115V60.4034Z" fill="black"/>
<path d="M98.3704 60.4034V115L116 105.026V50.4291L98.3704 60.4034Z" fill="#CCFF00"/>
<path d="M115 104.442L99.3701 113.285V60.9854L115 52.1436V104.442ZM97.3701 60.9648V113.22L83 104.464V52.209L97.3701 60.9648ZM113.932 50.4492L98.3887 59.2432L83.9678 50.457L98.54 42.1426L113.932 50.4492Z" stroke="black" stroke-width="2" stroke-linejoin="round"/>
<path d="M107 44.4291L123.37 54.4034L141 44.4291L123.528 35L107 44.4291Z" fill="white"/>
<path d="M123.37 54.4034L107 44.4291V120.026L123.37 130V54.4034Z" fill="black"/>
<path d="M123.37 54.4034V130L141 120.026V44.4291L123.37 54.4034Z" fill="#CCFF00"/>
<path d="M140 119.442L124.37 128.285V54.9854L140 46.1436V119.442ZM122.37 54.9648V128.22L108 119.464V46.209L122.37 54.9648ZM138.932 44.4492L123.389 53.2432L108.968 44.457L123.54 36.1426L138.932 44.4492Z" stroke="black" stroke-width="2" stroke-linejoin="round"/>
<path d="M133 79.4291L149.37 89.4034L167 79.4291L149.528 70L133 79.4291Z" fill="white"/>
<path d="M149.37 89.4034L133 79.4291V135.026L149.37 145V89.4034Z" fill="black"/>
<path d="M149.37 89.4034V145L167 135.026V79.4291L149.37 89.4034Z" fill="#CCFF00"/>
<path d="M166 134.442L150.37 143.285V89.9854L166 81.1436V134.442ZM148.37 89.9648V143.22L134 134.464V81.209L148.37 89.9648ZM164.932 79.4492L149.389 88.2432L134.968 79.457L149.54 71.1426L164.932 79.4492Z" stroke="black" stroke-width="2" stroke-linejoin="round"/>
<path d="M193.198 78.1211C194.515 81.6793 197.321 84.485 200.879 85.8018L204.118 87L200.879 88.1982C197.321 89.515 194.515 92.3207 193.198 95.8789L192 99.1182L190.802 95.8789C189.485 92.3207 186.679 89.515 183.121 88.1982L179.881 87L183.121 85.8018C186.679 84.485 189.485 81.6793 190.802 78.1211L192 74.8809L193.198 78.1211Z" fill="white" stroke="black" stroke-width="2"/>
<path d="M61.1182 32.2012C62.4349 35.7595 65.2405 38.5651 68.7988 39.8818L69.1182 40L68.7988 40.1182C65.2405 41.4349 62.4349 44.2405 61.1182 47.7988L61 48.1182L60.8818 47.7988C59.5651 44.2405 56.7595 41.4349 53.2012 40.1182L52.8809 40L53.2012 39.8818C56.7595 38.5651 59.5651 35.7595 60.8818 32.2012L61 31.8809L61.1182 32.2012Z" fill="white" stroke="black" stroke-width="2"/>
<path d="M57 164.747C58.289 167.497 60.5017 169.711 63.252 171C60.502 172.289 58.2891 174.502 57 177.252C55.7108 174.502 53.4974 172.289 50.7471 171C53.4977 169.711 55.7109 167.498 57 164.747Z" fill="white" stroke="black" stroke-width="2"/>
<path d="M56.5 140.5L111.5 172.254" stroke="black" stroke-width="2" stroke-linecap="round"/>
<rect x="0.866025" y="1.5" width="7.90517" height="8.02319" rx="3.95258" transform="matrix(0.866025 0.5 0 1 53.116 133.567)" fill="#CCFF00" stroke="black" stroke-width="2"/>
<rect x="0.866025" y="1.5" width="7.90517" height="8.02319" rx="3.95258" transform="matrix(0.866025 0.5 0 1 106.116 163.567)" fill="#CCFF00" stroke="black" stroke-width="2"/>
<path d="M192 142.045L149.643 166.5" stroke="black" stroke-width="2" stroke-linecap="round"/>
<path d="M167.355 162L149.998 172.021" stroke="black" stroke-width="2" stroke-linecap="round"/>
<path d="M192.355 147L174.998 157.021" stroke="black" stroke-width="2" stroke-linecap="round"/>
</svg>
