<svg width="248" height="207" viewBox="0 0 248 207" fill="none" xmlns="http://www.w3.org/2000/svg">
<path d="M120.097 105.42C122.367 104.109 126.049 104.109 128.319 105.42L210.624 152.939C211.76 153.594 212.327 154.453 212.327 155.312C212.327 156.171 211.76 157.03 210.624 157.686L137.66 199.812C135.39 201.123 131.708 201.123 129.438 199.812L47.1326 152.293C45.9975 151.637 45.4298 150.778 45.4297 149.919C45.4295 149.06 45.9972 148.201 47.1326 147.545L120.097 105.42Z" fill="black"/>
<path d="M45.4297 141.703C45.4298 142.562 45.9975 143.421 47.1326 144.076V155.578C45.9975 154.922 45.4298 154.063 45.4297 153.204V141.703Z" fill="black"/>
<path d="M210.624 149.469C211.76 148.814 212.327 147.954 212.327 147.095V158.597C212.327 159.456 211.76 160.315 210.624 160.971V149.469Z" fill="black"/>
<path d="M47.1326 144.076L129.438 191.595V203.097L47.1326 155.578V144.076Z" fill="black"/>
<path d="M137.66 191.595L210.624 149.469V160.971L137.66 203.097V191.595Z" fill="black"/>
<path d="M129.438 191.595C131.708 192.906 135.39 192.906 137.66 191.595V203.097C135.39 204.408 131.708 204.408 129.438 203.097V191.595Z" fill="black"/>
<path d="M47.1326 144.076C45.9975 143.421 45.4298 142.562 45.4297 141.703V153.204C45.4298 154.063 45.9975 154.922 47.1326 155.578M47.1326 144.076V155.578M47.1326 144.076L129.438 191.595M47.1326 155.578L129.438 203.097M212.327 147.095C212.327 147.095 212.327 147.095 212.327 147.095ZM212.327 147.095C212.327 147.954 211.76 148.814 210.624 149.469M212.327 147.095V158.597C212.327 159.456 211.76 160.315 210.624 160.971M210.624 149.469V160.971M210.624 149.469L137.66 191.595M210.624 160.971L137.66 203.097M129.438 191.595V203.097M129.438 191.595C131.708 192.906 135.39 192.906 137.66 191.595M129.438 203.097C131.708 204.408 135.39 204.408 137.66 203.097M137.66 191.595V203.097" stroke="black" stroke-width="1.91694" stroke-linejoin="round"/>
<path d="M45 81C45.0001 81.859 45.5678 82.718 46.703 83.3733L129.008 130.892C131.279 132.203 134.96 132.203 137.231 130.892L210.195 88.7666C211.33 88.1112 211.898 87.2516 211.898 86.3926V154.894C211.898 155.753 211.33 156.613 210.195 157.268L137.231 199.394C134.96 200.705 131.279 200.705 129.008 199.394L46.703 151.875C45.5678 151.22 45.0001 150.361 45 149.502V81Z" fill="white" stroke="black" stroke-width="1.91694" stroke-linejoin="round"/>
<rect x="0.866025" y="1.5" width="7.90517" height="43" rx="3.95258" transform="matrix(0.866025 0.5 0 1 65.116 105.567)" fill="white" stroke="black" stroke-width="2"/>
<rect x="-0.866025" y="1.5" width="7.90517" height="43" rx="3.95258" transform="matrix(-0.866025 0.5 0 1 195.962 110.433)" fill="white" stroke="black" stroke-width="2"/>
<rect x="0.866025" y="1.5" width="7.90517" height="43" rx="3.95258" transform="matrix(0.866025 0.5 0 1 84.116 116.567)" fill="#CCFF00" stroke="black" stroke-width="2"/>
<rect x="-0.866025" y="1.5" width="7.90517" height="43" rx="3.95258" transform="matrix(-0.866025 0.5 0 1 176.962 121.433)" fill="#CCFF00" stroke="black" stroke-width="2"/>
<rect x="0.866025" y="1.5" width="7.90517" height="43" rx="3.95258" transform="matrix(0.866025 0.5 0 1 103.116 127.567)" fill="white" stroke="black" stroke-width="2"/>
<rect x="-0.866025" y="1.5" width="7.90517" height="43" rx="3.95258" transform="matrix(-0.866025 0.5 0 1 157.962 132.433)" fill="white" stroke="black" stroke-width="2"/>
<rect width="104.533" height="93.7461" rx="4.74732" transform="matrix(0.866025 0.5 -0.866025 0.5 124.207 35)" fill="white" stroke="black" stroke-width="1.91694"/>
<rect width="80.2704" height="19.6896" rx="9.84478" transform="matrix(0.866025 0.5 -0.866025 0.5 103.594 59.1709)" fill="#CCFF00" stroke="black" stroke-width="2.01755"/>
<path d="M133 132.5L133 200" stroke="black" stroke-width="2"/>
<circle cx="29.2586" cy="29.2586" r="29.2586" transform="matrix(0.866025 0.5 0 1 101 16)" fill="#CCFF00" stroke="black" stroke-width="1.80127"/>
<circle cx="21.5714" cy="21.5714" r="21.5714" transform="matrix(0.866025 0.5 0 1 107.547 28.2969)" fill="black"/>
<path d="M118.165 52.2919C118.304 52.6083 118.464 52.9287 118.645 53.2529C119.336 54.497 120.313 55.7764 121.48 56.9772C121.879 57.388 122.301 57.785 122.743 58.178C123.53 58.8639 124.381 59.5085 125.266 60.0785C125.535 60.2534 125.81 60.4204 126.089 60.5816C126.368 60.7428 126.644 60.8941 126.913 61.0297C127.798 61.4817 128.649 61.8198 129.436 62.0418C129.878 62.1637 130.3 62.2502 130.698 62.2993C131.866 62.4506 132.84 62.2934 133.534 61.8492C133.714 61.7372 133.874 61.5977 134.014 61.4424C134.16 61.2793 134.286 61.0965 134.385 60.8902C134.572 60.5069 134.674 60.047 134.674 59.5085C134.674 56.1793 130.831 51.2601 126.093 48.5244C121.354 45.7887 117.511 46.2702 117.511 49.5994C117.511 50.134 117.61 50.7098 117.801 51.3151C117.892 51.6316 118.018 51.9598 118.165 52.2919ZM126.089 68.3014C122.61 66.2928 119.598 63.2603 117.797 60.2161C117.61 60.6032 117.508 61.0631 117.508 61.6016C117.508 64.9308 121.351 69.85 126.089 72.5857C130.828 75.3215 134.671 74.8439 134.671 71.5107C134.671 70.9762 134.572 70.4003 134.382 69.7911C132.581 70.756 129.568 70.3099 126.089 68.3014Z" fill="white"/>
<path d="M132.53 64.2703C132.268 64.284 131.992 64.2821 131.706 64.2624C131.383 64.2408 131.046 64.1956 130.698 64.1288C129.323 63.8694 127.761 63.266 126.089 62.301C124.418 61.3361 122.856 60.1353 121.48 58.8067C121.133 58.4726 120.796 58.1326 120.473 57.7769C120.187 57.4703 119.911 57.1499 119.649 56.8335C118.941 55.9767 118.315 55.0962 117.794 54.2098C117.606 54.5905 117.509 55.063 117.508 55.5973C117.508 56.1319 117.607 56.7077 117.797 57.317C117.892 57.6354 118.022 57.9655 118.168 58.2977C118.308 58.6141 118.468 58.9344 118.648 59.2587C120.129 61.9257 122.907 64.7479 126.093 66.5874C129.279 68.4269 132.057 68.8121 133.537 67.855C133.718 67.743 133.878 67.6035 134.017 67.4482C134.164 67.2851 134.29 67.1023 134.388 66.8959C134.576 66.5088 134.678 66.0489 134.678 65.5104C134.678 64.9758 134.579 64.4 134.392 63.7927C133.864 64.0737 133.238 64.231 132.53 64.2703Z" fill="white"/>
<path d="M125.992 30.9361C119.441 27.1898 112.889 26.3018 107.891 29.1601L120.69 21.8409C125.689 18.9826 132.24 19.8706 138.792 23.6169C152.93 31.7015 164.392 51.3629 164.392 67.5321C164.392 75.0246 161.892 81.088 156.894 83.9464L144.094 91.2655C149.092 88.4072 151.592 82.3438 151.592 74.8512C151.592 58.6821 140.13 39.0206 125.992 30.9361Z" fill="white" stroke="black" stroke-width="1.80127"/>
<mask id="path-18-inside-1_10442_12417" fill="white">
<path d="M30.5703 95L49.14 105.721L30.5703 116.442L12.0007 105.721L30.5703 95Z"/>
</mask>
<path d="M30.5703 95L49.14 105.721L30.5703 116.442L12.0007 105.721L30.5703 95Z" fill="white"/>
<path d="M30.5703 95L32.2304 94.0415L30.5703 93.0831L28.9102 94.0415L30.5703 95ZM30.5703 95L28.9102 95.9585L47.4798 106.68L49.14 105.721L50.8001 104.763L32.2304 94.0415L30.5703 95ZM12.0007 105.721L13.6608 106.68L32.2304 95.9585L30.5703 95L28.9102 94.0415L10.3405 104.763L12.0007 105.721Z" fill="black" mask="url(#path-18-inside-1_10442_12417)"/>
<rect width="21.4424" height="21.4424" transform="matrix(0.866025 0.5 0 1 12 105.721)" fill="black"/>
<path d="M48.3103 107.158V126.685L31.4 136.448V116.921L48.3103 107.158Z" fill="white" stroke="black" stroke-width="1.91694"/>
<mask id="path-22-inside-2_10442_12417" fill="white">
<path d="M216.449 16L237.895 28.3818L216.449 40.7635L195.003 28.3818L216.449 16Z"/>
</mask>
<path d="M216.449 16L237.895 28.3818L216.449 40.7635L195.003 28.3818L216.449 16Z" fill="white"/>
<path d="M216.449 16L217.794 15.2237L216.449 14.4474L215.105 15.2237L216.449 16ZM216.449 16L215.105 16.7763L236.55 29.1581L237.895 28.3818L239.24 27.6054L217.794 15.2237L216.449 16ZM195.003 28.3818L196.348 29.1581L217.794 16.7763L216.449 16L215.105 15.2237L193.659 27.6054L195.003 28.3818Z" fill="black" mask="url(#path-22-inside-2_10442_12417)"/>
<rect width="24.7635" height="24.7635" transform="matrix(0.866025 0.5 0 1 195 28.3818)" fill="black"/>
<rect x="0.672316" y="0.388162" width="23.2109" height="23.2109" transform="matrix(0.866025 -0.5 0 1 216.539 41.0993)" fill="white" stroke="black" stroke-width="1.55265"/>
<mask id="path-26-inside-3_10442_12417" fill="white">
<path d="M216.02 130L230.037 138.093L216.02 146.186L202.002 138.093L216.02 130Z"/>
</mask>
<path d="M216.02 130L230.037 138.093L216.02 146.186L202.002 138.093L216.02 130Z" fill="white"/>
<path d="M216.02 130L217.273 129.276L216.02 128.553L214.766 129.276L216.02 130ZM216.02 130L214.766 130.724L228.784 138.817L230.037 138.093L231.29 137.37L217.273 129.276L216.02 130ZM202.002 138.093L203.255 138.817L217.273 130.724L216.02 130L214.766 129.276L200.749 137.37L202.002 138.093Z" fill="black" mask="url(#path-26-inside-3_10442_12417)"/>
<rect width="16.1863" height="16.1863" transform="matrix(0.866025 0.5 0 1 202 138.093)" fill="black"/>
<path d="M229.411 139.178V153.917L216.646 161.287V146.548L229.411 139.178Z" fill="white" stroke="black" stroke-width="1.44705"/>
</svg>
