<svg width="248" height="210" viewBox="0 0 248 210" fill="none" xmlns="http://www.w3.org/2000/svg">
<g clip-path="url(#clip0_10442_12274)">
<path d="M133.222 195.187V132.734L95.4966 195.187C93.9539 197.859 90.5371 198.774 87.8648 197.232C85.1926 195.689 84.277 192.272 85.8197 189.6L133.971 109.089L134.066 108.929C135.084 107.295 136.875 106.295 138.809 106.295C140.805 106.295 142.649 107.36 143.647 109.089L191.311 191.644C192.854 194.317 191.938 197.734 189.266 199.277C186.594 200.819 183.177 199.904 181.634 197.232L144.396 132.733V195.187C144.396 198.272 141.895 200.774 138.809 200.774C135.723 200.774 133.222 198.272 133.222 195.187Z" fill="white" stroke="black" stroke-width="3.23533" stroke-linecap="round" stroke-linejoin="round"/>
<path d="M214.448 115.904C213.46 115.639 212.694 115.137 212.238 114.605C211.778 114.068 211.713 113.614 211.793 113.317L215.208 100.57C215.288 100.274 215.571 99.9141 216.238 99.6787C216.898 99.4456 217.813 99.3939 218.801 99.6588C219.79 99.9236 220.555 100.425 221.011 100.958C221.471 101.495 221.537 101.949 221.458 102.245L218.042 114.992C217.963 115.288 217.679 115.649 217.011 115.884C216.351 116.117 215.437 116.169 214.448 115.904Z" fill="white" stroke="black" stroke-width="2.58826"/>
<path d="M195.545 106.789C196.691 104.017 199.287 102.919 201.101 103.669L221.666 112.171C223.48 112.921 224.542 115.531 223.396 118.304C222.25 121.077 219.654 122.176 217.84 121.426L197.275 112.923C195.461 112.173 194.399 109.562 195.545 106.789Z" fill="white" stroke="black" stroke-width="2.58826"/>
<path d="M196.794 122.309L59.7773 80.8972L73.5275 38.8379L203.75 94.6474L196.794 122.309Z" fill="white" stroke="black" stroke-width="3.23533" stroke-linecap="round" stroke-linejoin="round"/>
<path d="M62.7539 41.1484C66.4127 37.9649 69.7634 37.271 72.2432 38.1035V38.1045L72.25 38.1064L86.8164 44.4004L86.874 44.4248L86.9346 44.4453L88.5127 44.9854C90.6876 46.0586 92.5975 48.6215 93.4248 52.9678C94.3343 57.7457 93.6857 63.4716 91.8242 68.8652C89.9626 74.2592 86.9459 79.1555 83.292 82.335C80.0615 85.146 77.0653 85.9956 74.7334 85.5684L73.2461 85.1074L58.4551 80.5127L58.2686 80.4551C55.7283 79.6211 53.4399 76.9726 52.5068 72.0713C51.5895 67.2522 52.2494 61.1448 54.1426 55.3613C56.0374 49.5731 59.0944 44.3327 62.7539 41.1484Z" fill="black" stroke="black" stroke-width="3.23533"/>
<path d="M187.695 92.6943C190.224 90.5282 192.447 90.1306 194.013 90.6465H194.014L194.029 90.6514L203.613 94.3623L205.322 95.1387C205.324 95.1395 205.326 95.1408 205.327 95.1416C206.72 95.7955 208.037 97.4376 208.613 100.42C209.243 103.676 208.84 107.444 207.59 110.991C206.34 114.538 204.287 117.743 201.75 119.916C199.523 121.824 197.528 122.344 196.042 122.081L195.022 121.77L184.488 118.548L184.375 118.514C182.775 118.003 181.222 116.331 180.577 112.996C179.945 109.724 180.391 105.766 181.707 102.013C183.022 98.2599 185.148 94.8765 187.695 92.6943Z" fill="black" stroke="black" stroke-width="3.23533"/>
<circle cx="19.0284" cy="19.0284" r="17.4108" transform="matrix(0.188156 0.982139 -0.75648 0.654017 75.7891 28)" fill="#CCFF00" stroke="black" stroke-width="3.23533"/>
<path d="M58.7483 64.1981C58.7903 61.5774 59.3558 58.8065 60.3683 56.26C61.3807 53.7135 62.7914 51.5142 64.4095 49.9593C66.0276 48.4045 67.7752 47.5692 69.416 47.5662C71.0568 47.5633 72.5117 48.3929 73.5839 49.9428" stroke="black" stroke-width="3.23533" stroke-linecap="round"/>
<path d="M193.562 90.4424C196.581 92.3297 200.617 96.6143 197.282 106.619C193.885 116.81 187.522 119.183 185.797 118.913" stroke="black" stroke-width="3.23533" stroke-linecap="round" stroke-linejoin="round"/>
<rect x="179.312" y="78.7949" width="3.55886" height="4.20593" transform="rotate(27.2832 179.312 78.7949)" fill="black"/>
<path d="M167.362 67.2412C168.661 64.5367 171.314 63.5842 173.083 64.4337L193.144 74.0642C194.914 74.9137 195.83 77.5794 194.532 80.284C193.233 82.9887 190.58 83.9419 188.81 83.0924L168.749 73.462C166.98 72.6124 166.064 69.946 167.362 67.2412Z" fill="white" stroke="black" stroke-width="2.58826"/>
<path d="M177.711 67.1475C178.098 70.3412 176.414 73.4282 173.519 74.8318L173.02 75.074" stroke="black" stroke-width="3.23533" stroke-linecap="round" stroke-linejoin="round"/>
<path d="M189.193 72.6475L189.198 72.7086C189.492 75.9381 187.92 79.0528 185.148 80.7358" stroke="black" stroke-width="3.23533" stroke-linecap="round" stroke-linejoin="round"/>
<path d="M125.457 104.33V100.957L162.931 112.442L159.266 123.604L130.732 112.136C127.545 110.855 125.457 107.765 125.457 104.33Z" fill="#CCFF00" stroke="black" stroke-width="3.23533" stroke-linecap="round" stroke-linejoin="round"/>
<path d="M162.012 118.913L177.38 127.786" stroke="black" stroke-width="3.23533" stroke-linecap="round" stroke-linejoin="round"/>
<path d="M175.813 127.727L175.911 127.605L175.976 127.464C176.444 126.462 176.881 126.073 177.167 125.936C177.396 125.826 177.71 125.79 178.239 126.037L178.281 126.057L178.325 126.073L190.961 130.885C191.235 131.02 191.531 131.36 191.645 132.044C191.759 132.735 191.652 133.644 191.219 134.572C190.787 135.499 190.16 136.166 189.557 136.522C188.968 136.87 188.522 136.868 188.241 136.751L176.617 129.946L176.565 129.915L176.51 129.89C176.202 129.746 175.897 129.365 175.76 128.792C175.614 128.177 175.761 127.791 175.813 127.727Z" fill="#CCFF00" stroke="black" stroke-width="2.58826"/>
<path d="M163.335 29.0863C160.498 32.3502 156.376 34.2125 152.051 34.1831L148.115 34.1557L151.085 36.7392C154.349 39.5767 156.211 43.6983 156.181 48.0231L156.156 51.9595L158.737 48.9888C161.575 45.7248 165.697 43.8638 170.022 43.8932L173.96 43.9192L170.988 41.3371C167.724 38.4996 165.862 34.3767 165.891 30.0519L165.919 26.1153L163.335 29.0863Z" fill="white" stroke="black" stroke-width="2.27977"/>
<path d="M11.0343 40.2972C11.6573 44.0399 10.6142 47.868 8.17853 50.7772L7.95995 51.0383L8.29583 50.9824C12.0385 50.3594 15.8666 51.4025 18.7758 53.8382L19.0369 54.0568L18.981 53.7209C18.358 49.9782 19.4011 46.1501 21.8368 43.2409L22.0562 42.9794L21.7195 43.0358C17.9768 43.6588 14.1487 42.6156 11.2395 40.1799L10.978 39.9605L11.0343 40.2972Z" fill="white" stroke="black" stroke-width="2"/>
<path d="M87.7128 129.369C85.361 131.292 82.4087 132.33 79.3714 132.303C81.2933 134.655 82.3314 137.607 82.3042 140.644C84.6561 138.722 87.6088 137.684 90.6461 137.712C88.7237 135.36 87.6855 132.407 87.7128 129.369Z" fill="white" stroke="black" stroke-width="2"/>
</g>
<defs>
<clipPath id="clip0_10442_12274">
<rect width="248" height="210" fill="white"/>
</clipPath>
</defs>
</svg>
