<svg width="6" height="9" viewBox="0 0 6 9" fill="none" xmlns="http://www.w3.org/2000/svg">
<path d="M3.68541 4.28216H2.29978V8.50875C2.29978 8.57327 2.31471 8.63715 2.34371 8.69675C2.37271 8.75635 2.41522 8.8105 2.46881 8.85612C2.5224 8.90173 2.58602 8.93792 2.65604 8.96261C2.72606 8.98729 2.80111 9 2.8769 9H3.1083C3.18408 9 3.25913 8.98729 3.32915 8.96261C3.39917 8.93792 3.46279 8.90173 3.51638 8.85612C3.56997 8.8105 3.61248 8.75635 3.64148 8.69675C3.67049 8.63715 3.68541 8.57327 3.68541 8.50875V4.28216Z" fill="#2EC94C"/>
<path d="M5.91351 3.53321L3.52329 0.233669C3.47196 0.162702 3.40025 0.104019 3.31492 0.0631427C3.2296 0.0222665 3.13346 0.000540801 3.03555 9.96685e-06C2.93764 -0.000520867 2.84118 0.0201606 2.75525 0.0601083C2.66932 0.100056 2.59674 0.157956 2.54434 0.228361L0.08969 3.5279C0.0343505 3.60221 0.00347033 3.6878 0.00027578 3.77573C-0.00291877 3.86367 0.0216895 3.95073 0.0715297 4.0278C0.12137 4.10488 0.194613 4.16914 0.283606 4.21389C0.372599 4.25863 0.474075 4.28221 0.577434 4.28216H5.42231C5.52506 4.28225 5.62598 4.25898 5.71464 4.21476C5.8033 4.17055 5.87648 4.10698 5.92662 4.03063C5.97677 3.95429 6.00205 3.86793 5.99987 3.78048C5.99769 3.69304 5.96811 3.60767 5.91421 3.53321H5.91351Z" fill="#2EC94C"/>
</svg>
