<svg width="16" height="16" viewBox="0 0 16 16" fill="none" xmlns="http://www.w3.org/2000/svg">
<rect x="3" y="2" width="10" height="12" rx="3" fill="white"/>
<path d="M3.75 4.76923C3.75 4.35502 3.41421 4.01923 3 4.01923C2.58579 4.01923 2.25 4.35502 2.25 4.76923H3H3.75ZM13.75 4.76923C13.75 4.35502 13.4142 4.01923 13 4.01923C12.5858 4.01923 12.25 4.35502 12.25 4.76923H13H13.75ZM13 4.30769H12.25C12.25 4.47607 12.0706 4.86648 11.2212 5.25851C10.4356 5.62113 9.29743 5.86538 8 5.86538V6.61538V7.36538C9.46399 7.36538 10.8259 7.09304 11.8498 6.62045C12.8101 6.17725 13.75 5.41382 13.75 4.30769H13ZM8 6.61538V5.86538C6.70257 5.86538 5.56444 5.62113 4.77876 5.25851C3.92937 4.86648 3.75 4.47607 3.75 4.30769H3H2.25C2.25 5.41382 3.18992 6.17725 4.15017 6.62045C5.17413 7.09304 6.53601 7.36538 8 7.36538V6.61538ZM3 4.30769H3.75C3.75 4.13932 3.92937 3.7489 4.77876 3.35688C5.56444 2.99425 6.70257 2.75 8 2.75V2V1.25C6.53601 1.25 5.17413 1.52234 4.15017 1.99494C3.18992 2.43813 2.25 3.20156 2.25 4.30769H3ZM8 2V2.75C9.29743 2.75 10.4356 2.99425 11.2212 3.35688C12.0706 3.7489 12.25 4.13932 12.25 4.30769H13H13.75C13.75 3.20156 12.8101 2.43813 11.8498 1.99494C10.8259 1.52234 9.46399 1.25 8 1.25V2ZM13 8.46154H12.25C12.25 8.42026 12.2752 8.47431 12.1138 8.61514C11.9541 8.75456 11.6797 8.91424 11.2758 9.06339C10.4737 9.35953 9.3157 9.55769 8 9.55769V10.3077V11.0577C9.44572 11.0577 10.7877 10.8426 11.7953 10.4705C12.2962 10.2856 12.754 10.0475 13.1003 9.74515C13.445 9.44424 13.75 9.01262 13.75 8.46154H13ZM8 10.3077V9.55769C6.6843 9.55769 5.52628 9.35953 4.72425 9.06339C4.3203 8.91424 4.04586 8.75456 3.88615 8.61514C3.72482 8.47431 3.75 8.42026 3.75 8.46154H3H2.25C2.25 9.01262 2.555 9.44424 2.8997 9.74515C3.24602 10.0475 3.70381 10.2856 4.20469 10.4705C5.21229 10.8426 6.55428 11.0577 8 11.0577V10.3077ZM13 12.1538H12.25C12.25 12.1126 12.2752 12.1666 12.1138 12.3074C11.9541 12.4469 11.6797 12.6066 11.2758 12.7557C10.4737 13.0518 9.3157 13.25 8 13.25V14V14.75C9.44572 14.75 10.7877 14.5349 11.7953 14.1628C12.2962 13.9779 12.754 13.7398 13.1003 13.4375C13.445 13.1365 13.75 12.7049 13.75 12.1538H13ZM8 14V13.25C6.6843 13.25 5.52628 13.0518 4.72425 12.7557C4.3203 12.6066 4.04586 12.4469 3.88615 12.3074C3.72482 12.1666 3.75 12.1126 3.75 12.1538H3H2.25C2.25 12.7049 2.555 13.1365 2.8997 13.4375C3.24602 13.7398 3.70381 13.9779 4.20469 14.1628C5.21229 14.5349 6.55428 14.75 8 14.75V14ZM3 4.76923H2.25V12.1538H3H3.75V4.76923H3ZM13 4.76923H12.25V12.1538H13H13.75V4.76923H13Z" fill="black"/>
</svg>
