<svg width="56" height="15" viewBox="0 0 56 15" fill="none" xmlns="http://www.w3.org/2000/svg">
<mask id="path-1-outside-1_11746_10668" maskUnits="userSpaceOnUse" x="-0.316406" y="-0.0791016" width="57" height="15" fill="black">
<rect fill="white" x="-0.316406" y="-0.0791016" width="57" height="15"/>
<path d="M6.0902 2.01181V12.9209H4.11399V3.93475H4.05007L1.49858 5.56472V3.75364L4.20987 2.01181H6.0902ZM8.86009 12.9209V11.4933L12.6474 7.78063C13.0096 7.41486 13.3114 7.08993 13.5529 6.80584C13.7944 6.52175 13.9755 6.24654 14.0962 5.9802C14.217 5.71387 14.2773 5.42978 14.2773 5.12793C14.2773 4.78347 14.1992 4.48872 14.043 4.2437C13.8867 3.99512 13.6719 3.80336 13.3984 3.66841C13.125 3.53347 12.8143 3.466 12.4663 3.466C12.1076 3.466 11.7933 3.54057 11.5234 3.68972C11.2536 3.83532 11.044 4.04306 10.8949 4.31294C10.7493 4.58283 10.6765 4.90421 10.6765 5.27708H8.79616C8.79616 4.58461 8.95419 3.98269 9.27024 3.47132C9.58629 2.95996 10.0213 2.56401 10.5753 2.28347C11.1328 2.00293 11.772 1.86266 12.4929 1.86266C13.2244 1.86266 13.8672 1.99938 14.4212 2.27282C14.9751 2.54625 15.4048 2.9209 15.7102 3.39675C16.0192 3.8726 16.1737 4.41593 16.1737 5.02672C16.1737 5.4351 16.0955 5.83638 15.9393 6.23056C15.783 6.62473 15.5078 7.06152 15.1136 7.54093C14.723 8.02033 14.1744 8.60094 13.4677 9.28276L11.5874 11.195V11.2696H16.3388V12.9209H8.86009ZM24.0092 10.8754V10.3002C24.0092 9.87757 24.098 9.48873 24.2756 9.13361C24.4567 8.7785 24.7195 8.49263 25.0639 8.27601C25.4084 8.05939 25.8256 7.95108 26.3157 7.95108C26.82 7.95108 27.2425 8.05939 27.5835 8.27601C27.9244 8.48908 28.1818 8.77317 28.3558 9.12828C28.5334 9.4834 28.6222 9.87402 28.6222 10.3002V10.8754C28.6222 11.298 28.5334 11.6869 28.3558 12.042C28.1783 12.3971 27.9173 12.683 27.5728 12.8996C27.2319 13.1162 26.8129 13.2245 26.3157 13.2245C25.8185 13.2245 25.3977 13.1162 25.0533 12.8996C24.7088 12.683 24.4478 12.3971 24.2702 12.042C24.0962 11.6869 24.0092 11.298 24.0092 10.8754ZM25.3995 10.3002V10.8754C25.3995 11.156 25.467 11.4134 25.6019 11.6478C25.7369 11.8822 25.9748 11.9994 26.3157 11.9994C26.6602 11.9994 26.8963 11.884 27.0241 11.6531C27.1555 11.4188 27.2212 11.1595 27.2212 10.8754V10.3002C27.2212 10.0161 27.1591 9.75684 27.0348 9.52246C26.9105 9.28453 26.6708 9.16557 26.3157 9.16557C25.9819 9.16557 25.7457 9.28453 25.6072 9.52246C25.4688 9.75684 25.3995 10.0161 25.3995 10.3002ZM18.4641 4.63255V4.05726C18.4641 3.63113 18.5547 3.2405 18.7358 2.88539C18.9169 2.53027 19.1797 2.24618 19.5241 2.03311C19.8686 1.81649 20.2859 1.70818 20.7759 1.70818C21.2766 1.70818 21.6974 1.81649 22.0384 2.03311C22.3828 2.24618 22.642 2.53027 22.8161 2.88539C22.9901 3.2405 23.0771 3.63113 23.0771 4.05726V4.63255C23.0771 5.05868 22.9883 5.44931 22.8107 5.80442C22.6367 6.15598 22.3775 6.4383 22.033 6.65137C21.6886 6.86444 21.2695 6.97097 20.7759 6.97097C20.2752 6.97097 19.8526 6.86444 19.5082 6.65137C19.1673 6.4383 18.908 6.15421 18.7305 5.79909C18.5529 5.44398 18.4641 5.05513 18.4641 4.63255ZM19.8651 4.05726V4.63255C19.8651 4.91664 19.9308 5.17587 20.0621 5.41024C20.1971 5.64107 20.435 5.75648 20.7759 5.75648C21.1168 5.75648 21.3512 5.64107 21.479 5.41024C21.6104 5.17587 21.6761 4.91664 21.6761 4.63255V4.05726C21.6761 3.77317 21.614 3.51394 21.4897 3.27956C21.3654 3.04164 21.1275 2.92267 20.7759 2.92267C20.4386 2.92267 20.2024 3.04164 20.0675 3.27956C19.9325 3.51749 19.8651 3.77672 19.8651 4.05726ZM19.0714 12.9209L26.5714 2.01181H27.9031L20.4031 12.9209H19.0714ZM38.1436 13.0807C37.3446 13.0807 36.6522 12.9049 36.0662 12.5534C35.4803 12.2018 35.0257 11.71 34.7026 11.0779C34.383 10.4458 34.2232 9.70712 34.2232 8.86195C34.2232 8.01678 34.383 7.27637 34.7026 6.64071C35.0257 6.00506 35.4803 5.51145 36.0662 5.15989C36.6522 4.80833 37.3446 4.63255 38.1436 4.63255C38.9426 4.63255 39.6351 4.80833 40.2211 5.15989C40.807 5.51145 41.2598 6.00506 41.5794 6.64071C41.9025 7.27637 42.0641 8.01678 42.0641 8.86195C42.0641 9.70712 41.9025 10.4458 41.5794 11.0779C41.2598 11.71 40.807 12.2018 40.2211 12.5534C39.6351 12.9049 38.9426 13.0807 38.1436 13.0807ZM38.1543 11.536C38.5875 11.536 38.9498 11.417 39.2409 11.1791C39.5321 10.9376 39.7488 10.6144 39.8908 10.2096C40.0364 9.80478 40.1092 9.35378 40.1092 8.85662C40.1092 8.35591 40.0364 7.90314 39.8908 7.49831C39.7488 7.08993 39.5321 6.765 39.2409 6.52353C38.9498 6.28205 38.5875 6.16131 38.1543 6.16131C37.7104 6.16131 37.3411 6.28205 37.0463 6.52353C36.7551 6.765 36.5368 7.08993 36.3912 7.49831C36.2491 7.90314 36.1781 8.35591 36.1781 8.85662C36.1781 9.35378 36.2491 9.80478 36.3912 10.2096C36.5368 10.6144 36.7551 10.9376 37.0463 11.1791C37.3411 11.417 37.7104 11.536 38.1543 11.536ZM47.8449 4.73908V6.23056H43.0083V4.73908H47.8449ZM44.2174 12.9209V3.96671C44.2174 3.41628 44.3311 2.95818 44.5583 2.59242C44.7892 2.22665 45.0981 1.95321 45.4852 1.77211C45.8722 1.591 46.3019 1.50044 46.7742 1.50044C47.108 1.50044 47.4046 1.52708 47.6638 1.58034C47.923 1.63361 48.1148 1.68155 48.2391 1.72417L47.8556 3.21564C47.7739 3.19078 47.6709 3.16593 47.5466 3.14107C47.4223 3.11266 47.2838 3.09846 47.1311 3.09846C46.7725 3.09846 46.5186 3.18546 46.3694 3.35946C46.2238 3.52992 46.151 3.77495 46.151 4.09455V12.9209H44.2174ZM53.4992 4.73908V6.23056H48.6626V4.73908H53.4992ZM49.8717 12.9209V3.96671C49.8717 3.41628 49.9854 2.95818 50.2126 2.59242C50.4434 2.22665 50.7524 1.95321 51.1395 1.77211C51.5265 1.591 51.9562 1.50044 52.4285 1.50044C52.7623 1.50044 53.0589 1.52708 53.3181 1.58034C53.5773 1.63361 53.7691 1.68155 53.8934 1.72417L53.5099 3.21564C53.4282 3.19078 53.3252 3.16593 53.2009 3.14107C53.0766 3.11266 52.9381 3.09846 52.7854 3.09846C52.4268 3.09846 52.1729 3.18546 52.0237 3.35946C51.8781 3.52992 51.8053 3.77495 51.8053 4.09455V12.9209H49.8717Z"/>
</mask>
<path d="M6.0902 2.01181V12.9209H4.11399V3.93475H4.05007L1.49858 5.56472V3.75364L4.20987 2.01181H6.0902ZM8.86009 12.9209V11.4933L12.6474 7.78063C13.0096 7.41486 13.3114 7.08993 13.5529 6.80584C13.7944 6.52175 13.9755 6.24654 14.0962 5.9802C14.217 5.71387 14.2773 5.42978 14.2773 5.12793C14.2773 4.78347 14.1992 4.48872 14.043 4.2437C13.8867 3.99512 13.6719 3.80336 13.3984 3.66841C13.125 3.53347 12.8143 3.466 12.4663 3.466C12.1076 3.466 11.7933 3.54057 11.5234 3.68972C11.2536 3.83532 11.044 4.04306 10.8949 4.31294C10.7493 4.58283 10.6765 4.90421 10.6765 5.27708H8.79616C8.79616 4.58461 8.95419 3.98269 9.27024 3.47132C9.58629 2.95996 10.0213 2.56401 10.5753 2.28347C11.1328 2.00293 11.772 1.86266 12.4929 1.86266C13.2244 1.86266 13.8672 1.99938 14.4212 2.27282C14.9751 2.54625 15.4048 2.9209 15.7102 3.39675C16.0192 3.8726 16.1737 4.41593 16.1737 5.02672C16.1737 5.4351 16.0955 5.83638 15.9393 6.23056C15.783 6.62473 15.5078 7.06152 15.1136 7.54093C14.723 8.02033 14.1744 8.60094 13.4677 9.28276L11.5874 11.195V11.2696H16.3388V12.9209H8.86009ZM24.0092 10.8754V10.3002C24.0092 9.87757 24.098 9.48873 24.2756 9.13361C24.4567 8.7785 24.7195 8.49263 25.0639 8.27601C25.4084 8.05939 25.8256 7.95108 26.3157 7.95108C26.82 7.95108 27.2425 8.05939 27.5835 8.27601C27.9244 8.48908 28.1818 8.77317 28.3558 9.12828C28.5334 9.4834 28.6222 9.87402 28.6222 10.3002V10.8754C28.6222 11.298 28.5334 11.6869 28.3558 12.042C28.1783 12.3971 27.9173 12.683 27.5728 12.8996C27.2319 13.1162 26.8129 13.2245 26.3157 13.2245C25.8185 13.2245 25.3977 13.1162 25.0533 12.8996C24.7088 12.683 24.4478 12.3971 24.2702 12.042C24.0962 11.6869 24.0092 11.298 24.0092 10.8754ZM25.3995 10.3002V10.8754C25.3995 11.156 25.467 11.4134 25.6019 11.6478C25.7369 11.8822 25.9748 11.9994 26.3157 11.9994C26.6602 11.9994 26.8963 11.884 27.0241 11.6531C27.1555 11.4188 27.2212 11.1595 27.2212 10.8754V10.3002C27.2212 10.0161 27.1591 9.75684 27.0348 9.52246C26.9105 9.28453 26.6708 9.16557 26.3157 9.16557C25.9819 9.16557 25.7457 9.28453 25.6072 9.52246C25.4688 9.75684 25.3995 10.0161 25.3995 10.3002ZM18.4641 4.63255V4.05726C18.4641 3.63113 18.5547 3.2405 18.7358 2.88539C18.9169 2.53027 19.1797 2.24618 19.5241 2.03311C19.8686 1.81649 20.2859 1.70818 20.7759 1.70818C21.2766 1.70818 21.6974 1.81649 22.0384 2.03311C22.3828 2.24618 22.642 2.53027 22.8161 2.88539C22.9901 3.2405 23.0771 3.63113 23.0771 4.05726V4.63255C23.0771 5.05868 22.9883 5.44931 22.8107 5.80442C22.6367 6.15598 22.3775 6.4383 22.033 6.65137C21.6886 6.86444 21.2695 6.97097 20.7759 6.97097C20.2752 6.97097 19.8526 6.86444 19.5082 6.65137C19.1673 6.4383 18.908 6.15421 18.7305 5.79909C18.5529 5.44398 18.4641 5.05513 18.4641 4.63255ZM19.8651 4.05726V4.63255C19.8651 4.91664 19.9308 5.17587 20.0621 5.41024C20.1971 5.64107 20.435 5.75648 20.7759 5.75648C21.1168 5.75648 21.3512 5.64107 21.479 5.41024C21.6104 5.17587 21.6761 4.91664 21.6761 4.63255V4.05726C21.6761 3.77317 21.614 3.51394 21.4897 3.27956C21.3654 3.04164 21.1275 2.92267 20.7759 2.92267C20.4386 2.92267 20.2024 3.04164 20.0675 3.27956C19.9325 3.51749 19.8651 3.77672 19.8651 4.05726ZM19.0714 12.9209L26.5714 2.01181H27.9031L20.4031 12.9209H19.0714ZM38.1436 13.0807C37.3446 13.0807 36.6522 12.9049 36.0662 12.5534C35.4803 12.2018 35.0257 11.71 34.7026 11.0779C34.383 10.4458 34.2232 9.70712 34.2232 8.86195C34.2232 8.01678 34.383 7.27637 34.7026 6.64071C35.0257 6.00506 35.4803 5.51145 36.0662 5.15989C36.6522 4.80833 37.3446 4.63255 38.1436 4.63255C38.9426 4.63255 39.6351 4.80833 40.2211 5.15989C40.807 5.51145 41.2598 6.00506 41.5794 6.64071C41.9025 7.27637 42.0641 8.01678 42.0641 8.86195C42.0641 9.70712 41.9025 10.4458 41.5794 11.0779C41.2598 11.71 40.807 12.2018 40.2211 12.5534C39.6351 12.9049 38.9426 13.0807 38.1436 13.0807ZM38.1543 11.536C38.5875 11.536 38.9498 11.417 39.2409 11.1791C39.5321 10.9376 39.7488 10.6144 39.8908 10.2096C40.0364 9.80478 40.1092 9.35378 40.1092 8.85662C40.1092 8.35591 40.0364 7.90314 39.8908 7.49831C39.7488 7.08993 39.5321 6.765 39.2409 6.52353C38.9498 6.28205 38.5875 6.16131 38.1543 6.16131C37.7104 6.16131 37.3411 6.28205 37.0463 6.52353C36.7551 6.765 36.5368 7.08993 36.3912 7.49831C36.2491 7.90314 36.1781 8.35591 36.1781 8.85662C36.1781 9.35378 36.2491 9.80478 36.3912 10.2096C36.5368 10.6144 36.7551 10.9376 37.0463 11.1791C37.3411 11.417 37.7104 11.536 38.1543 11.536ZM47.8449 4.73908V6.23056H43.0083V4.73908H47.8449ZM44.2174 12.9209V3.96671C44.2174 3.41628 44.3311 2.95818 44.5583 2.59242C44.7892 2.22665 45.0981 1.95321 45.4852 1.77211C45.8722 1.591 46.3019 1.50044 46.7742 1.50044C47.108 1.50044 47.4046 1.52708 47.6638 1.58034C47.923 1.63361 48.1148 1.68155 48.2391 1.72417L47.8556 3.21564C47.7739 3.19078 47.6709 3.16593 47.5466 3.14107C47.4223 3.11266 47.2838 3.09846 47.1311 3.09846C46.7725 3.09846 46.5186 3.18546 46.3694 3.35946C46.2238 3.52992 46.151 3.77495 46.151 4.09455V12.9209H44.2174ZM53.4992 4.73908V6.23056H48.6626V4.73908H53.4992ZM49.8717 12.9209V3.96671C49.8717 3.41628 49.9854 2.95818 50.2126 2.59242C50.4434 2.22665 50.7524 1.95321 51.1395 1.77211C51.5265 1.591 51.9562 1.50044 52.4285 1.50044C52.7623 1.50044 53.0589 1.52708 53.3181 1.58034C53.5773 1.63361 53.7691 1.68155 53.8934 1.72417L53.5099 3.21564C53.4282 3.19078 53.3252 3.16593 53.2009 3.14107C53.0766 3.11266 52.9381 3.09846 52.7854 3.09846C52.4268 3.09846 52.1729 3.18546 52.0237 3.35946C51.8781 3.52992 51.8053 3.77495 51.8053 4.09455V12.9209H49.8717Z" fill="#CCFF00"/>
<path d="M6.0902 2.01181H7.5902V0.511807H6.0902V2.01181ZM6.0902 12.9209V14.4209H7.5902V12.9209H6.0902ZM4.11399 12.9209H2.61399V14.4209H4.11399V12.9209ZM4.11399 3.93475H5.61399V2.43475H4.11399V3.93475ZM4.05007 3.93475V2.43475H3.61184L3.24254 2.67067L4.05007 3.93475ZM1.49858 5.56472H-0.00142044V8.30292L2.30611 6.8288L1.49858 5.56472ZM1.49858 3.75364L0.687819 2.49163L-0.00142044 2.93442V3.75364H1.49858ZM4.20987 2.01181V0.511807H3.76956L3.39911 0.749798L4.20987 2.01181ZM6.0902 2.01181H4.5902V12.9209H6.0902H7.5902V2.01181H6.0902ZM6.0902 12.9209V11.4209H4.11399V12.9209V14.4209H6.0902V12.9209ZM4.11399 12.9209H5.61399V3.93475H4.11399H2.61399V12.9209H4.11399ZM4.11399 3.93475V2.43475H4.05007V3.93475V5.43475H4.11399V3.93475ZM4.05007 3.93475L3.24254 2.67067L0.691048 4.30064L1.49858 5.56472L2.30611 6.8288L4.8576 5.19882L4.05007 3.93475ZM1.49858 5.56472H2.99858V3.75364H1.49858H-0.00142044V5.56472H1.49858ZM1.49858 3.75364L2.30934 5.01565L5.02063 3.27382L4.20987 2.01181L3.39911 0.749798L0.687819 2.49163L1.49858 3.75364ZM4.20987 2.01181V3.51181H6.0902V2.01181V0.511807H4.20987V2.01181ZM8.86009 12.9209H7.36009V14.4209H8.86009V12.9209ZM8.86009 11.4933L7.81002 10.4222L7.36009 10.8633V11.4933H8.86009ZM12.6474 7.78063L13.6974 8.85178L13.7054 8.844L13.7132 8.8361L12.6474 7.78063ZM14.0962 5.9802L15.4624 6.59953V6.59953L14.0962 5.9802ZM14.043 4.2437L12.773 5.04197L12.7782 5.0502L14.043 4.2437ZM13.3984 3.66841L12.7346 5.01353H12.7346L13.3984 3.66841ZM11.5234 3.68972L12.2356 5.00987L12.2423 5.00626L12.249 5.00258L11.5234 3.68972ZM10.8949 4.31294L9.58202 3.58742L9.57835 3.59407L9.57474 3.60076L10.8949 4.31294ZM10.6765 5.27708V6.77708H12.1765V5.27708H10.6765ZM8.79616 5.27708H7.29616V6.77708H8.79616V5.27708ZM9.27024 3.47132L10.5462 4.25994V4.25994L9.27024 3.47132ZM10.5753 2.28347L9.90105 0.943536L9.89761 0.945277L10.5753 2.28347ZM14.4212 2.27282L15.0851 0.927744V0.927744L14.4212 2.27282ZM15.7102 3.39675L14.4478 4.20695L14.4521 4.21357L15.7102 3.39675ZM15.9393 6.23056L14.5448 5.6778V5.67781L15.9393 6.23056ZM15.1136 7.54093L13.955 6.58826L13.9508 6.59342L15.1136 7.54093ZM13.4677 9.28276L12.4262 8.20328L12.412 8.21699L12.3981 8.23107L13.4677 9.28276ZM11.5874 11.195L10.5178 10.1434L10.0874 10.5811V11.195H11.5874ZM11.5874 11.2696H10.0874V12.7696H11.5874V11.2696ZM16.3388 11.2696H17.8388V9.76962H16.3388V11.2696ZM16.3388 12.9209V14.4209H17.8388V12.9209H16.3388ZM8.86009 12.9209H10.3601V11.4933H8.86009H7.36009V12.9209H8.86009ZM8.86009 11.4933L9.91015 12.5645L13.6974 8.85178L12.6474 7.78063L11.5973 6.70947L7.81002 10.4222L8.86009 11.4933ZM12.6474 7.78063L13.7132 8.8361C14.0929 8.45266 14.4225 8.0989 14.6958 7.77731L13.5529 6.80584L12.41 5.83437C12.2004 6.08096 11.9263 6.37706 11.5816 6.72515L12.6474 7.78063ZM13.5529 6.80584L14.6958 7.77731C15.0042 7.41449 15.2707 7.02239 15.4624 6.59953L14.0962 5.9802L12.7301 5.36087C12.6803 5.47069 12.5846 5.62901 12.41 5.83437L13.5529 6.80584ZM14.0962 5.9802L15.4624 6.59953C15.6742 6.13231 15.7773 5.63633 15.7773 5.12793H14.2773H12.7773C12.7773 5.22322 12.7597 5.29543 12.7301 5.36087L14.0962 5.9802ZM14.2773 5.12793H15.7773C15.7773 4.55142 15.6441 3.96476 15.3077 3.4372L14.043 4.2437L12.7782 5.0502C12.7692 5.03606 12.7674 5.0275 12.7688 5.03284C12.7707 5.03982 12.7773 5.06895 12.7773 5.12793H14.2773ZM14.043 4.2437L15.3129 3.44544C15.0032 2.95272 14.5744 2.57602 14.0623 2.3233L13.3984 3.66841L12.7346 5.01353C12.7571 5.02463 12.7651 5.0319 12.7658 5.03251C12.7666 5.03321 12.7671 5.03377 12.7678 5.03455C12.7685 5.03535 12.7703 5.03756 12.773 5.04195L14.043 4.2437ZM13.3984 3.66841L14.0623 2.3233C13.555 2.07294 13.0118 1.966 12.4663 1.966V3.466V4.966C12.6167 4.966 12.695 4.994 12.7346 5.01353L13.3984 3.66841ZM12.4663 3.466V1.966C11.8955 1.966 11.3237 2.08626 10.7979 2.37686L11.5234 3.68972L12.249 5.00258C12.2629 4.99488 12.3197 4.966 12.4663 4.966V3.466ZM11.5234 3.68972L10.8113 2.36957C10.2868 2.6525 9.86944 3.06733 9.58202 3.58742L10.8949 4.31294L12.2077 5.03847C12.2124 5.02999 12.2159 5.02513 12.2175 5.02289C12.2192 5.0207 12.22 5.01993 12.22 5.01989C12.2201 5.01984 12.2206 5.01928 12.2223 5.01804C12.224 5.01677 12.2281 5.01391 12.2356 5.00987L11.5234 3.68972ZM10.8949 4.31294L9.57474 3.60076C9.28817 4.13195 9.17649 4.70879 9.17649 5.27708H10.6765H12.1765C12.1765 5.09962 12.2104 5.03371 12.215 5.02513L10.8949 4.31294ZM10.6765 5.27708V3.77708H8.79616V5.27708V6.77708H10.6765V5.27708ZM8.79616 5.27708H10.2962C10.2962 4.82002 10.3978 4.50013 10.5462 4.25994L9.27024 3.47132L7.99428 2.68271C7.51062 3.46525 7.29616 4.34919 7.29616 5.27708H8.79616ZM9.27024 3.47132L10.5462 4.25994C10.7122 3.99131 10.9366 3.78185 11.253 3.62166L10.5753 2.28347L9.89761 0.945277C9.10597 1.34617 8.46035 1.92861 7.99428 2.68271L9.27024 3.47132ZM10.5753 2.28347L11.2495 3.6234C11.5676 3.46332 11.9698 3.36266 12.4929 3.36266V1.86266V0.362659C11.5742 0.362659 10.698 0.54254 9.90105 0.94354L10.5753 2.28347ZM12.4929 1.86266V3.36266C13.0363 3.36266 13.4444 3.46349 13.7573 3.61789L14.4212 2.27282L15.0851 0.927744C14.2899 0.535265 13.4126 0.362659 12.4929 0.362659V1.86266ZM14.4212 2.27282L13.7573 3.61789C14.0902 3.78224 14.3031 3.98142 14.4478 4.20693L15.7102 3.39675L16.9726 2.58657C16.5065 1.86037 15.8601 1.31026 15.0851 0.927744L14.4212 2.27282ZM15.7102 3.39675L14.4521 4.21357C14.591 4.4275 14.6737 4.68266 14.6737 5.02672H16.1737H17.6737C17.6737 4.14919 17.4473 3.31771 16.9683 2.57993L15.7102 3.39675ZM16.1737 5.02672H14.6737C14.6737 5.23861 14.6341 5.45272 14.5448 5.6778L15.9393 6.23056L17.3337 6.78331C17.557 6.22005 17.6737 5.6316 17.6737 5.02672H16.1737ZM15.9393 6.23056L14.5448 5.67781C14.4659 5.87701 14.2918 6.1787 13.955 6.58827L15.1136 7.54093L16.2723 8.49359C16.7239 7.94434 17.1002 7.37246 17.3337 6.78331L15.9393 6.23056ZM15.1136 7.54093L13.9508 6.59342C13.6132 7.00773 13.1116 7.54193 12.4262 8.20328L13.4677 9.28276L14.5092 10.3622C15.2371 9.65995 15.8328 9.03293 16.2765 8.48844L15.1136 7.54093ZM13.4677 9.28276L12.3981 8.23107L10.5178 10.1434L11.5874 11.195L12.6569 12.2467L14.5372 10.3344L13.4677 9.28276ZM11.5874 11.195H10.0874V11.2696H11.5874H13.0874V11.195H11.5874ZM11.5874 11.2696V12.7696H16.3388V11.2696V9.76962H11.5874V11.2696ZM16.3388 11.2696H14.8388V12.9209H16.3388H17.8388V11.2696H16.3388ZM16.3388 12.9209V11.4209H8.86009V12.9209V14.4209H16.3388V12.9209ZM24.2756 9.13361L22.9393 8.4521L22.9339 8.46279L24.2756 9.13361ZM25.0639 8.27601L25.8624 9.5458V9.5458L25.0639 8.27601ZM27.5835 8.27601L26.779 9.54208L26.7885 9.54801L27.5835 8.27601ZM28.3558 9.12828L27.0088 9.78833L27.0142 9.79911L28.3558 9.12828ZM28.3558 12.042L29.6975 12.7128V12.7128L28.3558 12.042ZM27.5728 12.8996L26.7743 11.6298L26.7683 11.6336L27.5728 12.8996ZM25.0533 12.8996L24.2547 14.1694V14.1694L25.0533 12.8996ZM24.2702 12.042L22.9232 12.702L22.9286 12.7128L24.2702 12.042ZM25.6019 11.6478L26.9019 10.8994V10.8994L25.6019 11.6478ZM27.0241 11.6531L25.7157 10.9196L25.712 10.9264L27.0241 11.6531ZM27.0348 9.52246L25.7053 10.217L25.7096 10.2252L27.0348 9.52246ZM25.6072 9.52246L26.8987 10.2856L26.9036 10.2771L25.6072 9.52246ZM19.5241 2.03311L20.3132 3.30883L20.3227 3.3029L19.5241 2.03311ZM22.0384 2.03311L21.2339 3.29915L21.2416 3.30402L21.2493 3.30879L22.0384 2.03311ZM22.8161 2.88539L21.4691 3.54541V3.54541L22.8161 2.88539ZM22.8107 5.80442L21.4691 5.13359L21.4664 5.13904L22.8107 5.80442ZM22.033 6.65137L22.8221 7.92705V7.92704L22.033 6.65137ZM19.5082 6.65137L18.7132 7.92338L18.7191 7.92705L19.5082 6.65137ZM18.7305 5.79909L17.3888 6.46991V6.46992L18.7305 5.79909ZM20.0621 5.41024L18.7537 6.14375L18.7604 6.15558L18.7672 6.16729L20.0621 5.41024ZM21.479 5.41024L20.1706 4.67673L20.1669 4.6835L21.479 5.41024ZM21.4897 3.27956L20.1602 3.9741L20.1645 3.98232L21.4897 3.27956ZM20.0675 3.27956L21.3722 4.01957V4.01957L20.0675 3.27956ZM19.0714 12.9209L17.8353 12.0711L16.2198 14.4209H19.0714V12.9209ZM26.5714 2.01181V0.511807H25.7823L25.3353 1.16201L26.5714 2.01181ZM27.9031 2.01181L29.1391 2.8616L30.7546 0.511807H27.9031V2.01181ZM20.4031 12.9209V14.4209H21.1921L21.6391 13.7707L20.4031 12.9209ZM24.0092 10.8754H25.5092V10.3002H24.0092H22.5092V10.8754H24.0092ZM24.0092 10.3002H25.5092C25.5092 10.0951 25.5505 9.93794 25.6172 9.80443L24.2756 9.13361L22.9339 8.46279C22.6456 9.03951 22.5092 9.66007 22.5092 10.3002H24.0092ZM24.2756 9.13361L25.6118 9.8151C25.6674 9.7062 25.742 9.62154 25.8624 9.5458L25.0639 8.27601L24.2654 7.00623C23.6969 7.36372 23.246 7.8508 22.9393 8.45212L24.2756 9.13361ZM25.0639 8.27601L25.8624 9.5458C25.9228 9.50782 26.05 9.45108 26.3157 9.45108V7.95108V6.45108C25.6013 6.45108 24.8939 6.61096 24.2654 7.00623L25.0639 8.27601ZM26.3157 7.95108V9.45108C26.6056 9.45108 26.7319 9.51214 26.779 9.54205L27.5835 8.27601L28.3879 7.00998C27.7532 6.60665 27.0343 6.45108 26.3157 6.45108V7.95108ZM27.5835 8.27601L26.7885 9.54801C26.896 9.61523 26.9602 9.6891 27.0088 9.78831L28.3558 9.12828L29.7028 8.46826C29.4034 7.85725 28.9527 7.36293 28.3784 7.00401L27.5835 8.27601ZM28.3558 9.12828L27.0142 9.79911C27.0801 9.93087 27.1222 10.0894 27.1222 10.3002H28.6222H30.1222C30.1222 9.65861 29.9867 9.03593 29.6975 8.45746L28.3558 9.12828ZM28.6222 10.3002H27.1222V10.8754H28.6222H30.1222V10.3002H28.6222ZM28.6222 10.8754H27.1222C27.1222 11.0805 27.0809 11.2377 27.0142 11.3712L28.3558 12.042L29.6975 12.7128C29.9858 12.1361 30.1222 11.5155 30.1222 10.8754H28.6222ZM28.3558 12.042L27.0142 11.3712C26.9626 11.4743 26.8924 11.5555 26.7743 11.6298L27.5728 12.8996L28.3713 14.1694C28.9422 13.8104 29.3939 13.3199 29.6975 12.7128L28.3558 12.042ZM27.5728 12.8996L26.7683 11.6336C26.7181 11.6655 26.5938 11.7245 26.3157 11.7245V13.2245V14.7245C27.0319 14.7245 27.7457 14.5669 28.3773 14.1656L27.5728 12.8996ZM26.3157 13.2245V11.7245C26.0382 11.7245 25.9089 11.6657 25.8518 11.6298L25.0533 12.8996L24.2547 14.1694C24.8865 14.5667 25.5989 14.7245 26.3157 14.7245V13.2245ZM25.0533 12.8996L25.8518 11.6298C25.7337 11.5555 25.6635 11.4743 25.6119 11.3712L24.2702 12.042L22.9286 12.7128C23.2321 13.3199 23.6839 13.8104 24.2547 14.1694L25.0533 12.8996ZM24.2702 12.042L25.6172 11.382C25.5507 11.2463 25.5092 11.0853 25.5092 10.8754H24.0092H22.5092C22.5092 11.5108 22.6417 12.1275 22.9233 12.702L24.2702 12.042ZM25.3995 10.3002H23.8995V10.8754H25.3995H26.8995V10.3002H25.3995ZM25.3995 10.8754H23.8995C23.8995 11.4085 24.031 11.9255 24.302 12.3963L25.6019 11.6478L26.9019 10.8994C26.9005 10.897 26.9002 10.8962 26.9005 10.8968C26.9007 10.8974 26.901 10.8982 26.9011 10.8987C26.9012 10.8991 26.9009 10.898 26.9005 10.8949C26.9001 10.8916 26.8995 10.8853 26.8995 10.8754H25.3995ZM25.6019 11.6478L24.302 12.3963C24.7769 13.2211 25.6007 13.4994 26.3157 13.4994V11.9994V10.4994C26.3159 10.4994 26.3214 10.4994 26.3315 10.5003C26.3417 10.5013 26.3571 10.5032 26.377 10.5072C26.4171 10.5153 26.4757 10.5321 26.5443 10.5659C26.6978 10.6415 26.824 10.7641 26.9019 10.8994L25.6019 11.6478ZM26.3157 11.9994V13.4994C27.013 13.4994 27.8625 13.2355 28.3363 12.3799L27.0241 11.6531L25.712 10.9264C25.7965 10.7738 25.9331 10.6431 26.0925 10.5652C26.233 10.4965 26.3277 10.4994 26.3157 10.4994V11.9994ZM27.0241 11.6531L28.3326 12.3867C28.5968 11.9153 28.7212 11.4012 28.7212 10.8754H27.2212H25.7212C25.7212 10.9009 25.7184 10.9125 25.7179 10.9144C25.7176 10.9159 25.7174 10.9167 25.7157 10.9196L27.0241 11.6531ZM27.2212 10.8754H28.7212V10.3002H27.2212H25.7212V10.8754H27.2212ZM27.2212 10.3002H28.7212C28.7212 9.7889 28.6072 9.28577 28.36 8.81971L27.0348 9.52246L25.7096 10.2252C25.711 10.2279 25.7212 10.2432 25.7212 10.3002H27.2212ZM27.0348 9.52246L28.3643 8.82793C27.8968 7.93304 27.0195 7.66557 26.3157 7.66557V9.16557V10.6656C26.3343 10.6656 26.2387 10.6698 26.095 10.5984C25.9299 10.5165 25.7894 10.378 25.7053 10.217L27.0348 9.52246ZM26.3157 9.16557V7.66557C25.5812 7.66557 24.7789 7.96375 24.3109 8.76786L25.6072 9.52246L26.9036 10.2771C26.8331 10.3983 26.7155 10.5176 26.5631 10.5944C26.4242 10.6644 26.3233 10.6656 26.3157 10.6656V9.16557ZM25.6072 9.52246L24.3159 8.75937C24.0347 9.23514 23.8995 9.75983 23.8995 10.3002H25.3995H26.8995C26.8995 10.2902 26.9001 10.2841 26.9005 10.2814C26.9008 10.2787 26.901 10.2784 26.9006 10.2798C26.9002 10.2812 26.8996 10.283 26.8989 10.2848C26.8982 10.2865 26.8979 10.2868 26.8986 10.2856L25.6072 9.52246ZM18.4641 4.63255H19.9641V4.05726H18.4641H16.9641V4.63255H18.4641ZM18.4641 4.05726H19.9641C19.9641 3.85127 20.0059 3.69651 20.072 3.56688L18.7358 2.88539L17.3995 2.2039C17.1034 2.78449 16.9641 3.41098 16.9641 4.05726H18.4641ZM18.7358 2.88539L20.072 3.56688C20.1264 3.46024 20.1981 3.38 20.3132 3.30879L19.5241 2.03311L18.7351 0.757436C18.1613 1.11237 17.7074 1.60031 17.3995 2.2039L18.7358 2.88539ZM19.5241 2.03311L20.3227 3.3029C20.3831 3.26492 20.5102 3.20819 20.7759 3.20819V1.70819V0.208185C20.0615 0.208185 19.3542 0.368066 18.7256 0.763328L19.5241 2.03311ZM20.7759 1.70819V3.20819C21.06 3.20819 21.1852 3.26823 21.2339 3.29915L22.0384 2.03311L22.8428 0.767078C22.2097 0.364759 21.4933 0.208185 20.7759 0.208185V1.70819ZM22.0384 2.03311L21.2493 3.30879C21.3596 3.37706 21.4225 3.45036 21.4691 3.54541L22.8161 2.88539L24.163 2.22536C23.8616 1.61019 23.406 1.1153 22.8274 0.757436L22.0384 2.03311ZM22.8161 2.88539L21.4691 3.54541C21.5347 3.6794 21.5771 3.84182 21.5771 4.05726H23.0771H24.5771C24.5771 3.42043 24.4454 2.8016 24.163 2.22536L22.8161 2.88539ZM23.0771 4.05726H21.5771V4.63255H23.0771H24.5771V4.05726H23.0771ZM23.0771 4.63255H21.5771C21.5771 4.84327 21.535 5.00184 21.4691 5.1336L22.8107 5.80442L24.1524 6.47524C24.4416 5.89677 24.5771 5.27409 24.5771 4.63255H23.0771ZM22.8107 5.80442L21.4664 5.13904C21.421 5.23079 21.3581 5.3051 21.2439 5.37569L22.033 6.65137L22.8221 7.92704C23.3969 7.5715 23.8525 7.08117 24.1551 6.4698L22.8107 5.80442ZM22.033 6.65137L21.2439 5.37569C21.1836 5.41299 21.0519 5.47097 20.7759 5.47097V6.97097V8.47097C21.4872 8.47097 22.1935 8.31588 22.8221 7.92705L22.033 6.65137ZM20.7759 6.97097V5.47097C20.4883 5.47097 20.3544 5.41102 20.2972 5.37569L19.5082 6.65137L18.7191 7.92705C19.3509 8.31785 20.0622 8.47097 20.7759 8.47097V6.97097ZM19.5082 6.65137L20.3032 5.37937C20.1932 5.31065 20.1246 5.23327 20.0721 5.12827L18.7305 5.79909L17.3888 6.46992C17.6914 7.07515 18.1413 7.56595 18.7132 7.92336L19.5082 6.65137ZM18.7305 5.79909L20.0721 5.12827C20.0054 4.99476 19.9641 4.83763 19.9641 4.63255H18.4641H16.9641C16.9641 5.27264 17.1005 5.8932 17.3888 6.46991L18.7305 5.79909ZM19.8651 4.05726H18.3651V4.63255H19.8651H21.3651V4.05726H19.8651ZM19.8651 4.63255H18.3651C18.3651 5.15826 18.4895 5.67238 18.7537 6.14375L20.0621 5.41024L21.3706 4.67674C21.3689 4.67376 21.3687 4.67303 21.3684 4.67155C21.3679 4.66964 21.3651 4.65804 21.3651 4.63255H19.8651ZM20.0621 5.41024L18.7672 6.16729C19.2468 6.98766 20.0712 7.25648 20.7759 7.25648V5.75648V4.25648C20.769 4.25648 20.8612 4.25471 20.9965 4.32032C21.1481 4.39386 21.2763 4.51505 21.3571 4.6532L20.0621 5.41024ZM20.7759 5.75648V7.25648C21.4774 7.25648 22.3203 6.98734 22.7912 6.13699L21.479 5.41024L20.1669 4.6835C20.2496 4.53402 20.3844 4.40318 20.5447 4.32423C20.6867 4.25434 20.784 4.25648 20.7759 4.25648V5.75648ZM21.479 5.41024L22.7875 6.14375C23.0517 5.67238 23.1761 5.15826 23.1761 4.63255H21.6761H20.1761C20.1761 4.65804 20.1733 4.66964 20.1728 4.67155C20.1725 4.67303 20.1723 4.67376 20.1706 4.67674L21.479 5.41024ZM21.6761 4.63255H23.1761V4.05726H21.6761H20.1761V4.63255H21.6761ZM21.6761 4.05726H23.1761C23.1761 3.546 23.0621 3.04288 22.8149 2.57681L21.4897 3.27956L20.1645 3.98232C20.1659 3.985 20.1761 4.00034 20.1761 4.05726H21.6761ZM21.4897 3.27956L22.8192 2.58504C22.3545 1.69544 21.4841 1.42267 20.7759 1.42267V2.92267V4.42267C20.7907 4.42267 20.6925 4.42616 20.5472 4.35354C20.3813 4.27057 20.2427 4.13199 20.1602 3.97409L21.4897 3.27956ZM20.7759 2.92267V1.42267C20.0465 1.42267 19.2298 1.71599 18.7627 2.53955L20.0675 3.27956L21.3722 4.01957C21.2989 4.1489 21.1766 4.27294 21.0206 4.35152C20.8797 4.4225 20.7789 4.42267 20.7759 4.42267V2.92267ZM20.0675 3.27956L18.7627 2.53955C18.4964 3.00908 18.3651 3.52427 18.3651 4.05726H19.8651H21.3651C21.3651 4.03844 21.3672 4.03079 21.3673 4.03026C21.3675 4.02948 21.3677 4.02874 21.3682 4.02763C21.3686 4.02651 21.3698 4.02389 21.3722 4.01957L20.0675 3.27956ZM19.0714 12.9209L20.3074 13.7707L27.8074 2.8616L26.5714 2.01181L25.3353 1.16201L17.8353 12.0711L19.0714 12.9209ZM26.5714 2.01181V3.51181H27.9031V2.01181V0.511807H26.5714V2.01181ZM27.9031 2.01181L26.667 1.16201L19.167 12.0711L20.4031 12.9209L21.6391 13.7707L29.1391 2.8616L27.9031 2.01181ZM20.4031 12.9209V11.4209H19.0714V12.9209V14.4209H20.4031V12.9209ZM36.0662 12.5534L35.2945 13.8396H35.2945L36.0662 12.5534ZM34.7026 11.0779L33.364 11.7547L33.367 11.7607L34.7026 11.0779ZM34.7026 6.64071L33.3655 5.96094L33.3625 5.9669L34.7026 6.64071ZM36.0662 5.15989L36.838 6.44613V6.44613L36.0662 5.15989ZM40.2211 5.15989L39.4493 6.44613V6.44613L40.2211 5.15989ZM41.5794 6.64071L40.2392 7.31453L40.2422 7.32048L41.5794 6.64071ZM41.5794 11.0779L40.2438 10.3951L40.2407 10.401L41.5794 11.0779ZM40.2211 12.5534L39.4493 11.2671V11.2671L40.2211 12.5534ZM39.2409 11.1791L40.1901 12.3407L40.1984 12.3337L39.2409 11.1791ZM39.8908 10.2096L38.4793 9.70195L38.4754 9.71297L39.8908 10.2096ZM39.8908 7.49831L38.4741 7.99109L38.4766 7.99854L38.4793 8.00595L39.8908 7.49831ZM39.2409 6.52353L40.1984 5.36889V5.36889L39.2409 6.52353ZM37.0463 6.52353L36.0957 5.36319L36.0888 5.36889L37.0463 6.52353ZM36.3912 7.49831L34.9782 6.99458L34.9758 7.00168L36.3912 7.49831ZM36.3912 10.2096L34.9757 10.7063L34.9797 10.7172L36.3912 10.2096ZM37.0463 11.1791L36.0888 12.3337L36.0965 12.34L36.1042 12.3462L37.0463 11.1791ZM38.1436 13.0807V11.5807C37.5699 11.5807 37.1538 11.4566 36.838 11.2671L36.0662 12.5534L35.2945 13.8396C36.1505 14.3532 37.1194 14.5807 38.1436 14.5807V13.0807ZM36.0662 12.5534L36.838 11.2671C36.5024 11.0658 36.2388 10.7874 36.0382 10.3951L34.7026 11.0779L33.367 11.7607C33.8127 12.6325 34.4582 13.3378 35.2945 13.8396L36.0662 12.5534ZM34.7026 11.0779L36.0412 10.401C35.8463 10.0156 35.7232 9.51706 35.7232 8.86195H34.2232H32.7232C32.7232 9.89718 32.9196 10.8759 33.364 11.7547L34.7026 11.0779ZM34.2232 8.86195H35.7232C35.7232 8.20711 35.8462 7.70531 36.0427 7.31453L34.7026 6.64071L33.3625 5.9669C32.9197 6.84742 32.7232 7.82645 32.7232 8.86195H34.2232ZM34.7026 6.64071L36.0397 7.32048C36.241 6.9246 36.5046 6.64618 36.838 6.44613L36.0662 5.15989L35.2945 3.87365C34.456 4.37673 33.8105 5.08552 33.3655 5.96094L34.7026 6.64071ZM36.0662 5.15989L36.838 6.44613C37.1538 6.25662 37.5699 6.13255 38.1436 6.13255V4.63255V3.13255C37.1194 3.13255 36.1505 3.36004 35.2945 3.87365L36.0662 5.15989ZM38.1436 4.63255V6.13255C38.7174 6.13255 39.1335 6.25662 39.4493 6.44613L40.2211 5.15989L40.9928 3.87365C40.1368 3.36004 39.1679 3.13255 38.1436 3.13255V4.63255ZM40.2211 5.15989L39.4493 6.44613C39.7813 6.64529 40.0417 6.92173 40.2392 7.31453L41.5794 6.64071L42.9195 5.9669C42.4778 5.08839 41.8327 4.37761 40.9928 3.87365L40.2211 5.15989ZM41.5794 6.64071L40.2422 7.32048C40.4402 7.70989 40.5641 8.2095 40.5641 8.86195H42.0641H43.5641C43.5641 7.82406 43.3648 6.84285 42.9165 5.96094L41.5794 6.64071ZM42.0641 8.86195H40.5641C40.5641 9.51466 40.4401 10.011 40.2438 10.3951L41.5794 11.0779L42.915 11.7607C43.3649 10.8805 43.5641 9.89958 43.5641 8.86195H42.0641ZM41.5794 11.0779L40.2407 10.401C40.0439 10.7903 39.7834 11.0667 39.4493 11.2671L40.2211 12.5534L40.9928 13.8396C41.8306 13.3369 42.4756 12.6296 42.918 11.7547L41.5794 11.0779ZM40.2211 12.5534L39.4493 11.2671C39.1335 11.4566 38.7174 11.5807 38.1436 11.5807V13.0807V14.5807C39.1679 14.5807 40.1368 14.3532 40.9928 13.8396L40.2211 12.5534ZM38.1543 11.536V13.036C38.8781 13.036 39.591 12.8301 40.19 12.3406L39.2409 11.1791L38.2919 10.0175C38.2911 10.0182 38.2913 10.0189 38.2828 10.0216C38.2718 10.0252 38.2333 10.036 38.1543 10.036V11.536ZM39.2409 11.1791L40.1984 12.3337C40.7261 11.8961 41.0864 11.3327 41.3062 10.7062L39.8908 10.2096L38.4754 9.71297C38.4111 9.89618 38.3382 9.97904 38.2834 10.0244L39.2409 11.1791ZM39.8908 10.2096L41.3023 10.7172C41.5148 10.1264 41.6092 9.50036 41.6092 8.85662H40.1092H38.6092C38.6092 9.2072 38.558 9.48315 38.4793 9.70197L39.8908 10.2096ZM40.1092 8.85662H41.6092C41.6092 8.21068 41.5152 7.58261 41.3023 6.99067L39.8908 7.49831L38.4793 8.00595C38.5576 8.22368 38.6092 8.50115 38.6092 8.85662H40.1092ZM39.8908 7.49831L41.3075 7.00553C41.0887 6.37647 40.7289 5.80881 40.1984 5.36889L39.2409 6.52353L38.2834 7.67816C38.3353 7.7212 38.4088 7.8034 38.4741 7.99109L39.8908 7.49831ZM39.2409 6.52353L40.1984 5.36889C39.5995 4.87219 38.8835 4.66131 38.1543 4.66131V6.16131V7.66131C38.2311 7.66131 38.2674 7.67186 38.2765 7.67489C38.283 7.67706 38.2822 7.67717 38.2834 7.67816L39.2409 6.52353ZM38.1543 6.16131V4.66131C37.4238 4.66131 36.7016 4.86684 36.0957 5.36321L37.0463 6.52353L37.997 7.68384C37.9978 7.68316 37.9988 7.68142 38.0105 7.67761C38.025 7.67288 38.0685 7.66131 38.1543 7.66131V6.16131ZM37.0463 6.52353L36.0888 5.36889C35.5613 5.80637 35.2009 6.37001 34.9783 6.99459L36.3912 7.49831L37.804 8.00204C37.8726 7.80986 37.949 7.72364 38.0038 7.67816L37.0463 6.52353ZM36.3912 7.49831L34.9758 7.00168C34.7692 7.59027 34.6781 8.21445 34.6781 8.85662H36.1781H37.6781C37.6781 8.49737 37.729 8.21601 37.8066 7.99495L36.3912 7.49831ZM36.1781 8.85662H34.6781C34.6781 9.49656 34.7696 10.1187 34.9758 10.7062L36.3912 10.2096L37.8066 9.71297C37.7286 9.49084 37.6781 9.21101 37.6781 8.85662H36.1781ZM36.3912 10.2096L34.9797 10.7172C35.2033 11.3391 35.5641 11.8986 36.0888 12.3337L37.0463 11.1791L38.0038 10.0244C37.9462 9.97662 37.8702 9.88973 37.8026 9.70197L36.3912 10.2096ZM37.0463 11.1791L36.1042 12.3462C36.71 12.8353 37.4291 13.036 38.1543 13.036V11.536V10.036C38.0664 10.036 38.0207 10.0243 38.0043 10.019C37.9907 10.0146 37.989 10.0123 37.9885 10.0119L37.0463 11.1791ZM47.8449 4.73908H49.3449V3.23908H47.8449V4.73908ZM47.8449 6.23056V7.73056H49.3449V6.23056H47.8449ZM43.0083 6.23056H41.5083V7.73056H43.0083V6.23056ZM43.0083 4.73908V3.23908H41.5083V4.73908H43.0083ZM44.2174 12.9209H42.7174V14.4209H44.2174V12.9209ZM44.5583 2.59242L43.2898 1.79187L43.2842 1.80076L44.5583 2.59242ZM45.4852 1.77211L44.8495 0.413468V0.413468L45.4852 1.77211ZM47.6638 1.58034L47.3619 3.04965L47.3619 3.04965L47.6638 1.58034ZM48.2391 1.72416L49.6918 2.09773L50.0371 0.754921L48.7256 0.305247L48.2391 1.72416ZM47.8556 3.21564L47.4188 4.65065L48.918 5.10694L49.3083 3.5892L47.8556 3.21564ZM47.5466 3.14107L47.2124 4.60336L47.2323 4.60792L47.2524 4.61194L47.5466 3.14107ZM46.3694 3.35946L45.2305 2.38328L45.2288 2.38523L46.3694 3.35946ZM46.151 12.9209V14.4209H47.651V12.9209H46.151ZM47.8449 4.73908H46.3449V6.23056H47.8449H49.3449V4.73908H47.8449ZM47.8449 6.23056V4.73056H43.0083V6.23056V7.73056H47.8449V6.23056ZM43.0083 6.23056H44.5083V4.73908H43.0083H41.5083V6.23056H43.0083ZM43.0083 4.73908V6.23908H47.8449V4.73908V3.23908H43.0083V4.73908ZM44.2174 12.9209H45.7174V3.96671H44.2174H42.7174V12.9209H44.2174ZM44.2174 3.96671H45.7174C45.7174 3.61922 45.7887 3.45442 45.8324 3.38408L44.5583 2.59242L43.2842 1.80076C42.8734 2.46195 42.7174 3.21335 42.7174 3.96671H44.2174ZM44.5583 2.59242L45.8269 3.39294C45.9064 3.26682 45.9971 3.18865 46.1209 3.13074L45.4852 1.77211L44.8495 0.413468C44.1991 0.717778 43.6719 1.18648 43.2898 1.79189L44.5583 2.59242ZM45.4852 1.77211L46.1209 3.13074C46.2888 3.05215 46.4983 3.00044 46.7742 3.00044V1.50044V0.000443459C46.1056 0.000443459 45.4556 0.129848 44.8495 0.413468L45.4852 1.77211ZM46.7742 1.50044V3.00044C47.0316 3.00044 47.2238 3.02127 47.3619 3.04965L47.6638 1.58034L47.9657 0.111043C47.5853 0.0328827 47.1845 0.000443459 46.7742 0.000443459V1.50044ZM47.6638 1.58034L47.3619 3.04965C47.6079 3.10019 47.7226 3.1328 47.7526 3.14308L48.2391 1.72416L48.7256 0.305247C48.507 0.230305 48.2382 0.167028 47.9657 0.111042L47.6638 1.58034ZM48.2391 1.72416L46.7863 1.3506L46.4028 2.84208L47.8556 3.21564L49.3083 3.5892L49.6918 2.09773L48.2391 1.72416ZM47.8556 3.21564L48.2923 1.78063C48.1472 1.73646 47.9925 1.70055 47.8408 1.6702L47.5466 3.14107L47.2524 4.61194C47.3493 4.6313 47.4006 4.64511 47.4188 4.65065L47.8556 3.21564ZM47.5466 3.14107L47.8808 1.67878C47.6279 1.62096 47.375 1.59846 47.1311 1.59846V3.09846V4.59846C47.1927 4.59846 47.2167 4.60436 47.2124 4.60336L47.5466 3.14107ZM47.1311 3.09846V1.59846C46.5808 1.59846 45.7932 1.72684 45.2305 2.38328L46.3694 3.35946L47.5083 4.33565C47.3809 4.48429 47.2404 4.55447 47.1579 4.58271C47.0857 4.60746 47.0651 4.59846 47.1311 4.59846V3.09846ZM46.3694 3.35946L45.2288 2.38523C44.7696 2.92283 44.651 3.56758 44.651 4.09455H46.151H47.651C47.651 3.98231 47.678 4.137 47.51 4.33369L46.3694 3.35946ZM46.151 4.09455H44.651V12.9209H46.151H47.651V4.09455H46.151ZM46.151 12.9209V11.4209H44.2174V12.9209V14.4209H46.151V12.9209ZM53.4992 4.73908H54.9992V3.23908H53.4992V4.73908ZM53.4992 6.23056V7.73056H54.9992V6.23056H53.4992ZM48.6626 6.23056H47.1626V7.73056H48.6626V6.23056ZM48.6626 4.73908V3.23908H47.1626V4.73908H48.6626ZM49.8717 12.9209H48.3717V14.4209H49.8717V12.9209ZM50.2126 2.59242L48.9441 1.79187L48.9385 1.80076L50.2126 2.59242ZM51.1395 1.77211L50.5038 0.413468V0.413468L51.1395 1.77211ZM53.3181 1.58034L53.0162 3.04965L53.0162 3.04965L53.3181 1.58034ZM53.8934 1.72416L55.3461 2.09773L55.6914 0.754921L54.3799 0.305247L53.8934 1.72416ZM53.5099 3.21564L53.0731 4.65065L54.5723 5.10694L54.9626 3.5892L53.5099 3.21564ZM53.2009 3.14107L52.8667 4.60336L52.8866 4.60792L52.9067 4.61194L53.2009 3.14107ZM52.0237 3.35946L50.8848 2.38328L50.8831 2.38523L52.0237 3.35946ZM51.8053 12.9209V14.4209H53.3053V12.9209H51.8053ZM53.4992 4.73908H51.9992V6.23056H53.4992H54.9992V4.73908H53.4992ZM53.4992 6.23056V4.73056H48.6626V6.23056V7.73056H53.4992V6.23056ZM48.6626 6.23056H50.1626V4.73908H48.6626H47.1626V6.23056H48.6626ZM48.6626 4.73908V6.23908H53.4992V4.73908V3.23908H48.6626V4.73908ZM49.8717 12.9209H51.3717V3.96671H49.8717H48.3717V12.9209H49.8717ZM49.8717 3.96671H51.3717C51.3717 3.61922 51.443 3.45442 51.4867 3.38408L50.2126 2.59242L48.9385 1.80076C48.5277 2.46195 48.3717 3.21335 48.3717 3.96671H49.8717ZM50.2126 2.59242L51.4812 3.39294C51.5607 3.26682 51.6514 3.18865 51.7752 3.13074L51.1395 1.77211L50.5038 0.413468C49.8534 0.717778 49.3262 1.18648 48.9441 1.79189L50.2126 2.59242ZM51.1395 1.77211L51.7752 3.13074C51.9431 3.05215 52.1526 3.00044 52.4285 3.00044V1.50044V0.000443459C51.7599 0.000443459 51.1099 0.129848 50.5038 0.413468L51.1395 1.77211ZM52.4285 1.50044V3.00044C52.6859 3.00044 52.8781 3.02127 53.0162 3.04965L53.3181 1.58034L53.62 0.111043C53.2396 0.0328827 52.8388 0.000443459 52.4285 0.000443459V1.50044ZM53.3181 1.58034L53.0162 3.04965C53.2622 3.10019 53.3769 3.1328 53.4069 3.14308L53.8934 1.72416L54.3799 0.305247C54.1613 0.230305 53.8925 0.167028 53.62 0.111042L53.3181 1.58034ZM53.8934 1.72416L52.4406 1.3506L52.0571 2.84208L53.5099 3.21564L54.9626 3.5892L55.3461 2.09773L53.8934 1.72416ZM53.5099 3.21564L53.9466 1.78063C53.8015 1.73646 53.6468 1.70055 53.4951 1.6702L53.2009 3.14107L52.9067 4.61194C53.0036 4.6313 53.0549 4.64511 53.0731 4.65065L53.5099 3.21564ZM53.2009 3.14107L53.5351 1.67878C53.2822 1.62096 53.0293 1.59846 52.7854 1.59846V3.09846V4.59846C52.847 4.59846 52.871 4.60436 52.8667 4.60336L53.2009 3.14107ZM52.7854 3.09846V1.59846C52.2351 1.59846 51.4475 1.72684 50.8848 2.38328L52.0237 3.35946L53.1626 4.33565C53.0352 4.48429 52.8947 4.55447 52.8122 4.58271C52.74 4.60746 52.7194 4.59846 52.7854 4.59846V3.09846ZM52.0237 3.35946L50.8831 2.38523C50.4239 2.92283 50.3053 3.56758 50.3053 4.09455H51.8053H53.3053C53.3053 3.98231 53.3323 4.137 53.1643 4.33369L52.0237 3.35946ZM51.8053 4.09455H50.3053V12.9209H51.8053H53.3053V4.09455H51.8053ZM51.8053 12.9209V11.4209H49.8717V12.9209V14.4209H51.8053V12.9209Z" fill="black" mask="url(#path-1-outside-1_11746_10668)"/>
</svg>
