<svg width="59" height="15" viewBox="0 0 59 15" fill="none" xmlns="http://www.w3.org/2000/svg">
<mask id="path-1-outside-1_11746_10680" maskUnits="userSpaceOnUse" x="-0.40625" y="-0.0791016" width="59" height="15" fill="black">
<rect fill="white" x="-0.40625" y="-0.0791016" width="59" height="15"/>
<path d="M1.56321 12.9209V11.4933L5.3505 7.78063C5.71271 7.41486 6.01456 7.08993 6.25604 6.80584C6.49751 6.52175 6.67862 6.24654 6.79936 5.9802C6.9201 5.71387 6.98047 5.42978 6.98047 5.12793C6.98047 4.78347 6.90234 4.48872 6.74609 4.2437C6.58984 3.99512 6.375 3.80336 6.10156 3.66841C5.82812 3.53347 5.5174 3.466 5.16939 3.466C4.81072 3.466 4.49645 3.54057 4.22656 3.68972C3.95668 3.83532 3.74716 4.04306 3.59801 4.31294C3.45241 4.58283 3.37962 4.90421 3.37962 5.27708H1.49929C1.49929 4.58461 1.65732 3.98269 1.97337 3.47132C2.28942 2.95996 2.72443 2.56401 3.27841 2.28347C3.83594 2.00293 4.47514 1.86266 5.19602 1.86266C5.92756 1.86266 6.57031 1.99938 7.12429 2.27282C7.67827 2.54625 8.10795 2.9209 8.41335 3.39675C8.7223 3.8726 8.87678 4.41593 8.87678 5.02672C8.87678 5.4351 8.79865 5.83638 8.6424 6.23056C8.48615 6.62473 8.21094 7.06152 7.81676 7.54093C7.42614 8.02033 6.87749 8.60094 6.17081 9.28276L4.29048 11.195V11.2696H9.0419V12.9209H1.56321ZM14.9119 13.1286C14.0348 13.1286 13.282 12.9067 12.6534 12.4628C12.0284 12.0154 11.5472 11.3708 11.2099 10.5292C10.8761 9.68404 10.7092 8.66664 10.7092 7.47701C10.7127 6.28738 10.8814 5.2753 11.2152 4.44078C11.5526 3.60272 12.0337 2.96351 12.6587 2.52317C13.2873 2.08283 14.0384 1.86266 14.9119 1.86266C15.7855 1.86266 16.5366 2.08283 17.1651 2.52317C17.7937 2.96351 18.2749 3.60272 18.6087 4.44078C18.946 5.27885 19.1147 6.29093 19.1147 7.47701C19.1147 8.67019 18.946 9.68936 18.6087 10.5345C18.2749 11.3762 17.7937 12.0189 17.1651 12.4628C16.5401 12.9067 15.7891 13.1286 14.9119 13.1286ZM14.9119 11.4614C15.5938 11.4614 16.1317 11.1258 16.5259 10.4546C16.9237 9.77992 17.1225 8.78738 17.1225 7.47701C17.1225 6.61053 17.032 5.88255 16.8509 5.29306C16.6697 4.70357 16.4141 4.25968 16.0838 3.96138C15.7536 3.65953 15.3629 3.50861 14.9119 3.50861C14.2337 3.50861 13.6974 3.84597 13.3033 4.52068C12.9091 5.19185 12.7102 6.17729 12.7067 7.47701C12.7031 8.34703 12.7901 9.07857 12.9677 9.67161C13.1488 10.2646 13.4045 10.7121 13.7347 11.0139C14.065 11.3122 14.4574 11.4614 14.9119 11.4614ZM26.7172 10.8754V10.3002C26.7172 9.87757 26.806 9.48873 26.9836 9.13361C27.1647 8.7785 27.4275 8.49263 27.7719 8.27601C28.1164 8.05939 28.5336 7.95108 29.0237 7.95108C29.528 7.95108 29.9506 8.05939 30.2915 8.27601C30.6324 8.48908 30.8898 8.77317 31.0638 9.12828C31.2414 9.4834 31.3302 9.87402 31.3302 10.3002V10.8754C31.3302 11.298 31.2414 11.6869 31.0638 12.042C30.8863 12.3971 30.6253 12.683 30.2808 12.8996C29.9399 13.1162 29.5209 13.2245 29.0237 13.2245C28.5265 13.2245 28.1057 13.1162 27.7613 12.8996C27.4168 12.683 27.1558 12.3971 26.9782 12.042C26.8042 11.6869 26.7172 11.298 26.7172 10.8754ZM28.1075 10.3002V10.8754C28.1075 11.156 28.175 11.4134 28.3099 11.6478C28.4449 11.8822 28.6828 11.9994 29.0237 11.9994C29.3682 11.9994 29.6043 11.884 29.7322 11.6531C29.8635 11.4188 29.9292 11.1595 29.9292 10.8754V10.3002C29.9292 10.0161 29.8671 9.75684 29.7428 9.52246C29.6185 9.28453 29.3788 9.16557 29.0237 9.16557C28.6899 9.16557 28.4537 9.28453 28.3153 9.52246C28.1768 9.75684 28.1075 10.0161 28.1075 10.3002ZM21.1721 4.63255V4.05726C21.1721 3.63113 21.2627 3.2405 21.4438 2.88539C21.6249 2.53027 21.8877 2.24618 22.2322 2.03311C22.5766 1.81649 22.9939 1.70818 23.4839 1.70818C23.9846 1.70818 24.4055 1.81649 24.7464 2.03311C25.0908 2.24618 25.3501 2.53027 25.5241 2.88539C25.6981 3.2405 25.7851 3.63113 25.7851 4.05726V4.63255C25.7851 5.05868 25.6963 5.44931 25.5187 5.80442C25.3447 6.15598 25.0855 6.4383 24.741 6.65137C24.3966 6.86444 23.9775 6.97097 23.4839 6.97097C22.9832 6.97097 22.5606 6.86444 22.2162 6.65137C21.8753 6.4383 21.616 6.15421 21.4385 5.79909C21.2609 5.44398 21.1721 5.05513 21.1721 4.63255ZM22.5731 4.05726V4.63255C22.5731 4.91664 22.6388 5.17587 22.7702 5.41024C22.9051 5.64107 23.143 5.75648 23.4839 5.75648C23.8248 5.75648 24.0592 5.64107 24.1871 5.41024C24.3184 5.17587 24.3841 4.91664 24.3841 4.63255V4.05726C24.3841 3.77317 24.322 3.51394 24.1977 3.27956C24.0734 3.04164 23.8355 2.92267 23.4839 2.92267C23.1466 2.92267 22.9104 3.04164 22.7755 3.27956C22.6405 3.51749 22.5731 3.77672 22.5731 4.05726ZM21.7794 12.9209L29.2794 2.01181H30.6111L23.1111 12.9209H21.7794ZM40.8517 13.0807C40.0526 13.0807 39.3602 12.9049 38.7742 12.5534C38.1883 12.2018 37.7338 11.71 37.4106 11.0779C37.091 10.4458 36.9312 9.70712 36.9312 8.86195C36.9312 8.01678 37.091 7.27637 37.4106 6.64071C37.7338 6.00506 38.1883 5.51145 38.7742 5.15989C39.3602 4.80833 40.0526 4.63255 40.8517 4.63255C41.6507 4.63255 42.3431 4.80833 42.9291 5.15989C43.515 5.51145 43.9678 6.00506 44.2874 6.64071C44.6105 7.27637 44.7721 8.01678 44.7721 8.86195C44.7721 9.70712 44.6105 10.4458 44.2874 11.0779C43.9678 11.71 43.515 12.2018 42.9291 12.5534C42.3431 12.9049 41.6507 13.0807 40.8517 13.0807ZM40.8623 11.536C41.2955 11.536 41.6578 11.417 41.949 11.1791C42.2401 10.9376 42.4568 10.6144 42.5988 10.2096C42.7444 9.80478 42.8172 9.35378 42.8172 8.85662C42.8172 8.35591 42.7444 7.90314 42.5988 7.49831C42.4568 7.08993 42.2401 6.765 41.949 6.52353C41.6578 6.28205 41.2955 6.16131 40.8623 6.16131C40.4184 6.16131 40.0491 6.28205 39.7544 6.52353C39.4632 6.765 39.2448 7.08993 39.0992 7.49831C38.9571 7.90314 38.8861 8.35591 38.8861 8.85662C38.8861 9.35378 38.9571 9.80478 39.0992 10.2096C39.2448 10.6144 39.4632 10.9376 39.7544 11.1791C40.0491 11.417 40.4184 11.536 40.8623 11.536ZM50.5529 4.73908V6.23056H45.7163V4.73908H50.5529ZM46.9254 12.9209V3.96671C46.9254 3.41628 47.0391 2.95818 47.2663 2.59242C47.4972 2.22665 47.8061 1.95321 48.1932 1.77211C48.5803 1.591 49.0099 1.50044 49.4822 1.50044C49.8161 1.50044 50.1126 1.52708 50.3718 1.58034C50.631 1.63361 50.8228 1.68155 50.9471 1.72417L50.5636 3.21564C50.4819 3.19078 50.3789 3.16593 50.2546 3.14107C50.1303 3.11266 49.9918 3.09846 49.8391 3.09846C49.4805 3.09846 49.2266 3.18546 49.0774 3.35946C48.9318 3.52992 48.859 3.77495 48.859 4.09455V12.9209H46.9254ZM56.2072 4.73908V6.23056H51.3706V4.73908H56.2072ZM52.5797 12.9209V3.96671C52.5797 3.41628 52.6934 2.95818 52.9206 2.59242C53.1515 2.22665 53.4604 1.95321 53.8475 1.77211C54.2346 1.591 54.6642 1.50044 55.1365 1.50044C55.4703 1.50044 55.7669 1.52708 56.0261 1.58034C56.2853 1.63361 56.4771 1.68155 56.6014 1.72417L56.2179 3.21564C56.1362 3.19078 56.0332 3.16593 55.9089 3.14107C55.7846 3.11266 55.6461 3.09846 55.4934 3.09846C55.1348 3.09846 54.8809 3.18546 54.7317 3.35946C54.5861 3.52992 54.5133 3.77495 54.5133 4.09455V12.9209H52.5797Z"/>
</mask>
<path d="M1.56321 12.9209V11.4933L5.3505 7.78063C5.71271 7.41486 6.01456 7.08993 6.25604 6.80584C6.49751 6.52175 6.67862 6.24654 6.79936 5.9802C6.9201 5.71387 6.98047 5.42978 6.98047 5.12793C6.98047 4.78347 6.90234 4.48872 6.74609 4.2437C6.58984 3.99512 6.375 3.80336 6.10156 3.66841C5.82812 3.53347 5.5174 3.466 5.16939 3.466C4.81072 3.466 4.49645 3.54057 4.22656 3.68972C3.95668 3.83532 3.74716 4.04306 3.59801 4.31294C3.45241 4.58283 3.37962 4.90421 3.37962 5.27708H1.49929C1.49929 4.58461 1.65732 3.98269 1.97337 3.47132C2.28942 2.95996 2.72443 2.56401 3.27841 2.28347C3.83594 2.00293 4.47514 1.86266 5.19602 1.86266C5.92756 1.86266 6.57031 1.99938 7.12429 2.27282C7.67827 2.54625 8.10795 2.9209 8.41335 3.39675C8.7223 3.8726 8.87678 4.41593 8.87678 5.02672C8.87678 5.4351 8.79865 5.83638 8.6424 6.23056C8.48615 6.62473 8.21094 7.06152 7.81676 7.54093C7.42614 8.02033 6.87749 8.60094 6.17081 9.28276L4.29048 11.195V11.2696H9.0419V12.9209H1.56321ZM14.9119 13.1286C14.0348 13.1286 13.282 12.9067 12.6534 12.4628C12.0284 12.0154 11.5472 11.3708 11.2099 10.5292C10.8761 9.68404 10.7092 8.66664 10.7092 7.47701C10.7127 6.28738 10.8814 5.2753 11.2152 4.44078C11.5526 3.60272 12.0337 2.96351 12.6587 2.52317C13.2873 2.08283 14.0384 1.86266 14.9119 1.86266C15.7855 1.86266 16.5366 2.08283 17.1651 2.52317C17.7937 2.96351 18.2749 3.60272 18.6087 4.44078C18.946 5.27885 19.1147 6.29093 19.1147 7.47701C19.1147 8.67019 18.946 9.68936 18.6087 10.5345C18.2749 11.3762 17.7937 12.0189 17.1651 12.4628C16.5401 12.9067 15.7891 13.1286 14.9119 13.1286ZM14.9119 11.4614C15.5938 11.4614 16.1317 11.1258 16.5259 10.4546C16.9237 9.77992 17.1225 8.78738 17.1225 7.47701C17.1225 6.61053 17.032 5.88255 16.8509 5.29306C16.6697 4.70357 16.4141 4.25968 16.0838 3.96138C15.7536 3.65953 15.3629 3.50861 14.9119 3.50861C14.2337 3.50861 13.6974 3.84597 13.3033 4.52068C12.9091 5.19185 12.7102 6.17729 12.7067 7.47701C12.7031 8.34703 12.7901 9.07857 12.9677 9.67161C13.1488 10.2646 13.4045 10.7121 13.7347 11.0139C14.065 11.3122 14.4574 11.4614 14.9119 11.4614ZM26.7172 10.8754V10.3002C26.7172 9.87757 26.806 9.48873 26.9836 9.13361C27.1647 8.7785 27.4275 8.49263 27.7719 8.27601C28.1164 8.05939 28.5336 7.95108 29.0237 7.95108C29.528 7.95108 29.9506 8.05939 30.2915 8.27601C30.6324 8.48908 30.8898 8.77317 31.0638 9.12828C31.2414 9.4834 31.3302 9.87402 31.3302 10.3002V10.8754C31.3302 11.298 31.2414 11.6869 31.0638 12.042C30.8863 12.3971 30.6253 12.683 30.2808 12.8996C29.9399 13.1162 29.5209 13.2245 29.0237 13.2245C28.5265 13.2245 28.1057 13.1162 27.7613 12.8996C27.4168 12.683 27.1558 12.3971 26.9782 12.042C26.8042 11.6869 26.7172 11.298 26.7172 10.8754ZM28.1075 10.3002V10.8754C28.1075 11.156 28.175 11.4134 28.3099 11.6478C28.4449 11.8822 28.6828 11.9994 29.0237 11.9994C29.3682 11.9994 29.6043 11.884 29.7322 11.6531C29.8635 11.4188 29.9292 11.1595 29.9292 10.8754V10.3002C29.9292 10.0161 29.8671 9.75684 29.7428 9.52246C29.6185 9.28453 29.3788 9.16557 29.0237 9.16557C28.6899 9.16557 28.4537 9.28453 28.3153 9.52246C28.1768 9.75684 28.1075 10.0161 28.1075 10.3002ZM21.1721 4.63255V4.05726C21.1721 3.63113 21.2627 3.2405 21.4438 2.88539C21.6249 2.53027 21.8877 2.24618 22.2322 2.03311C22.5766 1.81649 22.9939 1.70818 23.4839 1.70818C23.9846 1.70818 24.4055 1.81649 24.7464 2.03311C25.0908 2.24618 25.3501 2.53027 25.5241 2.88539C25.6981 3.2405 25.7851 3.63113 25.7851 4.05726V4.63255C25.7851 5.05868 25.6963 5.44931 25.5187 5.80442C25.3447 6.15598 25.0855 6.4383 24.741 6.65137C24.3966 6.86444 23.9775 6.97097 23.4839 6.97097C22.9832 6.97097 22.5606 6.86444 22.2162 6.65137C21.8753 6.4383 21.616 6.15421 21.4385 5.79909C21.2609 5.44398 21.1721 5.05513 21.1721 4.63255ZM22.5731 4.05726V4.63255C22.5731 4.91664 22.6388 5.17587 22.7702 5.41024C22.9051 5.64107 23.143 5.75648 23.4839 5.75648C23.8248 5.75648 24.0592 5.64107 24.1871 5.41024C24.3184 5.17587 24.3841 4.91664 24.3841 4.63255V4.05726C24.3841 3.77317 24.322 3.51394 24.1977 3.27956C24.0734 3.04164 23.8355 2.92267 23.4839 2.92267C23.1466 2.92267 22.9104 3.04164 22.7755 3.27956C22.6405 3.51749 22.5731 3.77672 22.5731 4.05726ZM21.7794 12.9209L29.2794 2.01181H30.6111L23.1111 12.9209H21.7794ZM40.8517 13.0807C40.0526 13.0807 39.3602 12.9049 38.7742 12.5534C38.1883 12.2018 37.7338 11.71 37.4106 11.0779C37.091 10.4458 36.9312 9.70712 36.9312 8.86195C36.9312 8.01678 37.091 7.27637 37.4106 6.64071C37.7338 6.00506 38.1883 5.51145 38.7742 5.15989C39.3602 4.80833 40.0526 4.63255 40.8517 4.63255C41.6507 4.63255 42.3431 4.80833 42.9291 5.15989C43.515 5.51145 43.9678 6.00506 44.2874 6.64071C44.6105 7.27637 44.7721 8.01678 44.7721 8.86195C44.7721 9.70712 44.6105 10.4458 44.2874 11.0779C43.9678 11.71 43.515 12.2018 42.9291 12.5534C42.3431 12.9049 41.6507 13.0807 40.8517 13.0807ZM40.8623 11.536C41.2955 11.536 41.6578 11.417 41.949 11.1791C42.2401 10.9376 42.4568 10.6144 42.5988 10.2096C42.7444 9.80478 42.8172 9.35378 42.8172 8.85662C42.8172 8.35591 42.7444 7.90314 42.5988 7.49831C42.4568 7.08993 42.2401 6.765 41.949 6.52353C41.6578 6.28205 41.2955 6.16131 40.8623 6.16131C40.4184 6.16131 40.0491 6.28205 39.7544 6.52353C39.4632 6.765 39.2448 7.08993 39.0992 7.49831C38.9571 7.90314 38.8861 8.35591 38.8861 8.85662C38.8861 9.35378 38.9571 9.80478 39.0992 10.2096C39.2448 10.6144 39.4632 10.9376 39.7544 11.1791C40.0491 11.417 40.4184 11.536 40.8623 11.536ZM50.5529 4.73908V6.23056H45.7163V4.73908H50.5529ZM46.9254 12.9209V3.96671C46.9254 3.41628 47.0391 2.95818 47.2663 2.59242C47.4972 2.22665 47.8061 1.95321 48.1932 1.77211C48.5803 1.591 49.0099 1.50044 49.4822 1.50044C49.8161 1.50044 50.1126 1.52708 50.3718 1.58034C50.631 1.63361 50.8228 1.68155 50.9471 1.72417L50.5636 3.21564C50.4819 3.19078 50.3789 3.16593 50.2546 3.14107C50.1303 3.11266 49.9918 3.09846 49.8391 3.09846C49.4805 3.09846 49.2266 3.18546 49.0774 3.35946C48.9318 3.52992 48.859 3.77495 48.859 4.09455V12.9209H46.9254ZM56.2072 4.73908V6.23056H51.3706V4.73908H56.2072ZM52.5797 12.9209V3.96671C52.5797 3.41628 52.6934 2.95818 52.9206 2.59242C53.1515 2.22665 53.4604 1.95321 53.8475 1.77211C54.2346 1.591 54.6642 1.50044 55.1365 1.50044C55.4703 1.50044 55.7669 1.52708 56.0261 1.58034C56.2853 1.63361 56.4771 1.68155 56.6014 1.72417L56.2179 3.21564C56.1362 3.19078 56.0332 3.16593 55.9089 3.14107C55.7846 3.11266 55.6461 3.09846 55.4934 3.09846C55.1348 3.09846 54.8809 3.18546 54.7317 3.35946C54.5861 3.52992 54.5133 3.77495 54.5133 4.09455V12.9209H52.5797Z" fill="#CCFF00"/>
<path d="M1.56321 12.9209H0.0632103V14.4209H1.56321V12.9209ZM1.56321 11.4933L0.513148 10.4222L0.0632103 10.8633V11.4933H1.56321ZM5.3505 7.78063L6.40056 8.85178L6.4085 8.844L6.41632 8.8361L5.3505 7.78063ZM6.79936 5.9802L8.16553 6.59953V6.59953L6.79936 5.9802ZM6.74609 4.2437L5.47611 5.04197L5.48136 5.0502L6.74609 4.2437ZM6.10156 3.66841L5.43774 5.01353H5.43774L6.10156 3.66841ZM4.22656 3.68972L4.93875 5.00987L4.94544 5.00626L4.95209 5.00258L4.22656 3.68972ZM3.59801 4.31294L2.28515 3.58742L2.28147 3.59407L2.27786 3.60076L3.59801 4.31294ZM3.37962 5.27708V6.77708H4.87962V5.27708H3.37962ZM1.49929 5.27708H-0.000710189V6.77708H1.49929V5.27708ZM1.97337 3.47132L3.24933 4.25994V4.25994L1.97337 3.47132ZM3.27841 2.28347L2.60417 0.943536L2.60074 0.945277L3.27841 2.28347ZM7.12429 2.27282L7.7882 0.927744V0.927744L7.12429 2.27282ZM8.41335 3.39675L7.15095 4.20695L7.15526 4.21357L8.41335 3.39675ZM8.6424 6.23056L7.24796 5.6778V5.67781L8.6424 6.23056ZM7.81676 7.54093L6.65811 6.58826L6.65391 6.59342L7.81676 7.54093ZM6.17081 9.28276L5.12931 8.20328L5.11509 8.21699L5.10125 8.23107L6.17081 9.28276ZM4.29048 11.195L3.22092 10.1434L2.79048 10.5811V11.195H4.29048ZM4.29048 11.2696H2.79048V12.7696H4.29048V11.2696ZM9.0419 11.2696H10.5419V9.76962H9.0419V11.2696ZM9.0419 12.9209V14.4209H10.5419V12.9209H9.0419ZM1.56321 12.9209H3.06321V11.4933H1.56321H0.0632103V12.9209H1.56321ZM1.56321 11.4933L2.61327 12.5645L6.40056 8.85178L5.3505 7.78063L4.30044 6.70947L0.513148 10.4222L1.56321 11.4933ZM5.3505 7.78063L6.41632 8.8361C6.79604 8.45266 7.1256 8.0989 7.39895 7.77731L6.25604 6.80584L5.11313 5.83437C4.90352 6.08096 4.62939 6.37706 4.28468 6.72515L5.3505 7.78063ZM6.25604 6.80584L7.39895 7.77731C7.70735 7.41449 7.97384 7.02239 8.16553 6.59953L6.79936 5.9802L5.43319 5.36087C5.38341 5.47069 5.28768 5.62901 5.11313 5.83437L6.25604 6.80584ZM6.79936 5.9802L8.16553 6.59953C8.37734 6.13231 8.48047 5.63633 8.48047 5.12793H6.98047H5.48047C5.48047 5.22322 5.46285 5.29543 5.43319 5.36087L6.79936 5.9802ZM6.98047 5.12793H8.48047C8.48047 4.55142 8.34725 3.96476 8.01083 3.4372L6.74609 4.2437L5.48136 5.0502C5.47235 5.03606 5.47053 5.0275 5.47194 5.03284C5.47379 5.03982 5.48047 5.06895 5.48047 5.12793H6.98047ZM6.74609 4.2437L8.01605 3.44544C7.70634 2.95272 7.27748 2.57602 6.76539 2.3233L6.10156 3.66841L5.43774 5.01353C5.46023 5.02463 5.46824 5.0319 5.46893 5.03251C5.46972 5.03321 5.47026 5.03377 5.47091 5.03455C5.47159 5.03535 5.47338 5.03756 5.47614 5.04195L6.74609 4.2437ZM6.10156 3.66841L6.76539 2.3233C6.25808 2.07294 5.71497 1.966 5.16939 1.966V3.466V4.966C5.31983 4.966 5.39817 4.994 5.43774 5.01353L6.10156 3.66841ZM5.16939 3.466V1.966C4.59863 1.966 4.02687 2.08626 3.50103 2.37686L4.22656 3.68972L4.95209 5.00258C4.96602 4.99488 5.02282 4.966 5.16939 4.966V3.466ZM4.22656 3.68972L3.51438 2.36957C2.98992 2.6525 2.57257 3.06733 2.28515 3.58742L3.59801 4.31294L4.91087 5.03847C4.91556 5.02999 4.91898 5.02513 4.92066 5.02289C4.9223 5.0207 4.9231 5.01993 4.92315 5.01989C4.92319 5.01984 4.92373 5.01928 4.92542 5.01804C4.92714 5.01677 4.93126 5.01391 4.93875 5.00987L4.22656 3.68972ZM3.59801 4.31294L2.27786 3.60076C1.9913 4.13195 1.87962 4.70879 1.87962 5.27708H3.37962H4.87962C4.87962 5.09962 4.91353 5.03371 4.91816 5.02513L3.59801 4.31294ZM3.37962 5.27708V3.77708H1.49929V5.27708V6.77708H3.37962V5.27708ZM1.49929 5.27708H2.99929C2.99929 4.82002 3.10088 4.50013 3.24933 4.25994L1.97337 3.47132L0.697403 2.68271C0.213748 3.46525 -0.000710189 4.34919 -0.000710189 5.27708H1.49929ZM1.97337 3.47132L3.24933 4.25994C3.41536 3.99131 3.63977 3.78185 3.95608 3.62166L3.27841 2.28347L2.60074 0.945277C1.80909 1.34617 1.16348 1.92861 0.697403 2.68271L1.97337 3.47132ZM3.27841 2.28347L3.95264 3.6234C4.27077 3.46332 4.67294 3.36266 5.19602 3.36266V1.86266V0.362659C4.27735 0.362659 3.4011 0.54254 2.60418 0.94354L3.27841 2.28347ZM5.19602 1.86266V3.36266C5.73939 3.36266 6.14757 3.46349 6.46038 3.61789L7.12429 2.27282L7.7882 0.927744C6.99305 0.535265 6.11572 0.362659 5.19602 0.362659V1.86266ZM7.12429 2.27282L6.46038 3.61789C6.79336 3.78224 7.00624 3.98142 7.15097 4.20693L8.41335 3.39675L9.67573 2.58657C9.20967 1.86037 8.56318 1.31026 7.7882 0.927744L7.12429 2.27282ZM8.41335 3.39675L7.15526 4.21357C7.29415 4.4275 7.37678 4.68266 7.37678 5.02672H8.87678H10.3768C10.3768 4.14919 10.1505 3.31771 9.67145 2.57993L8.41335 3.39675ZM8.87678 5.02672H7.37678C7.37678 5.23861 7.33718 5.45272 7.24796 5.6778L8.6424 6.23056L10.0368 6.78331C10.2601 6.22005 10.3768 5.6316 10.3768 5.02672H8.87678ZM8.6424 6.23056L7.24796 5.67781C7.169 5.87701 6.99488 6.1787 6.65812 6.58827L7.81676 7.54093L8.9754 8.49359C9.427 7.94434 9.80331 7.37246 10.0368 6.78331L8.6424 6.23056ZM7.81676 7.54093L6.65391 6.59342C6.31632 7.00773 5.81477 7.54193 5.12931 8.20328L6.17081 9.28276L7.21231 10.3622C7.9402 9.65995 8.53595 9.03293 8.97961 8.48844L7.81676 7.54093ZM6.17081 9.28276L5.10125 8.23107L3.22092 10.1434L4.29048 11.195L5.36004 12.2467L7.24037 10.3344L6.17081 9.28276ZM4.29048 11.195H2.79048V11.2696H4.29048H5.79048V11.195H4.29048ZM4.29048 11.2696V12.7696H9.0419V11.2696V9.76962H4.29048V11.2696ZM9.0419 11.2696H7.5419V12.9209H9.0419H10.5419V11.2696H9.0419ZM9.0419 12.9209V11.4209H1.56321V12.9209V14.4209H9.0419V12.9209ZM12.6534 12.4628L11.7802 13.6825L11.7881 13.6881L12.6534 12.4628ZM11.2099 10.5292L9.81473 11.0802L9.81756 11.0873L11.2099 10.5292ZM10.7092 7.47701L9.20916 7.47253V7.47701H10.7092ZM11.2152 4.44078L9.8237 3.88065L9.82248 3.8837L11.2152 4.44078ZM12.6587 2.52317L11.7981 1.29465L11.7948 1.29695L12.6587 2.52317ZM17.1651 2.52317L16.3045 3.75169V3.75169L17.1651 2.52317ZM18.6087 4.44078L17.2151 4.99584L17.2172 5.00092L18.6087 4.44078ZM18.6087 10.5345L17.2155 9.97846L17.2143 9.98151L18.6087 10.5345ZM17.1651 12.4628L16.2998 11.2375L16.2966 11.2399L17.1651 12.4628ZM16.5259 10.4546L15.2337 9.69291L15.2325 9.695L16.5259 10.4546ZM16.8509 5.29306L18.2847 4.85254V4.85254L16.8509 5.29306ZM16.0838 3.96138L15.0718 5.06861L15.0784 5.07454L16.0838 3.96138ZM13.3033 4.52069L14.5967 5.28032L14.5984 5.27734L13.3033 4.52069ZM12.7067 7.47701L14.2067 7.48313L14.2067 7.4811L12.7067 7.47701ZM12.9677 9.67161L11.5307 10.1018L11.5331 10.1097L12.9677 9.67161ZM13.7347 11.0139L12.7227 12.1212L12.7293 12.1271L13.7347 11.0139ZM14.9119 13.1286V11.6286C14.2997 11.6286 13.8597 11.4784 13.5187 11.2375L12.6534 12.4628L11.7881 13.6881C12.7042 14.335 13.7699 14.6286 14.9119 14.6286V13.1286ZM12.6534 12.4628L13.5266 11.2431C13.1732 10.9902 12.8525 10.5957 12.6022 9.97111L11.2099 10.5292L9.81756 11.0873C10.2419 12.146 10.8836 13.0405 11.7802 13.6825L12.6534 12.4628ZM11.2099 10.5292L12.605 9.97819C12.3583 9.35347 12.2092 8.53334 12.2092 7.47701H10.7092H9.20916C9.20916 8.79994 9.39387 10.0146 9.81474 11.0802L11.2099 10.5292ZM10.7092 7.47701L12.2092 7.48148C12.2123 6.42326 12.3631 5.60983 12.6079 4.99787L11.2152 4.44078L9.82248 3.8837C9.39965 4.94077 9.21311 6.15149 9.20917 7.47253L10.7092 7.47701ZM11.2152 4.44078L12.6067 5.00092C12.856 4.38155 13.1742 3.9949 13.5227 3.7494L12.6587 2.52317L11.7948 1.29695C10.8933 1.93212 10.2491 2.82388 9.82371 3.88065L11.2152 4.44078ZM12.6587 2.52317L13.5194 3.75169C13.8618 3.5118 14.3021 3.36266 14.9119 3.36266V1.86266V0.362659C13.7746 0.362659 12.7127 0.653866 11.7981 1.29465L12.6587 2.52317ZM14.9119 1.86266V3.36266C15.5217 3.36266 15.962 3.5118 16.3045 3.75169L17.1651 2.52317L18.0258 1.29465C17.1111 0.653866 16.0493 0.362659 14.9119 0.362659V1.86266ZM17.1651 2.52317L16.3045 3.75169C16.654 3.99659 16.9702 4.3808 17.2151 4.99583L18.6087 4.44078L20.0022 3.88573C19.5796 2.82464 18.9333 1.93044 18.0258 1.29465L17.1651 2.52317ZM18.6087 4.44078L17.2172 5.00092C17.4643 5.61478 17.6147 6.42589 17.6147 7.47701H19.1147H20.6147C20.6147 6.15597 20.4278 4.94293 20.0002 3.88065L18.6087 4.44078ZM19.1147 7.47701H17.6147C17.6147 8.53596 17.4641 9.35582 17.2155 9.97846L18.6087 10.5345L20.0018 11.0906C20.428 10.0229 20.6147 8.80442 20.6147 7.47701H19.1147ZM18.6087 10.5345L17.2143 9.98151C16.9686 10.6012 16.6511 10.9895 16.2998 11.2375L17.1651 12.4628L18.0304 13.6881C18.9363 13.0483 19.5812 12.1511 20.003 11.0876L18.6087 10.5345ZM17.1651 12.4628L16.2966 11.2399C15.9608 11.4783 15.5243 11.6286 14.9119 11.6286V13.1286V14.6286C16.0538 14.6286 17.1195 14.3351 18.0337 13.6857L17.1651 12.4628ZM14.9119 11.4614V12.9614C16.2099 12.9614 17.2014 12.2665 17.8194 11.2143L16.5259 10.4546L15.2325 9.695C15.1305 9.86859 15.0548 9.92334 15.0329 9.93699C15.0201 9.94501 14.9942 9.96138 14.9119 9.96138V11.4614ZM16.5259 10.4546L17.8181 11.2164C18.415 10.2038 18.6225 8.89535 18.6225 7.47701H17.1225H15.6225C15.6225 8.6794 15.4323 9.35599 15.2337 9.69291L16.5259 10.4546ZM17.1225 7.47701H18.6225C18.6225 6.51665 18.5234 5.62951 18.2847 4.85254L16.8509 5.29306L15.417 5.73358C15.5405 6.13558 15.6225 6.70441 15.6225 7.47701H17.1225ZM16.8509 5.29306L18.2847 4.85254C18.0534 4.09975 17.6834 3.3849 17.0892 2.84823L16.0838 3.96138L15.0784 5.07454C15.1447 5.13445 15.2861 5.30739 15.417 5.73358L16.8509 5.29306ZM16.0838 3.96138L17.0958 2.85417C16.4866 2.29741 15.7341 2.00861 14.9119 2.00861V3.50861V5.00861C14.9669 5.00861 14.9926 5.01714 15.0025 5.021C15.0123 5.02479 15.0348 5.03477 15.0718 5.06859L16.0838 3.96138ZM14.9119 3.50861V2.00861C13.6104 2.00861 12.6224 2.71251 12.0081 3.76403L13.3033 4.52069L14.5984 5.27734C14.7017 5.10053 14.7783 5.04478 14.7998 5.03126C14.8117 5.02381 14.8346 5.00861 14.9119 5.00861V3.50861ZM13.3033 4.52069L12.0098 3.76105C11.419 4.76712 11.2105 6.06534 11.2067 7.47291L12.7067 7.47701L14.2067 7.4811C14.2099 6.28924 14.3992 5.61658 14.5967 5.28032L13.3033 4.52069ZM12.7067 7.47701L11.2067 7.47088C11.2028 8.43379 11.2975 9.32284 11.5307 10.1018L12.9677 9.67161L14.4047 9.24138C14.2828 8.8343 14.2035 8.26028 14.2067 7.48313L12.7067 7.47701ZM12.9677 9.67161L11.5331 10.1097C11.7637 10.8649 12.1321 11.5813 12.7228 12.1212L13.7347 11.0139L14.7467 9.90673C14.6768 9.84288 14.5339 9.66441 14.4023 9.2335L12.9677 9.67161ZM13.7347 11.0139L12.7293 12.1271C13.3417 12.6802 14.0947 12.9614 14.9119 12.9614V11.4614V9.96138C14.8201 9.96138 14.7883 9.94426 14.7402 9.90078L13.7347 11.0139ZM26.9836 9.13361L25.6473 8.4521L25.6419 8.46279L26.9836 9.13361ZM27.7719 8.27601L28.5705 9.5458V9.5458L27.7719 8.27601ZM30.2915 8.27601L29.487 9.54208L29.4965 9.54801L30.2915 8.27601ZM31.0638 9.12828L29.7168 9.78833L29.7222 9.79911L31.0638 9.12828ZM31.0638 12.042L32.4055 12.7128V12.7128L31.0638 12.042ZM30.2808 12.8996L29.4823 11.6298L29.4763 11.6336L30.2808 12.8996ZM27.7613 12.8996L26.9627 14.1694V14.1694L27.7613 12.8996ZM26.9782 12.042L25.6312 12.702L25.6366 12.7128L26.9782 12.042ZM28.3099 11.6478L29.6099 10.8994V10.8994L28.3099 11.6478ZM29.7322 11.6531L28.4237 10.9196L28.42 10.9264L29.7322 11.6531ZM29.7428 9.52246L28.4133 10.217L28.4176 10.2252L29.7428 9.52246ZM28.3153 9.52246L29.6067 10.2856L29.6116 10.2771L28.3153 9.52246ZM22.2322 2.03311L23.0213 3.30883L23.0307 3.3029L22.2322 2.03311ZM24.7464 2.03311L23.9419 3.29915L23.9496 3.30402L23.9573 3.30879L24.7464 2.03311ZM25.5241 2.88539L24.1771 3.54541V3.54541L25.5241 2.88539ZM25.5187 5.80442L24.1771 5.13359L24.1744 5.13904L25.5187 5.80442ZM24.741 6.65137L25.5301 7.92705V7.92704L24.741 6.65137ZM22.2162 6.65137L21.4212 7.92338L21.4271 7.92705L22.2162 6.65137ZM21.4385 5.79909L20.0968 6.46991V6.46992L21.4385 5.79909ZM22.7702 5.41024L21.4617 6.14375L21.4684 6.15558L21.4752 6.16729L22.7702 5.41024ZM24.1871 5.41024L22.8786 4.67673L22.8749 4.6835L24.1871 5.41024ZM24.1977 3.27956L22.8682 3.9741L22.8725 3.98232L24.1977 3.27956ZM22.7755 3.27956L24.0802 4.01957V4.01957L22.7755 3.27956ZM21.7794 12.9209L20.5433 12.0711L18.9278 14.4209H21.7794V12.9209ZM29.2794 2.01181V0.511807H28.4903L28.0433 1.16201L29.2794 2.01181ZM30.6111 2.01181L31.8471 2.8616L33.4626 0.511807H30.6111V2.01181ZM23.1111 12.9209V14.4209H23.9001L24.3471 13.7707L23.1111 12.9209ZM26.7172 10.8754H28.2172V10.3002H26.7172H25.2172V10.8754H26.7172ZM26.7172 10.3002H28.2172C28.2172 10.0951 28.2585 9.93794 28.3252 9.80443L26.9836 9.13361L25.6419 8.46279C25.3536 9.03951 25.2172 9.66007 25.2172 10.3002H26.7172ZM26.9836 9.13361L28.3198 9.8151C28.3754 9.7062 28.45 9.62154 28.5705 9.5458L27.7719 8.27601L26.9734 7.00623C26.4049 7.36372 25.954 7.8508 25.6473 8.45212L26.9836 9.13361ZM27.7719 8.27601L28.5705 9.5458C28.6308 9.50782 28.758 9.45108 29.0237 9.45108V7.95108V6.45108C28.3093 6.45108 27.6019 6.61096 26.9734 7.00623L27.7719 8.27601ZM29.0237 7.95108V9.45108C29.3136 9.45108 29.4399 9.51214 29.487 9.54205L30.2915 8.27601L31.0959 7.00998C30.4612 6.60665 29.7423 6.45108 29.0237 6.45108V7.95108ZM30.2915 8.27601L29.4965 9.54801C29.604 9.61523 29.6682 9.6891 29.7168 9.78831L31.0638 9.12828L32.4108 8.46826C32.1114 7.85725 31.6607 7.36293 31.0865 7.00401L30.2915 8.27601ZM31.0638 9.12828L29.7222 9.79911C29.7881 9.93087 29.8302 10.0894 29.8302 10.3002H31.3302H32.8302C32.8302 9.65861 32.6947 9.03593 32.4055 8.45746L31.0638 9.12828ZM31.3302 10.3002H29.8302V10.8754H31.3302H32.8302V10.3002H31.3302ZM31.3302 10.8754H29.8302C29.8302 11.0805 29.7889 11.2377 29.7222 11.3712L31.0638 12.042L32.4055 12.7128C32.6938 12.1361 32.8302 11.5155 32.8302 10.8754H31.3302ZM31.0638 12.042L29.7222 11.3712C29.6706 11.4743 29.6004 11.5555 29.4823 11.6298L30.2808 12.8996L31.0793 14.1694C31.6502 13.8104 32.1019 13.3199 32.4055 12.7128L31.0638 12.042ZM30.2808 12.8996L29.4763 11.6336C29.4261 11.6655 29.3018 11.7245 29.0237 11.7245V13.2245V14.7245C29.7399 14.7245 30.4537 14.5669 31.0853 14.1656L30.2808 12.8996ZM29.0237 13.2245V11.7245C28.7462 11.7245 28.6169 11.6657 28.5598 11.6298L27.7613 12.8996L26.9627 14.1694C27.5945 14.5667 28.3069 14.7245 29.0237 14.7245V13.2245ZM27.7613 12.8996L28.5598 11.6298C28.4417 11.5555 28.3715 11.4743 28.3199 11.3712L26.9782 12.042L25.6366 12.7128C25.9401 13.3199 26.3919 13.8104 26.9627 14.1694L27.7613 12.8996ZM26.9782 12.042L28.3252 11.382C28.2587 11.2463 28.2172 11.0853 28.2172 10.8754H26.7172H25.2172C25.2172 11.5108 25.3498 12.1275 25.6313 12.702L26.9782 12.042ZM28.1075 10.3002H26.6075V10.8754H28.1075H29.6075V10.3002H28.1075ZM28.1075 10.8754H26.6075C26.6075 11.4085 26.739 11.9255 27.01 12.3963L28.3099 11.6478L29.6099 10.8994C29.6085 10.897 29.6082 10.8962 29.6085 10.8968C29.6087 10.8974 29.609 10.8982 29.6091 10.8987C29.6092 10.8991 29.6089 10.898 29.6085 10.8949C29.6081 10.8916 29.6075 10.8853 29.6075 10.8754H28.1075ZM28.3099 11.6478L27.01 12.3963C27.4849 13.2211 28.3087 13.4994 29.0237 13.4994V11.9994V10.4994C29.0239 10.4994 29.0294 10.4994 29.0395 10.5003C29.0497 10.5013 29.0651 10.5032 29.085 10.5072C29.1251 10.5153 29.1837 10.5321 29.2524 10.5659C29.4058 10.6415 29.532 10.7641 29.6099 10.8994L28.3099 11.6478ZM29.0237 11.9994V13.4994C29.721 13.4994 30.5705 13.2355 31.0443 12.3799L29.7322 11.6531L28.42 10.9264C28.5045 10.7738 28.6411 10.6431 28.8005 10.5652C28.941 10.4965 29.0357 10.4994 29.0237 10.4994V11.9994ZM29.7322 11.6531L31.0406 12.3867C31.3048 11.9153 31.4292 11.4012 31.4292 10.8754H29.9292H28.4292C28.4292 10.9009 28.4264 10.9125 28.4259 10.9144C28.4256 10.9159 28.4254 10.9167 28.4237 10.9196L29.7322 11.6531ZM29.9292 10.8754H31.4292V10.3002H29.9292H28.4292V10.8754H29.9292ZM29.9292 10.3002H31.4292C31.4292 9.7889 31.3152 9.28577 31.068 8.81971L29.7428 9.52246L28.4176 10.2252C28.419 10.2279 28.4292 10.2432 28.4292 10.3002H29.9292ZM29.7428 9.52246L31.0723 8.82793C30.6049 7.93304 29.7275 7.66557 29.0237 7.66557V9.16557V10.6656C29.0423 10.6656 28.9467 10.6698 28.803 10.5984C28.6379 10.5165 28.4974 10.378 28.4133 10.217L29.7428 9.52246ZM29.0237 9.16557V7.66557C28.2892 7.66557 27.4869 7.96375 27.0189 8.76786L28.3153 9.52246L29.6116 10.2771C29.5411 10.3983 29.4235 10.5176 29.2711 10.5944C29.1322 10.6644 29.0313 10.6656 29.0237 10.6656V9.16557ZM28.3153 9.52246L27.0239 8.75937C26.7427 9.23514 26.6075 9.75983 26.6075 10.3002H28.1075H29.6075C29.6075 10.2902 29.6081 10.2841 29.6085 10.2814C29.6088 10.2787 29.609 10.2784 29.6086 10.2798C29.6083 10.2812 29.6076 10.283 29.6069 10.2848C29.6062 10.2865 29.6059 10.2868 29.6066 10.2856L28.3153 9.52246ZM21.1721 4.63255H22.6721V4.05726H21.1721H19.6721V4.63255H21.1721ZM21.1721 4.05726H22.6721C22.6721 3.85127 22.7139 3.69651 22.7801 3.56688L21.4438 2.88539L20.1075 2.2039C19.8114 2.78449 19.6721 3.41098 19.6721 4.05726H21.1721ZM21.4438 2.88539L22.7801 3.56688C22.8344 3.46024 22.9061 3.38 23.0212 3.30879L22.2322 2.03311L21.4431 0.757436C20.8693 1.11237 20.4154 1.60031 20.1075 2.2039L21.4438 2.88539ZM22.2322 2.03311L23.0307 3.3029C23.0911 3.26492 23.2182 3.20819 23.4839 3.20819V1.70819V0.208185C22.7695 0.208185 22.0622 0.368066 21.4336 0.763328L22.2322 2.03311ZM23.4839 1.70819V3.20819C23.768 3.20819 23.8932 3.26823 23.9419 3.29915L24.7464 2.03311L25.5508 0.767078C24.9177 0.364759 24.2013 0.208185 23.4839 0.208185V1.70819ZM24.7464 2.03311L23.9573 3.30879C24.0677 3.37706 24.1305 3.45036 24.1771 3.54541L25.5241 2.88539L26.871 2.22536C26.5696 1.61019 26.114 1.1153 25.5354 0.757436L24.7464 2.03311ZM25.5241 2.88539L24.1771 3.54541C24.2427 3.6794 24.2851 3.84182 24.2851 4.05726H25.7851H27.2851C27.2851 3.42043 27.1534 2.8016 26.871 2.22536L25.5241 2.88539ZM25.7851 4.05726H24.2851V4.63255H25.7851H27.2851V4.05726H25.7851ZM25.7851 4.63255H24.2851C24.2851 4.84327 24.243 5.00184 24.1771 5.1336L25.5187 5.80442L26.8604 6.47524C27.1496 5.89677 27.2851 5.27409 27.2851 4.63255H25.7851ZM25.5187 5.80442L24.1744 5.13904C24.129 5.23079 24.0661 5.3051 23.952 5.37569L24.741 6.65137L25.5301 7.92704C26.1049 7.5715 26.5605 7.08117 26.8631 6.4698L25.5187 5.80442ZM24.741 6.65137L23.952 5.37569C23.8917 5.41299 23.7599 5.47097 23.4839 5.47097V6.97097V8.47097C24.1952 8.47097 24.9015 8.31588 25.5301 7.92705L24.741 6.65137ZM23.4839 6.97097V5.47097C23.1963 5.47097 23.0624 5.41102 23.0053 5.37569L22.2162 6.65137L21.4271 7.92705C22.0589 8.31785 22.7702 8.47097 23.4839 8.47097V6.97097ZM22.2162 6.65137L23.0112 5.37937C22.9012 5.31065 22.8326 5.23327 22.7801 5.12827L21.4385 5.79909L20.0968 6.46992C20.3995 7.07515 20.8493 7.56595 21.4212 7.92336L22.2162 6.65137ZM21.4385 5.79909L22.7801 5.12827C22.7134 4.99476 22.6721 4.83763 22.6721 4.63255H21.1721H19.6721C19.6721 5.27264 19.8085 5.8932 20.0968 6.46991L21.4385 5.79909ZM22.5731 4.05726H21.0731V4.63255H22.5731H24.0731V4.05726H22.5731ZM22.5731 4.63255H21.0731C21.0731 5.15826 21.1975 5.67238 21.4617 6.14375L22.7702 5.41024L24.0786 4.67674C24.0769 4.67376 24.0767 4.67303 24.0764 4.67155C24.0759 4.66964 24.0731 4.65804 24.0731 4.63255H22.5731ZM22.7702 5.41024L21.4752 6.16729C21.9548 6.98766 22.7792 7.25648 23.4839 7.25648V5.75648V4.25648C23.477 4.25648 23.5692 4.25471 23.7045 4.32032C23.8561 4.39386 23.9843 4.51505 24.0651 4.6532L22.7702 5.41024ZM23.4839 5.75648V7.25648C24.1854 7.25648 25.0283 6.98734 25.4992 6.13699L24.1871 5.41024L22.8749 4.6835C22.9577 4.53402 23.0924 4.40318 23.2527 4.32423C23.3947 4.25434 23.492 4.25648 23.4839 4.25648V5.75648ZM24.1871 5.41024L25.4955 6.14375C25.7597 5.67238 25.8841 5.15826 25.8841 4.63255H24.3841H22.8841C22.8841 4.65804 22.8813 4.66964 22.8808 4.67155C22.8805 4.67303 22.8803 4.67376 22.8786 4.67674L24.1871 5.41024ZM24.3841 4.63255H25.8841V4.05726H24.3841H22.8841V4.63255H24.3841ZM24.3841 4.05726H25.8841C25.8841 3.546 25.7701 3.04288 25.5229 2.57681L24.1977 3.27956L22.8725 3.98232C22.8739 3.985 22.8841 4.00034 22.8841 4.05726H24.3841ZM24.1977 3.27956L25.5272 2.58504C25.0625 1.69544 24.1921 1.42267 23.4839 1.42267V2.92267V4.42267C23.4987 4.42267 23.4005 4.42616 23.2552 4.35354C23.0893 4.27057 22.9507 4.13199 22.8682 3.97409L24.1977 3.27956ZM23.4839 2.92267V1.42267C22.7545 1.42267 21.9378 1.71599 21.4707 2.53955L22.7755 3.27956L24.0802 4.01957C24.0069 4.1489 23.8846 4.27294 23.7286 4.35152C23.5877 4.4225 23.4869 4.42267 23.4839 4.42267V2.92267ZM22.7755 3.27956L21.4707 2.53955C21.2044 3.00908 21.0731 3.52427 21.0731 4.05726H22.5731H24.0731C24.0731 4.03844 24.0752 4.03079 24.0753 4.03026C24.0755 4.02948 24.0757 4.02874 24.0762 4.02763C24.0766 4.02651 24.0778 4.02389 24.0802 4.01957L22.7755 3.27956ZM21.7794 12.9209L23.0154 13.7707L30.5154 2.8616L29.2794 2.01181L28.0433 1.16201L20.5433 12.0711L21.7794 12.9209ZM29.2794 2.01181V3.51181H30.6111V2.01181V0.511807H29.2794V2.01181ZM30.6111 2.01181L29.375 1.16201L21.875 12.0711L23.1111 12.9209L24.3471 13.7707L31.8471 2.8616L30.6111 2.01181ZM23.1111 12.9209V11.4209H21.7794V12.9209V14.4209H23.1111V12.9209ZM38.7742 12.5534L38.0025 13.8396H38.0025L38.7742 12.5534ZM37.4106 11.0779L36.072 11.7547L36.075 11.7607L37.4106 11.0779ZM37.4106 6.64071L36.0735 5.96094L36.0705 5.9669L37.4106 6.64071ZM38.7742 5.15989L39.546 6.44613V6.44613L38.7742 5.15989ZM42.9291 5.15989L42.1573 6.44613V6.44613L42.9291 5.15989ZM44.2874 6.64071L42.9472 7.31453L42.9502 7.32048L44.2874 6.64071ZM44.2874 11.0779L42.9518 10.3951L42.9488 10.401L44.2874 11.0779ZM42.9291 12.5534L42.1573 11.2671V11.2671L42.9291 12.5534ZM41.949 11.1791L42.8981 12.3407L42.9065 12.3337L41.949 11.1791ZM42.5988 10.2096L41.1873 9.70195L41.1834 9.71297L42.5988 10.2096ZM42.5988 7.49831L41.1821 7.99109L41.1847 7.99854L41.1873 8.00595L42.5988 7.49831ZM41.949 6.52353L42.9065 5.36889V5.36889L41.949 6.52353ZM39.7543 6.52353L38.8037 5.36319L38.7968 5.36889L39.7543 6.52353ZM39.0992 7.49831L37.6863 6.99458L37.6838 7.00168L39.0992 7.49831ZM39.0992 10.2096L37.6837 10.7063L37.6877 10.7172L39.0992 10.2096ZM39.7543 11.1791L38.7968 12.3337L38.8045 12.34L38.8122 12.3462L39.7543 11.1791ZM40.8517 13.0807V11.5807C40.2779 11.5807 39.8618 11.4566 39.546 11.2671L38.7742 12.5534L38.0025 13.8396C38.8585 14.3532 39.8274 14.5807 40.8517 14.5807V13.0807ZM38.7742 12.5534L39.546 11.2671C39.2104 11.0658 38.9468 10.7874 38.7462 10.3951L37.4106 11.0779L36.075 11.7607C36.5207 12.6325 37.1662 13.3378 38.0025 13.8396L38.7742 12.5534ZM37.4106 11.0779L38.7492 10.401C38.5543 10.0156 38.4312 9.51706 38.4312 8.86195H36.9312H35.4312C35.4312 9.89718 35.6277 10.8759 36.072 11.7547L37.4106 11.0779ZM36.9312 8.86195H38.4312C38.4312 8.20711 38.5543 7.70531 38.7507 7.31453L37.4106 6.64071L36.0705 5.9669C35.6277 6.84742 35.4312 7.82645 35.4312 8.86195H36.9312ZM37.4106 6.64071L38.7477 7.32048C38.949 6.9246 39.2126 6.64618 39.546 6.44613L38.7742 5.15989L38.0025 3.87365C37.164 4.37673 36.5185 5.08552 36.0735 5.96094L37.4106 6.64071ZM38.7742 5.15989L39.546 6.44613C39.8618 6.25662 40.2779 6.13255 40.8517 6.13255V4.63255V3.13255C39.8274 3.13255 38.8585 3.36004 38.0025 3.87365L38.7742 5.15989ZM40.8517 4.63255V6.13255C41.4254 6.13255 41.8415 6.25662 42.1573 6.44613L42.9291 5.15989L43.7008 3.87365C42.8448 3.36004 41.8759 3.13255 40.8517 3.13255V4.63255ZM42.9291 5.15989L42.1573 6.44613C42.4893 6.64529 42.7497 6.92173 42.9472 7.31453L44.2874 6.64071L45.6275 5.9669C45.1858 5.08839 44.5407 4.37761 43.7008 3.87365L42.9291 5.15989ZM44.2874 6.64071L42.9502 7.32048C43.1482 7.70989 43.2721 8.2095 43.2721 8.86195H44.7721H46.2721C46.2721 7.82406 46.0728 6.84285 45.6245 5.96094L44.2874 6.64071ZM44.7721 8.86195H43.2721C43.2721 9.51466 43.1481 10.011 42.9518 10.3951L44.2874 11.0779L45.623 11.7607C46.0729 10.8805 46.2721 9.89958 46.2721 8.86195H44.7721ZM44.2874 11.0779L42.9488 10.401C42.7519 10.7903 42.4914 11.0667 42.1573 11.2671L42.9291 12.5534L43.7008 13.8396C44.5386 13.3369 45.1836 12.6296 45.626 11.7547L44.2874 11.0779ZM42.9291 12.5534L42.1573 11.2671C41.8415 11.4566 41.4254 11.5807 40.8517 11.5807V13.0807V14.5807C41.8759 14.5807 42.8448 14.3532 43.7008 13.8396L42.9291 12.5534ZM40.8623 11.536V13.036C41.5861 13.036 42.299 12.8301 42.898 12.3406L41.949 11.1791L40.9999 10.0175C40.9991 10.0182 40.9993 10.0189 40.9908 10.0216C40.9798 10.0252 40.9413 10.036 40.8623 10.036V11.536ZM41.949 11.1791L42.9065 12.3337C43.4341 11.8961 43.7944 11.3327 44.0142 10.7062L42.5988 10.2096L41.1834 9.71297C41.1191 9.89618 41.0462 9.97904 40.9914 10.0244L41.949 11.1791ZM42.5988 10.2096L44.0103 10.7172C44.2228 10.1264 44.3172 9.50036 44.3172 8.85662H42.8172H41.3172C41.3172 9.2072 41.266 9.48315 41.1873 9.70197L42.5988 10.2096ZM42.8172 8.85662H44.3172C44.3172 8.21068 44.2232 7.58261 44.0103 6.99067L42.5988 7.49831L41.1873 8.00595C41.2656 8.22368 41.3172 8.50115 41.3172 8.85662H42.8172ZM42.5988 7.49831L44.0156 7.00553C43.7967 6.37647 43.4369 5.80881 42.9065 5.36889L41.949 6.52353L40.9914 7.67816C41.0433 7.7212 41.1168 7.8034 41.1821 7.99109L42.5988 7.49831ZM41.949 6.52353L42.9065 5.36889C42.3075 4.87219 41.5915 4.66131 40.8623 4.66131V6.16131V7.66131C40.9391 7.66131 40.9755 7.67186 40.9846 7.67489C40.9911 7.67706 40.9902 7.67717 40.9914 7.67816L41.949 6.52353ZM40.8623 6.16131V4.66131C40.1318 4.66131 39.4096 4.86684 38.8037 5.36321L39.7543 6.52353L40.705 7.68384C40.7058 7.68316 40.7068 7.68142 40.7185 7.67761C40.733 7.67288 40.7765 7.66131 40.8623 7.66131V6.16131ZM39.7543 6.52353L38.7968 5.36889C38.2693 5.80637 37.909 6.37001 37.6863 6.99459L39.0992 7.49831L40.5121 8.00204C40.5806 7.80986 40.657 7.72364 40.7119 7.67816L39.7543 6.52353ZM39.0992 7.49831L37.6838 7.00168C37.4772 7.59027 37.3861 8.21445 37.3861 8.85662H38.8861H40.3861C40.3861 8.49737 40.437 8.21601 40.5146 7.99495L39.0992 7.49831ZM38.8861 8.85662H37.3861C37.3861 9.49656 37.4776 10.1187 37.6838 10.7062L39.0992 10.2096L40.5146 9.71297C40.4366 9.49084 40.3861 9.21101 40.3861 8.85662H38.8861ZM39.0992 10.2096L37.6877 10.7172C37.9113 11.3391 38.2721 11.8986 38.7968 12.3337L39.7543 11.1791L40.7119 10.0244C40.6542 9.97662 40.5782 9.88973 40.5107 9.70197L39.0992 10.2096ZM39.7543 11.1791L38.8122 12.3462C39.418 12.8353 40.1372 13.036 40.8623 13.036V11.536V10.036C40.7744 10.036 40.7287 10.0243 40.7123 10.019C40.6987 10.0146 40.697 10.0123 40.6965 10.0119L39.7543 11.1791ZM50.5529 4.73908H52.0529V3.23908H50.5529V4.73908ZM50.5529 6.23056V7.73056H52.0529V6.23056H50.5529ZM45.7163 6.23056H44.2163V7.73056H45.7163V6.23056ZM45.7163 4.73908V3.23908H44.2163V4.73908H45.7163ZM46.9254 12.9209H45.4254V14.4209H46.9254V12.9209ZM47.2663 2.59242L45.9978 1.79187L45.9923 1.80076L47.2663 2.59242ZM48.1932 1.77211L47.5575 0.413468V0.413468L48.1932 1.77211ZM50.3718 1.58034L50.0699 3.04965L50.0699 3.04965L50.3718 1.58034ZM50.9471 1.72416L52.3998 2.09773L52.7451 0.754921L51.4336 0.305247L50.9471 1.72416ZM50.5636 3.21564L50.1268 4.65065L51.626 5.10694L52.0163 3.5892L50.5636 3.21564ZM50.2546 3.14107L49.9204 4.60336L49.9404 4.60792L49.9604 4.61194L50.2546 3.14107ZM49.0774 3.35946L47.9385 2.38328L47.9369 2.38523L49.0774 3.35946ZM48.859 12.9209V14.4209H50.359V12.9209H48.859ZM50.5529 4.73908H49.0529V6.23056H50.5529H52.0529V4.73908H50.5529ZM50.5529 6.23056V4.73056H45.7163V6.23056V7.73056H50.5529V6.23056ZM45.7163 6.23056H47.2163V4.73908H45.7163H44.2163V6.23056H45.7163ZM45.7163 4.73908V6.23908H50.5529V4.73908V3.23908H45.7163V4.73908ZM46.9254 12.9209H48.4254V3.96671H46.9254H45.4254V12.9209H46.9254ZM46.9254 3.96671H48.4254C48.4254 3.61922 48.4967 3.45442 48.5404 3.38408L47.2663 2.59242L45.9923 1.80076C45.5814 2.46195 45.4254 3.21335 45.4254 3.96671H46.9254ZM47.2663 2.59242L48.5349 3.39294C48.6145 3.26682 48.7051 3.18865 48.8289 3.13074L48.1932 1.77211L47.5575 0.413468C46.9071 0.717778 46.3799 1.18648 45.9978 1.79189L47.2663 2.59242ZM48.1932 1.77211L48.8289 3.13074C48.9969 3.05215 49.2063 3.00044 49.4822 3.00044V1.50044V0.000443459C48.8136 0.000443459 48.1637 0.129848 47.5575 0.413468L48.1932 1.77211ZM49.4822 1.50044V3.00044C49.7396 3.00044 49.9318 3.02127 50.0699 3.04965L50.3718 1.58034L50.6737 0.111043C50.2933 0.0328827 49.8925 0.000443459 49.4822 0.000443459V1.50044ZM50.3718 1.58034L50.0699 3.04965C50.3159 3.10019 50.4306 3.1328 50.4606 3.14308L50.9471 1.72416L51.4336 0.305247C51.215 0.230305 50.9462 0.167028 50.6737 0.111042L50.3718 1.58034ZM50.9471 1.72416L49.4944 1.3506L49.1108 2.84208L50.5636 3.21564L52.0163 3.5892L52.3998 2.09773L50.9471 1.72416ZM50.5636 3.21564L51.0003 1.78063C50.8552 1.73646 50.7005 1.70055 50.5488 1.6702L50.2546 3.14107L49.9604 4.61194C50.0573 4.6313 50.1086 4.64511 50.1268 4.65065L50.5636 3.21564ZM50.2546 3.14107L50.5889 1.67878C50.3359 1.62096 50.083 1.59846 49.8391 1.59846V3.09846V4.59846C49.9007 4.59846 49.9248 4.60436 49.9204 4.60336L50.2546 3.14107ZM49.8391 3.09846V1.59846C49.2888 1.59846 48.5012 1.72684 47.9385 2.38328L49.0774 3.35946L50.2163 4.33565C50.0889 4.48429 49.9484 4.55447 49.8659 4.58271C49.7937 4.60746 49.7731 4.59846 49.8391 4.59846V3.09846ZM49.0774 3.35946L47.9369 2.38523C47.4777 2.92283 47.359 3.56758 47.359 4.09455H48.859H50.359C50.359 3.98231 50.386 4.137 50.218 4.33369L49.0774 3.35946ZM48.859 4.09455H47.359V12.9209H48.859H50.359V4.09455H48.859ZM48.859 12.9209V11.4209H46.9254V12.9209V14.4209H48.859V12.9209ZM56.2072 4.73908H57.7072V3.23908H56.2072V4.73908ZM56.2072 6.23056V7.73056H57.7072V6.23056H56.2072ZM51.3706 6.23056H49.8706V7.73056H51.3706V6.23056ZM51.3706 4.73908V3.23908H49.8706V4.73908H51.3706ZM52.5797 12.9209H51.0797V14.4209H52.5797V12.9209ZM52.9206 2.59242L51.6521 1.79187L51.6466 1.80076L52.9206 2.59242ZM53.8475 1.77211L53.2118 0.413468V0.413468L53.8475 1.77211ZM56.0261 1.58034L55.7242 3.04965L55.7242 3.04965L56.0261 1.58034ZM56.6014 1.72416L58.0541 2.09773L58.3994 0.754921L57.0879 0.305247L56.6014 1.72416ZM56.2179 3.21564L55.7811 4.65065L57.2803 5.10694L57.6706 3.5892L56.2179 3.21564ZM55.9089 3.14107L55.5747 4.60336L55.5947 4.60792L55.6147 4.61194L55.9089 3.14107ZM54.7317 3.35946L53.5928 2.38328L53.5912 2.38523L54.7317 3.35946ZM54.5133 12.9209V14.4209H56.0133V12.9209H54.5133ZM56.2072 4.73908H54.7072V6.23056H56.2072H57.7072V4.73908H56.2072ZM56.2072 6.23056V4.73056H51.3706V6.23056V7.73056H56.2072V6.23056ZM51.3706 6.23056H52.8706V4.73908H51.3706H49.8706V6.23056H51.3706ZM51.3706 4.73908V6.23908H56.2072V4.73908V3.23908H51.3706V4.73908ZM52.5797 12.9209H54.0797V3.96671H52.5797H51.0797V12.9209H52.5797ZM52.5797 3.96671H54.0797C54.0797 3.61922 54.151 3.45442 54.1947 3.38408L52.9206 2.59242L51.6466 1.80076C51.2357 2.46195 51.0797 3.21335 51.0797 3.96671H52.5797ZM52.9206 2.59242L54.1892 3.39294C54.2687 3.26682 54.3594 3.18865 54.4832 3.13074L53.8475 1.77211L53.2118 0.413468C52.5614 0.717778 52.0342 1.18648 51.6521 1.79189L52.9206 2.59242ZM53.8475 1.77211L54.4832 3.13074C54.6512 3.05215 54.8606 3.00044 55.1365 3.00044V1.50044V0.000443459C54.4679 0.000443459 53.818 0.129848 53.2118 0.413468L53.8475 1.77211ZM55.1365 1.50044V3.00044C55.3939 3.00044 55.5861 3.02127 55.7242 3.04965L56.0261 1.58034L56.328 0.111043C55.9476 0.0328827 55.5468 0.000443459 55.1365 0.000443459V1.50044ZM56.0261 1.58034L55.7242 3.04965C55.9702 3.10019 56.0849 3.1328 56.1149 3.14308L56.6014 1.72416L57.0879 0.305247C56.8693 0.230305 56.6005 0.167028 56.328 0.111042L56.0261 1.58034ZM56.6014 1.72416L55.1486 1.3506L54.7651 2.84208L56.2179 3.21564L57.6706 3.5892L58.0541 2.09773L56.6014 1.72416ZM56.2179 3.21564L56.6546 1.78063C56.5095 1.73646 56.3548 1.70055 56.2031 1.6702L55.9089 3.14107L55.6147 4.61194C55.7116 4.6313 55.7629 4.64511 55.7811 4.65065L56.2179 3.21564ZM55.9089 3.14107L56.2431 1.67878C55.9902 1.62096 55.7373 1.59846 55.4934 1.59846V3.09846V4.59846C55.555 4.59846 55.5791 4.60436 55.5747 4.60336L55.9089 3.14107ZM55.4934 3.09846V1.59846C54.9431 1.59846 54.1555 1.72684 53.5928 2.38328L54.7317 3.35946L55.8706 4.33565C55.7432 4.48429 55.6027 4.55447 55.5202 4.58271C55.448 4.60746 55.4274 4.59846 55.4934 4.59846V3.09846ZM54.7317 3.35946L53.5912 2.38523C53.132 2.92283 53.0133 3.56758 53.0133 4.09455H54.5133H56.0133C56.0133 3.98231 56.0403 4.137 55.8723 4.33369L54.7317 3.35946ZM54.5133 4.09455H53.0133V12.9209H54.5133H56.0133V4.09455H54.5133ZM54.5133 12.9209V11.4209H52.5797V12.9209V14.4209H54.5133V12.9209Z" fill="black" mask="url(#path-1-outside-1_11746_10680)"/>
</svg>
