<svg width="22" height="22" viewBox="0 0 22 22" fill="none" xmlns="http://www.w3.org/2000/svg">
<g clip-path="url(#clip0_10442_12342)">
<path d="M4.03606 8.27996C4.14496 8.43933 4.26979 8.59338 4.41057 8.74212C4.94975 9.31317 5.71204 9.79658 6.62308 10.1525C6.93384 10.2747 7.26319 10.3783 7.60848 10.4712C8.22203 10.6279 8.88605 10.7315 9.57663 10.7714C9.78646 10.7846 10.0016 10.79 10.2194 10.79C10.4372 10.79 10.6523 10.7846 10.8622 10.7714C11.5528 10.7315 12.2168 10.6279 12.8303 10.4712C13.1756 10.3809 13.505 10.2747 13.8157 10.1525C14.7268 9.79924 15.4864 9.31317 16.0282 8.74212C16.169 8.59603 16.2938 8.43933 16.4027 8.27996C16.517 8.11263 16.6152 7.93998 16.6923 7.76203C16.8383 7.43002 16.918 7.07941 16.918 6.71553C16.918 4.46584 13.9193 2.64111 10.2221 2.64111C6.5248 2.64111 3.52609 4.46584 3.52609 6.71553C3.52609 7.07676 3.60312 7.42736 3.75186 7.76203C3.82357 7.93998 3.92185 8.11263 4.03606 8.27996ZM10.2194 16.0065C7.50489 16.0065 5.15427 15.1326 3.7492 13.778C3.60312 14.1127 3.52344 14.4633 3.52344 14.8272C3.52344 17.0769 6.52215 18.9016 10.2194 18.9016C13.9167 18.9016 16.9154 17.0795 16.9154 14.8272C16.9154 14.466 16.8383 14.1154 16.6896 13.778C15.2845 15.1326 12.9339 16.0065 10.2194 16.0065Z" fill="#CCFF00"/>
<path d="M15.2447 10.7699C15.0402 10.8814 14.825 10.9877 14.6019 11.0859C14.3496 11.1975 14.0866 11.2984 13.8157 11.3887C12.7427 11.7499 11.5235 11.9518 10.2194 11.9518C8.91527 11.9518 7.69613 11.7499 6.62308 11.3887C6.35216 11.2984 6.08921 11.2001 5.83688 11.0859C5.61377 10.9903 5.39863 10.8814 5.19411 10.7699C4.64165 10.4671 4.15293 10.1165 3.74655 9.7207C3.60013 10.0511 3.52415 10.4084 3.52344 10.7699C3.52344 11.1311 3.60046 11.4817 3.7492 11.819C3.82357 11.997 3.9245 12.1696 4.03872 12.3369C4.14762 12.4963 4.27245 12.6504 4.41322 12.7991C5.56862 14.0235 7.73597 14.8469 10.2221 14.8469C12.7081 14.8469 14.8755 14.0235 16.0309 12.7991C16.1717 12.653 16.2965 12.4963 16.4054 12.3369C16.5196 12.1696 16.6179 11.997 16.6949 11.819C16.841 11.4843 16.9207 11.1337 16.9207 10.7699C16.9207 10.4086 16.8437 10.058 16.6976 9.7207C16.2859 10.1165 15.7972 10.4671 15.2447 10.7699Z" fill="#CCFF00"/>
</g>
<defs>
<clipPath id="clip0_10442_12342">
<rect width="21.1288" height="21.1288" rx="10.5644" fill="white"/>
</clipPath>
</defs>
</svg>
