<svg width="24" height="24" viewBox="0 0 24 24" fill="none" xmlns="http://www.w3.org/2000/svg">
<path d="M12.0028 22.909C18.0483 22.909 22.9119 18.0454 22.9119 11.9999C22.9119 5.95442 18.0483 1.09082 12.0028 1.09082C5.95735 1.09082 1.09375 5.95442 1.09375 11.9999C1.09375 18.0454 5.95735 22.909 12.0028 22.909Z" fill="#2775CA"/>
<path d="M15.001 13.7267C15.001 12.1358 14.0465 11.5903 12.1374 11.3631C10.7738 11.1812 10.501 10.8176 10.501 10.1812C10.501 9.54476 10.9556 9.13578 11.8647 9.13578C12.6828 9.13578 13.1374 9.40851 13.3647 10.0903C13.4102 10.2267 13.5465 10.3176 13.6829 10.3176H14.4101C14.5919 10.3176 14.7283 10.1812 14.7283 9.99945V9.95396C14.5464 8.95392 13.7283 8.18123 12.6828 8.09036V6.99945C12.6828 6.8176 12.5465 6.68123 12.3192 6.63574H11.6374C11.4556 6.63574 11.3192 6.77211 11.2737 6.99945V8.04487C9.91008 8.22672 9.04652 9.13578 9.04652 10.2722C9.04652 11.7722 9.95557 12.363 11.8647 12.5904C13.1374 12.8176 13.5465 13.0903 13.5465 13.8176C13.5465 14.5449 12.9101 15.0449 12.0465 15.0449C10.8646 15.0449 10.4555 14.5448 10.3192 13.863C10.2738 13.6813 10.1374 13.5903 10.0011 13.5903H9.22827C9.04652 13.5903 8.91016 13.7267 8.91016 13.9085V13.954C9.0919 15.0903 9.81921 15.9085 11.3192 16.1358V17.2267C11.3192 17.4085 11.4556 17.5448 11.6828 17.5903H12.3646C12.5465 17.5903 12.6828 17.454 12.7283 17.2267V16.1358C14.092 15.9085 15.001 14.9539 15.001 13.7267Z" fill="white"/>
<path d="M9.6827 18.4992C6.13725 17.2265 4.31903 13.272 5.63729 9.7719C6.3191 7.86281 7.8191 6.4083 9.6827 5.72648C9.86456 5.63561 9.95543 5.49925 9.95543 5.2719V4.63557C9.95543 4.45372 9.86456 4.31735 9.6827 4.27197C9.63721 4.27197 9.54634 4.27197 9.50085 4.31735C5.1827 5.68099 2.81903 10.272 4.18267 14.5901C5.00085 17.1355 6.95543 19.0901 9.50085 19.9083C9.6827 19.9992 9.86456 19.9083 9.90994 19.7264C9.95543 19.6811 9.95543 19.6356 9.95543 19.5447V18.9083C9.95543 18.7719 9.81907 18.5902 9.6827 18.4992ZM14.5009 4.31735C14.3191 4.22648 14.1372 4.31735 14.0918 4.49921C14.0463 4.5447 14.0463 4.59008 14.0463 4.68106V5.31739C14.0463 5.49925 14.1827 5.68099 14.3191 5.77197C17.8645 7.04463 19.6827 10.9992 18.3645 14.4992C17.6827 16.4083 16.1827 17.8628 14.3191 18.5447C14.1372 18.6355 14.0463 18.7719 14.0463 18.9992V19.6356C14.0463 19.8174 14.1372 19.9538 14.3191 19.9992C14.3646 19.9992 14.4554 19.9992 14.5009 19.9538C18.8191 18.5902 21.1827 13.9992 19.8191 9.68103C19.0009 7.09012 17.0009 5.13554 14.5009 4.31735Z" fill="white"/>
</svg>
