<svg width="24" height="24" viewBox="0 0 24 24" fill="none" xmlns="http://www.w3.org/2000/svg">
<path d="M12.0028 22.909C5.97775 22.909 1.09375 18.025 1.09375 11.9999C1.09375 5.97482 5.97775 1.09082 12.0028 1.09082C18.0279 1.09082 22.9119 5.97482 22.9119 11.9999C22.9119 18.025 18.0279 22.909 12.0028 22.909Z" fill="#14D075"/>
<path d="M17.2749 6.63184V9.11674H13.2617V10.71L13.4528 10.718L13.6416 10.7271C13.673 10.7286 13.7043 10.7303 13.7354 10.732L13.9213 10.7427L14.1051 10.7545C14.1657 10.7586 14.2262 10.7629 14.2867 10.7674L14.466 10.7813L14.5548 10.7886L14.7304 10.8041L14.9038 10.8204L15.0744 10.8379L15.2424 10.8564L15.4078 10.8758L15.5702 10.8961L15.7298 10.9173C15.8352 10.9317 15.9385 10.9467 16.0401 10.9624L16.1906 10.9863C16.2401 10.9943 16.2892 11.0026 16.3377 11.011L16.4818 11.0365L16.6224 11.0629C16.6687 11.0718 16.7144 11.081 16.7596 11.0901L16.8932 11.118C18.1243 11.3827 18.885 11.7473 18.885 12.15C18.885 12.5363 18.185 12.8876 17.0415 13.1491L16.9126 13.1778L16.8468 13.1919L16.7127 13.2194L16.6443 13.2329L16.5049 13.2592L16.3624 13.2847C16.1698 13.3183 15.9687 13.3496 15.7597 13.3786L15.6015 13.3999L15.5212 13.4102L15.3588 13.4301C15.3315 13.4334 15.3041 13.4366 15.2765 13.4397L15.11 13.4582L14.9407 13.4758L14.8552 13.4841L14.6822 13.5002L14.5068 13.5154L14.3289 13.5295L14.2391 13.5361L14.058 13.5486C14.0276 13.5507 13.9971 13.5526 13.9665 13.5545L13.7821 13.5653L13.5957 13.5752C13.5644 13.5768 13.533 13.5784 13.5017 13.5798L13.3124 13.5879V18.797H10.7228V13.5859L10.6286 13.5818L10.4415 13.5728L10.2566 13.5628L10.0736 13.5516L9.98285 13.5457L9.80311 13.533L9.62565 13.5192L9.53772 13.5121L9.36368 13.4969L9.19215 13.4806L9.02302 13.4634L8.85651 13.4452L8.7744 13.4359L8.61176 13.4163C8.55816 13.4097 8.5049 13.4028 8.4521 13.3959L8.29528 13.3746L8.21796 13.3635L8.06559 13.3409C7.94282 13.3222 7.82029 13.302 7.69801 13.2806L7.55659 13.255L7.41859 13.2286L7.28379 13.2015L7.15263 13.1736L7.0249 13.145C6.98293 13.1353 6.94164 13.1255 6.90082 13.1157L6.78038 13.0856C6.76078 13.0806 6.74121 13.0754 6.72165 13.0703L6.60703 13.0391L6.49617 13.0073L6.38942 12.9749C5.63853 12.7401 5.19922 12.4561 5.19922 12.15C5.19922 11.8161 5.72236 11.5083 6.60281 11.262L6.7172 11.231L6.83524 11.2006C6.87527 11.1906 6.91587 11.1806 6.95715 11.1708L7.08261 11.1419L7.21182 11.1137C7.23349 11.109 7.2555 11.1043 7.27763 11.0998L7.41198 11.0726L7.54963 11.0463L7.69071 11.0207C7.78776 11.0036 7.88497 10.9874 7.98233 10.9721L8.13288 10.949L8.28627 10.9267L8.44274 10.9054L8.52201 10.895L8.68259 10.875L8.84602 10.856L9.01207 10.8377L9.18075 10.8206L9.35182 10.8043L9.5254 10.789L9.70126 10.7747L9.79011 10.768L9.96939 10.7552C9.9995 10.7531 10.0296 10.7511 10.0598 10.7492L10.2423 10.738L10.427 10.7278L10.5199 10.7232L10.7074 10.7147V9.11674H6.69439V6.63184H17.275H17.2749ZM13.2618 10.8488V12.7692H10.7073V10.8535L10.5446 10.8607L10.3838 10.8686L10.2246 10.8774L10.0675 10.8871L9.91214 10.8974L9.75874 10.9085L9.6074 10.9203L9.45823 10.9328L9.31111 10.9462L9.16626 10.9602L9.02382 10.9749L8.88365 10.9902L8.746 11.0063L8.61074 11.0229L8.47799 11.0403L8.34797 11.0582L8.22058 11.0769L8.15785 11.0864L8.03468 11.106C8.01438 11.1092 7.99419 11.1125 7.97424 11.116L7.85528 11.1363L7.7393 11.1573L7.68239 11.168L7.57096 11.1897L7.46262 11.2121L7.35746 11.235C7.34034 11.2388 7.32324 11.2427 7.30614 11.2467L7.20578 11.2703L7.10884 11.2945C7.06236 11.3064 7.01601 11.3188 6.96981 11.3317L6.88154 11.357L6.83866 11.3698L6.75575 11.3959C6.74217 11.4003 6.72883 11.4046 6.7156 11.4091L6.63805 11.4358C6.19714 11.5927 5.94783 11.7714 5.94783 11.9607C5.94783 12.199 6.34175 12.42 7.01509 12.6025L7.12366 12.631L7.2368 12.6588C7.39077 12.6955 7.55636 12.7303 7.73291 12.7631L7.86714 12.7875L8.00548 12.811L8.14759 12.8337C8.26757 12.8522 8.39142 12.87 8.51904 12.8869L8.67381 12.9066C8.72593 12.9131 8.77873 12.9194 8.83188 12.9255L8.99337 12.9436L9.07525 12.9522L9.24142 12.9689L9.41067 12.9846L9.49632 12.9921L9.6699 13.0064L9.84633 13.0196L10.0254 13.0319C10.0855 13.0358 10.1461 13.0395 10.207 13.0432L10.391 13.0534C10.4219 13.0551 10.453 13.0567 10.484 13.0581L10.6717 13.0668L10.8616 13.0743C10.9252 13.0766 10.9892 13.0786 11.0535 13.0807L11.2476 13.086L11.4436 13.0902L11.5422 13.0918L11.7409 13.0942C11.8074 13.0947 11.8742 13.0953 11.9413 13.0954L12.042 13.0955C12.143 13.0955 12.2434 13.0951 12.3431 13.0942L12.5419 13.0918L12.6405 13.0902L12.8364 13.086L13.0306 13.0806C13.0627 13.0797 13.0948 13.0786 13.1268 13.0777L13.3177 13.0706C13.3494 13.0694 13.3809 13.0681 13.4124 13.0667L13.6 13.0581L13.6929 13.0534L13.8771 13.0432L13.9683 13.0378L14.1486 13.0258C14.1784 13.0239 14.2081 13.0218 14.2378 13.0196L14.4141 13.0064L14.5877 12.9921L14.7584 12.9769L14.8427 12.9689L15.0088 12.9522L15.0907 12.9436L15.2521 12.9255C15.3054 12.9194 15.3582 12.9131 15.4103 12.9066L15.565 12.8868C15.6925 12.87 15.8165 12.8523 15.9365 12.8336L16.0786 12.811L16.2168 12.7875L16.3512 12.7632C16.5277 12.7303 16.6933 12.6955 16.8473 12.6589L16.9603 12.631C16.9973 12.6216 17.0335 12.6121 17.069 12.6025L17.1729 12.5734C17.7826 12.3967 18.1361 12.1865 18.1361 11.9608C18.1361 11.7852 17.9217 11.6189 17.5392 11.4705L17.4654 11.4429C17.4397 11.4336 17.4138 11.4245 17.3879 11.4157L17.3064 11.3889L17.2214 11.3627C17.1199 11.3322 17.0109 11.3029 16.8948 11.2744L16.7938 11.2503L16.6892 11.2268C16.6714 11.2229 16.6536 11.219 16.6357 11.2152L16.5262 11.1925L16.4137 11.1703L16.2979 11.1487L16.179 11.1277L16.0572 11.1073L15.9324 11.0874L15.8047 11.0682L15.6743 11.0497L15.5411 11.0317L15.4054 11.0144L15.2668 10.9978L15.1258 10.9819L14.9825 10.9667L14.8366 10.9522L14.6885 10.9385L14.6135 10.9318L14.4621 10.9191L14.3856 10.913L14.2308 10.9015L14.0741 10.8907L13.9949 10.8857L13.8353 10.8761L13.6736 10.8673L13.5101 10.8592L13.345 10.8521L13.2617 10.8488H13.2618Z" fill="white"/>
</svg>
