<svg width="36" height="36" viewBox="0 0 36 36" fill="none" xmlns="http://www.w3.org/2000/svg">
<g clip-path="url(#clip0_10165_13253)">
<rect x="5.6999" y="12.113" width="24.6628" height="18.5441" rx="2.94099" fill="#CCFF00" stroke="black" stroke-width="2.25918"/>
<path d="M3.34766 15.8784H1.37745C1.11388 15.8784 0.900208 16.0921 0.900208 16.3557V26.4147C0.900208 26.6783 1.11388 26.8919 1.37745 26.8919H3.34766V15.8784Z" fill="black"/>
<path d="M32.7148 15.8784H34.6851C34.9486 15.8784 35.1623 16.0921 35.1623 16.3557V26.4147C35.1623 26.6783 34.9486 26.8919 34.6851 26.8919H32.7148V15.8784Z" fill="black"/>
<path d="M11.9141 10.9829L11.9141 9.0127C11.9141 8.74913 12.1277 8.53546 12.3913 8.53546L23.6741 8.53546C23.9376 8.53546 24.1513 8.74913 24.1513 9.0127L24.1513 10.9829L11.9141 10.9829Z" fill="black"/>
<path d="M18.0334 7.59521C16.6817 7.59521 15.5859 6.49945 15.5859 5.14777C15.5859 3.79608 16.6817 2.70032 18.0334 2.70032C19.3851 2.70032 20.4808 3.79608 20.4808 5.14777C20.4808 6.49945 19.3851 7.59521 18.0334 7.59521Z" fill="black"/>
<path d="M19.2539 10.6538L17.2837 10.6538C17.0201 10.6538 16.8065 10.4401 16.8065 10.1766L16.8065 7.45988C16.8065 7.1963 17.0201 6.98264 17.2837 6.98264L19.2539 6.98264L19.2539 10.6538Z" fill="black"/>
<path d="M14.4697 24.4443C14.4697 23.8295 14.9681 23.3311 15.583 23.3311L21.7021 23.3311C22.3169 23.3313 22.8154 23.8296 22.8154 24.4443C22.8154 25.0591 22.3168 25.5574 21.7021 25.5576L15.583 25.5576C14.9682 25.5576 14.4698 25.0592 14.4697 24.4443Z" fill="black" stroke="black" stroke-width="0.220673"/>
<rect x="6.73744" y="13.2428" width="22.5918" height="15.8143" rx="1.78467" stroke="black" stroke-width="1.50612"/>
</g>
<defs>
<clipPath id="clip0_10165_13253">
<rect width="36" height="36" fill="white"/>
</clipPath>
</defs>
</svg>
