<svg width="36" height="36" viewBox="0 0 36 36" fill="none" xmlns="http://www.w3.org/2000/svg">
<path d="M7.66819 20.8246C6.66373 21.8291 6.11328 23.159 6.11328 24.5773C6.11328 25.9956 6.66775 27.3295 7.66819 28.33C8.67266 29.3344 10.0026 29.8849 11.4209 29.8849C12.8392 29.8849 14.1731 29.3304 15.1735 28.33L17.5602 25.9434L10.0548 18.438L7.66819 20.8246ZM24.5753 6.11523C23.157 6.11523 21.8231 6.6697 20.8227 7.67015L18.436 10.0568L25.9414 17.5621L28.328 15.1755C29.3285 14.171 29.8829 12.8411 29.8829 11.4228C29.8829 10.0045 29.3285 8.67059 28.328 7.67015C27.3235 6.66568 25.9936 6.11523 24.5753 6.11523Z" fill="#DDDDDD"/>
<path d="M20.6871 19.3941C20.6267 19.3343 20.5451 19.3007 20.4601 19.3007C20.3751 19.3007 20.2935 19.3343 20.2331 19.3941L17.5572 22.07L13.9291 18.4419L16.609 15.762C16.7336 15.6374 16.7336 15.4325 16.609 15.308L15.1465 13.8455C15.0861 13.7856 15.0045 13.7521 14.9195 13.7521C14.8345 13.7521 14.7529 13.7856 14.6925 13.8455L12.0126 16.5254L10.2849 14.7977C10.2549 14.7677 10.2192 14.744 10.1798 14.7281C10.1405 14.7123 10.0983 14.7045 10.0559 14.7053C9.97552 14.7053 9.89114 14.7374 9.82686 14.7977L5.73668 18.8919C4.23736 20.3873 3.39088 22.4154 3.38221 24.533C3.37418 26.12 3.83221 27.7111 4.76034 29.0772L1.70275 32.1347C1.64293 32.1952 1.60938 32.2767 1.60938 32.3618C1.60938 32.4468 1.64293 32.5284 1.70275 32.5888L3.40632 34.2923C3.47061 34.3566 3.55096 34.3847 3.63534 34.3847C3.71971 34.3847 3.80007 34.3526 3.86436 34.2923L6.92195 31.2347C8.27597 32.1548 9.85096 32.6129 11.426 32.6129C13.4831 32.6129 15.5403 31.8294 17.1112 30.2584L21.2054 26.1642C21.33 26.0397 21.33 25.8347 21.2054 25.7102L19.4778 23.9825L22.1577 21.3026C22.2822 21.178 22.2822 20.9731 22.1577 20.8486L20.6871 19.3941ZM15.1746 28.3298C14.6829 28.8241 14.098 29.216 13.4539 29.4829C12.8098 29.7498 12.1192 29.8864 11.4219 29.8847C10.0036 29.8847 8.67373 29.3343 7.66927 28.3298C6.66882 27.3294 6.11436 25.9955 6.11436 24.5772C6.11436 23.1589 6.6648 21.8289 7.66927 20.8245L10.0559 18.4379L17.5612 25.9432L15.1746 28.3298ZM34.2996 3.40707L32.5961 1.70349C32.5318 1.63921 32.4514 1.61108 32.367 1.61108C32.2827 1.61108 32.2023 1.64323 32.138 1.70349L29.0804 4.76108C27.7512 3.86049 26.182 3.38034 24.5764 3.38296C22.5193 3.38296 20.4621 4.16644 18.8911 5.73742L14.7969 9.83162C14.7371 9.89203 14.7036 9.97361 14.7036 10.0586C14.7036 10.1436 14.7371 10.2252 14.7969 10.2856L25.7135 21.2022C25.7778 21.2664 25.8581 21.2946 25.9425 21.2946C26.0228 21.2946 26.1072 21.2624 26.1715 21.2022L30.2657 17.108C33.034 14.3356 33.3594 10.0486 31.242 6.92269L34.2996 3.8651C34.4242 3.73653 34.4242 3.53162 34.2996 3.40707ZM28.3291 15.1754L25.9425 17.562L18.4371 10.0566L20.8237 7.67001C21.8242 6.66957 23.1581 6.1151 24.5764 6.1151C25.9947 6.1151 27.3246 6.66555 28.3291 7.67001C29.3295 8.67046 29.884 10.0044 29.884 11.4227C29.884 12.841 29.3295 14.1709 28.3291 15.1754Z" fill="black"/>
</svg>
