<svg width="45" height="45" viewBox="0 0 45 45" fill="none" xmlns="http://www.w3.org/2000/svg">
<g clip-path="url(#clip0_11304_11351)">
<rect x="0.5" y="0.5" width="44" height="44" rx="22" fill="#BEEB09"/>
<rect x="19.8203" y="30.0605" width="5.97346" height="0.963461" rx="0.48173" fill="#CCFF00"/>
<path d="M25.2295 32.5513V34.7104H19.6768V32.5513H25.2295Z" fill="#5B5B5B" stroke="black" stroke-width="0.352597"/>
<path d="M35.6914 41.9321L31.6365 41.9321L31.6365 37.745L35.6914 37.745L35.6914 41.9321Z" fill="#626262"/>
<path d="M40.1836 42.9458L36.2669 41.8963L37.3506 37.8519L41.2088 38.8888L40.1836 42.9458Z" fill="#626262"/>
<path d="M44.1992 45.125L40.6876 43.0976L42.7811 39.4714L46.2928 41.4989L44.1992 45.125Z" fill="#626262"/>
<path d="M36.208 41.6694C36.083 41.5963 35.9294 41.585 35.7959 41.6372L35.7959 38.0015C36.2258 38.2354 36.7411 38.2669 37.2002 38.0825L36.208 41.6694Z" fill="#424242" stroke="black" stroke-width="0.259843"/>
<path d="M40.6971 42.8564C40.6093 42.7676 40.4856 42.7222 40.3619 42.7302L41.2825 39.1249C41.6455 39.4103 42.0869 39.5829 42.5474 39.6185L40.6971 42.8564Z" fill="#424242" stroke="black" stroke-width="0.259843"/>
<path d="M44.8314 45.1327C44.7514 44.9907 44.6015 44.8997 44.4404 44.8901L46.2228 41.7717C46.468 42.2056 46.9072 42.4998 47.4063 42.5576L44.8314 45.1327Z" fill="#424242" stroke="black" stroke-width="0.259843"/>
<path d="M9.30859 41.9321L13.3635 41.9321L13.3635 37.745L9.30859 37.745L9.30859 41.9321Z" fill="#626262"/>
<path d="M4.81641 42.9458L8.73311 41.8963L7.64941 37.8519L3.79125 38.8888L4.81641 42.9458Z" fill="#626262"/>
<path d="M0.800781 45.125L4.3124 43.0976L2.21885 39.4714L-1.29276 41.4989L0.800781 45.125Z" fill="#626262"/>
<path d="M8.79199 41.6694C8.91697 41.5963 9.07059 41.585 9.2041 41.6372L9.2041 38.0015C8.77418 38.2354 8.25886 38.2669 7.7998 38.0825L8.79199 41.6694Z" fill="#424242" stroke="black" stroke-width="0.259843"/>
<path d="M4.30287 42.8564C4.39071 42.7676 4.5144 42.7222 4.63807 42.7302L3.71753 39.1249C3.35447 39.4103 2.91309 39.5829 2.45258 39.6185L4.30287 42.8564Z" fill="#424242" stroke="black" stroke-width="0.259843"/>
<path d="M0.16857 45.1327C0.248646 44.9907 0.398541 44.8997 0.559584 44.8901L-1.22278 41.7717C-1.46803 42.2056 -1.90723 42.4998 -2.40635 42.5576L0.16857 45.1327Z" fill="#424242" stroke="black" stroke-width="0.259843"/>
<path d="M29.1074 34.6836L15.8222 34.6837C13.9865 34.6837 12.4385 36.0514 12.2122 37.873L12.1152 38.6539C11.9349 40.1045 11.9381 41.572 12.1247 43.0218L13.6327 54.7431C13.6593 54.9496 13.7961 55.1245 13.9941 55.1887C14.9118 55.4866 17.809 56.2803 22.6237 56.2803C27.4229 56.2803 30.2822 55.4917 31.1965 55.1916C31.3969 55.1258 31.5329 54.9468 31.5557 54.737L32.8525 42.7891C32.9932 41.4927 32.9878 40.1845 32.8364 38.8893L32.7206 37.899C32.5063 36.0658 30.9531 34.6836 29.1074 34.6836Z" fill="white" stroke="black" stroke-width="0.692913" stroke-linecap="round"/>
<path d="M25.236 39.7486C25.6002 39.3862 26.1907 39.3862 26.5549 39.7486C26.9191 40.1109 26.9191 40.6984 26.5549 41.0607C26.1907 41.4231 25.6002 41.4231 25.236 41.0607C24.8718 40.6984 24.8718 40.1109 25.236 39.7486Z" fill="black"/>
<path d="M18.3398 43.0938C18.3398 41.3003 19.8012 39.8464 21.6039 39.8464H23.5619C23.91 39.8464 24.2051 40.101 24.2543 40.4438L24.2869 40.6705C24.3895 41.3849 24.9536 41.9462 25.6717 42.0482L25.8995 42.0806C26.2441 42.1296 26.5 42.4223 26.5 42.7686C26.5 43.2364 26.5 43.9354 26.5 44.717C26.5 46.5106 25.0386 47.965 23.2359 47.965H21.6039C19.8012 47.965 18.3398 46.5111 18.3398 44.7175V43.0938Z" fill="black"/>
<path d="M23.693 42.8033V44.3699C23.693 44.444 23.7169 44.501 23.7646 44.5351C23.8123 44.575 23.872 44.5921 23.9496 44.5921C24.0808 44.5921 24.1882 44.5067 24.2658 44.3301C24.3374 44.1535 24.3791 43.9427 24.3791 43.7034C24.3791 43.2078 24.1942 42.8033 23.8302 42.4957C23.4663 42.188 23.0128 42.0342 22.4759 42.0342C21.8971 42.0342 21.4139 42.2165 21.0261 42.5697C20.6383 42.9229 20.4473 43.373 20.4473 43.9142C20.4473 44.4554 20.6323 44.8998 21.0141 45.2416C21.396 45.5834 21.8733 45.7543 22.458 45.7543C22.877 45.7543 23.2751 45.6428 23.6524 45.4198C23.7756 45.347 23.9375 45.3758 24.0159 45.4956C24.0866 45.6036 24.0645 45.7489 23.9568 45.82C23.5395 46.0952 23.0445 46.2328 22.4639 46.2328C21.7122 46.2328 21.0977 46.0163 20.6204 45.5834C20.1371 45.1504 19.8984 44.6035 19.8984 43.9313C19.8984 43.2476 20.1431 42.6837 20.6383 42.2336C21.1335 41.7835 21.748 41.5557 22.4759 41.5557C23.162 41.5557 23.7407 41.7608 24.2121 42.1595C24.6834 42.5583 24.9221 43.071 24.9221 43.692C24.9221 43.8629 24.8982 44.0224 24.8624 44.1705C24.8206 44.3187 24.755 44.4668 24.6715 44.6092C24.5879 44.7516 24.4627 44.8656 24.3016 44.9453C24.1345 45.0308 23.9436 45.0707 23.7228 45.0707C23.3529 45.0707 23.1023 44.9567 22.9711 44.7231C22.7921 44.951 22.5296 45.065 22.1835 45.065C21.8494 45.065 21.575 44.9624 21.3602 44.7516C21.1454 44.5465 21.038 44.2617 21.038 43.9085C21.038 43.5553 21.1454 43.2761 21.3661 43.0653C21.5809 42.8603 21.8554 42.752 22.1835 42.752C22.4699 42.752 22.7026 42.8375 22.8816 43.0027V42.8033H23.693ZM22.4222 44.3642C22.5475 44.3642 22.6549 44.3244 22.7444 44.2389C22.8339 44.1535 22.8816 44.0395 22.8816 43.8971C22.8816 43.7604 22.8339 43.6521 22.7444 43.5667C22.6549 43.4869 22.5475 43.4413 22.4222 43.4413C22.2909 43.4413 22.1835 43.4869 22.094 43.5667C21.9986 43.6521 21.9568 43.7604 21.9568 43.8971C21.9568 44.0395 21.9986 44.1535 22.094 44.2389C22.1835 44.3244 22.2909 44.3642 22.4222 44.3642Z" fill="#CCFF00"/>
<path d="M33.9778 35.8391H32.1992C32.5434 36.8717 32.7189 37.9531 32.7189 39.0416V44.5005C33.5628 44.5005 34.2772 43.8779 34.3925 43.0419L35.1936 37.2341C35.218 37.0569 35.2035 36.8765 35.1508 36.7055C34.9924 36.1905 34.5166 35.8391 33.9778 35.8391Z" fill="white" stroke="black" stroke-width="0.519685" stroke-linecap="round"/>
<path d="M10.931 35.8391H12.8828C12.5389 36.8136 12.3631 37.8396 12.3631 38.873V44.5005C11.42 44.5005 10.6215 43.8046 10.4926 42.8703L9.7152 37.2341C9.69075 37.0569 9.70535 36.8765 9.75796 36.7055C9.91642 36.1905 10.3922 35.8391 10.931 35.8391Z" fill="white" stroke="black" stroke-width="0.519685" stroke-linecap="round"/>
<rect x="8.93357" y="8.46824" width="26.7842" height="24.8573" rx="6.84057" fill="white" stroke="black" stroke-width="0.578077"/>
<rect x="11.5352" y="11.4551" width="21.7742" height="18.8838" rx="3.91131" fill="#060606" fill-opacity="0.5"/>
<rect x="12.3984" y="12.4824" width="20.0079" height="16.8487" rx="3.15914" fill="#020202"/>
<mask id="mask0_11304_11351" style="mask-type:alpha" maskUnits="userSpaceOnUse" x="12" y="12" width="21" height="18">
<rect x="12.3984" y="12.4824" width="20.0079" height="16.8487" rx="3.15914" fill="#020202"/>
</mask>
<g mask="url(#mask0_11304_11351)">
<path d="M9.41406 13.3794H36.391M9.41406 14.9466H36.391M9.41406 16.5139H36.391M9.41406 18.0811H36.391M9.41406 19.6483H36.391M9.41406 21.2155H36.391M9.41406 22.7828H36.391M9.41406 24.35H36.391M9.41406 25.9172H36.391M9.41406 27.4845H36.391M9.41406 29.0517H36.391M9.41406 30.6189H36.391M9.41406 32.1862H36.391M9.41406 33.7534H36.391M9.41406 35.3206H36.391M9.41406 36.8878H36.391" stroke="#222222" stroke-width="0.134885"/>
<path d="M34.6602 6.6355L34.6602 33.6124M33.0929 6.6355L33.0929 33.6124M31.5257 6.6355L31.5257 33.6124M29.9585 6.6355L29.9585 33.6124M28.3912 6.6355L28.3912 33.6124M26.824 6.6355L26.824 33.6124M25.2568 6.6355L25.2568 33.6124M23.6895 6.6355L23.6895 33.6124M22.1223 6.6355L22.1223 33.6124M20.5551 6.6355L20.5551 33.6124M18.9879 6.6355L18.9879 33.6124M17.4206 6.6355L17.4206 33.6124M15.8534 6.6355L15.8534 33.6124M14.2862 6.6355L14.2862 33.6124M12.7189 6.6355L12.7189 33.6124M11.1517 6.6355L11.1517 33.6124" stroke="#222222" stroke-width="0.134885"/>
<path d="M29.0847 16.1587C29.3687 15.8761 29.8292 15.8761 30.1132 16.1587C30.3972 16.4413 30.3972 16.8994 30.1132 17.1819C29.8292 17.4645 29.3687 17.4645 29.0847 17.1819C28.8007 16.8994 28.8007 16.4413 29.0847 16.1587Z" fill="#CCFF00"/>
<path d="M23.707 18.7673C23.707 17.3687 24.8466 16.2349 26.2524 16.2349H27.7792C28.0507 16.2349 28.2808 16.4335 28.3192 16.7009L28.3446 16.8776C28.4246 17.4347 28.8645 17.8724 29.4245 17.952L29.6021 17.9772C29.8708 18.0154 30.0704 18.2437 30.0704 18.5137C30.0704 18.8785 30.0704 19.4236 30.0704 20.0331C30.0704 21.4317 28.9308 22.5659 27.525 22.5659H26.2524C24.8466 22.5659 23.707 21.4321 23.707 20.0335V18.7673Z" fill="#CCFF00"/>
<path d="M27.8848 18.541V19.7627C27.8848 19.8205 27.9034 19.8649 27.9406 19.8915C27.9779 19.9226 28.0244 19.936 28.0849 19.936C28.1872 19.936 28.271 19.8693 28.3315 19.7316C28.3873 19.5939 28.4199 19.4295 28.4199 19.2429C28.4199 18.8564 28.2756 18.541 27.9918 18.3011C27.708 18.0612 27.3544 17.9413 26.9357 17.9413C26.4844 17.9413 26.1075 18.0834 25.8051 18.3589C25.5027 18.6343 25.3538 18.9853 25.3538 19.4073C25.3538 19.8293 25.498 20.1759 25.7958 20.4424C26.0936 20.709 26.4658 20.8422 26.9217 20.8422C27.2485 20.8422 27.5589 20.7553 27.8531 20.5814C27.9492 20.5246 28.0755 20.5471 28.1366 20.6405C28.1917 20.7247 28.1745 20.838 28.0905 20.8935C27.7651 21.1081 27.3791 21.2154 26.9264 21.2154C26.3402 21.2154 25.8609 21.0466 25.4887 20.709C25.1119 20.3713 24.9258 19.9448 24.9258 19.4206C24.9258 18.8875 25.1165 18.4477 25.5027 18.0968C25.8889 17.7458 26.3681 17.5681 26.9357 17.5681C27.4707 17.5681 27.922 17.728 28.2896 18.039C28.6571 18.35 28.8432 18.7498 28.8432 19.234C28.8432 19.3673 28.8246 19.4917 28.7967 19.6072C28.7641 19.7227 28.713 19.8382 28.6478 19.9493C28.5827 20.0604 28.485 20.1492 28.3594 20.2114C28.2291 20.278 28.0802 20.3091 27.9081 20.3091C27.6196 20.3091 27.4242 20.2203 27.3218 20.0381C27.1823 20.2158 26.9776 20.3047 26.7077 20.3047C26.4472 20.3047 26.2332 20.2247 26.0657 20.0604C25.8982 19.9004 25.8144 19.6783 25.8144 19.4029C25.8144 19.1274 25.8982 18.9097 26.0703 18.7454C26.2378 18.5854 26.4518 18.501 26.7077 18.501C26.931 18.501 27.1125 18.5677 27.2521 18.6965V18.541H27.8848ZM26.8938 19.7583C26.9915 19.7583 27.0753 19.7272 27.1451 19.6605C27.2148 19.5939 27.2521 19.505 27.2521 19.394C27.2521 19.2874 27.2148 19.203 27.1451 19.1363C27.0753 19.0741 26.9915 19.0386 26.8938 19.0386C26.7915 19.0386 26.7077 19.0741 26.6379 19.1363C26.5635 19.203 26.5309 19.2874 26.5309 19.394C26.5309 19.505 26.5635 19.5939 26.6379 19.6605C26.7077 19.7272 26.7915 19.7583 26.8938 19.7583Z" fill="black"/>
<path d="M19.9089 16.1587C20.1929 15.8761 20.6534 15.8761 20.9374 16.1587C21.2214 16.4413 21.2214 16.8994 20.9374 17.1819C20.6534 17.4645 20.1929 17.4645 19.9089 17.1819C19.6249 16.8994 19.6249 16.4413 19.9089 16.1587Z" fill="#CCFF00"/>
<path d="M14.5312 18.7673C14.5312 17.3687 15.6708 16.2349 17.0766 16.2349H18.6035C18.8749 16.2349 19.105 16.4335 19.1434 16.7009L19.1688 16.8776C19.2488 17.4347 19.6887 17.8724 20.2487 17.952L20.4263 17.9772C20.695 18.0154 20.8946 18.2437 20.8946 18.5137C20.8946 18.8785 20.8946 19.4236 20.8946 20.0331C20.8946 21.4317 19.755 22.5659 18.3493 22.5659H17.0766C15.6708 22.5659 14.5312 21.4321 14.5312 20.0335V18.7673Z" fill="#CCFF00"/>
<path d="M18.7051 18.541V19.7627C18.7051 19.8205 18.7237 19.8649 18.761 19.8915C18.7982 19.9226 18.8447 19.936 18.9052 19.936C19.0075 19.936 19.0913 19.8693 19.1518 19.7316C19.2076 19.5939 19.2402 19.4295 19.2402 19.2429C19.2402 18.8564 19.0959 18.541 18.8121 18.3011C18.5283 18.0612 18.1747 17.9413 17.756 17.9413C17.3047 17.9413 16.9278 18.0834 16.6254 18.3589C16.323 18.6343 16.1741 18.9853 16.1741 19.4073C16.1741 19.8293 16.3184 20.1759 16.6161 20.4424C16.9139 20.709 17.2861 20.8422 17.742 20.8422C18.0688 20.8422 18.3792 20.7553 18.6734 20.5814C18.7695 20.5246 18.8958 20.5471 18.9569 20.6405C19.012 20.7247 18.9948 20.838 18.9108 20.8935C18.5854 21.1081 18.1994 21.2154 17.7467 21.2154C17.1605 21.2154 16.6813 21.0466 16.3091 20.709C15.9322 20.3713 15.7461 19.9448 15.7461 19.4206C15.7461 18.8875 15.9368 18.4477 16.323 18.0968C16.7092 17.7458 17.1884 17.5681 17.756 17.5681C18.291 17.5681 18.7423 17.728 19.1099 18.039C19.4774 18.35 19.6635 18.7498 19.6635 19.234C19.6635 19.3673 19.6449 19.4917 19.617 19.6072C19.5845 19.7227 19.5333 19.8382 19.4681 19.9493C19.403 20.0604 19.3053 20.1492 19.1797 20.2114C19.0494 20.278 18.9005 20.3091 18.7284 20.3091C18.4399 20.3091 18.2445 20.2203 18.1422 20.0381C18.0026 20.2158 17.7979 20.3047 17.528 20.3047C17.2675 20.3047 17.0535 20.2247 16.886 20.0604C16.7185 19.9004 16.6347 19.6783 16.6347 19.4029C16.6347 19.1274 16.7185 18.9097 16.8906 18.7454C17.0581 18.5854 17.2721 18.501 17.528 18.501C17.7513 18.501 17.9328 18.5677 18.0724 18.6965V18.541H18.7051ZM17.7141 19.7583C17.8118 19.7583 17.8956 19.7272 17.9654 19.6605C18.0352 19.5939 18.0724 19.505 18.0724 19.394C18.0724 19.2874 18.0352 19.203 17.9654 19.1363C17.8956 19.0741 17.8118 19.0386 17.7141 19.0386C17.6118 19.0386 17.528 19.0741 17.4582 19.1363C17.3838 19.203 17.3512 19.2874 17.3512 19.394C17.3512 19.505 17.3838 19.5939 17.4582 19.6605C17.528 19.7272 17.6118 19.7583 17.7141 19.7583Z" fill="black"/>
</g>
<path d="M17.6239 8.36293C17.6224 7.49762 18.3226 6.7957 19.1879 6.79515L25.8756 6.79089C26.7409 6.79034 27.4437 7.49137 27.4453 8.35668L17.6239 8.36293Z" fill="white" stroke="black" stroke-width="0.498271"/>
<rect width="1.75116" height="2.07137" transform="matrix(1 -0.000636188 0.0018188 0.999998 21.5547 4.66113)" fill="white" stroke="black" stroke-width="0.498271"/>
<path d="M20.1676 3.64264C20.1656 2.57835 21.0268 1.71503 22.0911 1.71435L22.9073 1.71383C23.9716 1.71315 24.836 2.57538 24.8379 3.63966C24.8398 4.70395 23.9786 5.56727 22.9143 5.56795L22.0981 5.56847C21.0338 5.56915 20.1695 4.70692 20.1676 3.64264Z" fill="white" stroke="black" stroke-width="0.498271"/>
<path d="M36.9072 15.1157C37.261 15.1157 37.5476 15.4027 37.5479 15.7563V25.2661C37.5478 25.62 37.2611 25.9067 36.9072 25.9067H35.8135V15.1157H36.9072Z" fill="#505050" stroke="black" stroke-width="0.385384"/>
<path d="M7.74512 15.1157C7.39138 15.1157 7.10473 15.4027 7.10449 15.7563V25.2661C7.10454 25.62 7.39126 25.9067 7.74512 25.9067H8.83887V15.1157H7.74512Z" fill="#505050" stroke="black" stroke-width="0.385384"/>
<path d="M38.6416 16.8472C38.9953 16.8472 39.282 17.1341 39.2822 17.4878V23.5288C39.2822 23.8827 38.9955 24.1694 38.6416 24.1694H37.5479V16.8472H38.6416Z" fill="white" stroke="black" stroke-width="0.385384"/>
<path d="M6.01074 16.8472C5.65701 16.8472 5.37036 17.1341 5.37012 17.4878V23.5288C5.37012 23.8827 5.65686 24.1694 6.01074 24.1694H7.10449V16.8472H6.01074Z" fill="white" stroke="black" stroke-width="0.385384"/>
<path d="M18.6992 24.9253C19.4324 25.6667 20.4288 26.0884 21.4714 26.0987L23.617 26.12C24.6597 26.1303 25.6642 25.7284 26.4119 25.0017" stroke="#CCFF00" stroke-width="0.866142" stroke-linecap="round"/>
</g>
<rect x="0.5" y="0.5" width="44" height="44" rx="22" stroke="#AED901"/>
<defs>
<clipPath id="clip0_11304_11351">
<rect x="0.5" y="0.5" width="44" height="44" rx="22" fill="white"/>
</clipPath>
</defs>
</svg>
