<svg width="44" height="44" viewBox="0 0 44 44" fill="none" xmlns="http://www.w3.org/2000/svg">
<g clip-path="url(#clip0_11296_10508)">
<rect width="44" height="44" rx="22" fill="#CCFF00"/>
<rect x="19.3203" y="29.5605" width="5.97346" height="0.963461" rx="0.48173" fill="#CCFF00"/>
<path d="M24.7334 32.0513V34.2104H19.1807V32.0513H24.7334Z" fill="#5B5B5B" stroke="black" stroke-width="0.352597"/>
<path d="M35.1914 41.4321L31.1365 41.4321L31.1365 37.245L35.1914 37.245L35.1914 41.4321Z" fill="#626262"/>
<path d="M39.6836 42.4458L35.7669 41.3963L36.8506 37.3519L40.7088 38.3888L39.6836 42.4458Z" fill="#626262"/>
<path d="M43.6992 44.625L40.1876 42.5976L42.2811 38.9714L45.7928 40.9989L43.6992 44.625Z" fill="#626262"/>
<path d="M35.708 41.1689C35.583 41.0958 35.4294 41.0845 35.2959 41.1367L35.2959 37.501C35.7258 37.7349 36.2411 37.7664 36.7002 37.582L35.708 41.1689Z" fill="#424242" stroke="black" stroke-width="0.259843"/>
<path d="M40.1971 42.3559C40.1093 42.2671 39.9856 42.2217 39.8619 42.2297L40.7825 38.6244C41.1455 38.9098 41.5869 39.0824 42.0474 39.118L40.1971 42.3559Z" fill="#424242" stroke="black" stroke-width="0.259843"/>
<path d="M44.3314 44.6327C44.2514 44.4907 44.1015 44.3997 43.9404 44.3901L45.7228 41.2717C45.968 41.7056 46.4072 41.9998 46.9063 42.0576L44.3314 44.6327Z" fill="#424242" stroke="black" stroke-width="0.259843"/>
<path d="M8.8125 41.4321L12.8674 41.4321L12.8674 37.245L8.8125 37.245L8.8125 41.4321Z" fill="#626262"/>
<path d="M4.32031 42.4458L8.23701 41.3963L7.15331 37.3519L3.29515 38.3888L4.32031 42.4458Z" fill="#626262"/>
<path d="M0.304688 44.625L3.81631 42.5976L1.72276 38.9714L-1.78886 40.9989L0.304688 44.625Z" fill="#626262"/>
<path d="M8.2959 41.1689C8.42087 41.0958 8.5745 41.0845 8.70801 41.1367L8.70801 37.501C8.27808 37.7349 7.76277 37.7664 7.30371 37.582L8.2959 41.1689Z" fill="#424242" stroke="black" stroke-width="0.259843"/>
<path d="M3.80678 42.3559C3.89462 42.2671 4.0183 42.2217 4.14198 42.2297L3.22144 38.6244C2.85838 38.9098 2.41699 39.0824 1.95649 39.118L3.80678 42.3559Z" fill="#424242" stroke="black" stroke-width="0.259843"/>
<path d="M-0.323617 44.6327C-0.243542 44.4907 -0.0936463 44.3997 0.0673962 44.3901L-1.71497 41.2717C-1.96022 41.7056 -2.39941 41.9998 -2.89853 42.0576L-0.323617 44.6327Z" fill="#424242" stroke="black" stroke-width="0.259843"/>
<path d="M28.6074 34.1836L15.3222 34.1837C13.4865 34.1837 11.9385 35.5514 11.7122 37.373L11.6152 38.1539C11.4349 39.6045 11.4381 41.072 11.6247 42.5218L13.1327 54.2431C13.1593 54.4496 13.2961 54.6245 13.4941 54.6887C14.4118 54.9866 17.309 55.7803 22.1237 55.7803C26.9229 55.7803 29.7822 54.9917 30.6965 54.6916C30.8969 54.6258 31.0329 54.4468 31.0557 54.237L32.3525 42.2891C32.4932 40.9927 32.4878 39.6845 32.3364 38.3893L32.2206 37.399C32.0063 35.5658 30.4531 34.1836 28.6074 34.1836Z" fill="white" stroke="black" stroke-width="0.692913" stroke-linecap="round"/>
<path d="M24.736 39.2488C25.1002 38.8865 25.6907 38.8865 26.0549 39.2488C26.4191 39.6112 26.4191 40.1986 26.0549 40.561C25.6907 40.9233 25.1002 40.9233 24.736 40.561C24.3718 40.1986 24.3718 39.6112 24.736 39.2488Z" fill="black"/>
<path d="M17.8398 42.5941C17.8398 40.8005 19.3012 39.3466 21.1039 39.3466H23.0619C23.41 39.3466 23.7051 39.6012 23.7543 39.9441L23.7869 40.1707C23.8895 40.8851 24.4536 41.4464 25.1717 41.5485L25.3995 41.5809C25.7441 41.6298 26 41.9225 26 42.2689C26 42.7366 26 43.4357 26 44.2173C26 46.0108 24.5386 47.4652 22.7359 47.4652H21.1039C19.3012 47.4652 17.8398 46.0113 17.8398 44.2178V42.5941Z" fill="black"/>
<path d="M23.1969 42.3033V43.8699C23.1969 43.944 23.2208 44.001 23.2685 44.0351C23.3162 44.075 23.3759 44.0921 23.4535 44.0921C23.5847 44.0921 23.6921 44.0067 23.7697 43.8301C23.8413 43.6535 23.883 43.4427 23.883 43.2034C23.883 42.7078 23.6981 42.3033 23.3341 41.9957C22.9702 41.688 22.5168 41.5342 21.9798 41.5342C21.4011 41.5342 20.9178 41.7165 20.53 42.0697C20.1422 42.4229 19.9512 42.873 19.9512 43.4142C19.9512 43.9554 20.1362 44.3998 20.518 44.7416C20.8999 45.0834 21.3772 45.2543 21.9619 45.2543C22.3809 45.2543 22.779 45.1428 23.1563 44.9198C23.2795 44.847 23.4414 44.8758 23.5198 44.9956C23.5905 45.1036 23.5684 45.2489 23.4607 45.32C23.0434 45.5952 22.5484 45.7328 21.9679 45.7328C21.2161 45.7328 20.6016 45.5163 20.1243 45.0834C19.641 44.6504 19.4023 44.1035 19.4023 43.4313C19.4023 42.7476 19.647 42.1837 20.1422 41.7336C20.6374 41.2835 21.2519 41.0557 21.9798 41.0557C22.6659 41.0557 23.2446 41.2608 23.716 41.6595C24.1873 42.0583 24.426 42.571 24.426 43.192C24.426 43.3629 24.4021 43.5224 24.3663 43.6705C24.3245 43.8187 24.2589 43.9668 24.1754 44.1092C24.0919 44.2516 23.9666 44.3656 23.8055 44.4453C23.6384 44.5308 23.4475 44.5707 23.2267 44.5707C22.8568 44.5707 22.6062 44.4567 22.475 44.2231C22.296 44.451 22.0335 44.565 21.6874 44.565C21.3533 44.565 21.0789 44.4624 20.8641 44.2516C20.6493 44.0465 20.5419 43.7617 20.5419 43.4085C20.5419 43.0553 20.6493 42.7761 20.8701 42.5653C21.0848 42.3603 21.3593 42.252 21.6874 42.252C21.9738 42.252 22.2065 42.3375 22.3855 42.5027V42.3033H23.1969ZM21.9261 43.8642C22.0514 43.8642 22.1588 43.8244 22.2483 43.7389C22.3378 43.6535 22.3855 43.5395 22.3855 43.3971C22.3855 43.2604 22.3378 43.1521 22.2483 43.0667C22.1588 42.9869 22.0514 42.9413 21.9261 42.9413C21.7948 42.9413 21.6874 42.9869 21.5979 43.0667C21.5025 43.1521 21.4607 43.2604 21.4607 43.3971C21.4607 43.5395 21.5025 43.6535 21.5979 43.7389C21.6874 43.8244 21.7948 43.8642 21.9261 43.8642Z" fill="#CCFF00"/>
<path d="M33.4778 35.3389H31.6992C32.0434 36.3715 32.2189 37.4528 32.2189 38.5413V44.0003C33.0628 44.0003 33.7772 43.3776 33.8925 42.5417L34.6936 36.7339C34.718 36.5567 34.7035 36.3763 34.6508 36.2053C34.4924 35.6903 34.0166 35.3389 33.4778 35.3389Z" fill="white" stroke="black" stroke-width="0.519685" stroke-linecap="round"/>
<path d="M10.4349 35.3389H12.3867C12.0428 36.3134 11.867 37.3393 11.867 38.3728V44.0003C10.9239 44.0003 10.1254 43.3044 9.9965 42.3701L9.21911 36.7339C9.19466 36.5567 9.20926 36.3763 9.26187 36.2053C9.42032 35.6903 9.89612 35.3389 10.4349 35.3389Z" fill="white" stroke="black" stroke-width="0.519685" stroke-linecap="round"/>
<rect x="8.43357" y="7.96824" width="26.7842" height="24.8573" rx="6.84057" fill="white" stroke="black" stroke-width="0.578077"/>
<rect x="11.0352" y="10.9551" width="21.7742" height="18.8838" rx="3.91131" fill="#060606" fill-opacity="0.5"/>
<rect x="11.8984" y="11.9824" width="20.0079" height="16.8487" rx="3.15914" fill="#020202"/>
<mask id="mask0_11296_10508" style="mask-type:alpha" maskUnits="userSpaceOnUse" x="11" y="11" width="21" height="18">
<rect x="11.8984" y="11.9824" width="20.0079" height="16.8487" rx="3.15914" fill="#020202"/>
</mask>
<g mask="url(#mask0_11296_10508)">
<path d="M8.91406 12.8794H35.891M8.91406 14.4466H35.891M8.91406 16.0139H35.891M8.91406 17.5811H35.891M8.91406 19.1483H35.891M8.91406 20.7155H35.891M8.91406 22.2828H35.891M8.91406 23.85H35.891M8.91406 25.4172H35.891M8.91406 26.9845H35.891M8.91406 28.5517H35.891M8.91406 30.1189H35.891M8.91406 31.6862H35.891M8.91406 33.2534H35.891M8.91406 34.8206H35.891M8.91406 36.3878H35.891" stroke="#222222" stroke-width="0.134885"/>
<path d="M34.1602 6.13525L34.1602 33.1122M32.5929 6.13525L32.5929 33.1122M31.0257 6.13525L31.0257 33.1122M29.4585 6.13525L29.4585 33.1122M27.8912 6.13525L27.8912 33.1122M26.324 6.13525L26.324 33.1122M24.7568 6.13525L24.7568 33.1122M23.1895 6.13525L23.1895 33.1122M21.6223 6.13525L21.6223 33.1122M20.0551 6.13525L20.0551 33.1122M18.4879 6.13525L18.4879 33.1122M16.9206 6.13525L16.9206 33.1122M15.3534 6.13525L15.3534 33.1122M13.7862 6.13525L13.7862 33.1122M12.2189 6.13525L12.2189 33.1122M10.6517 6.13525L10.6517 33.1122" stroke="#222222" stroke-width="0.134885"/>
<path d="M28.5847 15.6592C28.8687 15.3766 29.3292 15.3766 29.6132 15.6592C29.8972 15.9417 29.8972 16.3999 29.6132 16.6824C29.3292 16.965 28.8687 16.965 28.5847 16.6824C28.3007 16.3999 28.3007 15.9417 28.5847 15.6592Z" fill="#CCFF00"/>
<path d="M23.207 18.2678C23.207 16.8692 24.3466 15.7354 25.7524 15.7354H27.2792C27.5507 15.7354 27.7808 15.934 27.8192 16.2013L27.8446 16.3781C27.9246 16.9352 28.3645 17.3729 28.9245 17.4525L29.1021 17.4777C29.3708 17.5159 29.5704 17.7442 29.5704 18.0142C29.5704 18.379 29.5704 18.9241 29.5704 19.5336C29.5704 20.9322 28.4308 22.0664 27.025 22.0664H25.7524C24.3466 22.0664 23.207 20.9326 23.207 19.534V18.2678Z" fill="#CCFF00"/>
<path d="M27.3848 18.0413V19.2629C27.3848 19.3207 27.4034 19.3651 27.4406 19.3918C27.4779 19.4229 27.5244 19.4362 27.5849 19.4362C27.6872 19.4362 27.771 19.3696 27.8315 19.2319C27.8873 19.0941 27.9199 18.9298 27.9199 18.7432C27.9199 18.3567 27.7756 18.0413 27.4918 17.8014C27.208 17.5615 26.8544 17.4415 26.4357 17.4415C25.9844 17.4415 25.6075 17.5837 25.3051 17.8591C25.0027 18.1346 24.8538 18.4855 24.8538 18.9076C24.8538 19.3296 24.998 19.6761 25.2958 19.9427C25.5936 20.2092 25.9658 20.3425 26.4217 20.3425C26.7485 20.3425 27.0589 20.2555 27.3531 20.0817C27.4492 20.0249 27.5755 20.0474 27.6366 20.1407C27.6917 20.225 27.6745 20.3383 27.5905 20.3937C27.2651 20.6083 26.8791 20.7156 26.4264 20.7156C25.8402 20.7156 25.3609 20.5468 24.9887 20.2092C24.6119 19.8716 24.4258 19.4451 24.4258 18.9209C24.4258 18.3878 24.6165 17.948 25.0027 17.597C25.3889 17.2461 25.8681 17.0684 26.4357 17.0684C26.9707 17.0684 27.422 17.2283 27.7896 17.5393C28.1571 17.8502 28.3432 18.2501 28.3432 18.7343C28.3432 18.8676 28.3246 18.992 28.2967 19.1075C28.2641 19.223 28.213 19.3385 28.1478 19.4495C28.0827 19.5606 27.985 19.6494 27.8594 19.7116C27.7291 19.7783 27.5802 19.8094 27.4081 19.8094C27.1196 19.8094 26.9242 19.7205 26.8218 19.5384C26.6823 19.7161 26.4776 19.8049 26.2077 19.8049C25.9472 19.8049 25.7332 19.725 25.5657 19.5606C25.3982 19.4007 25.3144 19.1785 25.3144 18.9031C25.3144 18.6277 25.3982 18.41 25.5703 18.2456C25.7378 18.0857 25.9518 18.0013 26.2077 18.0013C26.431 18.0013 26.6125 18.0679 26.7521 18.1968V18.0413H27.3848ZM26.3938 19.2585C26.4915 19.2585 26.5753 19.2274 26.6451 19.1608C26.7148 19.0941 26.7521 19.0053 26.7521 18.8942C26.7521 18.7876 26.7148 18.7032 26.6451 18.6366C26.5753 18.5744 26.4915 18.5388 26.3938 18.5388C26.2915 18.5388 26.2077 18.5744 26.1379 18.6366C26.0635 18.7032 26.0309 18.7876 26.0309 18.8942C26.0309 19.0053 26.0635 19.0941 26.1379 19.1608C26.2077 19.2274 26.2915 19.2585 26.3938 19.2585Z" fill="black"/>
<path d="M19.4089 15.6592C19.6929 15.3766 20.1534 15.3766 20.4374 15.6592C20.7214 15.9417 20.7214 16.3999 20.4374 16.6824C20.1534 16.965 19.6929 16.965 19.4089 16.6824C19.1249 16.3999 19.1249 15.9417 19.4089 15.6592Z" fill="#CCFF00"/>
<path d="M14.0312 18.2678C14.0312 16.8692 15.1708 15.7354 16.5766 15.7354H18.1035C18.3749 15.7354 18.605 15.934 18.6434 16.2013L18.6688 16.3781C18.7488 16.9352 19.1887 17.3729 19.7487 17.4525L19.9263 17.4777C20.195 17.5159 20.3946 17.7442 20.3946 18.0142C20.3946 18.379 20.3946 18.9241 20.3946 19.5336C20.3946 20.9322 19.255 22.0664 17.8493 22.0664H16.5766C15.1708 22.0664 14.0312 20.9326 14.0312 19.534V18.2678Z" fill="#CCFF00"/>
<path d="M18.2051 18.0413V19.2629C18.2051 19.3207 18.2237 19.3651 18.261 19.3918C18.2982 19.4229 18.3447 19.4362 18.4052 19.4362C18.5075 19.4362 18.5913 19.3696 18.6518 19.2319C18.7076 19.0941 18.7402 18.9298 18.7402 18.7432C18.7402 18.3567 18.5959 18.0413 18.3121 17.8014C18.0283 17.5615 17.6747 17.4415 17.256 17.4415C16.8047 17.4415 16.4278 17.5837 16.1254 17.8591C15.823 18.1346 15.6741 18.4855 15.6741 18.9076C15.6741 19.3296 15.8184 19.6761 16.1161 19.9427C16.4139 20.2092 16.7861 20.3425 17.242 20.3425C17.5688 20.3425 17.8792 20.2555 18.1734 20.0817C18.2695 20.0249 18.3958 20.0474 18.4569 20.1407C18.512 20.225 18.4948 20.3383 18.4108 20.3937C18.0854 20.6083 17.6994 20.7156 17.2467 20.7156C16.6605 20.7156 16.1813 20.5468 15.8091 20.2092C15.4322 19.8716 15.2461 19.4451 15.2461 18.9209C15.2461 18.3878 15.4368 17.948 15.823 17.597C16.2092 17.2461 16.6884 17.0684 17.256 17.0684C17.791 17.0684 18.2423 17.2283 18.6099 17.5393C18.9774 17.8502 19.1635 18.2501 19.1635 18.7343C19.1635 18.8676 19.1449 18.992 19.117 19.1075C19.0845 19.223 19.0333 19.3385 18.9681 19.4495C18.903 19.5606 18.8053 19.6494 18.6797 19.7116C18.5494 19.7783 18.4005 19.8094 18.2284 19.8094C17.9399 19.8094 17.7445 19.7205 17.6422 19.5384C17.5026 19.7161 17.2979 19.8049 17.028 19.8049C16.7675 19.8049 16.5535 19.725 16.386 19.5606C16.2185 19.4007 16.1347 19.1785 16.1347 18.9031C16.1347 18.6277 16.2185 18.41 16.3906 18.2456C16.5581 18.0857 16.7721 18.0013 17.028 18.0013C17.2513 18.0013 17.4328 18.0679 17.5724 18.1968V18.0413H18.2051ZM17.2141 19.2585C17.3118 19.2585 17.3956 19.2274 17.4654 19.1608C17.5352 19.0941 17.5724 19.0053 17.5724 18.8942C17.5724 18.7876 17.5352 18.7032 17.4654 18.6366C17.3956 18.5744 17.3118 18.5388 17.2141 18.5388C17.1118 18.5388 17.028 18.5744 16.9582 18.6366C16.8838 18.7032 16.8512 18.7876 16.8512 18.8942C16.8512 19.0053 16.8838 19.0941 16.9582 19.1608C17.028 19.2274 17.1118 19.2585 17.2141 19.2585Z" fill="black"/>
</g>
<path d="M17.1239 7.86269C17.1224 6.99737 17.8226 6.29545 18.6879 6.2949L25.3756 6.29065C26.2409 6.2901 26.9437 6.99113 26.9453 7.85644L17.1239 7.86269Z" fill="white" stroke="black" stroke-width="0.498271"/>
<rect width="1.75116" height="2.07137" transform="matrix(1 -0.000636188 0.0018188 0.999998 21.0547 4.16113)" fill="white" stroke="black" stroke-width="0.498271"/>
<path d="M19.6676 3.14288C19.6656 2.07859 20.5268 1.21527 21.5911 1.21459L22.4073 1.21408C23.4716 1.2134 24.336 2.07562 24.3379 3.13991C24.3398 4.20419 23.4786 5.06752 22.4143 5.06819L21.5981 5.06871C20.5338 5.06939 19.6695 4.20717 19.6676 3.14288Z" fill="white" stroke="black" stroke-width="0.498271"/>
<path d="M36.4072 14.6157C36.761 14.6157 37.0476 14.9027 37.0479 15.2563V24.7661C37.0478 25.12 36.7611 25.4067 36.4072 25.4067H35.3135V14.6157H36.4072Z" fill="#505050" stroke="black" stroke-width="0.385384"/>
<path d="M7.24512 14.6157C6.89138 14.6157 6.60473 14.9027 6.60449 15.2563V24.7661C6.60454 25.12 6.89126 25.4067 7.24512 25.4067H8.33887V14.6157H7.24512Z" fill="#505050" stroke="black" stroke-width="0.385384"/>
<path d="M38.1416 16.3472C38.4953 16.3472 38.782 16.6341 38.7822 16.9878V23.0288C38.7822 23.3827 38.4955 23.6694 38.1416 23.6694H37.0479V16.3472H38.1416Z" fill="white" stroke="black" stroke-width="0.385384"/>
<path d="M5.51074 16.3472C5.15701 16.3472 4.87036 16.6341 4.87012 16.9878V23.0288C4.87012 23.3827 5.15686 23.6694 5.51074 23.6694H6.60449V16.3472H5.51074Z" fill="white" stroke="black" stroke-width="0.385384"/>
<path d="M18.1992 24.4253C18.9324 25.1667 19.9288 25.5884 20.9714 25.5987L23.117 25.62C24.1597 25.6303 25.1642 25.2284 25.9119 24.5017" stroke="#CCFF00" stroke-width="0.866142" stroke-linecap="round"/>
</g>
<defs>
<clipPath id="clip0_11296_10508">
<rect width="44" height="44" rx="22" fill="white"/>
</clipPath>
</defs>
</svg>
