<svg width="16" height="16" viewBox="0 0 16 16" fill="none" xmlns="http://www.w3.org/2000/svg">
<rect width="16" height="16" rx="8" fill="#656565" fill-opacity="0.85"/>
<path d="M10.0375 5.18831C10.2886 4.93723 10.6956 4.93723 10.9467 5.18831C11.1978 5.43938 11.1978 5.84645 10.9467 6.09753L6.09753 10.9467C5.84645 11.1978 5.43938 11.1978 5.18831 10.9467C4.93723 10.6956 4.93723 10.2886 5.18831 10.0375L10.0375 5.18831Z" fill="white"/>
<path d="M6.21527 5.30743C5.96419 5.05635 5.55712 5.05635 5.30604 5.30743C5.05497 5.5585 5.05497 5.96558 5.30604 6.21665L10.1552 11.0658C10.4063 11.3169 10.8134 11.3169 11.0645 11.0658C11.3155 10.8148 11.3155 10.4077 11.0645 10.1566L6.21527 5.30743Z" fill="white"/>
</svg>
