<svg width="36" height="36" viewBox="0 0 36 36" fill="none" xmlns="http://www.w3.org/2000/svg">
<rect width="36" height="36" rx="18" fill="#EDEDED"/>
<path d="M20.1582 18.5703C20.1582 18.6752 20.1789 18.7791 20.219 18.876C20.2592 18.9729 20.318 19.061 20.3922 19.1352C20.4664 19.2093 20.5544 19.2682 20.6513 19.3083C20.7483 19.3485 20.8521 19.3691 20.957 19.3691C21.0619 19.3691 21.1658 19.3485 21.2627 19.3083C21.3596 19.2682 21.4477 19.2093 21.5219 19.1352C21.5961 19.061 21.6549 18.9729 21.6951 18.876C21.7352 18.7791 21.7559 18.6752 21.7559 18.5703C21.7559 18.4654 21.7352 18.3615 21.6951 18.2646C21.6549 18.1677 21.5961 18.0796 21.5219 18.0055C21.4477 17.9313 21.3596 17.8724 21.2627 17.8323C21.1658 17.7921 21.0619 17.7715 20.957 17.7715C20.8521 17.7715 20.7483 17.7921 20.6513 17.8323C20.5544 17.8724 20.4664 17.9313 20.3922 18.0055C20.318 18.0796 20.2592 18.1677 20.219 18.2646C20.1789 18.3615 20.1582 18.4654 20.1582 18.5703ZM19.7617 10.9141C19.7617 11.019 19.7824 11.1228 19.8225 11.2198C19.8627 11.3167 19.9215 11.4047 19.9957 11.4789C20.0699 11.5531 20.1579 11.6119 20.2548 11.6521C20.3518 11.6922 20.4556 11.7129 20.5605 11.7129C20.6654 11.7129 20.7693 11.6922 20.8662 11.6521C20.9632 11.6119 21.0512 11.5531 21.1254 11.4789C21.1996 11.4047 21.2584 11.3167 21.2986 11.2198C21.3387 11.1228 21.3594 11.019 21.3594 10.9141C21.3594 10.8092 21.3387 10.7053 21.2986 10.6084C21.2584 10.5114 21.1996 10.4234 21.1254 10.3492C21.0512 10.275 20.9632 10.2162 20.8662 10.176C20.7693 10.1359 20.6654 10.1152 20.5605 10.1152C20.4556 10.1152 20.3518 10.1359 20.2548 10.176C20.1579 10.2162 20.0699 10.275 19.9957 10.3492C19.9215 10.4234 19.8627 10.5114 19.8225 10.6084C19.7824 10.7053 19.7617 10.8092 19.7617 10.9141Z" fill="black"/>
<path d="M27.3184 24.6914C27.3184 21.8848 25.6523 19.4668 23.2559 18.3711C24.3262 17.5234 25.0137 16.2109 25.0137 14.7402C25.0137 12.2441 23.0371 10.209 20.5625 10.1152V11.7129C22.1445 11.8047 23.3984 13.1367 23.3984 14.7402C23.3984 16.2793 22.3027 17.6055 20.8145 17.7891C20.7051 17.8027 20.5625 17.9336 20.5625 18.043V19.2266C20.5625 18.8359 20.623 19.2148 20.7031 19.2207L20.8008 19.3574C23.5996 19.5273 25.7188 21.8496 25.7188 24.6914H25.7207V24.707C25.7207 25.1484 26.0781 25.5059 26.5195 25.5059C26.9609 25.5059 27.3184 25.1484 27.3184 24.707V24.6914ZM11.1289 14.7324C11.1289 15.9414 11.6092 17.1009 12.4641 17.9558C13.319 18.8107 14.4785 19.291 15.6875 19.291C16.8965 19.291 18.056 18.8107 18.9109 17.9558C19.7658 17.1009 20.2461 15.9414 20.2461 14.7324C20.2461 13.5234 19.7658 12.3639 18.9109 11.509C18.056 10.6541 16.8965 10.1738 15.6875 10.1738C14.4785 10.1738 13.319 10.6541 12.4641 11.509C11.6092 12.3639 11.1289 13.5234 11.1289 14.7324Z" fill="black"/>
<path d="M22.8418 24.834C22.8398 24.7988 22.8379 24.7637 22.832 24.7305C22.4414 21.1289 19.3906 18.3242 15.6855 18.3242C11.9746 18.3242 8.92188 21.1348 8.53711 24.7441C8.5332 24.7695 8.53125 24.7949 8.5293 24.8223C8.5293 24.8262 8.5293 24.8301 8.52734 24.8359V24.8574C8.52734 25.25 8.8457 25.5684 9.23828 25.5684H22.1328C22.5254 25.5684 22.8438 25.25 22.8438 24.8574C22.8438 24.8477 22.8418 24.8418 22.8418 24.834Z" fill="black"/>
</svg>
