<svg width="36" height="36" viewBox="0 0 36 36" fill="none" xmlns="http://www.w3.org/2000/svg">
<path d="M5 5.99997V26C6.66667 26.8333 10.9 28.6 14.5 29C18.1 29.4 23.3333 27.8333 25.5 27V7C25.5 5 22 3.99997 15.5 2.99997C10.3 2.19997 6.33333 4.66664 5 5.99997Z" fill="#DDDDDD"/>
<path d="M26 7C26 9.20914 21.299 11 15.5 11C9.70101 11 5 9.20914 5 7C5 4.79086 9.70101 3 15.5 3C21.299 3 26 4.79086 26 7Z" stroke="black" stroke-width="2.5"/>
<path d="M5 25C5 27.2091 9.70101 29 15.5 29C16.4594 29 17.3887 28.951 18.2717 28.8592" stroke="black" stroke-width="2.5"/>
<path d="M15.5 19.5C9.70101 19.5 5 17.7091 5 15.5" stroke="black" stroke-width="2.5"/>
<path d="M5 25V6.5" stroke="black" stroke-width="2.5"/>
<path d="M26 17V6.5" stroke="black" stroke-width="2.5"/>
<circle cx="24.5" cy="24.5" r="7.5" fill="#DDDDDD" stroke="black" stroke-width="2"/>
<path d="M20 24.7101C20 25.1961 20.396 25.5921 20.882 25.5921H28.526C29.012 25.5921 29.408 25.1961 29.408 24.7101C29.408 24.2241 29.012 23.8281 28.526 23.8281H20.882C20.396 23.8281 20 24.2241 20 24.7101Z" fill="black"/>
<path d="M23.8203 20.882C23.8203 20.396 24.2163 20 24.7023 20C25.1883 20 25.5843 20.396 25.5843 20.882V28.526C25.5843 29.012 25.1883 29.408 24.7023 29.408C24.2163 29.408 23.8203 29.012 23.8203 28.526V20.882Z" fill="black"/>
</svg>
