<svg width="36" height="36" viewBox="0 0 36 36" fill="none" xmlns="http://www.w3.org/2000/svg">
<rect width="36" height="36" rx="18" fill="#EDEDED"/>
<path d="M11.2017 14.6214C11.3151 14.7873 11.4451 14.9477 11.5917 15.1026C12.1531 15.6972 12.9468 16.2005 13.8954 16.5711C14.219 16.6983 14.5619 16.8062 14.9214 16.903C15.5603 17.0661 16.2517 17.174 16.9708 17.2155C17.1892 17.2293 17.4132 17.2348 17.64 17.2348C17.8668 17.2348 18.0908 17.2293 18.3093 17.2155C19.0284 17.174 19.7197 17.0661 20.3586 16.903C20.7181 16.8089 21.0611 16.6983 21.3846 16.5711C22.3332 16.2033 23.1242 15.6972 23.6884 15.1026C23.8349 14.9505 23.9649 14.7873 24.0783 14.6214C24.1972 14.4471 24.2996 14.2674 24.3798 14.0821C24.5319 13.7364 24.6148 13.3713 24.6148 12.9924C24.6148 10.65 21.4925 8.75 17.6428 8.75C13.7931 8.75 10.6707 10.65 10.6707 12.9924C10.6707 13.3685 10.7509 13.7336 10.9058 14.0821C10.9805 14.2674 11.0828 14.4471 11.2017 14.6214ZM17.64 22.6665C14.8136 22.6665 12.366 21.7566 10.903 20.3461C10.7509 20.6946 10.668 21.0596 10.668 21.4385C10.668 23.781 13.7903 25.681 17.64 25.681C21.4897 25.681 24.6121 23.7838 24.6121 21.4385C24.6121 21.0624 24.5319 20.6974 24.377 20.3461C22.914 21.7566 20.4665 22.6665 17.64 22.6665Z" fill="black"/>
<path d="M22.8725 17.214C22.6596 17.3301 22.4356 17.4408 22.2032 17.5431C21.9405 17.6593 21.6667 17.7643 21.3846 17.8584C20.2673 18.2345 18.9979 18.4447 17.64 18.4447C16.2821 18.4447 15.0127 18.2345 13.8954 17.8584C13.6133 17.7643 13.3395 17.662 13.0768 17.5431C12.8445 17.4435 12.6205 17.3301 12.4075 17.214C11.8323 16.8987 11.3234 16.5337 10.9003 16.1216C10.7478 16.4656 10.6687 16.8377 10.668 17.214C10.668 17.5901 10.7482 17.9552 10.903 18.3064C10.9805 18.4917 11.0856 18.6715 11.2045 18.8457C11.3179 19.0116 11.4479 19.172 11.5944 19.3269C12.7975 20.6018 15.0542 21.4592 17.6428 21.4592C20.2314 21.4592 22.4881 20.6018 23.6911 19.3269C23.8377 19.1748 23.9677 19.0116 24.0811 18.8457C24.2 18.6715 24.3023 18.4917 24.3825 18.3064C24.5346 17.9579 24.6176 17.5929 24.6176 17.214C24.6176 16.8379 24.5374 16.4728 24.3853 16.1216C23.9566 16.5337 23.4478 16.8987 22.8725 17.214Z" fill="black"/>
</svg>
