<svg xmlns="http://www.w3.org/2000/svg" width="36" height="36" viewBox="0 0 36 36" fill="none">
<path d="M3.94017 34.1429L3.94017 34.1428H3.95426H27.2155C27.4613 34.1428 27.6972 34.0451 27.871 33.8712C28.0449 33.6974 28.1426 33.4615 28.1426 33.2157V9.92731C28.1426 9.68143 28.0449 9.44561 27.871 9.27174C27.6972 9.09787 27.4613 9.00019 27.2155 9.00019H3.95426V9.00029L3.94018 9.00009C3.81733 8.99836 3.69536 9.02106 3.58137 9.06688C3.46737 9.1127 3.36362 9.18072 3.27614 9.26698C3.18866 9.35324 3.1192 9.45603 3.07179 9.56938C3.02439 9.68272 2.99998 9.80436 2.99999 9.92722V9.92731V33.2157V33.2158C2.99998 33.3386 3.02439 33.4602 3.07179 33.5736C3.1192 33.6869 3.18866 33.7897 3.27614 33.876C3.36362 33.9623 3.46737 34.0303 3.58137 34.0761L3.20844 35.0039L3.58137 34.0761C3.69537 34.1219 3.81733 34.1446 3.94017 34.1429Z" fill="white" stroke="black" stroke-width="2"/>
<path d="M10.7973 26.1429L10.7973 26.1428H10.8114H34.0726C34.3185 26.1428 34.5543 26.0451 34.7281 25.8712C34.902 25.6974 34.9997 25.4615 34.9997 25.2157V1.92731C34.9997 1.68143 34.902 1.44561 34.7281 1.27174C34.5543 1.09787 34.3185 1.00019 34.0726 1.00019H10.8114V1.00029L10.7973 1.00009C10.6744 0.998362 10.5525 1.02106 10.4385 1.06688C10.3245 1.1127 10.2207 1.18072 10.1333 1.26698C10.0458 1.35324 9.97632 1.45603 9.92891 1.56938C9.8815 1.68272 9.8571 1.80436 9.85711 1.92722V1.92731V25.2157V25.2158C9.8571 25.3386 9.8815 25.4602 9.92891 25.5736C9.97632 25.6869 10.0458 25.7897 10.1333 25.876C10.2207 25.9623 10.3245 26.0303 10.4385 26.0761L10.0656 27.0039L10.4385 26.0761C10.5525 26.1219 10.6744 26.1446 10.7973 26.1429Z" fill="white" stroke="black" stroke-width="2"/>
<path d="M17 10C17 9.44772 17.4477 9 18 9L27 9C27.5523 9 28 9.44772 28 10C28 10.5523 27.5523 11 27 11L18 11C17.4477 11 17 10.5523 17 10Z" fill="black"/>
<path d="M17 16C17 15.4477 17.4477 15 18 15L27 15C27.5523 15 28 15.4477 28 16C28 16.5523 27.5523 17 27 17L18 17C17.4477 17 17 16.5523 17 16Z" fill="black"/>
</svg>