<svg width="36" height="36" viewBox="0 0 36 36" fill="none" xmlns="http://www.w3.org/2000/svg">
<rect width="36" height="36" rx="18" fill="#EDEDED"/>
<path d="M28.783 16.6809L25.6249 10.8727C25.3308 10.3336 24.7809 10 24.1861 10H11.8139C11.2191 10 10.6692 10.3336 10.3751 10.8727L7.21697 16.6809C6.86008 17.3371 6.94986 18.1523 7.43918 18.7069L16.7991 28.4609C17.1089 28.8034 17.5466 29 18 29C18.4534 29 18.8911 28.8034 19.2009 28.4609L28.5361 18.7334L28.5608 18.7069C29.0501 18.1523 29.1399 17.3371 28.783 16.6809ZM26.7966 16.7737H22.1099L19.6812 11.7674H24.0739L26.7966 16.7737ZM15.8631 16.7295L18 12.4037L20.0965 16.7295H15.8631ZM20.2401 18.497L17.9663 24.6543L15.7083 18.497H20.2401ZM13.7981 18.497L16.3323 25.3988L9.66582 18.4528H13.0148L12.9923 18.497H13.7981ZM22.1503 18.497H22.9448L22.9246 18.4528H26.3342L19.56 25.5137L22.1503 18.497ZM11.9261 11.7674H16.3188L13.8453 16.7737H9.20344L11.9261 11.7674Z" fill="black"/>
</svg>
