<svg width="36" height="36" viewBox="0 0 36 36" fill="none" xmlns="http://www.w3.org/2000/svg">
<path d="M4.70382 6.51576L1.41874 23.5627C1.30036 25.664 2.35987 30.0086 7.54498 30.5768C12.7301 31.145 14.5591 27.2621 14.8254 25.2496L15.0918 8.73541C14.5591 7.522 12.9432 4.95312 10.7413 4.38489C8.53938 3.81666 5.79885 5.5687 4.70382 6.51576Z" fill="#CCFF00"/>
<path d="M31.3391 6.44935L34.6242 23.4963C34.7426 25.5976 33.6831 29.9422 28.498 30.5104C23.3129 31.0786 21.4839 27.1957 21.2175 25.1832L20.9512 8.669C21.4839 7.45559 23.0998 4.88671 25.3017 4.31848C27.5036 3.75025 30.2441 5.5023 31.3391 6.44935Z" fill="#CCFF00"/>
<path d="M35.0489 20.5022L32.9504 8.98257H32.9084C32.7026 7.47985 31.9869 6.09342 30.881 5.0553C29.7752 4.01718 28.3464 3.39036 26.8337 3.27975C25.321 3.16913 23.8162 3.58143 22.5711 4.44764C21.3261 5.31385 20.4163 6.58142 19.994 8.03821C18.6849 7.72465 17.3181 7.74352 16.018 8.09309C15.6087 6.62592 14.7058 5.34483 13.4617 4.46597C12.2176 3.58711 10.7084 3.16427 9.18882 3.26878C7.66919 3.37328 6.23212 3.99875 5.12005 5.03964C4.00798 6.08054 3.28897 7.47317 3.08432 8.98257H3.04235L0.94377 20.5022C0.464173 21.5645 0.222233 22.7187 0.234844 23.8841C0.247454 25.0496 0.514311 26.1983 1.01678 27.25C1.51925 28.3016 2.24522 29.231 3.14401 29.9731C4.04279 30.7151 5.09272 31.2521 6.22049 31.5464C7.34826 31.8408 8.52669 31.8854 9.67349 31.6772C10.8203 31.469 11.9078 31.013 12.8601 30.341C13.8125 29.669 14.6066 28.7972 15.1872 27.7865C15.7678 26.7759 16.1207 25.6507 16.2214 24.4895H16.2521V19.0461C16.9687 18.7499 17.7368 18.5984 18.5121 18.6005C18.925 18.6008 19.3367 18.6441 19.7406 18.7297V24.4895H19.7713C19.872 25.6507 20.2249 26.7759 20.8055 27.7865C21.3861 28.7972 22.1802 29.669 23.1326 30.341C24.0849 31.013 25.1724 31.469 26.3192 31.6772C27.466 31.8854 28.6444 31.8408 29.7722 31.5464C30.9 31.2521 31.9499 30.7151 32.8487 29.9731C33.7475 29.231 34.4735 28.3016 34.9759 27.25C35.4784 26.1983 35.7453 25.0496 35.7579 23.8841C35.7705 22.7187 35.5285 21.5645 35.0489 20.5022ZM16.2586 10.2094C17.3862 9.83885 18.5991 9.81467 19.7406 10.14V16.6053C19.3341 16.5428 18.9234 16.5115 18.5121 16.5116C17.7472 16.5104 16.9861 16.6191 16.2521 16.8345L16.2586 10.2094ZM8.25167 29.7149C7.08088 29.7149 5.93639 29.3678 4.96291 28.7173C3.98944 28.0668 3.23071 27.1423 2.78267 26.0607C2.33462 24.979 2.2174 23.7888 2.44581 22.6405C2.67421 21.4922 3.238 20.4374 4.06588 19.6095C4.89375 18.7817 5.94852 18.2179 7.09682 17.9895C8.24511 17.761 9.43534 17.8783 10.517 18.3263C11.5987 18.7744 12.5232 19.5331 13.1737 20.5066C13.8241 21.48 14.1713 22.6245 14.1713 23.7953C14.1696 25.3648 13.5454 26.8695 12.4356 27.9792C11.3258 29.089 9.82113 29.7132 8.25167 29.7149ZM8.25167 15.7884C6.61224 15.787 5.0123 16.2915 3.67031 17.2332L5.00856 9.87043H5.11833C5.11828 9.27597 5.23532 8.68732 5.46278 8.1381C5.69023 7.58888 6.02364 7.08983 6.44397 6.66947C6.86429 6.24911 7.36331 5.91565 7.91251 5.68815C8.46171 5.46065 9.05035 5.34356 9.64481 5.34356C10.2393 5.34356 10.8279 5.46065 11.3771 5.68815C11.9263 5.91565 12.4253 6.24911 12.8457 6.66947C13.266 7.08983 13.5994 7.58888 13.8268 8.1381C14.0543 8.68732 14.1713 9.27597 14.1713 9.87043V18.4084C13.4223 17.5823 12.5087 16.922 11.4891 16.4702C10.4696 16.0185 9.36681 15.7851 8.25167 15.7852V15.7884ZM21.8311 9.86881C21.8311 9.27436 21.9481 8.68571 22.1756 8.13649C22.403 7.58726 22.7364 7.08822 23.1567 6.66786C23.5771 6.24749 24.0761 5.91404 24.6253 5.68654C25.1745 5.45904 25.7631 5.34194 26.3576 5.34194C26.952 5.34194 27.5407 5.45904 28.0899 5.68654C28.6391 5.91404 29.1381 6.24749 29.5584 6.66786C29.9788 7.08822 30.3122 7.58726 30.5396 8.13649C30.7671 8.68571 30.8841 9.27436 30.8841 9.86881H30.9938L32.3321 17.2316C30.7391 16.1186 28.7952 15.6241 26.864 15.8404C24.9328 16.0567 23.1465 16.969 21.8392 18.4068L21.8311 9.86881ZM27.7507 29.7149C26.5799 29.7149 25.4354 29.3678 24.462 28.7173C23.4885 28.0668 22.7298 27.1423 22.2817 26.0607C21.8337 24.979 21.7164 23.7888 21.9449 22.6405C22.1733 21.4922 22.737 20.4374 23.5649 19.6095C24.3928 18.7817 25.4476 18.2179 26.5959 17.9895C27.7442 17.761 28.9344 17.8783 30.0161 18.3263C31.0977 18.7744 32.0222 19.5331 32.6727 20.5066C33.3232 21.48 33.6703 22.6245 33.6703 23.7953C33.6686 25.3651 33.0442 26.87 31.9341 27.9798C30.8239 29.0896 29.3188 29.7137 27.7491 29.7149H27.7507Z" fill="black"/>
<path d="M27.7499 32.0428C25.725 32.0404 23.7715 31.2945 22.2603 29.9467C20.7924 28.6375 20.0677 27.6632 19.4992 24.7316V18.9282C19.1735 18.8713 18.8435 18.8426 18.5129 18.8427C17.8256 18.8417 17.1439 18.9665 16.5015 19.2107V24.7316C16.3387 26.4928 15.8068 27.2475 15.3078 28.0714C14.6913 29.0894 13.8618 29.9619 12.8763 30.6291C11.8908 31.2964 10.7726 31.7425 9.59845 31.9369C8.4243 32.1313 7.222 32.0694 6.07403 31.7555C4.92606 31.4415 3.8596 30.8829 2.94783 30.118C2.03607 29.353 1.30057 28.3999 0.791827 27.324C0.283079 26.2481 0.0131171 25.0749 0.000466199 23.8848C-0.0121847 22.6947 0.232775 21.516 0.718536 20.4295L2.85102 8.7017C3.11039 7.18483 3.90634 5.7993 5.04848 4.76795C6.19061 3.73661 7.64646 3.11941 9.18183 3.01562C10.7172 2.91183 12.2429 3.3275 13.5134 4.19575C14.784 5.064 15.7255 6.33438 16.1867 7.80253C17.3828 7.51834 18.6269 7.5018 19.8302 7.75411C20.3011 6.29391 21.2481 5.03382 22.5197 4.17537C23.7914 3.31693 25.3141 2.90972 26.8445 3.01887C28.3749 3.12802 29.8244 3.74723 30.9613 4.77747C32.0983 5.8077 32.8604 7.04577 33.1193 8.55802L33.1497 8.7017L35.2822 20.4295C35.7572 21.4873 36.0015 22.6342 35.9989 23.7937C35.9959 25.9806 35.1259 28.077 33.5795 29.6234C32.0332 31.1697 29.9367 32.0398 27.7499 32.0428ZM19.9835 24.2473H19.9948L20.0142 24.4685C20.1133 25.5939 20.4567 26.6842 21.0205 27.6632C21.5843 28.6422 22.3549 29.4864 23.2786 30.137C24.2023 30.7875 25.2567 31.2287 26.3685 31.4298C27.4802 31.6308 28.6224 31.5869 29.7154 31.3011C30.8084 31.0153 31.8259 30.4944 32.6969 29.7749C33.5679 29.0554 34.2715 28.1545 34.7584 27.1351C35.2454 26.1156 35.5041 25.0022 35.5165 23.8725C35.5289 22.7428 35.2947 21.624 34.8302 20.5942L34.8172 20.5668V20.5377L32.7687 9.26508L32.6815 9.02294C32.4879 7.5715 31.8004 6.23102 30.7346 5.22691C29.6688 4.22281 28.2897 3.61634 26.8293 3.50949C25.3689 3.40265 23.9163 3.80195 22.7157 4.64024C21.5151 5.47853 20.6398 6.70468 20.237 8.11248L20.1724 8.33525L19.9464 8.28037C18.6766 7.97598 17.3508 7.99429 16.0898 8.33364L15.8574 8.3966L15.7928 8.16414C15.4007 6.74858 14.5318 5.5119 13.3329 4.66329C12.134 3.81468 10.6787 3.40623 9.21335 3.50705C7.74797 3.60787 6.36239 4.21176 5.291 5.21657C4.21962 6.22138 3.52819 7.56542 3.33369 9.02133L3.28717 9.17952L3.24652 9.26347L1.18991 20.5732L1.17699 20.6007C0.722462 21.6031 0.488496 22.6914 0.49092 23.7921C0.507402 25.7822 1.28724 27.69 2.66948 29.1219C4.05173 30.5537 5.9309 31.4002 7.91918 31.4868C9.90745 31.5734 11.8531 30.8934 13.3546 29.5871C14.856 28.2808 15.7987 26.448 15.9881 24.4669L16.0075 24.2457H16.0188V18.883L16.1689 18.8217C16.9126 18.514 17.7097 18.356 18.5145 18.3568C18.9442 18.3571 19.3726 18.402 19.793 18.4908L19.9851 18.5311L19.9835 24.2473ZM27.7499 29.9539C26.5312 29.9539 25.3399 29.5925 24.3266 28.9154C23.3133 28.2384 22.5235 27.276 22.0571 26.1501C21.5908 25.0242 21.4688 23.7853 21.7065 22.59C21.9443 21.3947 22.5311 20.2968 23.3929 19.4351C24.2546 18.5733 25.3525 17.9865 26.5478 17.7487C27.743 17.511 28.982 17.633 30.1079 18.0994C31.2338 18.5658 32.1961 19.3555 32.8732 20.3688C33.5502 21.3821 33.9116 22.5734 33.9116 23.7921C33.9099 25.4258 33.2602 26.9921 32.105 28.1472C30.9498 29.3024 29.3835 29.9522 27.7499 29.9539ZM27.7499 18.1163C26.627 18.1163 25.5293 18.4492 24.5956 19.0731C23.662 19.6969 22.9343 20.5836 22.5046 21.621C22.0749 22.6585 21.9624 23.8 22.1815 24.9013C22.4006 26.0027 22.9413 27.0143 23.7353 27.8083C24.5293 28.6023 25.5409 29.143 26.6423 29.3621C27.7436 29.5812 28.8851 29.4687 29.9225 29.039C30.96 28.6093 31.8467 27.8816 32.4705 26.948C33.0944 26.0143 33.4273 24.9166 33.4273 23.7937C33.4256 22.2885 32.8269 20.8454 31.7626 19.781C30.6982 18.7167 29.2551 18.118 27.7499 18.1163ZM8.25244 29.9539C7.03376 29.9539 5.84245 29.5925 4.82915 28.9154C3.81586 28.2384 3.02609 27.276 2.55972 26.1501C2.09335 25.0242 1.97133 23.7853 2.20908 22.59C2.44683 21.3947 3.03368 20.2968 3.89542 19.4351C4.75716 18.5733 5.85508 17.9865 7.05034 17.7487C8.24561 17.511 9.48453 17.633 10.6104 18.0994C11.7364 18.5658 12.6987 19.3555 13.3758 20.3688C14.0528 21.3821 14.4142 22.5734 14.4142 23.7921C14.4125 25.4258 13.7628 26.9921 12.6076 28.1472C11.4524 29.3024 9.88612 29.9522 8.25244 29.9539ZM8.25244 18.1163C7.12954 18.1163 6.03186 18.4492 5.09821 19.0731C4.16455 19.6969 3.43686 20.5836 3.00714 21.621C2.57743 22.6585 2.465 23.8 2.68406 24.9013C2.90313 26.0027 3.44386 27.0143 4.23786 27.8083C5.03187 28.6023 6.0435 29.143 7.14482 29.3621C8.24614 29.5812 9.38769 29.4687 10.4251 29.039C11.4625 28.6093 12.3492 27.8816 12.9731 26.948C13.5969 26.0143 13.9299 24.9166 13.9299 23.7937C13.9282 22.2885 13.3295 20.8454 12.2651 19.781C11.2008 18.7167 9.75768 18.118 8.25244 18.1163ZM14.4142 19.0299L13.9929 18.5683C12.7251 17.1713 10.9914 16.2848 9.11666 16.075C7.24195 15.8652 5.35508 16.3464 3.80991 17.4286L3.32562 17.766L4.80593 9.62507C4.89279 8.40092 5.52414 7.25738 6.43266 6.43235C7.34119 5.60732 8.53282 5.16433 9.75966 5.19552C10.9865 5.22671 12.1541 5.72969 13.0195 6.59982C13.8849 7.46994 14.3816 8.64023 14.4061 9.86722L14.4142 19.0299ZM8.25244 15.5431C10.3654 15.5464 12.3969 16.3586 13.9299 17.8128V9.85914C13.9299 8.72287 13.4785 7.63313 12.6751 6.82966C11.8716 6.02619 10.7819 5.57481 9.64558 5.57481C8.5093 5.57481 7.41956 6.02619 6.61609 6.82966C5.81263 7.63313 5.50682 8.64681 5.291 9.80103L5.21111 10.1013L4.00846 16.7199C5.28906 15.9473 6.75684 15.5403 8.25244 15.5431ZM21.5897 19.0299V9.85914C21.6143 8.63216 22.1109 7.46187 22.9764 6.59174C23.8418 5.72162 25.0094 5.21864 26.2362 5.18745C27.463 5.15626 28.6547 5.59925 29.5632 6.42428C30.4717 7.24931 30.9884 8.46923 31.166 9.44588L31.1899 9.617L32.6702 17.7579L32.186 17.4205C30.6408 16.3384 28.7539 15.8571 26.8792 16.0669C25.0045 16.2767 23.2707 17.1632 22.003 18.5602L21.5897 19.0299ZM26.3584 5.58127C25.2225 5.58255 24.1335 6.03434 23.3303 6.83754C22.5271 7.64073 22.0753 8.72972 22.074 9.8656V17.8112C23.607 16.3569 25.6385 15.5448 27.7515 15.5415C29.2465 15.539 30.7137 15.946 31.9938 16.7183L30.7912 10.0997L30.7221 9.88981C30.5445 8.73559 30.1849 7.63612 29.382 6.83468C28.579 6.03323 27.4912 5.58254 26.3567 5.58127H26.3584ZM16.0269 17.1557V10.0351L16.1883 9.98022C17.3619 9.59437 18.6242 9.56907 19.8124 9.90757L19.9884 9.95762V16.8878L19.7091 16.8442C19.3148 16.7839 18.9166 16.7536 18.5177 16.7538C17.778 16.753 17.042 16.8579 16.332 17.0653L16.0269 17.1557ZM16.5112 10.387V16.5213C17.4907 16.2773 18.5065 16.2133 19.5089 16.3325V10.3305C18.5221 10.0832 17.487 10.1043 16.5112 10.3919V10.387Z" fill="black"/>
</svg>
