<svg width="500" height="500" viewBox="0 0 500 500" fill="none" xmlns="http://www.w3.org/2000/svg">
<g clip-path="url(#clip0_2686_1526)">
<path d="M0 163.636C0 73.2625 73.2625 0 163.636 0H336.364C426.738 0 500 73.2625 500 163.636V336.364C500 426.738 426.738 500 336.364 500H163.636C73.2625 500 0 426.738 0 336.364V163.636Z" fill="#CCFF00"/>
<path d="M354.676 102.524C368.197 89.0715 390.119 89.0715 403.64 102.524C417.161 115.976 417.161 137.786 403.64 151.238C390.119 164.691 368.197 164.691 354.676 151.238C341.155 137.786 341.155 115.976 354.676 102.524Z" fill="black"/>
<path d="M98.6543 226.717C98.6543 160.132 152.908 106.154 219.834 106.154H292.525C305.447 106.154 316.404 115.608 318.231 128.335L319.439 136.749C323.247 163.271 344.193 184.111 370.851 187.899L379.308 189.101C392.101 190.92 401.603 201.787 401.603 214.643C401.603 232.01 401.603 257.962 401.603 286.979C401.603 353.564 347.349 407.561 280.423 407.561H219.834C152.908 407.561 98.6543 353.583 98.6543 286.998V226.717Z" fill="black"/>
<path d="M296.338 213.363V273.662C296.338 276.513 297.215 278.705 298.97 280.021C300.724 281.556 302.917 282.214 305.767 282.214C310.591 282.214 314.538 278.925 317.388 272.127C320.02 265.33 321.554 257.217 321.554 248.007C321.554 228.931 314.757 213.363 301.382 201.522C288.006 189.682 271.342 183.761 251.607 183.761C230.338 183.761 212.577 190.778 198.325 204.373C184.072 217.968 177.056 235.29 177.056 256.12C177.056 276.951 183.853 294.054 197.886 307.21C211.92 320.367 229.461 326.945 250.95 326.945C266.163 326.945 280.629 322.756 294.347 314.378C299.106 311.471 305.462 312.599 308.418 317.328C310.922 321.335 310.129 326.626 306.248 329.324C290.868 340.017 272.606 345.363 251.169 345.363C223.541 345.363 200.956 337.031 183.414 320.367C165.654 303.702 156.883 282.652 156.883 256.778C156.883 230.466 165.873 208.758 184.072 191.436C202.272 174.114 224.856 165.343 251.607 165.343C276.823 165.343 298.093 173.236 315.415 188.585C332.737 203.934 341.508 223.669 341.508 247.569C341.508 254.147 340.631 260.287 339.315 265.988C337.78 271.689 335.368 277.39 332.299 282.871C329.229 288.353 324.624 292.739 318.704 295.808C312.564 299.097 305.548 300.632 297.435 300.632C283.84 300.632 274.631 296.247 269.807 287.257C263.229 296.028 253.581 300.413 240.863 300.413C228.584 300.413 218.498 296.466 210.604 288.353C202.71 280.459 198.763 269.496 198.763 255.901C198.763 242.306 202.71 231.562 210.823 223.449C218.717 215.556 228.803 211.389 240.863 211.389C251.388 211.389 259.94 214.678 266.518 221.037V213.363H296.338ZM249.634 273.443C254.239 273.443 258.185 271.908 261.475 268.619C264.764 265.33 266.518 260.944 266.518 255.463C266.518 250.2 264.764 246.034 261.475 242.745C258.185 239.675 254.239 237.921 249.634 237.921C244.81 237.921 240.863 239.675 237.574 242.745C234.066 246.034 232.531 250.2 232.531 255.463C232.531 260.944 234.066 265.33 237.574 268.619C240.863 271.908 244.81 273.443 249.634 273.443Z" fill="#CCFF00"/>
</g>
<defs>
<clipPath id="clip0_2686_1526">
<rect width="500" height="500" fill="white"/>
</clipPath>
</defs>
</svg>
