<svg width="36" height="36" viewBox="0 0 36 36" fill="none" xmlns="http://www.w3.org/2000/svg">
<rect width="36" height="36" rx="18" fill="#EDEDED"/>
<g clip-path="url(#clip0_10350_8181)">
<path d="M24.6115 21.9617C25.2955 20.7838 26.5475 20.1651 27.7286 20.3051C27.9047 19.5534 27.9934 18.7839 27.9929 18.0118C27.9929 17.3155 27.9217 16.6362 27.7863 15.9802C26.5903 16.1386 25.3156 15.5144 24.627 14.3172C23.9275 13.1008 24.0415 11.6563 24.8106 10.6987C23.7543 9.71517 22.4846 8.95884 21.0788 8.50684C20.6427 9.6661 19.4432 10.4988 18.0317 10.4988C16.6199 10.4988 15.4205 9.6661 14.9846 8.50697C13.592 8.95484 12.3329 9.70137 11.2826 10.6712C12.048 11.632 12.1564 13.0771 11.4517 14.2907C10.7582 15.4851 9.48076 16.1044 8.28529 15.9407C8.14207 16.6218 8.07002 17.3159 8.07031 18.0119C8.07031 18.7871 8.15847 19.5416 8.32535 20.266C9.50737 20.1305 10.757 20.7543 11.4362 21.935C12.1038 23.0955 12.0306 24.4638 11.3547 25.4188C12.4118 26.3761 13.6748 27.1095 15.0694 27.5441C15.5628 26.4911 16.7033 25.7537 18.0317 25.7537C19.3601 25.7537 20.5006 26.4912 20.9938 27.5441C22.3754 27.1137 23.6279 26.3898 24.6789 25.4455C24.0068 24.4878 23.9395 23.1194 24.6115 21.9617ZM18.0316 22.3517C15.6394 22.3517 13.7002 20.4088 13.7002 18.012C13.7002 15.6152 15.6394 13.6722 18.0316 13.6722C20.4237 13.6722 22.3629 15.6153 22.3629 18.012C22.3628 20.4088 20.4237 22.3517 18.0316 22.3517Z" fill="black"/>
</g>
<defs>
<clipPath id="clip0_10350_8181">
<rect width="20" height="20" fill="white" transform="translate(8 8)"/>
</clipPath>
</defs>
</svg>
