<svg width="16" height="16" viewBox="0 0 16 16" fill="none" xmlns="http://www.w3.org/2000/svg">
<path d="M9.72734 8.45645C9.72734 8.54037 9.74387 8.62347 9.77599 8.701C9.80811 8.77854 9.85518 8.84899 9.91452 8.90833C9.97386 8.96767 10.0443 9.01475 10.1218 9.04686C10.1994 9.07898 10.2825 9.09551 10.3664 9.09551C10.4503 9.09551 10.5334 9.07898 10.611 9.04686C10.6885 9.01475 10.7589 8.96767 10.8183 8.90833C10.8776 8.84899 10.9247 8.77854 10.9568 8.701C10.9889 8.62347 11.0055 8.54037 11.0055 8.45645C11.0055 8.37252 10.9889 8.28942 10.9568 8.21189C10.9247 8.13435 10.8776 8.0639 10.8183 8.00456C10.7589 7.94522 10.6885 7.89814 10.611 7.86603C10.5334 7.83391 10.4503 7.81738 10.3664 7.81738C10.2825 7.81738 10.1994 7.83391 10.1218 7.86603C10.0443 7.89814 9.97386 7.94522 9.91452 8.00456C9.85518 8.0639 9.80811 8.13435 9.77599 8.21189C9.74387 8.28942 9.72734 8.37252 9.72734 8.45645ZM9.41016 2.33145C9.41016 2.41537 9.42669 2.49847 9.4588 2.576C9.49092 2.65354 9.53799 2.72399 9.59733 2.78333C9.65668 2.84267 9.72713 2.88975 9.80466 2.92186C9.88219 2.95398 9.9653 2.97051 10.0492 2.97051C10.1331 2.97051 10.2162 2.95398 10.2938 2.92186C10.3713 2.88975 10.4418 2.84267 10.5011 2.78333C10.5604 2.72399 10.6075 2.65354 10.6396 2.576C10.6718 2.49847 10.6883 2.41537 10.6883 2.33145C10.6883 2.24752 10.6718 2.16442 10.6396 2.08689C10.6075 2.00935 10.5604 1.9389 10.5011 1.87956C10.4418 1.82022 10.3713 1.77314 10.2938 1.74103C10.2162 1.70891 10.1331 1.69238 10.0492 1.69238C9.9653 1.69238 9.88219 1.70891 9.80466 1.74103C9.72713 1.77314 9.65668 1.82022 9.59733 1.87956C9.53799 1.9389 9.49092 2.00935 9.4588 2.08689C9.42669 2.16442 9.41016 2.24752 9.41016 2.33145Z" fill="#666666"/>
<path d="M15.4555 13.3533C15.4555 11.108 14.1227 9.17363 12.2055 8.29707C13.0617 7.61895 13.6117 6.56895 13.6117 5.39238C13.6117 3.39551 12.0305 1.76738 10.0508 1.69238V2.97051C11.3164 3.04395 12.3195 4.10957 12.3195 5.39238C12.3195 6.62363 11.443 7.68457 10.2523 7.83145C10.1648 7.84238 10.0508 7.94707 10.0508 8.03457V8.98145C10.0508 8.66895 10.0992 8.97207 10.1633 8.97676L10.2414 9.08613C12.4805 9.22207 14.1758 11.0799 14.1758 13.3533H14.1773V13.3658C14.1773 13.7189 14.4633 14.0049 14.8164 14.0049C15.1695 14.0049 15.4555 13.7189 15.4555 13.3658V13.3533ZM2.50391 5.38613C2.50391 6.35334 2.88813 7.28094 3.57205 7.96486C4.25597 8.64878 5.18357 9.03301 6.15078 9.03301C7.11799 9.03301 8.04559 8.64878 8.72951 7.96486C9.41343 7.28094 9.79766 6.35334 9.79766 5.38613C9.79766 4.41892 9.41343 3.49132 8.72951 2.8074C8.04559 2.12348 7.11799 1.73926 6.15078 1.73926C5.18357 1.73926 4.25597 2.12348 3.57205 2.8074C2.88813 3.49132 2.50391 4.41892 2.50391 5.38613Z" fill="#666666"/>
<path d="M11.8734 13.4676C11.8719 13.4395 11.8703 13.4113 11.8656 13.3848C11.5531 10.5035 9.1125 8.25977 6.14844 8.25977C3.17969 8.25977 0.7375 10.5082 0.429688 13.3957C0.426563 13.416 0.425 13.4363 0.423438 13.4582C0.423438 13.4613 0.423438 13.4645 0.421875 13.4691V13.4863C0.421875 13.8004 0.676563 14.0551 0.990625 14.0551H11.3062C11.6203 14.0551 11.875 13.8004 11.875 13.4863C11.875 13.4785 11.8734 13.4738 11.8734 13.4676Z" fill="#666666"/>
</svg>
