<svg width="36" height="36" viewBox="0 0 36 36" fill="none" xmlns="http://www.w3.org/2000/svg">
<rect width="36" height="36" rx="18" fill="#EDEDED"/>
<path d="M25.7172 10.1058L8.88699 16.6234C7.7383 17.0861 7.74511 17.7294 8.67761 18.0163L12.8751 19.3317L14.4812 24.2756C14.6764 24.8167 14.5802 25.0313 15.1461 25.0313C15.5829 25.0313 15.7766 24.8314 16.0199 24.5928C16.1746 24.4408 17.093 23.5443 18.1185 22.5432L22.4847 25.7821C23.2882 26.2272 23.8683 25.9966 24.0683 25.0329L26.9344 11.4725C27.2278 10.2913 26.4859 9.75551 25.7172 10.1058ZM13.5339 19.0295L22.9951 13.0363C23.4674 12.7487 23.9005 12.9033 23.5449 13.2202L15.4436 20.559L15.1282 23.937L13.5339 19.0295Z" fill="black"/>
</svg>
