<svg width="36" height="36" viewBox="0 0 36 36" fill="none" xmlns="http://www.w3.org/2000/svg">
<path d="M7 7.15622V29.1562C8.66667 29.9896 12.9 31.7563 16.5 32.1562C20.1 32.5562 25.3333 30.9896 27.5 30.1562V8.15625C27.5 6.15625 24 5.15622 17.5 4.15622C12.3 3.35622 8.33333 5.82289 7 7.15622Z" fill="#cf0"/>
<path d="M28 8.15625C28 10.3654 23.299 12.1562 17.5 12.1562C11.701 12.1562 7 10.3654 7 8.15625C7 5.94711 11.701 4.15625 17.5 4.15625C23.299 4.15625 28 5.94711 28 8.15625Z" stroke="black" stroke-width="2.5"/>
<path d="M28 18.1562C28 20.3654 23.299 22.1562 17.5 22.1562C11.701 22.1562 7 20.3654 7 18.1562" stroke="black" stroke-width="2.5"/>
<path d="M28 28.1562C28 30.3654 23.299 32.1562 17.5 32.1562C11.701 32.1562 7 30.3654 7 28.1562" stroke="black" stroke-width="2.5"/>
<path d="M7 28.1562V8.15625" stroke="black" stroke-width="2.5"/>
<path d="M28 28.1562L28 7.9375" stroke="black" stroke-width="2.5"/>
</svg>
