<svg width="12" height="12" viewBox="0 0 12 12" fill="none" xmlns="http://www.w3.org/2000/svg">
<rect x="2.1875" y="1.45728" width="7.28542" height="8.7425" rx="2.18563" fill="#CCFF00"/>
<path d="M2.73391 3.47478C2.73391 3.173 2.48927 2.92837 2.1875 2.92837C1.88573 2.92837 1.64109 3.173 1.64109 3.47478H2.1875H2.73391ZM10.0193 3.47478C10.0193 3.173 9.77469 2.92837 9.47292 2.92837C9.17115 2.92837 8.92651 3.173 8.92651 3.47478H9.47292H10.0193ZM9.47292 3.13853H8.92651C8.92651 3.26119 8.79584 3.54563 8.17702 3.83123C7.60462 4.09542 6.77544 4.27337 5.83021 4.27337V4.81978V5.36618C6.89679 5.36618 7.88897 5.16777 8.63497 4.82346C9.33455 4.50058 10.0193 3.94439 10.0193 3.13853H9.47292ZM5.83021 4.81978V4.27337C4.88497 4.27337 4.0558 4.09542 3.4834 3.83123C2.86458 3.54563 2.73391 3.26119 2.73391 3.13853H2.1875H1.64109C1.64109 3.94439 2.32587 4.50058 3.02545 4.82346C3.77145 5.16777 4.76363 5.36618 5.83021 5.36618V4.81978ZM2.1875 3.13853H2.73391C2.73391 3.01586 2.86458 2.73143 3.4834 2.44582C4.0558 2.18163 4.88497 2.00368 5.83021 2.00368V1.45728V0.910869C4.76363 0.910869 3.77145 1.10928 3.02545 1.45359C2.32587 1.77647 1.64109 2.33266 1.64109 3.13853H2.1875ZM5.83021 1.45728V2.00368C6.77544 2.00368 7.60462 2.18163 8.17702 2.44582C8.79584 2.73143 8.92651 3.01586 8.92651 3.13853H9.47292H10.0193C10.0193 2.33266 9.33455 1.77647 8.63497 1.45359C7.88897 1.10928 6.89679 0.910869 5.83021 0.910869V1.45728ZM9.47292 6.16478H8.92651C8.92651 6.1347 8.94486 6.17408 8.82732 6.27668C8.71097 6.37825 8.51103 6.49459 8.21673 6.60325C7.63242 6.819 6.78875 6.96337 5.83021 6.96337V7.50978V8.05618C6.88348 8.05618 7.86117 7.89946 8.59526 7.62842C8.96016 7.49368 9.29368 7.3202 9.54599 7.09994C9.79712 6.88072 10.0193 6.56626 10.0193 6.16478H9.47292ZM5.83021 7.50978V6.96337C4.87167 6.96337 4.028 6.819 3.44369 6.60325C3.14939 6.49459 2.94945 6.37825 2.8331 6.27668C2.71556 6.17408 2.73391 6.1347 2.73391 6.16478H2.1875H1.64109C1.64109 6.56626 1.8633 6.88072 2.11443 7.09994C2.36674 7.3202 2.70026 7.49368 3.06516 7.62842C3.79925 7.89946 4.77694 8.05618 5.83021 8.05618V7.50978ZM9.47292 8.85478H8.92651C8.92651 8.82471 8.94486 8.86408 8.82732 8.96668C8.71097 9.06825 8.51103 9.18459 8.21673 9.29325C7.63242 9.509 6.78875 9.65337 5.83021 9.65337V10.1998V10.7462C6.88348 10.7462 7.86117 10.5895 8.59526 10.3184C8.96016 10.1837 9.29368 10.0102 9.54599 9.78994C9.79712 9.57072 10.0193 9.25626 10.0193 8.85478H9.47292ZM5.83021 10.1998V9.65337C4.87167 9.65337 4.028 9.509 3.44369 9.29325C3.14939 9.18459 2.94945 9.06825 2.8331 8.96668C2.71556 8.86408 2.73391 8.82471 2.73391 8.85478H2.1875H1.64109C1.64109 9.25626 1.8633 9.57072 2.11443 9.78994C2.36674 10.0102 2.70026 10.1837 3.06516 10.3184C3.79925 10.5895 4.77694 10.7462 5.83021 10.7462V10.1998ZM2.1875 3.47478H1.64109V8.85478H2.1875H2.73391V3.47478H2.1875ZM9.47292 3.47478H8.92651V8.85478H9.47292H10.0193V3.47478H9.47292Z" fill="black"/>
</svg>
