<svg width="16" height="16" viewBox="0 0 16 16" fill="none" xmlns="http://www.w3.org/2000/svg">
<g clip-path="url(#clip0_10442_11583)">
<path d="M7.02632 9.47952C6.98441 9.14662 7.00956 8.85533 7.10176 8.60566C7.20235 8.35598 7.34066 8.13127 7.51669 7.93153C7.70111 7.73179 7.90229 7.5487 8.12023 7.38225C8.34656 7.2158 8.55612 7.05351 8.74891 6.89538C8.95009 6.73726 9.11355 6.57497 9.23929 6.40852C9.36503 6.24207 9.42789 6.05897 9.42789 5.85923C9.42789 5.60956 9.36503 5.39733 9.23929 5.22256C9.11355 5.04779 8.92914 4.91463 8.68605 4.82308C8.45134 4.73153 8.16633 4.68576 7.83104 4.68576C7.44544 4.68576 7.09338 4.76899 6.77485 4.93544C6.45631 5.10189 6.14197 5.3474 5.83182 5.67198L4.80078 4.72321C5.20314 4.26548 5.67675 3.89929 6.22161 3.62464C6.77485 3.34168 7.38258 3.2002 8.04479 3.2002C8.65671 3.2002 9.19738 3.29174 9.66679 3.47484C10.1446 3.65793 10.5176 3.93674 10.7859 4.31125C11.0625 4.67744 11.2008 5.13934 11.2008 5.69694C11.2008 6.00488 11.1337 6.27536 10.9996 6.50839C10.8739 6.7331 10.7062 6.937 10.4967 7.12009C10.2955 7.29486 10.0817 7.46548 9.8554 7.63193C9.62907 7.79005 9.41951 7.9565 9.22671 8.13127C9.03392 8.30605 8.88303 8.50163 8.77406 8.71801C8.66509 8.9344 8.62318 9.18823 8.64833 9.47952H7.02632ZM7.84361 12.8002C7.52508 12.8002 7.26103 12.6962 7.05147 12.4881C6.84191 12.28 6.73713 12.0179 6.73713 11.7016C6.73713 11.377 6.84191 11.1107 7.05147 10.9027C7.26103 10.6946 7.52508 10.5906 7.84361 10.5906C8.16214 10.5906 8.42619 10.6946 8.63575 10.9027C8.84531 11.1107 8.95009 11.377 8.95009 11.7016C8.95009 12.0179 8.84531 12.28 8.63575 12.4881C8.42619 12.6962 8.16214 12.8002 7.84361 12.8002Z" fill="black"/>
<path d="M14.8 8C14.8 4.24446 11.7555 1.2 8 1.2C4.24446 1.2 1.2 4.24446 1.2 8C1.2 11.7555 4.24446 14.8 8 14.8V16C3.58172 16 0 12.4183 0 8C0 3.58172 3.58172 0 8 0C12.4183 0 16 3.58172 16 8C16 12.4183 12.4183 16 8 16V14.8C11.7555 14.8 14.8 11.7555 14.8 8Z" fill="black"/>
</g>
<defs>
<clipPath id="clip0_10442_11583">
<rect width="16" height="16" rx="8" fill="white"/>
</clipPath>
</defs>
</svg>
