<svg width="17" height="16" viewBox="0 0 17 16" fill="none" xmlns="http://www.w3.org/2000/svg">
<g clip-path="url(#clip0_10442_11925)">
<path d="M15.1111 16H1.88889C1.38792 16 0.907478 15.7893 0.553243 15.4142C0.199007 15.0391 0 14.5304 0 14V4C0 3.46957 0.199007 2.96086 0.553243 2.58579C0.907478 2.21071 1.38792 2 1.88889 2H2.83333V4H1.88889V14H15.1111V4H14.1667V2H15.1111C15.6121 2 16.0925 2.21071 16.4468 2.58579C16.801 2.96086 17 3.46957 17 4V14C17 14.5304 16.801 15.0391 16.4468 15.4142C16.0925 15.7893 15.6121 16 15.1111 16ZM12.2778 5C12.0273 5 11.7871 4.89464 11.61 4.70711C11.4328 4.51957 11.3333 4.26522 11.3333 4V1C11.3333 0.734784 11.4328 0.48043 11.61 0.292893C11.7871 0.105357 12.0273 0 12.2778 0C12.5283 0 12.7685 0.105357 12.9456 0.292893C13.1227 0.48043 13.2222 0.734784 13.2222 1V4C13.2222 4.26522 13.1227 4.51957 12.9456 4.70711C12.7685 4.89464 12.5283 5 12.2778 5ZM6.61111 2H10.3889V4H6.61111V2ZM4.72222 5C4.47174 5 4.23152 4.89464 4.0544 4.70711C3.87728 4.51957 3.77778 4.26522 3.77778 4V1C3.77778 0.734784 3.87728 0.48043 4.0544 0.292893C4.23152 0.105357 4.47174 0 4.72222 0C4.9727 0 5.21293 0.105357 5.39005 0.292893C5.56716 0.48043 5.66667 0.734784 5.66667 1V4C5.66667 4.26522 5.56716 4.51957 5.39005 4.70711C5.21293 4.89464 4.9727 5 4.72222 5Z" fill="black"/>
<path d="M4 8C4 7.44772 4.44772 7 5 7H12C12.5523 7 13 7.44772 13 8C13 8.55228 12.5523 9 12 9H5C4.44772 9 4 8.55228 4 8Z" fill="black"/>
<path d="M4 11C4 10.4477 4.44772 10 5 10H9C9.55228 10 10 10.4477 10 11C10 11.5523 9.55228 12 9 12H5C4.44772 12 4 11.5523 4 11Z" fill="black"/>
</g>
<defs>
<clipPath id="clip0_10442_11925">
<rect width="17" height="16" fill="white"/>
</clipPath>
</defs>
</svg>
