<svg width="18" height="18" viewBox="0 0 18 18" fill="none" xmlns="http://www.w3.org/2000/svg">
<path d="M0 5.67717C0 2.54176 2.54176 0 5.67717 0H11.6697C14.8052 0 17.3469 2.54176 17.3469 5.67717V11.6697C17.3469 14.8052 14.8052 17.3469 11.6697 17.3469H5.67717C2.54176 17.3469 0 14.8052 0 11.6697V5.67717Z" fill="#CCFF00"/>
<path d="M12.2407 3.52C12.7075 3.05323 13.4643 3.05323 13.931 3.52C14.3978 3.98677 14.3978 4.74356 13.931 5.21033C13.4643 5.6771 12.7075 5.6771 12.2407 5.21033C11.7739 4.74356 11.7739 3.98677 12.2407 3.52Z" fill="black"/>
<path d="M3.40234 7.82932C3.40234 5.51891 5.27529 3.64597 7.58569 3.64597H10.0951C10.5413 3.64597 10.9195 3.974 10.9826 4.41562L11.0243 4.70757C11.1557 5.62786 11.8788 6.35094 12.7991 6.48241L13.0911 6.52412C13.5327 6.58721 13.8607 6.96429 13.8607 7.4104C13.8607 8.013 13.8607 8.91348 13.8607 9.92034C13.8607 12.2307 11.9878 14.1043 9.67737 14.1043H7.58569C5.27529 14.1043 3.40234 12.2314 3.40234 9.92099V7.82932Z" fill="black"/>
<path d="M10.2644 7.40709V9.50262C10.2644 9.60169 10.2949 9.67789 10.3558 9.72361C10.4168 9.77695 10.493 9.79981 10.592 9.79981C10.7597 9.79981 10.8968 9.68551 10.9959 9.44928C11.0873 9.21306 11.1407 8.93111 11.1407 8.61107C11.1407 7.94812 10.9045 7.40709 10.4396 6.9956C9.97481 6.58412 9.39568 6.37837 8.70986 6.37837C7.97071 6.37837 7.35348 6.62222 6.85817 7.09466C6.36286 7.56711 6.11902 8.1691 6.11902 8.89301C6.11902 9.61693 6.35524 10.2113 6.84293 10.6685C7.33062 11.1257 7.94023 11.3543 8.687 11.3543C9.21572 11.3543 9.71844 11.2087 10.1952 10.9176C10.3606 10.8166 10.5814 10.8558 10.6842 11.0201C10.7712 11.1594 10.7436 11.3432 10.6088 11.437C10.0743 11.8086 9.43961 11.9944 8.69462 11.9944C7.73449 11.9944 6.94961 11.7048 6.34 11.1257C5.72277 10.5466 5.41797 9.81505 5.41797 8.91587C5.41797 8.00146 5.73039 7.24707 6.36286 6.64508C6.99534 6.04309 7.78021 5.73828 8.70986 5.73828C9.58618 5.73828 10.3253 6.01261 10.9273 6.54601C11.5293 7.07942 11.8341 7.76524 11.8341 8.59583C11.8341 8.82443 11.8036 9.0378 11.7579 9.23592C11.7046 9.43404 11.6208 9.63217 11.5141 9.82267C11.4074 10.0132 11.2474 10.1656 11.0416 10.2723C10.8283 10.3866 10.5844 10.4399 10.3025 10.4399C9.83002 10.4399 9.50998 10.2875 9.34234 9.97507C9.11373 10.2799 8.77845 10.4323 8.33648 10.4323C7.90975 10.4323 7.55922 10.2951 7.2849 10.0132C7.01058 9.73885 6.87341 9.35784 6.87341 8.88539C6.87341 8.41295 7.01058 8.03956 7.29252 7.75762C7.56684 7.48329 7.91737 7.33851 8.33648 7.33851C8.70224 7.33851 8.99943 7.45281 9.22803 7.67379V7.40709H10.2644ZM8.64128 9.495C8.80131 9.495 8.93847 9.44166 9.05277 9.32736C9.16707 9.21306 9.22803 9.06066 9.22803 8.87015C9.22803 8.68727 9.16707 8.54249 9.05277 8.42819C8.93847 8.3215 8.80131 8.26054 8.64128 8.26054C8.47364 8.26054 8.33648 8.3215 8.22218 8.42819C8.10025 8.54249 8.04691 8.68727 8.04691 8.87015C8.04691 9.06066 8.10025 9.21306 8.22218 9.32736C8.33648 9.44166 8.47364 9.495 8.64128 9.495Z" fill="#CCFF00"/>
</svg>
