<svg width="90" height="14" viewBox="0 0 90 14" fill="none" xmlns="http://www.w3.org/2000/svg">
<path d="M89.0989 11.0354H86.2926V1.24239H89.0989V11.0354Z" fill="black"/>
<path d="M72.7455 8.09751C73.184 8.09751 73.5348 8.25829 73.8271 8.55062C74.1195 8.85756 74.2656 9.20836 74.2656 9.61762C74.2656 10.0561 74.1195 10.4069 73.8271 10.6846C73.5348 10.9769 73.184 11.1085 72.7455 11.1085C72.307 11.1085 71.9416 10.9769 71.6493 10.6846C71.3569 10.4069 71.2254 10.0561 71.2254 9.61762C71.2254 9.20836 71.3569 8.85756 71.6493 8.55062C71.9416 8.25829 72.307 8.09751 72.7455 8.09751Z" fill="black"/>
<path d="M70.9984 3.56641C71.2176 3.56641 71.393 3.58102 71.5246 3.61026L71.4223 6.43123H70.9838C70.1945 6.43123 69.5806 6.62124 69.1713 6.98665C68.7475 7.35207 68.5428 7.95134 68.5428 8.79909V11.0354H65.8095V3.65411H68.5428V5.11575C69.0836 4.0926 69.9022 3.56641 70.9984 3.56641Z" fill="black"/>
<path d="M64.8284 7.49823V8.00981H59.6396C59.7273 8.37522 59.8881 8.65293 60.1219 8.85756C60.3558 9.06219 60.6335 9.14989 60.9843 9.14989C61.5982 9.14989 62.0367 8.91603 62.2852 8.43368L64.7261 8.91603C64.4192 9.6907 63.9368 10.2754 63.2937 10.67C62.636 11.0646 61.8613 11.2547 60.9843 11.2547C59.8442 11.2547 58.8941 10.8892 58.1195 10.1584C57.3448 9.4276 56.9648 8.49215 56.9648 7.35207C56.9648 6.21199 57.3448 5.26192 58.1195 4.53109C58.8941 3.80027 59.8442 3.43486 60.9843 3.43486C62.1098 3.43486 63.0306 3.80027 63.7468 4.51648C64.4484 5.2473 64.8138 6.24122 64.8284 7.49823ZM60.9843 5.56886C60.6627 5.56886 60.3996 5.65656 60.1658 5.81734C59.9319 5.99274 59.7565 6.21198 59.6688 6.50431H62.1828C61.9928 5.89042 61.5982 5.56886 60.9843 5.56886Z" fill="black"/>
<path d="M56.9566 3.65411L52.6885 13.5202H49.8091L50.993 10.7723L47.9236 3.65411H50.8176L52.0843 6.81484C52.1943 7.08919 52.5808 7.09413 52.6978 6.82268L54.0625 3.65411H56.9566Z" fill="black"/>
<path d="M47.1857 3.65411V11.0354H44.4524V10.4361C43.897 10.9916 43.1808 11.2547 42.2892 11.2547C41.266 11.2547 40.4037 10.9039 39.7313 10.173C39.059 9.44222 38.7228 8.50677 38.7228 7.35207C38.7228 6.19737 39.059 5.26192 39.7313 4.53109C40.4037 3.80027 41.266 3.43486 42.2892 3.43486C43.1808 3.43486 43.897 3.71257 44.4524 4.25338V3.65411H47.1857ZM42.9469 8.97449C43.3562 8.97449 43.7216 8.82833 44.0139 8.50677C44.3062 8.19982 44.4524 7.81979 44.4524 7.35207C44.4524 6.88434 44.3062 6.50431 44.0139 6.18275C43.7216 5.87581 43.3562 5.71503 42.9469 5.71503C42.4938 5.71503 42.1284 5.87581 41.8653 6.18275C41.5876 6.4897 41.4561 6.88434 41.4561 7.35207C41.4561 7.81979 41.5876 8.21444 41.8653 8.52138C42.1284 8.82833 42.4938 8.97449 42.9469 8.97449Z" fill="black"/>
<path d="M30.2698 11.0354H26.8642L24.9829 8.69429C24.9248 8.62194 24.837 8.57985 24.7442 8.57985C24.575 8.57985 24.4379 8.71699 24.4379 8.88616V11.0354H21.7046V0.511578H24.4379V5.87676C24.4379 5.99732 24.5356 6.09506 24.6562 6.09506C24.7215 6.09506 24.7835 6.06576 24.8249 6.01521L26.7619 3.65411H29.9921L27.7748 6.31494C27.3654 6.80613 27.364 7.5192 27.7713 8.01206L30.2698 11.0354Z" fill="black"/>
<path d="M17.5957 3.43486C18.4288 3.43486 19.1012 3.71257 19.6127 4.25338C20.1097 4.80881 20.3728 5.53963 20.3728 6.46046V11.0354H17.6249V7.04512C17.6249 6.69433 17.5226 6.41662 17.3326 6.19737C17.1426 5.99274 16.8941 5.87581 16.5871 5.87581C16.2071 5.87581 15.9148 6.02197 15.6955 6.28507C15.4763 6.56278 15.374 6.95742 15.374 7.45438V11.0354H12.6407V3.65411H15.374V4.39955C15.9586 3.75642 16.7041 3.43486 17.5957 3.43486Z" fill="black"/>
<path d="M9.76377 0C10.2023 0 10.5677 0.160781 10.86 0.45311C11.1523 0.745438 11.2985 1.09623 11.2985 1.49088C11.2985 1.92937 11.1523 2.28016 10.86 2.55788C10.5677 2.85021 10.2023 2.98175 9.76377 2.98175C9.31066 2.98175 8.94525 2.85021 8.65292 2.55788C8.36059 2.28016 8.22904 1.92937 8.22904 1.49088C8.22904 1.08162 8.3752 0.730822 8.66753 0.438493C8.95986 0.146164 9.32527 0 9.76377 0ZM11.1377 11.0354H8.40444V3.65411H11.1377V11.0354Z" fill="black"/>
<path d="M82.6296 6.09146C82.607 5.43476 82.3579 4.86864 81.8823 4.3931C81.4294 3.91756 80.8746 3.67979 80.2179 3.67979C79.5386 3.67979 78.9611 3.91756 78.4856 4.3931C78.0327 4.86864 77.8062 5.43476 77.8062 6.09146H82.6296ZM77.8062 8.50313V11.0809H75.3946V6.09146C75.3946 4.77806 75.8588 3.64582 76.7872 2.69474C77.7383 1.74365 78.8819 1.26811 80.2179 1.26811C81.5313 1.26811 82.6523 1.74365 83.5807 2.69474C84.5318 3.64582 85.0073 4.77806 85.0073 6.09146V11.0809H82.6296V8.50313H77.8062Z" fill="black"/>
<path d="M7.3212 8.32527V11.0354H2.32534C1.04109 11.0354 0 9.99432 0 8.71007V1.3795H2.76707V7.32869C2.76707 7.87909 3.21325 8.32527 3.76364 8.32527H7.3212Z" fill="black"/>
<path d="M37.8564 8.31185V11.022H32.8605C31.5763 11.022 30.5352 9.9809 30.5352 8.69664V1.36607H33.3022V7.31527C33.3022 7.86566 33.7484 8.31185 34.2988 8.31185H37.8564Z" fill="black"/>
</svg>
