<svg width="416" height="79" viewBox="0 0 416 79" fill="none" xmlns="http://www.w3.org/2000/svg">
<g filter="url(#filter0_dd_10341_21280)">
<path d="M18.1466 40.865C19.1343 39.334 20.8317 38.4091 22.6537 38.4091H392.933C394.755 38.4091 396.453 39.334 397.44 40.865L403.929 50.9218C404.524 51.8441 404.794 52.842 404.794 53.815C404.795 56.6071 402.572 59.1932 399.422 59.1932H16.1654C13.0163 59.1932 10.7935 56.6083 10.793 53.8169C10.7928 52.8433 11.0629 51.8447 11.6584 50.9218L18.1466 40.865Z" fill="black"/>
<path d="M392.933 25H22.6537L22.6537 38.4091H392.933V25Z" fill="black"/>
<path d="M397.44 27.4559C396.453 25.9249 394.755 25 392.933 25V38.4091C394.755 38.4091 396.453 39.334 397.44 40.865L397.44 27.4559Z" fill="black"/>
<path d="M18.1466 27.4559C19.1343 25.9249 20.8317 25 22.6537 25L22.6537 38.4091C20.8317 38.4091 19.1343 39.334 18.1466 40.865L18.1466 27.4559Z" fill="black"/>
<path d="M403.929 37.5127L397.44 27.4559L397.44 40.865L403.929 50.9218V37.5127Z" fill="black"/>
<path d="M18.1466 27.4559L11.6584 37.5127L11.6584 50.9218L18.1466 40.865L18.1466 27.4559Z" fill="black"/>
<path d="M404.794 40.4059C404.794 39.4329 404.524 38.435 403.929 37.5127V50.9218C404.524 51.8441 404.794 52.842 404.794 53.815L404.794 40.4059Z" fill="black"/>
<path d="M11.6584 37.5127C11.0629 38.4356 10.7928 39.4342 10.793 40.4078V53.815C10.7931 52.842 11.0633 51.8441 11.6584 50.9218L11.6584 37.5127Z" fill="black"/>
<path d="M399.422 45.7841C402.571 45.7841 404.794 43.1992 404.794 40.4078L404.794 53.815C404.795 56.6071 402.572 59.1932 399.422 59.1932L399.422 45.7841Z" fill="black"/>
<path d="M10.793 40.4078C10.7935 43.1992 13.0163 45.7841 16.1654 45.7841V59.1932C13.0163 59.1932 10.7935 56.6083 10.793 53.8169L10.793 40.4078Z" fill="black"/>
<path d="M16.1654 45.7841L399.422 45.7841L399.422 59.1932H16.1654V45.7841Z" fill="black"/>
</g>
<path d="M22.6533 25.8125H392.934C394.414 25.8126 395.793 26.5637 396.596 27.8076L403.084 37.8643C404.955 40.7641 402.873 44.5848 399.422 44.585H16.165C12.7142 44.5847 10.6331 40.7641 12.5039 37.8643L18.9912 27.8076C19.7937 26.5638 21.1731 25.8126 22.6533 25.8125Z" fill="#1C1C1C" stroke="#CCFF00" stroke-width="2.01136"/>
<path d="M31.125 13.1715C31.125 12.4309 31.7253 11.8305 32.4659 11.8305H45.0588C45.7994 11.8305 46.3997 12.4309 46.3997 13.1715V35.4916H31.125V13.1715Z" fill="#CCFF00"/>
<path d="M56.5828 23.9265C56.5828 23.1859 57.1832 22.5856 57.9238 22.5856H71.1845C71.9251 22.5856 72.5254 23.1859 72.5254 23.9265V35.3824H56.5828V23.9265Z" fill="white"/>
<path d="M82.0407 6.71843C82.0407 5.97787 82.641 5.37752 83.3816 5.37752H98.5203C99.2608 5.37752 99.8612 5.97787 99.8612 6.71843V35.4916H82.0407V6.71843Z" fill="white"/>
<path d="M110.044 15.3225C110.044 14.5819 110.645 13.9816 111.385 13.9816H124.646C125.387 13.9816 125.987 14.5819 125.987 15.3225V35.5341H110.044V15.3225Z" fill="white"/>
<path d="M135.502 11.0204C135.502 10.2799 136.102 9.67954 136.843 9.67954H149.436C150.177 9.67954 150.777 10.2799 150.777 11.0204V35.4916H135.502V11.0204Z" fill="white"/>
<path d="M186.418 11.0204C186.418 10.2799 187.018 9.67954 187.759 9.67954H200.352C201.092 9.67954 201.693 10.2799 201.693 11.0204V35.4916H186.418V11.0204Z" fill="white"/>
<path d="M160.96 1.34091C160.96 0.600346 161.56 0 162.301 0H174.894C175.634 0 176.235 0.600345 176.235 1.34091V35.4916H160.96V1.34091Z" fill="#CCFF00"/>
<path d="M211.876 13.1715C211.876 12.4309 212.476 11.8305 213.217 11.8305H225.809C226.55 11.8305 227.15 12.4309 227.15 13.1715V35.4916H211.876V13.1715Z" fill="white"/>
<path d="M237.334 23.9265C237.334 23.1859 237.934 22.5856 238.674 22.5856H251.935C252.676 22.5856 253.276 23.1859 253.276 23.9265V35.3824H237.334V23.9265Z" fill="white"/>
<path d="M262.791 6.71843C262.791 5.97787 263.392 5.37752 264.132 5.37752H279.271C280.012 5.37752 280.612 5.97787 280.612 6.71843V35.4916H262.791V6.71843Z" fill="#CCFF00"/>
<path d="M290.795 15.3225C290.795 14.5819 291.395 13.9816 292.136 13.9816H305.397C306.137 13.9816 306.738 14.5819 306.738 15.3225V35.5341H290.795V15.3225Z" fill="white"/>
<path d="M316.253 11.0204C316.253 10.2799 316.853 9.67954 317.594 9.67954H330.187C330.927 9.67954 331.528 10.2799 331.528 11.0204V35.4916H316.253V11.0204Z" fill="white"/>
<path d="M367.169 23.9419C367.169 23.2014 367.769 22.601 368.509 22.601H381.102C381.843 22.601 382.443 23.2014 382.443 23.9419V35.4916H367.169V23.9419Z" fill="#CCFF00"/>
<path d="M341.711 1.34091C341.711 0.600346 342.311 0 343.052 0H355.644C356.385 0 356.985 0.600345 356.985 1.34091V35.4916H341.711V1.34091Z" fill="white"/>
<path d="M292.136 14.7314H305.396C305.723 14.7314 305.987 14.996 305.987 15.3223V34.7842H291.545V15.3223C291.545 14.9961 291.81 14.7315 292.136 14.7314ZM111.385 14.7314H124.646C124.972 14.7314 125.237 14.996 125.237 15.3223V34.7842H110.794V15.3223C110.794 14.9962 111.059 14.7317 111.385 14.7314ZM368.51 23.3506H381.103C381.429 23.3507 381.693 23.6161 381.693 23.9424V34.7412H367.919V23.9424C367.919 23.616 368.183 23.3506 368.51 23.3506ZM343.052 0.75H355.645C355.971 0.750033 356.235 1.01453 356.235 1.34082V34.7412H342.461V1.34082C342.461 1.01451 342.725 0.75 343.052 0.75ZM317.594 10.4297H330.187C330.513 10.4297 330.777 10.6942 330.777 11.0205V34.7412H317.003V11.0205C317.003 10.6942 317.267 10.4297 317.594 10.4297ZM264.132 6.12793H279.271C279.597 6.12793 279.862 6.3924 279.862 6.71875V34.7412H263.541V6.71875C263.541 6.39255 263.806 6.12816 264.132 6.12793ZM213.217 12.5801H225.81C226.136 12.5801 226.4 12.8456 226.4 13.1719V34.7412H212.626V13.1719C212.626 12.8455 212.89 12.5801 213.217 12.5801ZM187.759 10.4297H200.352C200.678 10.4297 200.942 10.6942 200.942 11.0205V34.7412H187.168V11.0205C187.168 10.6942 187.432 10.4297 187.759 10.4297ZM162.301 0.75H174.894C175.22 0.75 175.484 1.01452 175.484 1.34082V34.7412H161.71V1.34082C161.71 1.01456 161.975 0.750066 162.301 0.75ZM136.843 10.4297H149.436C149.762 10.4297 150.027 10.6942 150.027 11.0205V34.7412H136.252V11.0205C136.252 10.6942 136.517 10.4298 136.843 10.4297ZM83.3818 6.12793H98.5205C98.8467 6.12806 99.1113 6.39248 99.1113 6.71875V34.7412H82.791V6.71875C82.791 6.3924 83.0555 6.12793 83.3818 6.12793ZM32.4658 12.5801H45.0586C45.3849 12.5801 45.6494 12.8455 45.6494 13.1719V34.7412H31.875V13.1719C31.875 12.8456 32.1395 12.5801 32.4658 12.5801ZM238.675 23.3359H251.936C252.262 23.3361 252.526 23.6005 252.526 23.9268V34.6328H238.084V23.9268C238.084 23.6004 238.348 23.3359 238.675 23.3359ZM57.9238 23.3359H71.1846C71.5109 23.336 71.7754 23.6004 71.7754 23.9268V34.6328H57.333V23.9268C57.333 23.6004 57.5975 23.3359 57.9238 23.3359Z" stroke="black" stroke-width="1.5"/>
<defs>
<filter id="filter0_dd_10341_21280" x="-0.0013485" y="22.2511" width="415.589" height="55.782" filterUnits="userSpaceOnUse" color-interpolation-filters="sRGB">
<feFlood flood-opacity="0" result="BackgroundImageFix"/>
<feColorMatrix in="SourceAlpha" type="matrix" values="0 0 0 0 0 0 0 0 0 0 0 0 0 0 0 0 0 0 127 0" result="hardAlpha"/>
<feOffset dy="1.34091"/>
<feComposite in2="hardAlpha" operator="out"/>
<feColorMatrix type="matrix" values="0 0 0 0 0.8 0 0 0 0 1 0 0 0 0 0 0 0 0 0.91 0"/>
<feBlend mode="normal" in2="BackgroundImageFix" result="effect1_dropShadow_10341_21280"/>
<feColorMatrix in="SourceAlpha" type="matrix" values="0 0 0 0 0 0 0 0 0 0 0 0 0 0 0 0 0 0 127 0" result="hardAlpha"/>
<feOffset dy="8.04545"/>
<feGaussianBlur stdDeviation="5.39716"/>
<feComposite in2="hardAlpha" operator="out"/>
<feColorMatrix type="matrix" values="0 0 0 0 0.8 0 0 0 0 1 0 0 0 0 0 0 0 0 0.25 0"/>
<feBlend mode="normal" in2="effect1_dropShadow_10341_21280" result="effect2_dropShadow_10341_21280"/>
<feBlend mode="normal" in="SourceGraphic" in2="effect2_dropShadow_10341_21280" result="shape"/>
</filter>
</defs>
</svg>
