<svg width="16" height="16" viewBox="0 0 16 16" fill="none" xmlns="http://www.w3.org/2000/svg">
<path d="M13.8929 12.6335C13.8929 12.8182 13.8571 13.0028 13.7857 13.1506C13.7143 13.2983 13.6429 13.446 13.5357 13.5938C13.4286 13.7045 13.2857 13.8153 13.1429 13.8892C13 13.9631 12.8214 14 12.6429 14H3.32143C3.14286 14 2.96429 13.9631 2.82143 13.8892C2.64286 13.8153 2.5 13.7415 2.39286 13.5938C2.28571 13.483 2.17857 13.3352 2.10714 13.1506C2.03571 13.0028 2 12.8182 2 12.6335V5.28409C2 4.91477 2.14286 4.58239 2.39286 4.32386C2.64286 4.06534 2.96429 3.91761 3.32143 3.91761H12.6786C13.0357 3.91761 13.3571 4.06534 13.6071 4.32386C13.8571 4.58239 14 4.91477 14 5.28409V7.27841H10.6786C10.3214 7.27841 10 7.3892 9.75 7.64773C9.5 7.90625 9.35714 8.2017 9.35714 8.60795C9.35714 8.86648 9.42857 9.08807 9.5 9.27273C9.57143 9.45739 9.71429 9.60511 9.89286 9.71591C10.0714 9.86364 10.3214 9.9375 10.6429 9.9375H13.8929V12.6335ZM11.9643 3.25284H5.5C6 2.99432 6.5 2.69886 6.96429 2.44034L8.14286 1.77557C8.53572 1.55398 8.82143 1.40625 9.07143 1.25852C9.39286 1.07386 9.71429 1 9.96429 1C10.2143 1 10.4643 1.07386 10.6429 1.14773C10.8571 1.25852 11.0357 1.40625 11.1786 1.59091L11.9643 3.25284ZM10.0357 8.60795C10.0357 8.4233 10.1071 8.27557 10.2143 8.12784C10.3214 8.01705 10.5 7.94318 10.6786 7.94318C10.8571 7.94318 11 8.01705 11.1429 8.12784C11.25 8.23864 11.3214 8.4233 11.3214 8.60795C11.3214 8.79261 11.25 8.94034 11.1429 9.08807C11.0357 9.2358 10.8571 9.27273 10.6786 9.27273C10.5 9.27273 10.3571 9.19886 10.2143 9.08807C10.1071 8.97727 10.0357 8.82955 10.0357 8.60795Z" fill="#666666"/>
</svg>
