<svg width="289" height="115" viewBox="0 0 289 115" fill="none" xmlns="http://www.w3.org/2000/svg">
<path d="M139 0.0420905C139 0.064079 138.983 0.0823725 138.961 0.0840977C124.993 1.18339 114 12.8673 114 27.1182V45C114 49.4183 110.418 53 106 53H8C3.58172 53 0 49.4183 0 45V8C0 3.58172 3.58172 0 8 0H138.958C138.981 0 139 0.0188446 139 0.0420905Z" fill="#2D2D2D"/>
<path d="M139 114.958C139 114.936 138.983 114.918 138.961 114.916C124.993 113.817 114 102.133 114 87.8818V70C114 65.5817 110.418 62 106 62H8C3.58172 62 0 65.5817 0 70V107C0 111.418 3.58172 115 8 115H138.958C138.981 115 139 114.981 139 114.958Z" fill="#2D2D2D"/>
<path d="M148 0.0420905C148 0.064079 148.017 0.0823725 148.039 0.0840977C162.007 1.18339 173 12.8673 173 27.1182V45C173 49.4183 176.582 53 181 53H281C285.418 53 289 49.4183 289 45V8C289 3.58172 285.418 0 281 0H148.042C148.019 0 148 0.0188446 148 0.0420905Z" fill="#2D2D2D"/>
<path d="M148 114.796C148 114.696 148.073 114.611 148.171 114.594C160.911 112.371 170.596 101.258 170.596 87.8818V70C170.596 65.5817 174.177 62 178.596 62H281C285.418 62 289 65.5817 289 70V107C289 111.418 285.418 115 281 115H148.204C148.091 115 148 114.909 148 114.796Z" fill="#2D2D2D"/>
</svg>
