<svg width="59" height="76" viewBox="0 0 59 76" fill="none" xmlns="http://www.w3.org/2000/svg">
<mask id="path-2-inside-1_11204_11100" fill="white">
<path d="M29.5 0C35.3463 6.44256e-08 40.0859 4.73961 40.0859 10.5859V39.3488C40.0859 39.6879 40.2589 40.0023 40.5382 40.1945C45.6489 43.7102 49 49.5994 49 56.2715C49 67.041 40.2695 75.7715 29.5 75.7715C18.7305 75.7715 10 67.041 10 56.2715C10 49.5994 13.3511 43.7102 18.4618 40.1945C18.7411 40.0023 18.9141 39.6879 18.9141 39.3488V10.5859C18.9141 4.73961 23.6537 0 29.5 0Z"/>
</mask>
<path d="M29.5 0V-3V0ZM49 56.2715L52 56.2715V56.2715H49ZM10 56.2715H7V56.2715L10 56.2715ZM18.4618 40.1945L16.7615 37.7228L18.4618 40.1945ZM40.5382 40.1945L42.2385 37.7228L40.5382 40.1945ZM29.5 0V3C33.6895 3 37.0859 6.39646 37.0859 10.5859H40.0859H43.0859C43.0859 3.08275 37.0032 -3 29.5 -3V0ZM40.0859 10.5859H37.0859V39.3488H40.0859H43.0859V10.5859H40.0859ZM40.5382 40.1945L38.838 42.6662C43.1699 45.6461 46 50.6286 46 56.2715H49H52C52 48.5702 48.128 41.7742 42.2385 37.7228L40.5382 40.1945ZM49 56.2715L46 56.2715C46 65.3842 38.6127 72.7715 29.5 72.7715V75.7715V78.7715C41.9264 78.7715 52 68.6979 52 56.2715L49 56.2715ZM29.5 75.7715V72.7715C20.3873 72.7715 13 65.3842 13 56.2715L10 56.2715L7 56.2715C7.00002 68.6979 17.0736 78.7715 29.5 78.7715V75.7715ZM10 56.2715H13C13 50.6286 15.8301 45.6461 20.162 42.6662L18.4618 40.1945L16.7615 37.7228C10.872 41.7742 7 48.5702 7 56.2715H10ZM18.9141 39.3488H21.9141V10.5859H18.9141H15.9141V39.3488H18.9141ZM18.9141 10.5859H21.9141C21.9141 6.39646 25.3105 3 29.5 3V0V-3C21.9968 -3 15.9141 3.08275 15.9141 10.5859H18.9141ZM18.4618 40.1945L20.162 42.6662C21.2169 41.9405 21.9141 40.7209 21.9141 39.3488H18.9141H15.9141C15.9141 38.6549 16.2654 38.0642 16.7615 37.7228L18.4618 40.1945ZM40.0859 39.3488H37.0859C37.0859 40.7209 37.7831 41.9405 38.838 42.6662L40.5382 40.1945L42.2385 37.7228C42.7346 38.0642 43.0859 38.6549 43.0859 39.3488H40.0859Z" fill="black" mask="url(#path-2-inside-1_11204_11100)"/>
<path d="M39.9756 22.8584H33.3604V41.0498C33.3604 42.7147 34.393 44.0863 35.6836 44.8438C39.4507 47.0549 42 51.2265 42 56.0225C41.9998 63.1519 36.3786 68.8857 29.5 68.8857C22.6214 68.8857 17.0002 63.1519 17 56.0225C17 51.2265 19.5493 47.0549 23.3164 44.8438C24.607 44.0863 25.6396 42.7147 25.6396 41.0498V22.8584H19.0244L29.5 10.4365L39.9756 22.8584Z" fill="#6AFF95" stroke="#3DED70" stroke-width="2"/>
<mask id="mask0_11204_11100" style="mask-type:alpha" maskUnits="userSpaceOnUse" x="15" y="8" width="29" height="63">
<path d="M42.5265 23.9572H34.5132V41.219C34.5132 42.4589 35.2928 43.5446 36.3708 44.1571C40.5845 46.5516 43.4275 51.0784 43.4275 56.2715C43.4275 63.964 37.1914 70.2 29.4989 70.2C21.8063 70.2 15.5703 63.964 15.5703 56.2715C15.5703 51.0784 18.4133 46.5516 22.627 44.1571C23.705 43.5446 24.4846 42.4589 24.4846 41.219V23.9572H16.4713L29.4989 8.91431L42.5265 23.9572Z" fill="#CCFF00"/>
</mask>
<g mask="url(#mask0_11204_11100)">
<path d="M29.455 23.4304V38.4886C29.455 39.7757 30.329 40.8605 31.3524 41.641C33.4674 43.2541 34.5138 46.1752 34.5138 50.1428C34.5138 55.1571 29.4995 60.1713 23.3717 60.1713C17.2438 60.1713 13.5788 54.5999 13.5788 50.1428C13.5788 46.8024 15.3853 43.5304 18.7868 41.5331C19.8521 40.9076 20.6298 39.8292 20.6298 38.5939V23.4304H13.5781L29.455 8.84619V23.4304Z" fill="#A5FFBF"/>
</g>
</svg>
