<svg width="295" height="25" viewBox="0 0 295 25" fill="none" xmlns="http://www.w3.org/2000/svg">
<path d="M0 7.87583C0 3.52613 3.52613 0 7.87583 0H16.1892C20.5389 0 24.065 3.52613 24.065 7.87583V16.1892C24.065 20.5389 20.5389 24.065 16.1892 24.065H7.87583C3.52613 24.065 0 20.5389 0 16.1892V7.87583Z" fill="#CCFF00"/>
<path d="M16.98 4.88361C17.6276 4.23606 18.6775 4.23606 19.325 4.88361C19.9725 5.53115 19.9725 6.58102 19.325 7.22857C18.6775 7.87611 17.6276 7.87611 16.98 7.22857C16.3325 6.58102 16.3325 5.53115 16.98 4.88361Z" fill="black"/>
<path d="M4.71875 10.8618C4.71875 7.65666 7.31706 5.05835 10.5222 5.05835H14.0035C14.6224 5.05835 15.1471 5.51343 15.2346 6.12609L15.2925 6.5311C15.4749 7.8078 16.478 8.81092 17.7547 8.99331L18.1597 9.05116C18.7724 9.13869 19.2275 9.6618 19.2275 10.2807C19.2275 11.1167 19.2275 12.3659 19.2275 13.7627C19.2275 16.9678 16.6291 19.5671 13.424 19.5671H10.5222C7.31706 19.5671 4.71875 16.9687 4.71875 13.7636V10.8618Z" fill="black"/>
<path d="M14.2389 10.2751V13.1822C14.2389 13.3196 14.2812 13.4253 14.3658 13.4887C14.4504 13.5627 14.5561 13.5944 14.6935 13.5944C14.9261 13.5944 15.1164 13.4359 15.2538 13.1082C15.3806 12.7805 15.4546 12.3893 15.4546 11.9453C15.4546 11.0256 15.1269 10.2751 14.4821 9.70422C13.8372 9.13337 13.0338 8.84795 12.0824 8.84795C11.057 8.84795 10.2007 9.18623 9.51359 9.84164C8.82646 10.4971 8.48818 11.3322 8.48818 12.3365C8.48818 13.3407 8.81589 14.1653 9.49245 14.7996C10.169 15.4338 11.0147 15.751 12.0507 15.751C12.7842 15.751 13.4816 15.549 14.1429 15.1451C14.3724 15.005 14.6788 15.0594 14.8213 15.2873C14.9421 15.4806 14.9038 15.7356 14.7167 15.8657C13.9752 16.3812 13.0948 16.639 12.0613 16.639C10.7293 16.639 9.64045 16.2373 8.79475 15.4338C7.93848 14.6304 7.51562 13.6156 7.51562 12.3682C7.51562 11.0996 7.94905 10.0531 8.82646 9.21794C9.70387 8.38281 10.7927 7.95996 12.0824 7.95996C13.2981 7.95996 14.3235 8.34053 15.1586 9.08051C15.9938 9.8205 16.4166 10.7719 16.4166 11.9242C16.4166 12.2413 16.3743 12.5373 16.3109 12.8122C16.2369 13.087 16.1206 13.3619 15.9726 13.6262C15.8246 13.8904 15.6026 14.1019 15.3172 14.2499C15.0212 14.4084 14.6829 14.4824 14.2918 14.4824C13.6364 14.4824 13.1924 14.271 12.9598 13.8376C12.6427 14.2604 12.1775 14.4719 11.5644 14.4719C10.9724 14.4719 10.4861 14.2816 10.1056 13.8904C9.72502 13.5099 9.53473 12.9813 9.53473 12.3259C9.53473 11.6705 9.72502 11.1525 10.1162 10.7613C10.4967 10.3808 10.983 10.1799 11.5644 10.1799C12.0718 10.1799 12.4841 10.3385 12.8013 10.6451V10.2751H14.2389ZM11.9873 13.1716C12.2093 13.1716 12.3995 13.0976 12.5581 12.939C12.7167 12.7805 12.8013 12.569 12.8013 12.3047C12.8013 12.051 12.7167 11.8502 12.5581 11.6916C12.3995 11.5436 12.2093 11.459 11.9873 11.459C11.7547 11.459 11.5644 11.5436 11.4058 11.6916C11.2367 11.8502 11.1627 12.051 11.1627 12.3047C11.1627 12.569 11.2367 12.7805 11.4058 12.939C11.5644 13.0976 11.7547 13.1716 11.9873 13.1716Z" fill="#CCFF00"/>
<path d="M31.2833 19.0327V5.03124H34.2436V16.592H40.2462V19.0327H31.2833ZM42.1519 19.0327V8.53161H45.0643V19.0327H42.1519ZM43.615 7.17795C43.182 7.17795 42.8105 7.03438 42.5006 6.74724C42.1952 6.45554 42.0425 6.10687 42.0425 5.70123C42.0425 5.30014 42.1952 4.95603 42.5006 4.66889C42.8105 4.3772 43.182 4.23135 43.615 4.23135C44.0479 4.23135 44.4171 4.3772 44.7225 4.66889C45.0324 4.95603 45.1874 5.30014 45.1874 5.70123C45.1874 6.10687 45.0324 6.45554 44.7225 6.74724C44.4171 7.03438 44.0479 7.17795 43.615 7.17795ZM50.3098 12.9618V19.0327H47.3973V8.53161H50.173V10.3843H50.2961C50.5285 9.7736 50.9182 9.29047 51.4652 8.93497C52.0121 8.5749 52.6752 8.39487 53.4546 8.39487C54.1839 8.39487 54.8197 8.55439 55.362 8.87344C55.9044 9.19248 56.326 9.64826 56.6268 10.2408C56.9276 10.8287 57.078 11.5306 57.078 12.3465V19.0327H54.1656V12.866C54.1702 12.2234 54.0061 11.722 53.6734 11.362C53.3407 10.9974 52.8826 10.8151 52.2992 10.8151C51.9073 10.8151 51.5609 10.8994 51.2601 11.068C50.9638 11.2366 50.7314 11.4828 50.5627 11.8064C50.3986 12.1254 50.3143 12.5105 50.3098 12.9618ZM62.0124 16.0109L62.0192 12.5174H62.4431L65.8068 8.53161H69.1499L64.6308 13.8095H63.9403L62.0124 16.0109ZM59.3735 19.0327V5.03124H62.2859V19.0327H59.3735ZM65.9366 19.0327L62.8465 14.459L64.7881 12.4012L69.3481 19.0327H65.9366ZM70.6334 19.0327V5.03124H73.5937V16.592H79.5963V19.0327H70.6334ZM84.4965 19.231C83.8265 19.231 83.2294 19.1148 82.7053 18.8823C82.1811 18.6453 81.7664 18.2966 81.461 17.8363C81.1602 17.3714 81.0098 16.7926 81.0098 16.0998C81.0098 15.5164 81.1169 15.0264 81.3311 14.6299C81.5453 14.2334 81.837 13.9143 82.2062 13.6728C82.5754 13.4312 82.9947 13.2489 83.4641 13.1258C83.9381 13.0028 84.4349 12.9162 84.9545 12.866C85.5653 12.8022 86.0575 12.743 86.4312 12.6883C86.805 12.629 87.0762 12.5424 87.2448 12.4285C87.4134 12.3146 87.4978 12.1459 87.4978 11.9226V11.8816C87.4978 11.4486 87.361 11.1136 87.0876 10.8766C86.8187 10.6396 86.4358 10.5211 85.939 10.5211C85.4149 10.5211 84.9978 10.6373 84.6879 10.8697C84.378 11.0976 84.1729 11.3848 84.0726 11.7312L81.379 11.5124C81.5157 10.8743 81.7846 10.3228 82.1857 9.85792C82.5868 9.38847 83.1041 9.0284 83.7376 8.77772C84.3757 8.52249 85.1141 8.39487 85.9527 8.39487C86.5361 8.39487 87.0944 8.46324 87.6277 8.59997C88.1655 8.73671 88.6418 8.94864 89.0565 9.23578C89.4758 9.52292 89.8063 9.8921 90.0478 10.3433C90.2894 10.79 90.4102 11.3255 90.4102 11.9499V19.0327H87.6482V17.5765H87.5661C87.3975 17.9047 87.1719 18.1941 86.8893 18.4448C86.6067 18.6909 86.2672 18.8846 85.8706 19.0259C85.4741 19.1626 85.0161 19.231 84.4965 19.231ZM85.3305 17.221C85.759 17.221 86.1373 17.1367 86.4654 16.968C86.7936 16.7948 87.0511 16.5624 87.238 16.2707C87.4248 15.979 87.5183 15.6486 87.5183 15.2794V14.165C87.4271 14.2243 87.3018 14.279 87.1423 14.3291C86.9873 14.3747 86.8118 14.418 86.6158 14.459C86.4199 14.4955 86.2239 14.5296 86.0279 14.5615C85.8319 14.5889 85.6541 14.614 85.4946 14.6367C85.1528 14.6869 84.8543 14.7666 84.599 14.876C84.3438 14.9854 84.1455 15.1335 84.0042 15.3204C83.8629 15.5027 83.7923 15.7306 83.7923 16.0041C83.7923 16.4006 83.9359 16.7037 84.223 16.9134C84.5147 17.1185 84.8839 17.221 85.3305 17.221ZM94.0917 22.9706C93.7225 22.9706 93.3762 22.941 93.0526 22.8818C92.7335 22.8271 92.4692 22.7564 92.2595 22.6698L92.9158 20.4958C93.2577 20.6006 93.5653 20.6576 93.8388 20.6667C94.1168 20.6758 94.3561 20.612 94.5566 20.4752C94.7617 20.3385 94.9281 20.1061 95.0557 19.7779L95.2266 19.3335L91.4596 8.53161H94.5224L96.6965 16.2434H96.8059L99.0004 8.53161H102.084L98.0023 20.1676C97.8063 20.7328 97.5397 21.225 97.2024 21.6443C96.8697 22.0682 96.4481 22.3941 95.9376 22.622C95.4272 22.8544 94.8119 22.9706 94.0917 22.9706ZM108.021 19.2378C106.941 19.2378 106.011 19.019 105.232 18.5815C104.457 18.1394 103.86 17.515 103.441 16.7083C103.022 15.897 102.812 14.9376 102.812 13.83C102.812 12.7498 103.022 11.8018 103.441 10.986C103.86 10.1701 104.45 9.53432 105.212 9.07854C105.977 8.62276 106.875 8.39487 107.905 8.39487C108.598 8.39487 109.243 8.50654 109.84 8.72987C110.442 8.94864 110.966 9.27908 111.412 9.72118C111.864 10.1633 112.215 10.7193 112.465 11.3893C112.716 12.0548 112.841 12.8341 112.841 13.7275V14.5274H103.974V12.7225H110.1C110.1 12.3032 110.009 11.9317 109.826 11.6081C109.644 11.2845 109.391 11.0315 109.067 10.8492C108.748 10.6624 108.377 10.5689 107.953 10.5689C107.511 10.5689 107.119 10.6715 106.777 10.8766C106.44 11.0771 106.176 11.3483 105.984 11.6901C105.793 12.0274 105.695 12.4034 105.69 12.8182V14.5342C105.69 15.0538 105.786 15.5027 105.977 15.881C106.173 16.2593 106.449 16.551 106.804 16.7561C107.16 16.9612 107.582 17.0638 108.069 17.0638C108.393 17.0638 108.689 17.0182 108.958 16.927C109.227 16.8359 109.457 16.6991 109.649 16.5168C109.84 16.3345 109.986 16.1112 110.086 15.8468L112.78 16.0246C112.643 16.6718 112.363 17.237 111.939 17.7201C111.52 18.1986 110.977 18.5724 110.312 18.8413C109.651 19.1056 108.887 19.2378 108.021 19.2378ZM114.742 19.0327V8.53161H117.565V10.3638H117.675C117.866 9.71207 118.188 9.21983 118.639 8.88711C119.09 8.54984 119.61 8.3812 120.198 8.3812C120.343 8.3812 120.501 8.39031 120.669 8.40855C120.838 8.42678 120.986 8.45184 121.114 8.48375V11.068C120.977 11.027 120.788 10.9905 120.546 10.9586C120.305 10.9267 120.084 10.9108 119.883 10.9108C119.455 10.9108 119.072 11.0042 118.734 11.1911C118.402 11.3734 118.137 11.6286 117.941 11.9568C117.75 12.2849 117.654 12.6632 117.654 13.0917V19.0327H114.742ZM123.118 19.2105C122.667 19.2105 122.28 19.0509 121.956 18.7319C121.637 18.4083 121.478 18.0209 121.478 17.5697C121.478 17.123 121.637 16.7402 121.956 16.4211C122.28 16.1021 122.667 15.9425 123.118 15.9425C123.556 15.9425 123.939 16.1021 124.267 16.4211C124.595 16.7402 124.759 17.123 124.759 17.5697C124.759 17.8705 124.682 18.1462 124.527 18.3969C124.376 18.643 124.178 18.8413 123.932 18.9917C123.686 19.1375 123.415 19.2105 123.118 19.2105ZM129.618 19.0327H126.446L131.28 5.03124H135.095L139.921 19.0327H136.749L133.242 8.23079H133.132L129.618 19.0327ZM129.42 13.5292H136.913V15.84H129.42V13.5292ZM144.567 5.03124V19.0327H141.607V5.03124H144.567Z" fill="black"/>
</svg>
