<svg width="68" height="53" viewBox="0 0 68 53" fill="none" xmlns="http://www.w3.org/2000/svg">
<path d="M58.5459 32.9668C59.1318 32.6285 59.4248 32.1851 59.4249 31.7418V35.4169C59.4249 35.8603 59.132 36.3038 58.5459 36.6422L30.9919 52.5504C29.8199 53.227 27.9199 53.227 26.7479 52.5504L26.7485 52.5503L2.12084 38.3316L2.12114 38.3316C1.53525 37.9933 1.24226 37.55 1.24219 37.1066V33.4312C1.24226 33.8746 1.53525 34.3179 2.12114 34.6562L2.12084 34.6562L26.7485 48.8749L26.7479 48.875C27.9199 49.5516 29.8199 49.5516 30.9919 48.875L58.5459 32.9668Z" fill="black"/>
<path d="M59.4249 31.7415V31.7418M59.4249 31.7418C59.4248 32.1851 59.1318 32.6285 58.5459 32.9668L30.9919 48.875C29.8199 49.5516 27.9199 49.5516 26.7479 48.875L26.7485 48.8749L2.12084 34.6562L2.12114 34.6562C1.53525 34.3179 1.24226 33.8746 1.24219 33.4312V37.1066C1.24226 37.55 1.53525 37.9933 2.12114 38.3316L2.12084 38.3316L26.7485 52.5503L26.7479 52.5504C27.9199 53.227 29.8199 53.227 30.9919 52.5504L58.5459 36.6422C59.132 36.3038 59.4249 35.8603 59.4249 35.4169V31.7418Z" stroke="black" stroke-width="0.490053" stroke-linejoin="round"/>
<path d="M58.5459 31.8264C59.1318 31.4881 59.4248 31.0448 59.4249 30.6014V34.2765C59.4249 34.7199 59.132 35.1634 58.5459 35.5018L30.9919 51.41C29.8199 52.0866 27.9199 52.0866 26.7479 51.41L26.7485 51.41L2.12084 37.1912L2.12114 37.1912C1.53525 36.8529 1.24226 36.4096 1.24219 35.9662V32.2908C1.24226 32.7342 1.53525 33.1775 2.12114 33.5158L2.12084 33.5158L26.7485 47.7346L26.7479 47.7346C27.9199 48.4112 29.8199 48.4112 30.9919 47.7346L58.5459 31.8264Z" fill="white"/>
<path d="M59.4249 30.6011V30.6014M59.4249 30.6014C59.4248 31.0448 59.1318 31.4881 58.5459 31.8264L30.9919 47.7346C29.8199 48.4112 27.9199 48.4112 26.7479 47.7346L26.7485 47.7346L2.12084 33.5158L2.12114 33.5158C1.53525 33.1775 1.24226 32.7342 1.24219 32.2908V35.9662C1.24226 36.4096 1.53525 36.8529 2.12114 37.1912L2.12084 37.1912L26.7485 51.41L26.7479 51.41C27.9199 52.0866 29.8199 52.0866 30.9919 51.41L58.5459 35.5018C59.132 35.1634 59.4249 34.7199 59.4249 34.2765V30.6014Z" stroke="black" stroke-width="0.490053" stroke-linejoin="round"/>
<path d="M29.697 15.191C30.8697 14.5139 32.7658 14.511 33.9321 15.1843L58.4413 29.3347C59.6076 30.0081 59.6024 31.1028 58.4298 31.7799L30.8589 47.6979C29.6863 48.3749 27.7901 48.3779 26.6238 47.7045L2.11464 33.5541C0.948336 32.8808 0.953493 31.7861 2.12616 31.109L29.697 15.191Z" fill="white" stroke="black" stroke-width="0.593643"/>
<rect y="0.245027" width="27.4418" height="13.7011" rx="1.22513" transform="matrix(0.866025 0.5 -0.866025 0.5 32.4856 16.5051)" fill="#CCFF00" stroke="black" stroke-width="0.490053"/>
<rect y="0.245027" width="8.06972" height="4.01509" rx="0.73508" transform="matrix(0.866025 0.5 -0.866025 0.5 19.013 24.2702)" fill="white" stroke="black" stroke-width="0.490053"/>
<rect y="0.245027" width="8.06972" height="9.64652" rx="0.73508" transform="matrix(0.866025 0.5 -0.866025 0.5 14.138 27.0859)" fill="#CCFF00" stroke="black" stroke-width="0.490053"/>
<rect y="0.245027" width="8.06972" height="4.01509" rx="0.73508" transform="matrix(0.866025 0.5 -0.866025 0.5 27.4036 29.1135)" fill="white" stroke="black" stroke-width="0.490053"/>
<rect y="0.245027" width="8.06972" height="4.01509" rx="0.73508" transform="matrix(0.866025 0.5 -0.866025 0.5 22.5247 31.9289)" fill="white" stroke="black" stroke-width="0.490053"/>
<rect y="0.245027" width="8.06972" height="4.01509" rx="0.73508" transform="matrix(0.866025 0.5 -0.866025 0.5 17.6497 34.7443)" fill="white" stroke="black" stroke-width="0.490053"/>
<rect y="0.245027" width="8.06972" height="4.01509" rx="0.73508" transform="matrix(0.866025 0.5 -0.866025 0.5 35.7903 33.956)" fill="black" stroke="black" stroke-width="0.490053"/>
<rect y="0.245027" width="8.06972" height="4.01509" rx="0.73508" transform="matrix(0.866025 0.5 -0.866025 0.5 30.9153 36.7719)" fill="white" stroke="black" stroke-width="0.490053"/>
<rect y="0.245027" width="8.06972" height="4.01509" rx="0.73508" transform="matrix(0.866025 0.5 -0.866025 0.5 26.0364 39.5874)" fill="white" stroke="black" stroke-width="0.490053"/>
<mask id="path-15-inside-1_11304_10975" fill="white">
<path d="M10.793 4.73096L16.5437 8.05112L10.793 11.3713L5.04228 8.05112L10.793 4.73096Z"/>
</mask>
<path d="M10.793 4.73096L16.5437 8.05112L10.793 11.3713L5.04228 8.05112L10.793 4.73096Z" fill="white"/>
<path d="M10.793 4.73096L11.3071 4.43414L10.793 4.13731L10.2789 4.43414L10.793 4.73096ZM10.793 4.73096L10.2789 5.02778L16.0295 8.34794L16.5437 8.05112L17.0578 7.75429L11.3071 4.43414L10.793 4.73096ZM5.04228 8.05112L5.55639 8.34794L11.3071 5.02778L10.793 4.73096L10.2789 4.43414L4.52817 7.75429L5.04228 8.05112Z" fill="black" mask="url(#path-15-inside-1_11304_10975)"/>
<rect width="6.64032" height="6.64032" transform="matrix(0.866025 0.5 0 1 5.04297 8.05078)" fill="black"/>
<path d="M16.2868 8.49609V14.543L11.0501 17.5664V11.5195L16.2868 8.49609Z" fill="white" stroke="black" stroke-width="0.593643"/>
<mask id="path-19-inside-2_11304_10975" fill="white">
<path d="M58.0664 39.4587L62.4075 41.965L58.0664 44.4713L53.7254 41.965L58.0664 39.4587Z"/>
</mask>
<path d="M58.0664 39.4587L62.4075 41.965L58.0664 44.4713L53.7254 41.965L58.0664 39.4587Z" fill="white"/>
<path d="M58.0664 39.4587L58.4545 39.2347L58.0664 39.0106L57.6783 39.2347L58.0664 39.4587ZM58.0664 39.4587L57.6783 39.6828L62.0194 42.1891L62.4075 41.965L62.7955 41.741L58.4545 39.2347L58.0664 39.4587ZM53.7254 41.965L54.1135 42.1891L58.4545 39.6828L58.0664 39.4587L57.6783 39.2347L53.3373 41.741L53.7254 41.965Z" fill="black" mask="url(#path-19-inside-2_11304_10975)"/>
<rect width="5.01261" height="5.01261" transform="matrix(0.866025 0.5 0 1 53.7227 41.9653)" fill="black"/>
<path d="M62.213 42.3013V46.8657L58.2601 49.1479V44.5835L62.213 42.3013Z" fill="white" stroke="black" stroke-width="0.448126"/>
<mask id="path-23-inside-3_11304_10975" fill="white">
<path d="M60.4414 0L67.0828 3.83441L60.4414 7.66881L53.8 3.83441L60.4414 0Z"/>
</mask>
<path d="M60.4414 0L67.0828 3.83441L60.4414 7.66881L53.8 3.83441L60.4414 0Z" fill="white"/>
<path d="M60.4414 0L60.8578 -0.240414L60.4414 -0.480827L60.025 -0.240414L60.4414 0ZM60.4414 0L60.025 0.240414L66.6664 4.07482L67.0828 3.83441L67.4992 3.59399L60.8578 -0.240414L60.4414 0ZM53.8 3.83441L54.2164 4.07482L60.8578 0.240414L60.4414 0L60.025 -0.240414L53.3836 3.59399L53.8 3.83441Z" fill="black" mask="url(#path-23-inside-3_11304_10975)"/>
<rect width="7.66881" height="7.66881" transform="matrix(0.866025 0.5 0 1 53.8008 3.83447)" fill="black"/>
<rect x="0.208204" y="0.120207" width="7.18799" height="7.18799" transform="matrix(0.866025 -0.5 0 1 60.4693 7.77256)" fill="white" stroke="black" stroke-width="0.480827"/>
<circle cx="8.91501" cy="8.91501" r="8.91501" transform="matrix(0.866025 0.5 0 1 29.9805 6.80859)" fill="#CCFF00" stroke="black" stroke-width="0.593643"/>
<circle cx="6.57275" cy="6.57275" r="6.57275" transform="matrix(0.866025 0.5 0 1 31.9727 10.5554)" fill="black"/>
<path d="M37.5975 11.3595C35.6013 10.218 33.6051 9.94745 32.082 10.8184L35.9821 8.58824C37.5051 7.71732 39.5014 7.98788 41.4976 9.12937C45.8055 11.5927 49.2977 17.5835 49.2977 22.5102C49.2977 24.7931 48.5362 26.6407 47.0131 27.5116L43.113 29.7417C44.6361 28.8708 45.3976 27.0233 45.3976 24.7403C45.3976 19.8136 41.9054 13.8228 37.5975 11.3595Z" fill="white" stroke="black" stroke-width="0.593643"/>
<path d="M35.8588 19.9151C35.6829 19.8136 35.5201 19.6862 35.3702 19.5327C35.2224 19.3805 35.0945 19.2132 34.9866 19.0309C34.8787 18.8463 34.7948 18.6514 34.7349 18.446C34.6749 18.2384 34.6449 18.0284 34.6449 17.8162C34.6449 17.6062 34.6749 17.432 34.7349 17.2936C34.7948 17.1552 34.8787 17.0571 34.9866 16.9994C35.0945 16.9395 35.2224 16.9187 35.3702 16.9371C35.5201 16.9568 35.6829 17.0173 35.8588 17.1188C36.0346 17.2204 36.1965 17.3472 36.3443 17.4995C36.4942 17.6529 36.623 17.822 36.7309 18.0065C36.8388 18.1888 36.9228 18.3838 36.9827 18.5914C37.0426 18.799 37.0726 19.0078 37.0726 19.2178C37.0726 19.4301 37.0426 19.6054 36.9827 19.7438C36.9228 19.88 36.8388 19.978 36.7309 20.038C36.623 20.0957 36.4942 20.1147 36.3443 20.0951C36.1965 20.0767 36.0346 20.0167 35.8588 19.9151ZM38.9518 18.9704L39.8719 19.5016L36.1105 22.7772L35.1904 22.246L38.9518 18.9704ZM35.8588 19.2091C35.9347 19.253 36.0056 19.2778 36.0716 19.2836C36.1395 19.2882 36.1985 19.2749 36.2484 19.2438C36.2984 19.2103 36.3373 19.159 36.3653 19.0898C36.3953 19.0217 36.4103 18.9369 36.4103 18.8354C36.4103 18.7339 36.3953 18.6318 36.3653 18.5291C36.3373 18.4276 36.2984 18.3324 36.2484 18.2436C36.1985 18.1525 36.1395 18.0711 36.0716 17.9996C36.0056 17.9269 35.9347 17.8687 35.8588 17.8248C35.7829 17.781 35.7109 17.7568 35.643 17.7522C35.577 17.7464 35.5191 17.7602 35.4692 17.7937C35.4192 17.8248 35.3792 17.8744 35.3493 17.9425C35.3213 18.0117 35.3073 18.0971 35.3073 18.1986C35.3073 18.3001 35.3213 18.4016 35.3493 18.5031C35.3792 18.6058 35.4192 18.7027 35.4692 18.7939C35.5191 18.8827 35.577 18.9634 35.643 19.0361C35.7109 19.1076 35.7829 19.1653 35.8588 19.2091ZM37.9598 22.5194C37.9598 22.3094 37.9897 22.1352 38.0497 21.9968C38.1096 21.8584 38.1935 21.7603 38.3014 21.7026C38.4093 21.6427 38.5372 21.6219 38.6851 21.6404C38.8349 21.66 38.9978 21.7205 39.1736 21.822C39.3494 21.9236 39.5113 22.0505 39.6591 22.2027C39.809 22.3562 39.9379 22.5252 40.0458 22.7097C40.1537 22.892 40.2376 23.087 40.2975 23.2946C40.3575 23.5023 40.3874 23.7111 40.3874 23.921C40.3874 24.1333 40.3575 24.3086 40.2975 24.447C40.2376 24.5832 40.1537 24.6812 40.0458 24.7412C39.9379 24.7989 39.809 24.8179 39.6591 24.7983C39.5113 24.7799 39.3494 24.7199 39.1736 24.6184C38.9978 24.5168 38.8349 24.3894 38.6851 24.2359C38.5372 24.0837 38.4093 23.9164 38.3014 23.7341C38.1935 23.5496 38.1096 23.3546 38.0497 23.1493C37.9897 22.9416 37.9598 22.7317 37.9598 22.5194ZM38.6221 22.9018C38.6221 23.0033 38.6361 23.1048 38.6641 23.2064C38.6941 23.309 38.734 23.4059 38.784 23.4971C38.8339 23.5859 38.8919 23.6666 38.9578 23.7393C39.0257 23.8108 39.0977 23.8685 39.1736 23.9124C39.2495 23.9562 39.3205 23.981 39.3864 23.9868C39.4543 23.9914 39.5133 23.9781 39.5632 23.947C39.6132 23.9135 39.6521 23.8622 39.6801 23.793C39.7101 23.7249 39.7251 23.6401 39.7251 23.5386C39.7251 23.4371 39.7101 23.335 39.6801 23.2323C39.6521 23.1308 39.6132 23.0356 39.5632 22.9468C39.5133 22.8557 39.4543 22.7743 39.3864 22.7028C39.3205 22.6301 39.2495 22.5719 39.1736 22.528C39.0977 22.4842 39.0257 22.46 38.9578 22.4554C38.8919 22.4496 38.8339 22.4634 38.784 22.4969C38.734 22.528 38.6941 22.5776 38.6641 22.6457C38.6361 22.7149 38.6221 22.8003 38.6221 22.9018Z" fill="white"/>
</svg>
