<svg width="5" height="7" viewBox="0 0 5 7" fill="none" xmlns="http://www.w3.org/2000/svg">
<path d="M2.68498 3.11974H1.67548V6.19898C1.67548 6.24598 1.68636 6.29252 1.70749 6.33594C1.72862 6.37937 1.75959 6.41882 1.79863 6.45205C1.83768 6.48529 1.88403 6.51165 1.93504 6.52963C1.98605 6.54762 2.04072 6.55688 2.09594 6.55688H2.26452C2.31974 6.55688 2.37441 6.54762 2.42542 6.52963C2.47644 6.51165 2.52279 6.48529 2.56183 6.45205C2.60087 6.41882 2.63184 6.37937 2.65297 6.33594C2.6741 6.29252 2.68498 6.24598 2.68498 6.19898V3.11974Z" fill="#E9FF93"/>
<path d="M4.30824 2.57409L2.56687 0.170238C2.52946 0.118535 2.47722 0.0757821 2.41506 0.0460021C2.3529 0.016222 2.28285 0.000393996 2.21152 7.26127e-06C2.14019 -0.000379474 2.06992 0.0146878 2.00731 0.0437914C1.94471 0.072895 1.89183 0.115078 1.85366 0.166371L0.0653429 2.57022C0.0250258 2.62436 0.00252828 2.68672 0.000200917 2.75078C-0.00212645 2.81485 0.0158017 2.87827 0.0521124 2.93442C0.0884231 2.99057 0.141784 3.03739 0.206619 3.06999C0.271454 3.10259 0.345384 3.11977 0.420684 3.11974H3.95038C4.02524 3.1198 4.09876 3.10285 4.16336 3.07063C4.22795 3.03842 4.28126 2.99211 4.31779 2.93649C4.35432 2.88086 4.37275 2.81795 4.37116 2.75424C4.36957 2.69053 4.34802 2.62834 4.30875 2.57409H4.30824Z" fill="#E9FF93"/>
</svg>
