<svg width="28" height="28" viewBox="0 0 28 28" fill="none" xmlns="http://www.w3.org/2000/svg">
<rect width="28" height="28" rx="14" fill="black"/>
<path d="M8.04297 7.34375H16.7461C17.1059 7.34394 17.3974 7.63524 17.3975 7.99512V16.5127C17.3975 17.7241 17.6983 18.9129 18.2666 19.9746H8.56445C7.91649 19.9745 7.39168 19.4488 7.3916 18.8008V7.99512C7.39168 7.63517 7.68302 7.34383 8.04297 7.34375Z" fill="#CCFF00" stroke="black" stroke-width="0.782335"/>
<path d="M20.6094 13.7593V18.3247C20.6094 19.236 19.8702 19.9751 18.959 19.9751C18.0478 19.975 17.3096 19.2359 17.3096 18.3247V13.7593H20.6094Z" fill="#D9D9D9" stroke="black" stroke-width="0.782335"/>
<path d="M9.625 11.6183C9.625 11.2963 9.8861 11.0352 10.2082 11.0352H14.582C14.9041 11.0352 15.1652 11.2963 15.1652 11.6183C15.1652 11.9404 14.9041 12.2015 14.582 12.2015H10.2082C9.8861 12.2015 9.625 11.9404 9.625 11.6183Z" fill="black"/>
<path d="M9.625 14.3886C9.625 14.147 9.82082 13.9512 10.0624 13.9512H14.7278C14.9694 13.9512 15.1652 14.147 15.1652 14.3886C15.1652 14.6301 14.9694 14.8259 14.7278 14.8259H10.0624C9.82082 14.8259 9.625 14.6301 9.625 14.3886Z" fill="black"/>
<path d="M9.625 16.1376C9.625 15.896 9.82082 15.7002 10.0624 15.7002H14.7278C14.9694 15.7002 15.1652 15.896 15.1652 16.1376C15.1652 16.3791 14.9694 16.575 14.7278 16.575H10.0624C9.82082 16.575 9.625 16.3791 9.625 16.1376Z" fill="black"/>
</svg>
