<svg width="25" height="26" viewBox="0 0 25 26" fill="none" xmlns="http://www.w3.org/2000/svg">
<path d="M0 12.5C0 5.59644 5.59644 0 12.5 0C19.4036 0 25 5.59644 25 12.5V13.5C25 20.4036 19.4036 26 12.5 26C5.59644 26 0 20.4036 0 13.5V12.5Z" fill="#CCFF00"/>
<g clip-path="url(#clip0_10374_10997)">
<path d="M8.21582 10.7422V17.2979H14.7715V10.7422H8.21582Z" fill="white" stroke="black" stroke-width="1.2"/>
<path d="M10.1729 8.45703V15.0127H16.7285V8.45703H10.1729Z" fill="white" stroke="black" stroke-width="1.2"/>
<path d="M11.5 10.5C11.5 10.2239 11.6628 10 11.8636 10L15.1364 10C15.3372 10 15.5 10.2239 15.5 10.5C15.5 10.7761 15.3372 11 15.1364 11L11.8636 11C11.6628 11 11.5 10.7761 11.5 10.5Z" fill="black"/>
<path d="M11.5 12.5C11.5 12.2239 11.6628 12 11.8636 12L15.1364 12C15.3372 12 15.5 12.2239 15.5 12.5C15.5 12.7761 15.3372 13 15.1364 13L11.8636 13C11.6628 13 11.5 12.7761 11.5 12.5Z" fill="black"/>
</g>
<defs>
<clipPath id="clip0_10374_10997">
<rect width="10.2857" height="10.2857" fill="white" transform="translate(7.35547 7.85693)"/>
</clipPath>
</defs>
</svg>
